<svg width="73" height="67" viewBox="0 0 73 67" fill="none" xmlns="http://www.w3.org/2000/svg">
<g clip-path="url(#clip0_19926_149778)">
<path d="M20.7529 1.74585C16.2903 -0.484901 10.801 -0.0969446 6.23977 1.92043C4.75884 2.57995 3.3174 3.41406 2.34986 4.67491C1.69825 5.52842 1.26384 6.51771 0.947909 7.52639C-0.0591238 10.5912 -0.276327 13.8889 0.355537 17.0507C0.730706 18.9129 1.36257 20.6975 2.1524 22.4239C3.29765 24.965 4.73909 27.3703 6.43722 29.5817C7.66146 31.1917 9.04366 32.6853 10.4061 34.1984C11.4526 35.3428 12.4992 36.4679 13.6642 37.496C17.2184 40.6384 21.6809 42.617 26.0447 44.5374C26.9728 44.9447 27.9403 45.3715 28.9671 45.3909C29.7569 45.4103 30.527 45.2163 31.2576 44.9641C34.3774 43.8973 37.1418 41.8411 39.0374 39.1836C39.4718 38.5823 39.8668 37.9421 40.3802 37.399C40.9923 36.7589 41.7624 36.2933 42.4535 35.7114C43.3223 34.9937 44.0134 34.1014 44.7242 33.2285C45.8497 31.8124 46.9555 30.4158 48.081 28.9998C48.8313 28.0493 49.5817 27.0988 50.1345 26.0513C50.7269 24.9068 51.0823 23.646 51.418 22.4045C52.3066 19.1457 53.2149 15.8868 53.59 12.5504C53.669 11.8715 53.7283 11.1926 53.59 10.5137C53.4123 9.44677 52.8002 8.49628 52.2079 7.60398C51.1416 5.95517 50.0161 4.26756 48.3772 3.18128C47.5873 2.65754 46.7185 2.28898 45.8497 1.95922C42.2362 0.523785 38.2081 -0.620685 34.4762 0.465591C31.2576 1.39669 28.6117 4.03479 27.7034 7.21603C27.0715 9.44677 25.788 6.01336 25.2154 5.31504C24.0109 3.86021 22.4905 2.63815 20.7726 1.78464L20.7529 1.74585Z" fill="#F8C13F"/>
<path d="M62.0413 66.9806C59.8298 65.3318 57.6577 61.3746 55.308 59.9392C52.7213 58.3486 51.2799 56.564 48.5155 55.3225C47.8639 55.0315 47.1925 54.7406 46.5014 54.6242C45.7313 54.4884 44.9612 54.566 44.1911 54.6242C41.0516 54.8182 38.0305 53.8095 34.9304 54.178C31.4157 54.6048 27.9207 53.5573 24.5441 52.5486C24.2677 52.471 24.011 52.3934 23.7346 52.2964C21.1874 51.5205 18.5809 50.7252 16.4286 49.1734C15.0662 48.1841 13.9407 46.9232 12.8152 45.6624C9.97178 42.4812 7.10865 39.2029 5.46975 35.2846C5.17356 34.5862 4.91687 33.8297 4.93662 33.0732C4.95636 32.3167 5.29204 31.5214 5.94365 31.114C6.99017 30.4739 8.35263 31.0171 9.39915 31.6572C11.2158 32.7823 12.8349 34.2371 14.1381 35.9247C15.5006 37.6705 16.6063 39.7655 18.5612 40.8323C19.272 41.2203 20.0619 41.4531 20.8319 41.6858C20.8319 40.6384 20.6542 39.6103 21.0886 38.6404C21.7995 37.011 23.7346 36.2351 25.5314 36.1769C27.3283 36.1187 29.0857 36.623 30.8825 36.7976C35.4635 37.2243 40.084 35.5173 44.6256 36.1381C47.0345 36.4678 49.3448 37.4571 51.2404 38.9701C54.1035 41.2785 56.8087 43.5286 59.9877 45.3908C63.9369 47.7186 69.1695 48.6497 73.0594 51.5593C72.0721 53.4215 70.4135 55.4777 69.0313 57.1071C67.5109 58.9111 65.872 60.5599 64.5688 62.4609C64.0356 63.2368 63.6604 64.0321 63.2458 64.8274C63.2853 64.7498 62.0808 67.097 62.1005 67L62.0413 66.9806Z" fill="#906A55"/>
<path d="M27.5059 45.2745C26.1434 45.2745 25.0179 45.0999 23.9911 44.7313C22.372 44.1494 21.1083 43.0631 20.4764 41.7247C20.3184 41.3949 20.4764 40.9876 20.8121 40.8518C21.1675 40.6966 21.5624 40.8518 21.7006 41.1815C22.1745 42.1902 23.1618 43.0243 24.4453 43.4899C25.5116 43.8778 26.7753 44.0136 28.3549 43.9166C29.7766 43.839 30.9811 43.6257 32.0276 43.2377C33.0544 42.8691 34.0417 42.2872 35.0093 41.7247C35.3252 41.5307 35.7398 41.6471 35.9373 41.9574C36.1348 42.2678 36.0163 42.6752 35.7004 42.8691C34.6933 43.4705 33.6468 44.0718 32.5015 44.4986C31.3365 44.9253 29.9938 45.1775 28.4339 45.2551C28.0982 45.2551 27.8021 45.2745 27.4861 45.2745H27.5059Z" fill="black"/>
</g>
<defs>
<clipPath id="clip0_19926_149778">
<rect width="73" height="67" fill="white"/>
</clipPath>
</defs>
</svg>
