<svg width="53" height="67" viewBox="0 0 53 67" fill="none" xmlns="http://www.w3.org/2000/svg">
<g clip-path="url(#clip0_19926_149805)">
<path d="M2.43833 17.5137L14.2201 58.1187C14.7718 59.9838 16.7295 61.0673 18.616 60.4989L48.1949 51.5288C50.028 50.9782 51.078 49.0421 50.5441 47.1948L38.3708 5.43524C37.8013 3.51689 35.7546 2.45115 33.8503 3.10836L4.66297 13.233C2.90105 13.8369 1.92221 15.7197 2.43833 17.5137Z" fill="#9B3A18"/>
<path d="M6.86982 19.0591L17.5659 52.4703C18.0642 54.0157 19.7016 54.9393 21.1965 54.5308L45.0804 48.012C46.5575 47.6034 47.3584 46.0581 46.8779 44.5483L35.8258 10.1602C35.3097 8.5793 33.6012 7.65565 32.0884 8.13524L8.56055 15.631C7.13678 16.0751 6.3893 17.5849 6.86982 19.0591Z" fill="white"/>
<path d="M8.75635 7.51344L10.5539 13.677L27.9595 7.65554L26.5891 2.07812L8.75635 7.51344Z" fill="#9B3A18"/>
<path d="M13.5793 8.15297C13.1521 8.15297 12.7784 7.85101 12.6894 7.42471L11.7996 2.87752L20.3066 0L21.677 4.90244C21.8194 5.38203 21.5346 5.87937 21.0363 6.02147C20.5558 6.16357 20.0397 5.87937 19.9151 5.38203L19.0608 2.32688L13.864 4.0676L14.4513 7.03393C14.5403 7.53128 14.22 8.01087 13.7395 8.09968C13.6861 8.09968 13.6149 8.09968 13.5615 8.09968L13.5793 8.15297Z" fill="black"/>
<path d="M18.5625 59.6286C17.7261 59.6286 16.943 59.3799 16.2489 59.1667C16.0175 59.0957 15.7684 59.0246 15.537 58.9536C15.3235 58.9003 15.0921 58.847 14.8607 58.7937C14.4158 58.6872 13.9531 58.5806 13.4903 58.4207C12.4759 58.0477 11.6038 57.4083 10.8742 56.8221C9.53937 55.7741 8.24018 54.6551 7.01217 53.465C6.37147 52.8611 5.71298 52.1861 5.14347 51.4046C4.2892 50.2322 3.7019 48.9356 3.15018 47.6744L2.15354 45.4364C1.54844 44.0509 0.907739 42.6121 0.462809 41.1023C0.213649 40.2675 -0.0711063 39.1485 0.0178796 37.9584C0.0890683 36.9281 0.445012 36.0045 1.01452 35.3295C1.72641 34.4769 2.81204 34.0151 3.82648 34.1394C4.3248 34.1927 4.68074 34.6368 4.62735 35.1341C4.57396 35.6315 4.12903 35.9867 3.63071 35.9334C3.20357 35.8979 2.72305 36.1111 2.4027 36.5018C2.08235 36.8926 1.86879 37.4433 1.83319 38.0827C1.762 38.9708 2.01116 39.8767 2.20693 40.5694C2.63406 41.9727 3.23917 43.3582 3.82648 44.6903L4.82312 46.9284C5.33924 48.1007 5.87315 49.3086 6.62063 50.3033C7.10116 50.9605 7.70626 51.5644 8.27577 52.1328C9.45039 53.2696 10.6962 54.3531 11.9954 55.3478C12.6539 55.8629 13.3658 56.378 14.131 56.6622C14.487 56.7866 14.8607 56.8754 15.2701 56.982C15.5192 57.0353 15.7684 57.0885 15.9997 57.1596C16.2667 57.2306 16.5159 57.3195 16.7828 57.3905C17.5125 57.6214 18.2244 57.8346 18.8473 57.7457C19.8795 57.6036 20.7338 56.6622 21.5881 55.6143C22.0686 55.0281 22.5135 54.4775 22.8695 53.8735C23.3322 53.1097 23.6703 52.2216 23.9907 51.3513L24.9695 48.7402C25.0941 48.4027 25.2187 48.0652 25.2721 47.7455C25.3433 47.3192 25.2721 46.8574 25.2187 46.36C24.4178 40.7471 22.3355 35.3118 19.1854 30.6047L16.3379 31.8126C15.8752 32.0079 15.3413 31.7948 15.1455 31.333C14.9497 30.8711 15.1633 30.3383 15.626 30.1429L19.8439 28.3489L20.2711 28.9528C23.8305 34.0329 26.1619 39.9655 27.034 46.1113C27.123 46.7153 27.1942 47.3547 27.0874 48.0297C27.0162 48.527 26.8382 48.9889 26.6959 49.3796L25.717 51.9907C25.3611 52.9321 25.0051 53.8913 24.4534 54.8149C24.0263 55.5254 23.5102 56.1649 23.0118 56.7688C21.9618 58.0477 20.805 59.3266 19.1143 59.5575C18.9363 59.5753 18.7405 59.593 18.5625 59.593V59.6286Z" fill="black"/>
<path d="M30.0596 66.9999C29.2587 66.9999 28.4044 66.8401 27.4612 66.5203C23.617 65.2059 20.6093 61.9554 19.577 58.0299C19.4524 57.5503 19.7372 57.0529 20.2355 56.9286C20.716 56.8043 21.2144 57.0885 21.3389 57.5858C22.1932 60.8719 24.8272 63.7139 28.0485 64.8151C29.1163 65.1882 30.024 65.277 30.807 65.1171C31.6613 64.9395 32.3732 64.4066 32.6224 63.7494C32.9427 62.9323 32.6223 61.9199 32.302 60.8719C32.2308 60.6765 32.1774 60.4633 32.124 60.268C31.252 57.2128 31.3943 53.8912 32.5334 50.9249L32.7291 50.4275L33.2631 50.3565C36.0216 49.9835 39.1717 49.8591 41.3964 51.7597C42.1082 52.3637 42.6244 53.0742 43.1227 53.7847C43.6388 54.4952 44.1193 55.1701 44.7244 55.6142C45.1338 55.9161 45.2228 56.4845 44.9202 56.8931C44.6176 57.3016 44.0481 57.3904 43.6388 57.0885C42.7845 56.4668 42.1972 55.632 41.6277 54.8326C41.165 54.1932 40.7379 53.5893 40.2039 53.1452C38.6378 51.813 36.253 51.8308 34.0461 52.0972C33.2097 54.5662 33.1385 57.2661 33.8682 59.7706C33.9215 59.966 33.9749 60.1614 34.0461 60.339C34.4199 61.5824 34.8648 63.0034 34.3309 64.4066C33.8504 65.65 32.6401 66.6269 31.1808 66.9111C30.8248 66.9822 30.4511 67.0177 30.0596 67.0177V66.9999Z" fill="black"/>
<path d="M47.2517 65.2592C44.0838 65.2592 41.5032 62.6837 41.5032 59.5219C41.5032 56.3602 44.0838 53.7847 47.2517 53.7847C50.4196 53.7847 53.0002 56.3602 53.0002 59.5219C53.0002 62.6837 50.4196 65.2592 47.2517 65.2592ZM47.2517 55.6142C45.0982 55.6142 43.3363 57.3727 43.3363 59.5219C43.3363 61.6712 45.0982 63.4297 47.2517 63.4297C49.4051 63.4297 51.167 61.6712 51.167 59.5219C51.167 57.3727 49.4051 55.6142 47.2517 55.6142Z" fill="black"/>
</g>
<defs>
<clipPath id="clip0_19926_149805">
<rect width="53" height="67" fill="white"/>
</clipPath>
</defs>
</svg>
