<svg width="513" height="609" viewBox="0 0 513 609" fill="none" xmlns="http://www.w3.org/2000/svg">
<g clip-path="url(#clip0_11272_5517)">
<mask id="mask0_11272_5517" style="mask-type:luminance" maskUnits="userSpaceOnUse" x="0" y="0" width="513" height="610">
<path d="M513 580.059V93.2075C513 78.729 502.657 66.4697 488.796 64.526L31.7316 0.275726C14.9478 -2.09654 0 11.4177 0 28.9419V544.352C0 559.489 11.2759 572.069 25.8718 573.217L482.921 608.924C499.154 610.194 513 596.909 513 580.059Z" fill="white"/>
</mask>
<g mask="url(#mask0_11272_5517)">
<path d="M513 580.059V93.2075C513 78.729 502.657 66.4697 488.796 64.526L31.7316 0.275726C14.9478 -2.09654 0 11.4177 0 28.9419V544.352C0 559.489 11.2759 572.069 25.8718 573.217L482.921 608.924C499.154 610.194 513 596.909 513 580.059Z" fill="#5AC57A"/>
<g opacity="0.3">
<path d="M361.106 209.388H138.602V431.968H361.106V209.388Z" fill="#204F31"/>
</g>
<g opacity="0.3">
<path d="M639.133 126.389H416.629V500.335H639.133V126.389Z" fill="#204F31"/>
</g>
<g opacity="0.3">
<path d="M92.1212 126.389H-130.383V500.335H92.1212V126.389Z" fill="#204F31"/>
</g>
<path d="M134.884 631.147C145.318 610.148 155.844 588.89 160.97 566.009C162.699 558.28 163.815 550.321 167.12 543.128C170.746 535.231 177.065 527.716 176.055 519.084C175.443 513.895 172.246 509.457 169.935 504.789C167.64 500.167 166.172 495.193 164.703 490.249C160.587 476.337 156.456 462.425 152.341 448.513C149.633 439.36 146.802 429.994 141.019 422.402C138.754 419.448 136.092 416.816 133.43 414.214C130.049 410.893 126.683 407.587 123.302 404.266C120.854 394.532 124.158 383.574 131.579 376.824C136.306 372.523 142.335 369.998 147.644 366.447C156.854 360.325 163.739 351.341 171.802 343.765C179.865 336.189 190.146 329.685 201.177 330.542C203.564 325.644 209.944 323.119 215.039 325.063C223.316 328.216 233.506 324.848 242.364 324.772C248.132 324.726 253.946 324.665 259.653 325.522C263.876 326.149 268.007 327.282 272.137 328.399C286.733 332.379 301.865 336.633 313.34 346.49C317.226 349.826 320.668 353.805 325.166 356.285C328.685 358.229 332.832 359.269 335.555 362.208C336.917 363.692 337.804 365.544 338.676 367.366C341.552 373.426 344.429 379.487 347.305 385.548C348.896 388.9 350.564 392.343 353.348 394.777C352.232 402.353 355.169 409.913 355.552 417.551C355.781 421.943 355.154 426.336 355.429 430.728C355.888 438.029 358.78 444.901 360.922 451.895C365.083 465.547 366.399 479.872 367.684 494.091C379.985 498.024 389.9 507.819 395.897 519.267C385.692 528.726 375.87 538.598 366.46 548.867C363.768 551.806 361.06 554.836 359.239 558.387C357.525 561.708 356.638 565.397 355.796 569.039C352.14 585.155 349.478 601.486 347.825 617.923C347.642 619.806 347.443 621.75 346.448 623.357C345.408 625.04 343.633 626.096 341.889 627.045C321.311 638.156 297.091 640.36 273.729 639.794C250.351 639.228 226.988 636.121 203.656 637.529C186.719 638.554 169.66 641.922 152.953 638.998C145.073 637.621 141.218 636.044 134.914 631.116L134.884 631.147Z" fill="white"/>
<path d="M122.63 403.103C116.969 407.296 111.645 411.933 106.718 416.954C96.8196 427.07 88.6036 438.702 80.4489 450.272C78.8424 452.538 77.2359 454.818 76.0272 457.313C74.6502 460.129 73.7935 463.175 73.0591 466.22C72.0646 470.368 71.2843 474.561 70.7641 478.786C68.714 495.284 70.6264 512.242 76.2873 527.869C77.1441 530.241 78.1233 532.628 79.7757 534.511C81.6422 536.638 84.2432 537.985 86.7676 539.271C90.6079 541.23 94.4634 543.189 98.5484 544.582C116.357 550.673 137.7 544.367 149.344 529.567C150.904 527.578 152.312 525.45 153.23 523.093C154.637 519.497 154.836 515.579 155.372 511.768C156.55 503.274 159.38 495.009 163.679 487.586V433.835L122.661 403.103H122.63Z" fill="white"/>
<path d="M178.658 244.513C173.517 240.794 170.732 234.044 171.757 227.769C172.094 225.672 172.844 223.606 172.767 221.479C172.706 219.596 172.033 217.775 172.125 215.892C172.216 214.01 173.517 211.944 175.399 212.02C175.123 205.959 177.403 199.807 181.58 195.414C182.299 194.664 183.064 193.945 183.599 193.057C185.007 190.731 184.517 187.762 183.982 185.099C183.752 183.966 184.273 182.405 184.961 181.472C187.807 180.461 189.796 179.788 192.642 178.778C192.84 178.717 193.039 178.64 193.177 178.487C193.437 178.196 193.376 177.768 193.33 177.385C193.101 174.875 194.753 172.595 196.451 170.727C198.807 168.141 201.485 165.769 204.621 164.223C207.758 162.677 211.414 161.988 214.826 162.815C214.964 162.126 215.392 161.774 215.805 161.208C218.666 157.244 222.354 153.785 226.791 151.719C231.227 149.653 236.445 149.086 241.065 150.663C242.932 151.305 244.783 152.3 246.757 152.132C247.46 152.071 248.149 151.856 248.837 151.673C254.452 150.158 260.557 150.433 266.004 152.484C267.58 153.081 269.11 153.815 270.624 154.55C272.185 155.3 273.745 156.05 275.306 156.815C277.922 158.086 280.63 159.402 282.527 161.621C286.368 160.795 290.606 162.141 293.268 165.034C295.456 167.406 296.573 170.636 298.822 172.977C300.52 174.753 302.8 175.916 304.376 177.798C307.481 181.502 307.298 187.134 310.312 190.915C312.087 193.134 314.948 194.741 315.468 197.526C315.911 199.868 314.489 202.103 313.494 204.276C313.265 204.796 313.035 205.363 313.127 205.929C313.234 206.618 313.739 207.153 314.198 207.674C318.589 212.602 320.012 219.994 317.763 226.208C316.187 230.57 320.731 235.131 319.767 239.676C318.971 243.35 315.483 245.706 312.27 247.666C310.71 248.63 309.134 249.579 307.573 250.543C307.787 250.283 307.986 250.007 308.2 249.747C291.738 251.308 274.878 247.482 258.476 245.293C246.237 243.656 233.813 243.747 221.573 242.095C219.584 241.834 217.595 241.513 215.591 241.635C213.541 241.758 211.537 242.339 209.517 242.753C200.72 244.497 191.571 242.722 182.666 243.839C183.217 244.222 183.768 244.589 184.319 244.972C182.146 244.13 179.973 243.273 177.801 242.431C177.648 243.105 178.153 244.069 178.642 244.559L178.658 244.513Z" fill="black"/>
<path d="M165.685 280.739C163.099 287.856 162.64 295.57 162.808 303.146C162.931 308.855 163.451 314.716 165.883 319.89C168.316 325.063 172.998 329.486 178.674 330.205C182.407 330.68 186.293 329.547 189.919 330.542C196.911 332.47 200.185 341.408 207.193 343.291C209.258 343.842 211.431 343.704 213.542 343.934C217.994 344.408 222.125 346.459 226.47 347.546C231.229 348.739 236.201 348.739 241.112 348.739C247.324 348.739 253.536 348.739 259.717 348.204C279.239 346.535 298.272 339.48 314.169 328.032C315.469 327.098 316.785 326.103 317.703 324.772C318.866 323.088 319.309 321.007 319.937 319.063C321.711 313.538 325.169 308.732 328.703 304.125C330.233 302.12 331.855 299.993 332.161 297.498C332.421 295.463 331.763 293.427 331.136 291.468C328.52 283.249 326.255 274.924 324.328 266.521C318.177 266.506 312.21 264.149 306.06 264.164C300.674 264.179 295.304 266.093 291.112 269.506C285.007 266.108 277.51 265.297 270.824 267.302C269.738 267.623 268.835 269.46 269.968 269.444C261.4 268.985 252.847 268.541 244.279 268.082C243.3 268.036 242.229 268.006 241.464 268.603C240.699 269.199 240.623 270.684 241.541 271.005C234.901 269.98 228.245 268.97 221.605 267.944C219.586 267.638 217.566 267.317 215.546 267.011C211.982 266.46 208.401 265.909 204.806 265.817C202.358 265.756 199.91 265.894 197.462 265.955C191.587 266.108 183.05 263.537 177.557 265.48C171.866 267.501 167.628 275.49 165.73 280.739H165.685Z" fill="black"/>
<path d="M271.726 346.428C259.272 350.56 246.833 354.172 233.706 354.54C230.203 354.632 226.668 354.601 223.226 353.989C217.075 352.902 207.467 343.566 207.773 343.428C208.079 343.291 208.232 342.923 208.339 342.602C213.449 327.358 214.566 315.788 213.557 299.733C208.875 293.917 202.724 289.096 199.68 282.285C199.037 280.831 198.532 279.316 198.043 277.816C197.568 276.347 196.895 274.556 196.91 273.01C197.048 262.174 197.844 249.854 198.027 239.002C198.088 235.161 197.89 231.273 198.762 227.524C199.389 224.799 200.582 222.106 200.276 219.336C206.549 208.209 214.199 197.618 223.884 189.277C226.393 187.119 229.04 185.052 232.115 183.859C235.558 182.527 239.337 182.374 243.039 182.252C251.316 181.961 259.884 181.716 267.519 184.915C276.974 188.879 283.691 197.725 287.408 207.275C291.111 216.826 292.197 227.172 293.253 237.365C293.329 238.115 292.564 239.217 292.167 238.559C292.717 241.788 292.09 244.987 291.631 248.247C290.973 252.93 290.3 257.629 289.52 262.297C288.464 268.572 287.179 274.816 285.787 281.03C285.052 284.259 284.257 287.565 282.375 290.289C281.243 291.927 279.743 293.289 278.244 294.605C274.189 298.202 270.028 301.676 265.759 305.043C265.04 305.61 264.076 305.931 263.235 306.314C264.367 308.579 263.449 311.273 262.806 313.721C261.644 318.144 264.229 323.409 262.47 327.282C262.057 328.2 262.975 329.225 263.265 330.189C263.877 332.24 264.474 334.276 265.086 336.327C265.285 337.016 265.499 337.704 265.82 338.347C266.188 339.066 266.708 339.694 267.197 340.321C268.834 342.464 270.762 343.933 271.741 346.459L271.726 346.428Z" fill="#986A55"/>
<path d="M291.802 248.232C294.388 247.237 297.05 246.227 299.819 246.273C302.588 246.319 305.526 247.681 306.597 250.252C307.025 251.278 307.133 252.395 307.133 253.497C307.133 255.456 306.826 257.4 306.521 259.328C306.215 261.257 305.893 263.216 304.96 264.914C304.134 266.399 302.894 267.608 301.655 268.771C299.513 270.807 297.356 272.873 294.816 274.388C292.276 275.903 289.293 276.837 286.355 276.424L291.787 248.232H291.802Z" fill="#986A55"/>
<path d="M293.242 258.394C292.829 258.394 292.416 258.226 292.11 257.905C291.544 257.277 291.574 256.313 292.202 255.747C294.619 253.527 297.878 252.181 301.152 252.043C303.095 251.966 304.472 252.808 304.809 254.232C305.008 255.058 304.503 255.884 303.676 256.068C302.927 256.252 302.192 255.839 301.902 255.165C301.779 255.135 301.565 255.089 301.274 255.104C298.719 255.211 296.164 256.252 294.282 257.997C293.992 258.272 293.609 258.394 293.242 258.394Z" fill="black"/>
<path d="M199.879 242.921C197.293 241.926 191.586 242.875 188.817 242.921C186.048 242.967 183.11 244.329 182.039 246.901C181.611 247.926 181.504 249.043 181.504 250.145C181.504 252.104 181.81 254.048 182.116 255.976C182.422 257.905 182.743 259.864 183.676 261.563C184.503 263.047 185.742 264.256 186.981 265.42C189.123 267.455 191.28 269.521 193.82 271.036C196.36 272.552 199.343 273.485 202.281 273.072L199.879 242.921Z" fill="#986A55"/>
<path d="M195.413 255.028C195.046 255.028 194.663 254.89 194.372 254.63C192.491 252.885 189.936 251.829 187.38 251.737C187.09 251.737 186.876 251.768 186.753 251.799C186.478 252.487 185.713 252.885 184.994 252.717C184.168 252.518 183.663 251.691 183.846 250.88C184.183 249.457 185.575 248.63 187.503 248.692C190.777 248.814 194.036 250.161 196.453 252.395C197.08 252.977 197.111 253.941 196.545 254.553C196.239 254.875 195.826 255.043 195.413 255.043V255.028Z" fill="black"/>
<path d="M241.77 288.713C237.593 288.713 233.585 287.244 229.423 283.662C228.78 283.111 228.704 282.147 229.255 281.504C229.806 280.862 230.769 280.785 231.412 281.336C238.603 287.519 245.167 286.295 254.102 282.086C254.867 281.719 255.785 282.055 256.136 282.821C256.504 283.586 256.167 284.504 255.402 284.856C250.445 287.198 246.023 288.713 241.755 288.713H241.77Z" fill="black"/>
<path d="M239.979 272.261C239.826 272.261 239.689 272.261 239.536 272.261C237.577 272.169 235.833 271.067 234.839 269.322C233.783 267.455 233.783 265.128 234.808 263.246C238.602 256.343 240.362 248.262 239.796 240.487C239.734 239.646 240.362 238.911 241.203 238.85C242.045 238.789 242.779 239.416 242.84 240.258C243.468 248.614 241.555 257.292 237.485 264.715C236.965 265.664 236.965 266.858 237.501 267.822C237.975 268.664 238.755 269.169 239.658 269.2C240.867 269.261 242.075 268.955 243.009 268.343C243.712 267.883 244.661 268.067 245.135 268.771C245.594 269.475 245.411 270.424 244.707 270.898C243.33 271.801 241.708 272.276 239.979 272.276V272.261Z" fill="black"/>
<path d="M230.97 229.896C230.649 229.896 230.312 229.789 230.037 229.575C226.502 226.866 221.117 226.789 217.506 229.391C216.818 229.881 215.869 229.728 215.364 229.039C214.875 228.351 215.028 227.402 215.716 226.897C220.459 223.484 227.267 223.575 231.903 227.142C232.576 227.662 232.699 228.611 232.194 229.284C231.888 229.682 231.444 229.881 230.985 229.881L230.97 229.896Z" fill="black"/>
<path d="M270.458 228.504C270.137 228.504 269.8 228.397 269.525 228.182C265.991 225.473 260.605 225.397 256.994 227.999C256.306 228.489 255.357 228.335 254.852 227.647C254.363 226.958 254.516 226.009 255.204 225.504C259.947 222.091 266.756 222.183 271.391 225.749C272.065 226.269 272.187 227.218 271.682 227.892C271.376 228.29 270.932 228.489 270.473 228.489L270.458 228.504Z" fill="black"/>
<path d="M223.794 245.63C225.29 245.63 226.502 244.417 226.502 242.921C226.502 241.425 225.29 240.212 223.794 240.212C222.298 240.212 221.086 241.425 221.086 242.921C221.086 244.417 222.298 245.63 223.794 245.63Z" fill="#1F1C2C"/>
<path d="M261.001 244.268C262.497 244.268 263.709 243.055 263.709 241.559C263.709 240.062 262.497 238.85 261.001 238.85C259.505 238.85 258.293 240.062 258.293 241.559C258.293 243.055 259.505 244.268 261.001 244.268Z" fill="#1F1C2C"/>
<path d="M240.009 313.798C239.198 313.798 238.525 313.171 238.479 312.345C238.433 311.503 239.091 310.783 239.932 310.737C247.506 310.34 256.074 309.896 262.928 305.794C263.647 305.365 264.595 305.595 265.024 306.33C265.452 307.049 265.223 307.998 264.488 308.426C256.992 312.911 248.011 313.385 240.085 313.798C240.055 313.798 240.024 313.798 240.009 313.798Z" fill="black"/>
<path d="M216.068 213.979C215.15 214.5 214.186 214.974 213.391 215.724C212.35 216.719 211.677 218.112 211.019 219.458C207.026 227.83 202.788 236.646 195.658 241.666C193.746 243.013 190.701 243.702 189.692 241.421C189.416 240.778 189.386 240.044 189.355 239.324C189.187 234.503 189.034 229.667 188.865 224.846C188.774 222.259 188.697 219.596 189.584 217.209C190.594 214.454 192.736 212.479 194.802 210.627C200.233 205.73 222.356 180.063 228.966 184.334C239.247 190.961 221.439 210.934 216.053 213.979H216.068Z" fill="black"/>
<path d="M275.138 212.908C275.949 213.597 276.79 214.239 277.433 215.127C278.274 216.306 278.672 217.79 279.055 219.244C281.395 228.228 283.859 237.687 289.917 243.962C291.539 245.645 294.4 246.9 295.823 244.849C296.221 244.268 296.389 243.548 296.557 242.86C297.628 238.146 298.715 233.447 299.786 228.733C300.367 226.223 300.948 223.606 300.535 221.096C300.061 218.203 298.332 215.846 296.665 213.642C292.258 207.811 275.413 178.395 268.115 181.334C256.763 185.895 270.456 208.867 275.153 212.893L275.138 212.908Z" fill="black"/>
<path d="M244.355 192.522C249.021 194.358 254.009 196.057 258.966 195.322C263.923 194.588 268.773 190.639 268.804 185.619C268.804 182.681 267.243 179.987 265.728 177.477C265.377 176.895 265.009 176.298 264.413 175.977C263.648 175.564 262.73 175.732 261.873 175.824C256.457 176.421 251.194 173.987 245.778 173.421C242.565 173.084 239.321 173.421 236.123 173.865C234.456 174.095 232.712 174.401 231.381 175.426C228.275 177.844 226.592 184.716 229.575 187.67C232.375 190.44 240.652 191.068 244.37 192.537L244.355 192.522Z" fill="black"/>
<path d="M95.7332 467.613C110.987 440.967 140.408 367.442 143.866 359.162C145.411 355.458 146.039 351.831 147.951 348.035C141.648 343.275 135.513 337.413 130.969 330.939C128.674 327.664 126.639 324.205 124.604 320.746C123.716 319.231 122.814 317.67 122.63 315.925C122.309 312.696 125.002 309.467 128.245 309.237C129.025 309.176 129.836 309.268 130.525 308.9C131.213 308.533 131.581 307.462 130.969 306.987C130.249 303.804 131.152 301.263 132.789 298.447C133.019 298.064 133.34 297.636 133.784 297.666C134.074 297.666 134.319 297.896 134.595 297.988C135.482 298.309 136.415 297.422 136.584 296.503C136.752 295.585 136.461 294.636 136.369 293.687C136.033 290.06 139.445 286.57 143.071 286.815C144.096 280.357 145.947 273.852 147.859 267.592C149.925 267.914 152.143 266.352 154.01 267.271C154.515 267.516 154.913 267.914 155.31 268.312C159.181 272.168 163.052 276.01 166.923 279.867C167.703 280.647 168.499 281.428 169.034 282.392C169.723 283.601 169.968 285.04 169.738 286.402C164.429 287.856 158.753 284.917 155.157 280.754C155.57 283.05 155.693 285.407 155.54 287.734C159.824 292.095 163.633 296.411 167.734 300.743C168.682 301.753 170.427 301.156 170.488 299.763C170.656 295.784 172.033 291.851 174.435 288.667C175.185 287.672 176.271 286.662 177.495 286.876C180.723 296.396 181.702 307.217 183.018 317.18C184.38 327.603 185.711 338.225 183.798 348.555C182.804 353.912 180.953 359.07 179.071 364.182C174.986 375.232 163.129 416.402 161.797 419.31C160.191 422.8 159.151 426.534 158.11 430.223C151.011 455.155 142.688 479.734 133.187 503.84C132.04 506.748 130.234 509.395 127.786 511.324C120.549 517.048 114.322 512.762 109.013 508.768C107.759 507.819 106.504 506.87 105.234 505.921C98.4872 494.014 88.9555 479.474 95.7485 467.597L95.7332 467.613Z" fill="#986A55"/>
<path d="M403.931 578.008C406.011 576.876 408.184 575.667 409.515 573.692C410.051 572.896 410.418 572.009 410.861 571.152C411.856 569.208 413.172 567.432 414.487 565.688C416.155 563.453 418.221 561.311 419.506 558.831C422.336 553.383 426.238 548.623 429.007 543.144C430.675 539.853 432.511 536.639 434.515 533.547C435.938 531.343 437.452 529.201 439.028 527.104C439.717 526.201 440.069 525.482 440.252 524.349C441.262 524.089 442.012 523.232 442.471 522.298C442.93 521.365 443.144 520.339 443.496 519.344C444.689 515.977 447.29 513.329 449.371 510.421C449.845 509.748 450.228 508.738 450.61 508.003C453.502 502.448 455.368 495.606 459.698 491.091C468.756 481.648 473.896 469.19 478.349 456.869C479.236 454.405 480.108 451.926 480.674 449.37C481.011 447.855 481.24 446.294 481.837 444.855C482.464 443.34 483.474 442.024 484.377 440.661C485.845 438.458 487.1 436.131 488.309 433.774C490.772 428.984 493.113 423.688 492.088 418.408C491.95 417.719 491.476 416.878 490.818 417.077C490.573 417.153 490.389 417.367 490.236 417.566C487.222 421.362 484.499 425.402 482.112 429.627C480.383 432.688 478.624 436.07 475.442 437.57C479.45 430.637 481.929 422.938 484.392 415.301C485.769 411.046 487.146 406.684 487.039 402.2C487.008 400.838 486.687 399.231 485.432 398.665C484.423 398.19 483.168 398.665 482.403 399.46C481.638 400.256 481.225 401.343 480.827 402.399C477.308 411.689 473.162 420.719 468.404 429.428C467.975 430.208 467.027 431.081 466.384 430.468C469.016 417.52 470.117 404.266 469.674 391.058C469.582 388.456 469.062 385.303 466.629 384.4C463.355 390.966 462.773 398.496 461.901 405.781C461.029 413.067 459.637 420.643 455.139 426.443C454.206 427.652 452.354 428.8 451.329 427.668C450.87 427.178 450.84 426.428 450.824 425.77C450.763 414.811 453.747 403.654 451.023 393.048C450.763 392.038 450.442 391.012 449.769 390.216C448.621 388.839 446.464 388.41 444.873 389.252C443.282 390.094 443.083 392.16 442.96 393.951C442.333 403.761 443.021 413.771 441.461 423.474C440.711 428.173 439.946 432.871 439.196 437.57C438.569 441.503 436.443 446.584 432.526 445.911C430.369 445.528 429.022 443.462 427.63 441.763C423.912 437.203 418.236 434.295 412.361 433.958C412.881 441.595 419.292 447.227 423.836 453.38C428.548 459.762 431.485 467.445 432.266 475.342C419.552 489.744 406.853 504.162 394.139 518.564C387.269 526.354 379.834 534.573 372.367 541.812C370.363 543.756 368.313 545.654 366.538 547.812C364.029 550.873 362.162 554.393 360.372 557.913C358.429 561.708 356.517 565.581 355.522 569.744C354.88 572.437 354.727 575.605 356.563 577.687C357.97 579.279 360.189 579.845 362.269 580.258C369.904 581.758 377.783 582.278 385.464 581.1C388.202 580.687 397.046 579.937 398.668 579.6C400.289 579.263 403.563 577.411 403.931 577.978V578.008Z" fill="#986A55"/>
<path d="M464.977 453.318C464.854 453.318 464.732 453.288 464.609 453.227C460.601 451.023 455.873 450.028 451.314 450.426C449.968 450.548 448.606 450.778 447.29 451.007C445.592 451.298 443.848 451.604 442.073 451.665C441.69 451.665 441.293 451.344 441.277 450.931C441.277 450.502 441.599 450.15 442.012 450.135C443.679 450.074 445.378 449.783 447.03 449.492C448.376 449.263 449.784 449.018 451.176 448.895C456.026 448.467 461.06 449.538 465.344 451.88C465.711 452.079 465.849 452.553 465.65 452.92C465.512 453.181 465.252 453.318 464.977 453.318Z" fill="black"/>
<path d="M481.102 442.895C480.796 442.895 480.505 442.712 480.398 442.421C478.7 438.166 473.758 436.146 469.153 434.738C462.1 432.58 454.633 430.728 446.341 429.105C445.928 429.029 445.652 428.616 445.744 428.202C445.836 427.789 446.219 427.514 446.647 427.606C454.985 429.243 462.497 431.095 469.612 433.284C474.569 434.799 479.878 437.003 481.821 441.87C481.974 442.268 481.79 442.712 481.393 442.865C481.301 442.895 481.209 442.926 481.102 442.926V442.895Z" fill="black"/>
<path d="M451.331 467.858C451.331 467.858 451.24 467.858 451.194 467.858C450.781 467.782 450.505 467.384 450.566 466.97C450.934 464.797 450.291 462.501 449.526 460.343C449.098 459.134 448.577 457.741 447.751 456.624C446.589 455.032 444.829 453.946 443.131 452.89L435.802 448.314C434.486 447.487 433.201 446.752 431.931 446.967C431.518 447.013 431.12 446.752 431.059 446.324C430.998 445.911 431.273 445.513 431.702 445.452C433.614 445.161 435.42 446.278 436.613 447.013L443.942 451.589C445.671 452.675 447.644 453.885 448.975 455.721C449.924 457.022 450.505 458.522 450.964 459.854C451.79 462.21 452.494 464.736 452.066 467.246C452.005 467.613 451.683 467.889 451.316 467.889L451.331 467.858Z" fill="black"/>
<path d="M435.357 481.877C435.097 481.877 434.852 481.755 434.699 481.51C433.093 478.877 431.854 476.061 431.012 473.092C430.89 472.694 431.135 472.265 431.532 472.143C431.93 472.021 432.359 472.265 432.481 472.663C433.292 475.479 434.47 478.188 436 480.698C436.214 481.066 436.107 481.525 435.74 481.755C435.617 481.831 435.48 481.862 435.342 481.862L435.357 481.877Z" fill="black"/>
<path d="M458.979 485.535C458.689 485.535 458.413 485.367 458.291 485.092C458.107 484.709 458.291 484.25 458.658 484.066L465.956 480.653C466.338 480.469 466.797 480.653 466.981 481.02C467.165 481.403 466.981 481.862 466.614 482.046L459.316 485.459C459.209 485.505 459.102 485.535 458.995 485.535H458.979Z" fill="black"/>
<path d="M327.495 522.451C327.403 522.451 327.327 522.451 327.235 522.405C326.837 522.267 326.623 521.824 326.776 521.426C328.872 515.533 332.973 510.115 338.985 505.294C344.05 501.238 349.542 498.254 356.198 494.764C360.099 492.729 363.924 490.953 367.948 491.719C368.361 491.795 368.636 492.193 368.56 492.606C368.483 493.02 368.085 493.28 367.672 493.219C364.153 492.53 360.573 494.198 356.917 496.111C350.338 499.555 344.906 502.509 339.949 506.473C334.166 511.11 330.219 516.298 328.23 521.915C328.123 522.237 327.832 522.42 327.511 522.42L327.495 522.451Z" fill="black"/>
<path d="M163.127 489.438C162.76 489.438 162.424 489.162 162.378 488.78C161.23 480.806 162.24 472.648 165.3 465.21C165.453 464.812 165.912 464.628 166.295 464.797C166.677 464.95 166.876 465.409 166.708 465.792C163.739 472.985 162.776 480.867 163.877 488.565C163.938 488.979 163.648 489.377 163.235 489.438C163.204 489.438 163.158 489.438 163.127 489.438Z" fill="black"/>
<path d="M218.88 510.972C217.748 510.972 216.647 510.896 215.56 510.728C210.802 509.993 207.513 508.233 204.024 506.381C202.846 505.753 201.638 505.111 200.322 504.483C199.939 504.299 199.786 503.84 199.955 503.458C200.138 503.075 200.597 502.922 200.98 503.09C202.311 503.733 203.55 504.376 204.743 505.019C208.262 506.886 211.292 508.493 215.805 509.197C219.477 509.763 223.593 509.121 227.586 508.493C229.299 508.218 230.937 507.973 232.543 507.804C232.926 507.758 233.339 508.064 233.384 508.493C233.43 508.906 233.124 509.289 232.696 509.335C231.135 509.503 229.529 509.748 227.831 510.008C224.878 510.467 221.833 510.942 218.911 510.942L218.88 510.972Z" fill="black"/>
<path d="M326.501 512.625C326.501 512.625 326.424 512.625 326.378 512.625C325.965 512.564 325.674 512.166 325.736 511.753C328.841 492.055 330.953 471.96 332.024 452.017C332.345 445.865 332.559 439.85 331.488 434.019C328.933 420.106 319.447 408.521 311.078 398.297C310.818 397.975 310.864 397.486 311.185 397.225C311.507 396.95 311.996 397.011 312.256 397.333C320.748 407.694 330.371 419.433 332.988 433.743C334.089 439.743 333.875 445.849 333.554 452.094C332.483 472.082 330.371 492.223 327.25 511.982C327.189 512.365 326.868 512.625 326.501 512.625Z" fill="black"/>
<path d="M157.083 297.79C156.9 297.79 156.716 297.728 156.563 297.591C155.446 296.55 154.253 295.57 153.014 294.652C151.836 293.764 150.581 292.923 149.357 292.111L142.625 287.596C142.273 287.367 142.182 286.892 142.411 286.54C142.641 286.188 143.115 286.097 143.467 286.326L150.168 290.81C151.438 291.668 152.708 292.509 153.932 293.412C155.202 294.361 156.441 295.387 157.604 296.458C157.91 296.749 157.94 297.223 157.65 297.545C157.497 297.713 157.298 297.79 157.083 297.79Z" fill="black"/>
<path d="M154.913 283.142C154.592 283.142 154.286 282.943 154.179 282.607L152.71 278.061C152.588 277.663 152.802 277.235 153.2 277.097C153.598 276.974 154.026 277.189 154.164 277.587L155.632 282.132C155.755 282.53 155.541 282.959 155.143 283.096C155.066 283.127 154.99 283.127 154.913 283.127V283.142Z" fill="black"/>
<path d="M243.865 535.644C237.516 535.644 231.166 535.078 224.97 533.562C222.216 532.889 219.477 532.032 216.83 531.19C214.367 530.41 211.812 529.614 209.288 528.971C197.996 526.124 186.017 526.216 175.445 526.308C175.032 526.308 174.68 525.971 174.68 525.543C174.68 525.114 175.016 524.777 175.445 524.777C186.109 524.701 198.211 524.594 209.685 527.486C212.256 528.129 214.826 528.94 217.32 529.721C219.952 530.547 222.66 531.404 225.368 532.063C241.723 536.057 259.379 533.363 274.954 530.976L315.254 524.823C315.254 524.823 315.254 524.808 315.254 524.793C315.223 524.41 315.407 524.058 315.743 523.874C316.172 523.645 316.692 523.783 317.013 524.043C317.365 524.318 317.518 524.747 317.411 525.16C317.243 525.788 316.707 526.17 315.804 526.293L275.199 532.491C265.331 533.991 254.636 535.629 243.926 535.629L243.865 535.644Z" fill="black"/>
<mask id="mask1_11272_5517" style="mask-type:luminance" maskUnits="userSpaceOnUse" x="57" y="297" width="299" height="55">
<path d="M331.151 297.728H81.4132C68.1977 297.728 57.4844 308.444 57.4844 321.665V327.679C57.4844 340.899 68.1977 351.616 81.4132 351.616H331.151C344.366 351.616 355.079 340.899 355.079 327.679V321.665C355.079 308.444 344.366 297.728 331.151 297.728Z" fill="white"/>
</mask>
<g mask="url(#mask1_11272_5517)">
<path d="M355.079 297.728H57.4844V351.616H355.079V297.728Z" fill="white"/>
</g>
<path d="M332.404 333.159C330.844 333.159 329.268 332.73 327.937 331.842C325.626 330.281 324.173 327.542 324.066 324.496C323.928 320.746 325.779 317.532 328.87 316.124C331.195 315.068 334.072 315.099 336.55 316.216C337.652 316.721 339.167 317.639 340.054 319.246C341.018 320.976 341.125 323.21 340.375 326.057C340.023 327.373 339.411 329.302 338.08 330.786C336.673 332.347 334.546 333.159 332.404 333.159ZM332.542 316.874C331.471 316.874 330.43 317.088 329.497 317.517C326.483 318.894 325.504 322.001 325.596 324.435C325.688 326.991 326.881 329.286 328.793 330.572C331.333 332.286 334.99 331.919 336.948 329.761C338.05 328.537 338.585 326.838 338.891 325.675C339.534 323.226 339.473 321.359 338.708 319.996C338.019 318.757 336.81 318.022 335.923 317.609C334.837 317.119 333.689 316.874 332.542 316.874Z" fill="black"/>
<path d="M311.675 334.016C311.384 334.016 311.108 333.848 310.986 333.572C310.802 333.189 310.986 332.73 311.353 332.562L324.649 326.379C325.031 326.195 325.49 326.379 325.659 326.746C325.842 327.129 325.659 327.588 325.291 327.756L311.996 333.939C311.889 333.985 311.782 334.016 311.675 334.016Z" fill="black"/>
<mask id="mask2_11272_5517" style="mask-type:luminance" maskUnits="userSpaceOnUse" x="373" y="297" width="61" height="55">
<path d="M409.516 297.728H397.628C384.413 297.728 373.699 308.444 373.699 321.665V327.679C373.699 340.899 384.413 351.616 397.628 351.616H409.516C422.731 351.616 433.445 340.899 433.445 327.679V321.665C433.445 308.444 422.731 297.728 409.516 297.728Z" fill="white"/>
</mask>
<g mask="url(#mask2_11272_5517)">
<path d="M433.445 297.728H373.699V351.616H433.445V297.728Z" fill="white"/>
</g>
<path d="M411.66 324.772H393.851C393.423 324.772 393.086 324.435 393.086 324.006C393.086 323.578 393.423 323.241 393.851 323.241H411.66C412.088 323.241 412.425 323.578 412.425 324.006C412.425 324.435 412.088 324.772 411.66 324.772Z" fill="black"/>
<path d="M402.754 332.592C402.524 332.592 402.295 332.485 402.142 332.286C401.912 331.965 401.958 331.521 402.249 331.261L402.739 330.832C402.876 330.71 403.045 330.649 403.213 330.649C406.059 328.812 408.782 326.685 411.413 324.619L412.148 324.037C409.654 321.619 406.671 319.614 403.473 318.236C403.09 318.068 402.907 317.624 403.075 317.226C403.243 316.844 403.687 316.66 404.085 316.828C407.726 318.389 411.092 320.731 413.846 323.562C413.999 323.716 414.076 323.93 414.06 324.144C414.045 324.358 413.938 324.557 413.77 324.695L412.362 325.797C409.424 328.093 406.395 330.48 403.167 332.47C403.045 332.546 402.907 332.577 402.769 332.577L402.754 332.592Z" fill="black"/>
<path d="M348.867 597.032C348.5 597.032 348.178 596.772 348.117 596.405L345.455 581.329C344.705 577.074 343.925 572.667 342.441 568.58C341.156 564.999 339.289 561.555 337.499 558.234C336.979 557.285 336.474 556.336 335.969 555.372C331.241 546.388 327.493 536.868 324.831 527.073C324.724 526.66 324.953 526.247 325.366 526.139C325.779 526.032 326.193 526.277 326.3 526.675C328.947 536.363 332.649 545.776 337.315 554.668C337.82 555.617 338.325 556.566 338.845 557.515C340.666 560.897 342.548 564.387 343.879 568.075C345.394 572.284 346.189 576.753 346.954 581.084L349.616 596.16C349.693 596.573 349.418 596.971 348.989 597.047C348.943 597.047 348.897 597.047 348.851 597.047L348.867 597.032Z" fill="black"/>
<path d="M55.6025 441.289C76.6848 441.289 93.7754 424.192 93.7754 403.103C93.7754 382.013 76.6848 364.917 55.6025 364.917C34.5202 364.917 17.4297 382.013 17.4297 403.103C17.4297 424.192 34.5202 441.289 55.6025 441.289Z" fill="white"/>
<path d="M36.8119 419.326L53.4427 381.828C53.6569 381.339 54.1771 381.048 54.7126 381.124L73.9596 383.742C74.7399 383.849 75.2142 384.675 74.9235 385.41L58.3539 425.601C58.1244 426.167 57.4971 426.473 56.9157 426.305L37.6075 420.994C36.8884 420.795 36.5212 420.014 36.8272 419.341L36.8119 419.326Z" fill="#2D2D36"/>
<path d="M36.308 418.086L52.9388 380.589C53.153 380.099 53.6732 379.809 54.2087 379.885L73.4557 382.502C74.236 382.609 74.7103 383.436 74.4196 384.171L57.85 424.361C57.6205 424.928 56.9932 425.234 56.4118 425.065L37.1036 419.755C36.3845 419.556 36.0173 418.775 36.3233 418.102L36.308 418.086Z" fill="#8CB2F9"/>
<path d="M57.5229 388.787C58.4201 386.968 58.1769 385.014 56.9796 384.423C55.7824 383.832 54.0844 384.828 53.1871 386.647C52.2899 388.467 52.5331 390.42 53.7304 391.011C54.9277 391.602 56.6256 390.606 57.5229 388.787Z" fill="#2D2D36"/>
<path d="M56.4213 388.483C57.3186 386.664 57.0754 384.71 55.8781 384.119C54.6808 383.529 52.9828 384.524 52.0856 386.344C51.1883 388.163 51.4315 390.117 52.6288 390.708C53.8261 391.299 55.5241 390.303 56.4213 388.483Z" fill="white"/>
<path d="M51.8677 390.201C51.8677 390.201 51.7759 390.201 51.7453 390.155C51.6688 390.094 51.6535 389.971 51.73 389.879L56.3199 384.523C56.3811 384.446 56.5035 384.431 56.5953 384.507C56.6718 384.569 56.6871 384.691 56.6106 384.783L52.0207 390.14C52.0207 390.14 51.9289 390.201 51.883 390.201H51.8677Z" fill="black"/>
<path d="M68.4096 391.218C69.3069 389.399 69.0636 387.445 67.8664 386.854C66.6691 386.263 64.9711 387.259 64.0739 389.078C63.1766 390.897 63.4198 392.851 64.6171 393.442C65.8144 394.033 67.5123 393.037 68.4096 391.218Z" fill="#2D2D36"/>
<path d="M67.2963 390.907C68.1936 389.088 67.9504 387.134 66.7531 386.543C65.5558 385.952 63.8578 386.948 62.9606 388.767C62.0633 390.587 62.3065 392.541 63.5038 393.131C64.7011 393.722 66.399 392.727 67.2963 390.907Z" fill="white"/>
<path d="M62.7622 392.619C62.7622 392.619 62.6704 392.619 62.6398 392.573C62.5633 392.512 62.548 392.389 62.6245 392.297L67.2144 386.941C67.2756 386.864 67.398 386.849 67.4898 386.925C67.5663 386.987 67.5816 387.109 67.5051 387.201L62.9152 392.558C62.9152 392.558 62.8234 392.619 62.7775 392.619H62.7622Z" fill="black"/>
<path d="M51.5268 401.573C52.4241 399.754 52.1809 397.8 50.9836 397.209C49.7863 396.618 48.0883 397.614 47.191 399.433C46.2938 401.253 46.537 403.207 47.7343 403.797C48.9316 404.388 50.6295 403.393 51.5268 401.573Z" fill="#2D2D36"/>
<path d="M50.4135 401.263C51.3108 399.443 51.0675 397.49 49.8702 396.899C48.673 396.308 46.975 397.304 46.0778 399.123C45.1805 400.942 45.4237 402.896 46.621 403.487C47.8183 404.078 49.5163 403.082 50.4135 401.263Z" fill="white"/>
<path d="M45.8677 402.98C45.8677 402.98 45.7759 402.98 45.7453 402.934C45.6688 402.873 45.6535 402.751 45.73 402.659L50.3199 397.302C50.3811 397.225 50.5035 397.21 50.5953 397.287C50.6718 397.348 50.6871 397.47 50.6106 397.562L46.0207 402.919C46.0207 402.919 45.9289 402.98 45.883 402.98H45.8677Z" fill="black"/>
<path d="M62.4057 403.998C63.303 402.179 63.0597 400.225 61.8624 399.634C60.6651 399.043 58.9672 400.039 58.0699 401.858C57.1727 403.678 57.4159 405.631 58.6132 406.222C59.8105 406.813 61.5084 405.817 62.4057 403.998Z" fill="#2D2D36"/>
<path d="M61.3041 403.694C62.2014 401.875 61.9582 399.921 60.7609 399.33C59.5636 398.739 57.8656 399.735 56.9684 401.555C56.0711 403.374 56.3143 405.328 57.5116 405.919C58.7089 406.509 60.4069 405.514 61.3041 403.694Z" fill="white"/>
<path d="M56.7661 405.414C56.7661 405.414 56.6743 405.414 56.6437 405.368C56.5672 405.307 56.5519 405.185 56.6284 405.093L61.2183 399.721C61.2795 399.644 61.4019 399.629 61.4937 399.706C61.5702 399.767 61.5855 399.889 61.509 399.981L56.9191 405.353C56.9191 405.353 56.8273 405.414 56.7814 405.414H56.7661Z" fill="black"/>
<path d="M46.6205 414.085C47.5178 412.266 47.2746 410.312 46.0773 409.721C44.88 409.13 43.182 410.126 42.2848 411.945C41.3875 413.764 41.6307 415.718 42.828 416.309C44.0253 416.9 45.7233 415.904 46.6205 414.085Z" fill="#2D2D36"/>
<path d="M45.519 413.781C46.4162 411.962 46.173 410.008 44.9758 409.417C43.7785 408.826 42.0805 409.822 41.1832 411.641C40.286 413.461 40.5292 415.415 41.7265 416.005C42.9238 416.596 44.6217 415.601 45.519 413.781Z" fill="white"/>
<path d="M40.9731 415.5C40.9731 415.5 40.8813 415.5 40.8508 415.454C40.7743 415.393 40.759 415.271 40.8355 415.179L45.4254 409.807C45.4866 409.73 45.609 409.715 45.7008 409.792C45.7773 409.853 45.7926 409.975 45.7161 410.067L41.1261 415.439C41.1261 415.439 41.0343 415.5 40.9884 415.5H40.9731Z" fill="black"/>
<path d="M57.5229 416.516C58.4201 414.696 58.1769 412.743 56.9797 412.152C55.7824 411.561 54.0844 412.557 53.1871 414.376C52.2899 416.195 52.5331 418.149 53.7304 418.74C54.9277 419.331 56.6256 418.335 57.5229 416.516Z" fill="#2D2D36"/>
<path d="M56.4096 416.205C57.3068 414.386 57.0636 412.432 55.8663 411.841C54.6691 411.25 52.9711 412.246 52.0739 414.065C51.1766 415.885 51.4198 417.838 52.6171 418.429C53.8144 419.02 55.5123 418.024 56.4096 416.205Z" fill="white"/>
<path d="M51.8677 417.918C51.8677 417.918 51.7759 417.918 51.7453 417.872C51.6688 417.811 51.6535 417.689 51.73 417.597L56.3199 412.225C56.3811 412.148 56.5035 412.133 56.5953 412.209C56.6718 412.271 56.6871 412.393 56.6106 412.485L52.0207 417.857C52.0207 417.857 51.9289 417.918 51.883 417.918H51.8677Z" fill="black"/>
<path d="M278.595 122.47C299.677 122.47 316.768 105.374 316.768 84.2845C316.768 63.195 299.677 46.0986 278.595 46.0986C257.512 46.0986 240.422 63.195 240.422 84.2845C240.422 105.374 257.512 122.47 278.595 122.47Z" fill="white"/>
<path d="M294.86 67.5714L301.516 65.3369C304.912 66.1022 311.675 76.6167 307.743 83.9172L300.705 86.2741C295.839 86.8863 288.649 72.3772 294.86 67.5714Z" fill="#A2E4C2"/>
<path d="M304.253 85.7382C304.253 85.7382 304.115 85.7229 304.054 85.677C303.871 85.5545 303.825 85.3249 303.932 85.1413C305.768 82.2793 305.049 77.198 303.519 73.433C302.065 69.8363 299.954 67.311 298.026 66.8519C297.827 66.8059 297.69 66.5917 297.735 66.3927C297.781 66.1937 297.98 66.056 298.194 66.1172C300.398 66.6376 302.662 69.2853 304.222 73.1575C305.707 76.8154 306.67 82.264 304.574 85.5698C304.498 85.677 304.376 85.7535 304.253 85.7535V85.7382Z" fill="black"/>
<path d="M267.873 88.5388C267.735 88.5388 267.597 88.4623 267.536 88.3245C267.444 88.1409 267.536 87.9113 267.72 87.8195C270.443 86.4879 291.817 79.4017 295.259 78.6824C295.458 78.6518 295.672 78.7742 295.718 78.9732C295.764 79.1722 295.626 79.3864 295.427 79.4324C291.771 80.1976 270.351 87.3909 268.072 88.5082C268.01 88.5388 267.964 88.5541 267.903 88.5541L267.873 88.5388Z" fill="black"/>
<path d="M294.891 67.5557C289.092 69.4994 293.712 86.8093 300.735 86.2583C305.509 84.284 301.959 68.5811 294.891 67.5557Z" fill="#2D2D36"/>
<path d="M256.306 83.6418L262.961 81.4072C266.358 82.1725 273.12 92.687 269.188 99.9875L262.15 102.344C257.285 102.957 250.094 88.4475 256.306 83.6418Z" fill="#A2E4C2"/>
<path d="M265.697 101.809C265.697 101.809 265.559 101.794 265.498 101.748C265.314 101.641 265.268 101.396 265.375 101.212C266.982 98.7021 266.829 94.0953 264.962 89.5038C263.509 85.9071 261.398 83.3818 259.47 82.9074C259.271 82.8614 259.133 82.6472 259.194 82.4482C259.24 82.2492 259.454 82.1268 259.653 82.1727C261.857 82.7084 264.121 85.3409 265.681 89.213C267.166 92.8709 268.129 98.3195 266.033 101.625C265.957 101.732 265.834 101.809 265.712 101.809H265.697Z" fill="black"/>
<path d="M256.305 83.6416C250.506 85.5853 255.127 102.895 262.149 102.344C266.923 100.37 263.373 84.667 256.305 83.6416Z" fill="#2D2D36"/>
<path d="M67.3681 233.676C88.4504 233.676 105.541 216.58 105.541 195.491C105.541 174.401 88.4504 157.305 67.3681 157.305C46.2859 157.305 29.1953 174.401 29.1953 195.491C29.1953 216.58 46.2859 233.676 67.3681 233.676Z" fill="white"/>
<path d="M50.9356 196.776C50.8591 196.164 50.7826 195.506 51.0886 194.97C51.3946 194.435 52.2208 194.159 52.6339 194.618C53.4754 190.149 54.6075 185.221 58.3254 182.619C60.7121 180.951 63.818 180.553 66.7096 180.966C69.6013 181.38 72.3246 182.512 75.0021 183.675C78.7199 189.537 81.581 195.935 83.4934 202.592C83.9371 204.169 84.3043 206.005 83.3404 207.337C82.6826 208.24 81.581 208.668 80.7242 209.372C79.133 210.673 78.4904 212.785 77.4041 214.53C75.2928 217.928 71.1619 219.948 67.1839 219.535C63.206 219.122 59.58 216.306 58.1877 212.541C51.4405 210.49 51.7465 202.761 50.9356 196.761V196.776Z" fill="#986A55"/>
<path d="M79.9892 210.888C79.7903 210.949 79.6985 210.75 79.7597 210.551C80.4023 207.796 80.6624 205.485 80.54 202.791C80.4176 200.037 79.5761 197.527 77.5718 195.644C73.8846 192.2 69.3406 190.104 66.3877 186.063C66.2959 185.941 66.097 185.941 66.0205 186.094C64.5976 188.619 61.8896 190.134 59.7782 192.139C55.6626 196.057 57.3456 201.353 55.785 206.832C55.4943 207.857 55.2036 208.944 55.5096 209.954C55.8156 210.964 56.3205 212.694 56.3205 212.694C52.9545 212.633 48.3034 207.597 48.5023 203.893C48.5329 203.22 48.6553 202.547 48.5482 201.888C48.4411 201.215 48.1045 200.618 47.8138 199.991C45.167 194.282 46.9264 186.859 51.8683 182.956C52.6026 182.375 53.4135 181.839 53.7654 180.967C53.949 180.507 53.9796 180.002 54.1479 179.543C54.561 178.319 55.7544 177.554 56.6571 176.62C57.5139 175.732 58.1258 174.63 58.9214 173.666C61.6601 170.314 66.097 168.998 70.2738 167.85C70.9011 167.682 71.5437 167.498 72.2016 167.529C72.7983 167.559 73.3797 167.758 73.9458 167.957C76.0265 168.707 78.1838 169.488 79.775 171.003C81.3355 172.488 82.2688 174.646 82.2535 176.804C82.2535 178.9 81.4426 181.104 82.3453 183.002C83.0491 184.471 84.5944 185.298 85.7113 186.461C88.4346 189.277 88.4805 193.853 86.9964 197.465C86.6599 198.292 86.2315 199.118 86.155 200.021C86.0479 201.154 86.4916 202.256 86.5375 203.388C86.614 205.118 85.7266 206.786 84.472 207.964C83.401 208.975 81.3355 210.444 80.0045 210.857L79.9892 210.888Z" fill="#5AC27A"/>
<path d="M66.1265 186.277C66.0041 186.277 65.897 186.216 65.8205 186.124C65.6981 185.956 65.7287 185.711 65.897 185.589C66.6314 185.053 67.4882 184.823 68.3144 184.609C68.6357 184.517 68.957 184.441 69.2783 184.334C71.7415 183.523 73.7458 181.349 74.3731 178.824C74.4343 178.548 74.4955 178.273 74.5414 177.997C74.6944 177.202 74.8627 176.375 75.3217 175.656C75.5206 175.35 75.7654 175.089 75.9949 174.829C76.4386 174.34 76.8516 173.865 76.8516 173.329C76.8516 173.069 76.7445 172.794 76.6527 172.534C76.1632 171.324 75.5053 170.177 74.6944 169.151C74.572 168.983 74.5873 168.738 74.7556 168.615C74.9239 168.493 75.1534 168.508 75.2911 168.677C76.1479 169.763 76.8364 170.957 77.3565 172.243C77.4789 172.564 77.6166 172.931 77.6166 173.329C77.6166 174.171 77.0811 174.768 76.561 175.35C76.3315 175.61 76.1173 175.839 75.9643 176.084C75.5818 176.666 75.4441 177.385 75.2911 178.15C75.2299 178.441 75.184 178.732 75.1075 179.023C74.419 181.793 72.2158 184.165 69.5078 185.068C69.1865 185.175 68.8346 185.267 68.498 185.359C67.7024 185.573 66.9527 185.772 66.3254 186.216C66.2642 186.262 66.1724 186.293 66.0959 186.293L66.1265 186.277Z" fill="#101011"/>
<path d="M53.367 181.992C53.2905 181.992 53.214 181.961 53.1375 181.915C52.9692 181.793 52.9233 181.548 53.0457 181.38C54.1167 179.895 55.8915 179.405 57.605 178.915C58.3088 178.716 59.0432 178.517 59.7011 178.242C60.5732 177.875 61.4453 177.354 62.2715 176.849C63.9238 175.839 65.6374 174.768 67.6111 174.936C67.7947 174.936 67.9936 174.967 68.1772 174.997C68.5443 175.043 68.8962 175.089 69.2328 175.043C69.7224 174.967 70.1814 174.676 70.6557 174.37C71.1147 174.079 71.589 173.773 72.1398 173.635C73.1802 173.375 74.3123 173.727 75.0314 173.237C75.1997 173.115 75.4445 173.161 75.5669 173.344C75.6893 173.513 75.6434 173.758 75.4598 173.88C74.4806 174.538 73.2567 174.14 72.3234 174.385C71.8797 174.492 71.4819 174.752 71.0535 175.028C70.5333 175.365 69.9825 175.717 69.3399 175.809C68.8962 175.87 68.4831 175.809 68.0701 175.763C67.9018 175.747 67.7335 175.717 67.5499 175.701C65.8057 175.594 64.291 176.528 62.6692 177.507C61.8125 178.028 60.9251 178.579 59.9918 178.961C59.288 179.252 58.5383 179.451 57.8192 179.665C56.1516 180.125 54.591 180.568 53.673 181.839C53.5965 181.946 53.4741 181.992 53.367 181.992Z" fill="#101011"/>
<path d="M48.2566 202.011C48.2566 202.011 48.1342 202.011 48.073 201.965C47.8894 201.858 47.8129 201.628 47.92 201.445L52.8313 192.476C53.6115 191.037 54.4377 189.553 55.677 188.39C56.0595 188.038 56.4726 187.716 56.8704 187.41C57.5742 186.859 58.2474 186.354 58.7217 185.65C58.7982 185.543 58.8594 185.436 58.9205 185.329C59.1194 184.992 59.3336 184.655 59.6702 184.395C60.068 184.074 60.5576 183.951 60.9401 183.89C62.6384 183.584 64.4591 183.905 65.9431 184.808C66.1267 184.915 66.1879 185.145 66.0655 185.329C65.9431 185.512 65.7136 185.574 65.5453 185.451C64.2296 184.655 62.5925 184.364 61.0778 184.64C60.7871 184.701 60.4046 184.778 60.1445 184.992C59.915 185.176 59.7467 185.436 59.5631 185.727C59.4866 185.849 59.4254 185.956 59.3489 186.063C58.8135 186.859 58.0638 187.441 57.3294 187.992C56.9469 188.283 56.5491 188.589 56.1972 188.925C55.0344 190.012 54.2541 191.435 53.4891 192.828L48.5779 201.797C48.5167 201.919 48.379 201.996 48.2413 201.996L48.2566 202.011Z" fill="#101011"/>
<path d="M86.2307 199.164C86.1389 199.164 86.0471 199.133 85.9859 199.072C85.3739 198.536 85.3739 197.741 85.3739 197.037C85.3739 196.822 85.3739 196.623 85.3739 196.424C85.2974 195.414 84.6242 194.404 83.5838 193.715C82.574 193.057 81.3348 192.751 80.2485 192.537L80.0955 192.506C79.4529 192.384 78.7797 192.246 78.1677 191.909C77.3568 191.45 76.8213 190.716 76.2552 189.874C74.9089 187.869 73.5931 185.803 72.3691 183.706C72.262 183.522 72.3232 183.293 72.5068 183.186C72.6751 183.078 72.9199 183.14 73.027 183.323C74.251 185.389 75.5514 187.456 76.8978 189.445C77.4027 190.211 77.8923 190.869 78.5502 191.236C79.0551 191.511 79.6365 191.634 80.2485 191.741L80.4015 191.772C81.5489 192.001 82.88 192.323 84.0122 193.057C85.2515 193.868 86.0471 195.093 86.1542 196.348C86.1695 196.562 86.1695 196.792 86.1695 197.021C86.1695 197.618 86.1695 198.184 86.5061 198.475C86.6591 198.613 86.6897 198.858 86.5367 199.011C86.4602 199.103 86.3531 199.149 86.246 199.149L86.2307 199.164Z" fill="#101011"/>
<path d="M81.609 180.798C81.5172 180.798 81.4254 180.767 81.3642 180.706C80.844 180.262 80.4768 179.696 80.1096 179.16C79.7271 178.594 79.3753 178.074 78.8857 177.691C78.6409 177.507 78.3502 177.354 78.0595 177.186C77.7076 177.002 77.3404 176.803 77.0038 176.528C76.5142 176.115 76.147 175.533 75.994 174.905C75.9481 174.706 76.0705 174.492 76.2694 174.446C76.4683 174.385 76.6825 174.523 76.7284 174.722C76.8508 175.196 77.1109 175.625 77.4934 175.946C77.7535 176.176 78.0748 176.344 78.4114 176.512C78.7174 176.681 79.054 176.849 79.3447 177.079C79.9413 177.538 80.3391 178.135 80.7369 178.732C81.0888 179.252 81.4101 179.742 81.8538 180.124C82.0068 180.262 82.0374 180.507 81.8997 180.66C81.8232 180.752 81.7161 180.798 81.609 180.798Z" fill="#101011"/>
<path d="M74.2978 193.333C75.3228 193.073 76.2867 193.899 76.9752 194.695C79.0866 197.113 80.7542 200.205 80.5094 203.403C80.4482 204.26 80.2494 205.087 80.1423 205.944C79.9893 207.337 80.0964 208.76 79.9281 210.168C79.7598 211.607 79.2855 212.984 78.8265 214.346C78.5052 215.311 78.1686 216.275 77.5872 217.117C76.4244 218.785 74.4355 219.642 72.5383 220.407C71.758 220.729 70.9624 221.05 70.1362 221.218C69.2029 221.402 68.2544 221.402 67.3058 221.371C64.9649 221.31 62.517 221.081 60.5433 219.81C58.7073 218.632 57.4986 216.673 56.8255 214.591C56.1523 212.525 55.9534 210.337 55.7545 208.163C55.6474 206.939 55.5403 205.714 55.4179 204.475C55.3261 203.388 55.219 202.301 55.2649 201.215C55.4332 197.19 57.9117 193.195 61.6908 191.787C62.2569 191.573 62.67 191.435 63.2513 191.343C63.695 191.267 64.154 191.251 64.613 191.251C66.3419 191.205 68.0861 191.159 69.7537 191.588C70.2586 191.71 70.7482 191.879 71.2684 191.986C72.3394 192.215 73.7317 192.399 74.2978 193.333Z" fill="#C8F0DC"/>
<path d="M63.7556 205.301C63.6944 205.883 63.6179 206.48 63.5567 207.062C63.5261 207.291 63.4955 207.551 63.3425 207.72C63.1896 207.903 62.9448 207.965 62.7 208.026C61.5066 208.332 60.2826 208.638 59.0586 208.577C57.6969 208.5 57.2227 207.919 57.2227 206.511C57.2227 205.822 57.3756 205.148 57.5286 204.475C57.6816 203.832 57.8346 203.159 58.3089 202.715C58.8903 202.164 59.793 202.103 60.6039 202.133C61.2006 202.133 61.782 202.179 62.3481 202.378C62.8989 202.577 63.419 202.945 63.6485 203.48C63.9086 204.031 63.8474 204.674 63.7709 205.286L63.7556 205.301Z" fill="#986A55"/>
<path d="M77.9705 204.475C77.894 205.057 77.8328 205.654 77.7716 206.235C77.741 206.465 77.7104 206.725 77.5574 206.893C77.4044 207.077 77.1596 207.138 76.9148 207.2C75.7214 207.506 74.4974 207.812 73.2735 207.751C71.9118 207.674 71.4375 207.092 71.4375 205.684C71.4375 204.996 71.5905 204.322 71.7435 203.649C71.8965 203.006 72.0495 202.333 72.5238 201.889C73.1205 201.338 74.0079 201.277 74.8187 201.307C75.4001 201.307 75.9968 201.353 76.5476 201.552C77.0984 201.751 77.6186 202.118 77.8634 202.654C78.1235 203.205 78.047 203.848 77.9858 204.46L77.9705 204.475Z" fill="#986A55"/>
<path d="M72.2028 215.112C72.1416 216.015 71.1777 216.55 70.3056 216.841C68.898 217.3 67.3681 217.53 65.9146 217.224C64.8895 217.009 63.4972 216.397 62.9617 215.433C62.2274 214.117 64.1245 213.734 65.1496 213.55C65.7004 213.459 66.2359 213.367 66.7867 213.275C68.1943 213.045 69.6936 212.816 70.9941 213.428C71.652 213.749 72.2487 214.362 72.2028 215.096V215.112Z" fill="#986A55"/>
<path d="M67.3531 216.535C66.5575 216.535 65.716 216.275 64.6756 215.693C64.492 215.586 64.4308 215.356 64.5226 215.173C64.6297 214.989 64.8592 214.928 65.0428 215.02C67.246 216.259 68.2711 215.877 70.413 214.545C70.5966 214.438 70.8261 214.484 70.9332 214.668C71.0403 214.851 70.9944 215.081 70.8108 215.188C69.4798 216.014 68.4547 216.52 67.3378 216.52L67.3531 216.535Z" fill="#141316"/>
<path d="M60.2518 207.383C59.7775 207.383 59.3033 207.276 58.8749 207.031C58.6913 206.924 58.6301 206.694 58.7219 206.51C58.829 206.327 59.0585 206.265 59.2421 206.357C60.007 206.786 61.078 206.648 61.7206 206.036C61.8736 205.883 62.1184 205.898 62.2561 206.036C62.4091 206.189 62.3938 206.434 62.2561 206.572C61.7206 207.092 60.9862 207.367 60.2518 207.367V207.383Z" fill="#141316"/>
<path d="M74.7245 205.96C74.2502 205.96 73.7759 205.853 73.3475 205.608C73.1639 205.501 73.1027 205.271 73.1945 205.087C73.3016 204.904 73.5311 204.827 73.7147 204.934C74.4797 205.363 75.5507 205.225 76.1933 204.613C76.3463 204.46 76.5911 204.475 76.7288 204.613C76.8818 204.766 76.8665 205.011 76.7288 205.149C76.1933 205.669 75.4589 205.945 74.7245 205.945V205.96Z" fill="#141316"/>
<path d="M80.1272 207.307C80.1272 207.307 80.0507 207.307 80.0048 207.291C79.8059 207.23 79.6835 207.016 79.76 206.817C80.7392 203.679 80.2802 200.159 78.536 197.374C78.0771 196.654 77.5416 195.966 76.9296 195.353C76.0575 194.481 75.063 193.762 73.9767 193.195C73.7931 193.104 73.7166 192.874 73.8084 192.675C73.9002 192.491 74.1297 192.415 74.3286 192.507C75.4914 193.104 76.5471 193.869 77.4651 194.802C78.123 195.461 78.689 196.18 79.1786 196.945C81.0452 199.914 81.5348 203.679 80.4791 207.016C80.4332 207.184 80.2802 207.276 80.1119 207.276L80.1272 207.307Z" fill="#101011"/>
<path d="M55.6182 205.026C55.4958 205.026 55.3734 204.964 55.3122 204.857C55.0215 204.444 55.0062 203.847 55.2663 203.265C55.3581 203.066 55.4805 202.867 55.5876 202.684C55.6947 202.515 55.8018 202.347 55.8783 202.179C56.0925 201.689 56.1077 201.123 56.1383 200.526V200.082C56.2301 198.49 56.6891 196.975 57.1175 195.521C57.4235 194.496 57.8366 193.501 58.8005 193.149C58.9994 193.072 59.2136 193.179 59.2901 193.378C59.3666 193.577 59.2595 193.792 59.0606 193.868C58.418 194.098 58.0967 194.909 57.8519 195.735C57.4235 197.159 56.9951 198.628 56.9186 200.128V200.556C56.888 201.199 56.8574 201.873 56.582 202.5C56.4902 202.714 56.3678 202.913 56.2454 203.097C56.1383 203.265 56.0466 203.418 55.9701 203.587C55.8477 203.847 55.7865 204.184 55.9395 204.413C56.0619 204.582 56.016 204.827 55.8477 204.949C55.7865 204.995 55.71 205.026 55.6335 205.026H55.6182Z" fill="#101011"/>
<path d="M435.356 229.406C456.439 229.406 473.529 212.31 473.529 191.22C473.529 170.131 456.439 153.034 435.356 153.034C414.274 153.034 397.184 170.131 397.184 191.22C397.184 212.31 414.274 229.406 435.356 229.406Z" fill="white"/>
<path d="M415.437 187.211C415.223 187.211 415.055 187.027 415.055 186.828C415.101 183.843 418.13 182.344 419.43 181.839L420.058 181.594C421.802 180.936 423.592 180.262 424.449 178.563C424.586 178.288 424.724 177.966 424.847 177.66C425.351 176.466 425.902 175.12 427.187 175.227C427.555 175.257 427.876 175.441 428.167 175.594C428.304 175.671 428.427 175.747 428.564 175.793C429.727 176.252 431.028 175.38 432.573 173.13C434.286 170.62 436.061 169.656 437.576 170.421C438.02 170.651 438.371 171.003 438.723 171.339C439.045 171.661 439.335 171.952 439.672 172.12C440.498 172.533 441.447 172.15 442.472 171.768C443.65 171.309 444.859 170.85 445.991 171.538C447.414 172.426 447.567 174.523 447.521 176.16C449.586 176.589 451.59 177.369 453.457 178.487L453.687 178.624L453.641 178.885C453.411 180.308 454.727 181.456 455.92 182.298C456.808 182.94 458.827 184.639 458.2 186.629C458.139 186.828 457.925 186.95 457.726 186.874C457.527 186.813 457.404 186.598 457.481 186.399C457.955 184.869 456.242 183.446 455.492 182.91C454.298 182.053 452.753 180.737 452.876 179.022C451.04 177.966 449.097 177.232 447.062 176.849L446.74 176.788V176.451C446.832 174.967 446.786 172.916 445.608 172.196C444.797 171.691 443.803 172.074 442.763 172.487C441.646 172.931 440.483 173.375 439.351 172.824C438.892 172.594 438.54 172.242 438.188 171.906C437.867 171.6 437.576 171.293 437.239 171.125C435.725 170.344 434.072 172.334 433.215 173.574C432.573 174.523 430.599 177.446 428.304 176.512C428.136 176.451 427.983 176.359 427.815 176.268C427.57 176.145 427.356 176.007 427.141 175.992C426.422 175.931 426.086 176.742 425.566 177.966C425.428 178.303 425.29 178.624 425.137 178.931C424.158 180.89 422.123 181.655 420.333 182.328L419.706 182.573C418.543 183.017 415.85 184.349 415.82 186.859C415.82 187.073 415.651 187.241 415.437 187.241V187.211Z" fill="#101011"/>
<path d="M419.476 186.736C419.95 186.751 420.379 186.767 420.73 186.751L432.833 186.277L457.496 185.313C457.894 185.297 458.337 185.297 458.643 185.588C459.117 186.032 459.056 186.859 458.949 187.547C457.924 193.853 456.67 200.572 452.661 205.056C448.821 209.357 443.175 210.734 437.805 211.362C434.424 211.76 431.012 211.943 427.615 211.898C426.361 211.882 422.444 209.785 421.801 208.974C417.961 204.061 414.029 198.965 412.132 192.766C411.78 191.618 411.505 190.394 411.75 189.216C412.392 186.231 416.737 186.614 419.445 186.736H419.476Z" fill="#8CB2F9"/>
<path d="M428.625 185.099C428.625 185.099 428.549 185.099 428.518 185.083C428.319 185.022 428.197 184.808 428.258 184.609C428.61 183.461 429.008 182.175 429.803 181.196C430.737 180.048 432.144 179.62 433.215 180.14C434.577 180.813 434.99 182.635 435.112 183.675C435.143 183.89 434.99 184.073 434.776 184.104C434.562 184.119 434.378 183.981 434.347 183.767C434.271 183.063 433.95 181.364 432.879 180.829C432.006 180.4 430.966 180.966 430.385 181.67C429.681 182.543 429.298 183.752 428.977 184.823C428.931 184.992 428.778 185.099 428.61 185.099H428.625Z" fill="#101011"/>
<path d="M444.905 184.348C443.911 184.348 443.299 183.399 442.825 182.466C442.503 181.838 442.167 181.195 442.044 180.445C441.815 179.144 442.304 177.736 443.268 176.956C443.437 176.818 443.681 176.849 443.804 177.017C443.941 177.185 443.911 177.43 443.743 177.553C443.008 178.15 442.61 179.282 442.794 180.308C442.901 180.935 443.207 181.532 443.498 182.114C443.85 182.802 444.324 183.583 444.905 183.583C445.441 183.583 445.854 182.848 445.869 182.175C445.869 181.379 445.502 180.598 445.119 179.956L444.921 179.619C444.538 178.991 444.156 178.333 443.957 177.568C443.911 177.369 444.033 177.155 444.232 177.109C444.446 177.048 444.645 177.185 444.691 177.384C444.859 178.043 445.196 178.609 445.563 179.221L445.762 179.573C446.19 180.308 446.634 181.195 446.619 182.19C446.604 183.231 445.9 184.348 444.89 184.348H444.905Z" fill="#101011"/>
<path d="M437.85 179.451L437.513 179.114C436.473 178.104 435.586 176.833 434.958 175.441C434.897 175.318 434.928 175.165 435.004 175.058C435.004 174.859 435.173 174.675 435.371 174.675C436.519 174.645 437.575 175.043 438.447 175.793L438.538 175.869L438.569 175.992C438.814 177.017 438.63 178.165 438.11 179.037L437.865 179.451H437.85ZM435.8 175.456C436.289 176.466 436.932 177.4 437.666 178.196C437.896 177.614 437.957 176.941 437.835 176.298C437.238 175.808 436.519 175.517 435.8 175.456Z" fill="#101011"/>
<path d="M425.901 185.573C425.901 185.573 425.764 185.573 425.687 185.557C425.35 185.496 425.075 185.282 424.861 185.098L423.652 184.134C423.53 184.302 423.285 184.318 423.117 184.195C422.948 184.073 422.918 183.828 423.055 183.659C423.055 183.644 423.086 183.614 423.101 183.598C423.071 183.491 423.101 183.369 423.178 183.261C423.239 183.17 423.346 183.124 423.438 183.124C423.759 182.634 424.019 182.083 424.203 181.517L424.325 181.149L424.693 181.287C425.611 181.624 426.544 182.022 427.003 182.971C427.324 183.614 427.232 184.532 426.789 185.098C426.544 185.42 426.223 185.588 425.871 185.588L425.901 185.573ZM424.111 183.506L425.35 184.501C425.503 184.624 425.687 184.777 425.84 184.807C425.886 184.807 426.039 184.838 426.207 184.624C426.437 184.318 426.544 183.721 426.345 183.292C426.054 182.711 425.473 182.389 424.815 182.129C424.631 182.619 424.387 183.078 424.111 183.522V183.506Z" fill="#101011"/>
<path d="M456.575 440.661C477.657 440.661 494.748 423.564 494.748 402.475C494.748 381.385 477.657 364.289 456.575 364.289C435.493 364.289 418.402 381.385 418.402 402.475C418.402 423.564 435.493 440.661 456.575 440.661Z" fill="white"/>
<path d="M447.164 408.934C446.598 408.566 446.154 408.061 445.772 407.602C445.634 407.449 445.512 407.296 445.374 407.143C445.252 407.005 445.114 406.868 444.992 406.745C444.732 406.485 444.456 406.209 444.211 405.888C443.676 405.184 443.355 404.358 443.095 403.638C442.62 402.337 442.222 400.99 441.886 399.644C441.718 398.955 441.549 398.205 441.503 397.409C441.427 396.231 441.595 395.083 441.763 393.965L442.054 391.991C442.238 390.767 442.421 389.496 442.773 388.257C442.972 387.568 443.263 386.665 443.829 385.884C444.334 385.196 444.961 384.721 445.665 384.507C446.522 384.232 447.47 384.385 448.128 384.905C448.449 385.165 448.511 385.624 448.251 385.946C447.99 386.267 447.531 386.313 447.21 386.068C446.935 385.854 446.506 385.793 446.124 385.915C445.726 386.037 445.344 386.344 445.038 386.757C444.701 387.216 444.441 387.798 444.211 388.639C443.89 389.787 443.707 391.012 443.538 392.19L443.248 394.18C443.095 395.205 442.926 396.277 443.003 397.302C443.049 397.975 443.202 398.649 443.355 399.276C443.676 400.577 444.058 401.863 444.517 403.118C444.747 403.761 445.007 404.434 445.405 404.954C445.588 405.199 445.818 405.429 446.063 405.674C446.2 405.827 446.353 405.965 446.491 406.118C446.644 406.286 446.782 406.454 446.919 406.623C447.333 407.097 447.715 407.556 448.174 407.771C448.954 408.123 449.949 407.832 450.989 407.495C451.54 407.311 452.121 407.112 452.642 406.852C453.299 406.516 453.881 406.072 454.508 405.597L456.313 404.22C456.558 404.036 456.788 403.852 456.956 403.669C457.186 403.409 457.354 403.057 457.522 402.689C459.419 398.465 460.368 393.797 460.246 389.175L457.752 388.762C457.354 388.701 457.078 388.318 457.14 387.905C457.201 387.507 457.583 387.231 457.996 387.293L461.684 387.905L461.714 388.502C461.944 393.552 460.965 398.679 458.884 403.302C458.685 403.761 458.455 404.235 458.088 404.648C457.828 404.954 457.507 405.199 457.231 405.414L455.426 406.791C454.768 407.281 454.095 407.801 453.33 408.184C452.718 408.49 452.06 408.704 451.494 408.903C450.209 409.332 448.863 409.699 447.593 409.133C447.455 409.071 447.333 408.995 447.195 408.918L447.164 408.934Z" fill="black"/>
<path d="M448.969 409.638C448.464 409.638 447.96 409.546 447.47 409.332C447.317 409.271 447.179 409.194 447.057 409.102C446.46 408.72 446.016 408.199 445.634 407.74L445.588 407.694C445.466 407.557 445.359 407.419 445.236 407.281C445.114 407.143 444.976 407.021 444.854 406.883C444.609 406.623 444.318 406.347 444.058 406.011C443.507 405.276 443.171 404.45 442.911 403.715C442.436 402.399 442.039 401.052 441.702 399.705C441.534 399.001 441.365 398.236 441.304 397.44C441.228 396.246 441.396 395.098 441.564 393.981L441.87 391.976C442.054 390.721 442.253 389.466 442.589 388.226C442.788 387.522 443.079 386.604 443.676 385.793C444.196 385.074 444.869 384.584 445.603 384.339C446.537 384.048 447.531 384.216 448.235 384.767C448.633 385.089 448.709 385.67 448.388 386.084C448.067 386.482 447.485 386.558 447.072 386.237C446.858 386.053 446.491 386.022 446.154 386.114C445.802 386.221 445.45 386.497 445.16 386.895C444.838 387.339 444.594 387.905 444.364 388.716C444.043 389.849 443.859 391.058 443.691 392.236L443.4 394.226C443.247 395.251 443.094 396.292 443.155 397.302C443.201 397.976 443.354 398.634 443.492 399.246C443.813 400.532 444.196 401.817 444.639 403.072C444.869 403.7 445.114 404.343 445.512 404.863C445.68 405.092 445.909 405.307 446.154 405.552L446.2 405.598C446.338 405.735 446.475 405.873 446.598 406.011C446.751 406.179 446.889 406.347 447.042 406.516C447.439 406.975 447.807 407.419 448.235 407.618C448.954 407.939 449.903 407.664 450.912 407.327C451.463 407.143 452.029 406.96 452.534 406.699C453.177 406.378 453.758 405.934 454.37 405.46L456.175 404.082C456.405 403.899 456.634 403.73 456.787 403.547C457.002 403.302 457.17 402.965 457.323 402.613C459.19 398.465 460.123 393.889 460.031 389.344L457.705 388.961C457.201 388.869 456.849 388.395 456.94 387.89C457.017 387.385 457.491 387.033 458.011 387.124L461.852 387.752L461.882 388.502C462.112 393.583 461.133 398.741 459.037 403.378C458.822 403.853 458.593 404.343 458.21 404.771C457.92 405.092 457.598 405.353 457.323 405.552L455.518 406.929C454.86 407.434 454.171 407.954 453.391 408.352C452.779 408.659 452.121 408.888 451.54 409.072C450.698 409.347 449.841 409.607 448.985 409.607L448.969 409.638ZM446.537 384.584C446.261 384.584 446.001 384.63 445.726 384.706C445.068 384.92 444.456 385.364 443.982 386.022C443.416 386.788 443.14 387.66 442.957 388.333C442.62 389.543 442.436 390.798 442.253 392.007L441.947 394.012C441.778 395.129 441.61 396.261 441.687 397.409C441.748 398.175 441.901 398.925 442.069 399.613C442.39 400.945 442.804 402.292 443.263 403.593C443.523 404.297 443.829 405.092 444.349 405.781C444.594 406.103 444.869 406.378 445.114 406.623C445.251 406.761 445.374 406.898 445.512 407.036C445.634 407.174 445.756 407.312 445.879 407.465L445.909 407.511C446.292 407.954 446.705 408.46 447.256 408.796C447.363 408.873 447.485 408.934 447.623 408.995C448.832 409.531 450.132 409.179 451.387 408.766C451.968 408.567 452.611 408.352 453.207 408.062C453.972 407.679 454.63 407.174 455.273 406.684L457.093 405.307C457.354 405.108 457.66 404.878 457.92 404.572C458.272 404.174 458.486 403.715 458.685 403.271C460.75 398.68 461.729 393.598 461.5 388.563V388.119L457.95 387.538C457.644 387.492 457.369 387.691 457.308 387.997C457.262 388.303 457.461 388.578 457.767 388.64L460.414 389.068V389.221C460.536 393.874 459.587 398.573 457.675 402.812C457.507 403.195 457.338 403.547 457.078 403.837C456.895 404.052 456.665 404.235 456.405 404.419L454.6 405.796C453.972 406.271 453.376 406.73 452.702 407.067C452.167 407.327 451.586 407.526 451.035 407.71C449.964 408.077 448.923 408.368 448.082 407.985C447.577 407.756 447.179 407.281 446.751 406.791C446.613 406.623 446.475 406.455 446.322 406.302C446.2 406.164 446.062 406.041 445.94 405.904L445.894 405.858C445.634 405.597 445.42 405.368 445.221 405.123C444.792 404.557 444.532 403.883 444.303 403.225C443.844 401.955 443.461 400.654 443.14 399.353C442.987 398.726 442.834 398.037 442.788 397.348C442.712 396.307 442.88 395.236 443.033 394.195L443.324 392.206C443.507 391.012 443.691 389.787 444.012 388.64C444.257 387.767 444.517 387.17 444.869 386.696C445.206 386.237 445.619 385.915 446.047 385.778C446.506 385.64 446.996 385.701 447.317 385.961C447.562 386.145 447.898 386.114 448.097 385.869C448.281 385.625 448.25 385.288 448.005 385.089C447.608 384.767 447.072 384.599 446.537 384.599V384.584Z" fill="black"/>
<path d="M451.863 419.051C451.312 418.699 450.792 418.224 450.287 417.581C448.206 414.995 447.548 411.429 448.574 408.276C448.696 407.878 449.124 407.664 449.507 407.802C449.905 407.924 450.119 408.353 449.981 408.735C449.14 411.383 449.706 414.49 451.45 416.648C452.031 417.367 452.613 417.826 453.209 418.071C453.867 418.316 454.602 418.255 455.061 417.918C455.627 417.49 455.856 416.663 456.101 415.775C456.147 415.607 456.193 415.439 456.239 415.286C456.973 412.791 458.518 410.572 460.599 409.026L460.951 408.766L461.349 408.949C463.414 409.898 465.633 411.169 466.352 413.464C466.581 414.184 466.612 414.903 466.658 415.607C466.704 416.326 466.734 416.985 466.964 417.581C467.117 417.964 466.918 418.393 466.551 418.546C466.168 418.699 465.74 418.515 465.587 418.132C465.266 417.321 465.22 416.495 465.174 415.699C465.143 415.056 465.097 414.459 464.929 413.908C464.424 412.317 462.787 411.291 461.135 410.495C459.482 411.827 458.258 413.679 457.662 415.714C457.616 415.867 457.57 416.02 457.524 416.189C457.249 417.214 456.927 418.377 455.948 419.112C455.076 419.77 453.821 419.908 452.674 419.464C452.398 419.357 452.123 419.219 451.863 419.051Z" fill="black"/>
<path d="M454.035 419.908C453.56 419.908 453.086 419.816 452.612 419.648C452.321 419.541 452.03 419.388 451.755 419.219C451.189 418.852 450.653 418.362 450.133 417.719C448.022 415.087 447.349 411.46 448.374 408.246C448.45 408.001 448.619 407.817 448.833 407.695C449.047 407.587 449.307 407.557 449.552 407.633C449.781 407.71 449.98 407.863 450.103 408.093C450.225 408.322 450.24 408.567 450.164 408.812C449.338 411.398 449.904 414.429 451.602 416.541C452.153 417.23 452.704 417.673 453.285 417.903C453.882 418.133 454.54 418.087 454.953 417.781C455.473 417.383 455.687 416.587 455.917 415.745C455.962 415.577 456.008 415.408 456.054 415.255C456.789 412.715 458.365 410.465 460.491 408.888L460.935 408.552L461.44 408.781C463.551 409.745 465.8 411.046 466.535 413.403C466.764 414.138 466.81 414.873 466.856 415.592C466.902 416.296 466.932 416.954 467.147 417.505C467.238 417.735 467.238 417.995 467.147 418.224C467.039 418.454 466.856 418.622 466.626 418.714C466.137 418.898 465.601 418.668 465.418 418.194C465.096 417.352 465.035 416.51 464.989 415.699C464.959 415.056 464.928 414.475 464.76 413.97C464.27 412.424 462.618 411.429 461.18 410.725C459.604 412.026 458.426 413.817 457.86 415.776C457.814 415.929 457.768 416.082 457.722 416.235C457.431 417.291 457.11 418.485 456.07 419.265C455.503 419.694 454.784 419.908 454.035 419.908ZM451.969 418.882C452.229 419.051 452.489 419.173 452.75 419.28C453.836 419.694 455.014 419.571 455.84 418.944C456.758 418.24 457.079 417.122 457.339 416.112C457.385 415.944 457.431 415.791 457.477 415.638C458.089 413.572 459.344 411.674 461.011 410.327L461.103 410.25L461.21 410.296C462.74 411.031 464.561 412.087 465.096 413.817C465.28 414.383 465.311 414.98 465.341 415.638C465.387 416.434 465.433 417.245 465.739 418.025C465.846 418.316 466.167 418.454 466.458 418.331C466.749 418.224 466.886 417.903 466.779 417.612C466.535 417 466.504 416.311 466.458 415.592C466.412 414.888 466.382 414.184 466.167 413.48C465.479 411.261 463.306 410.021 461.271 409.087L460.981 408.95L460.721 409.149C458.671 410.664 457.141 412.852 456.421 415.316C456.376 415.469 456.33 415.638 456.284 415.806C456.039 416.709 455.81 417.566 455.182 418.041C454.677 418.423 453.866 418.5 453.147 418.224C452.505 417.98 451.893 417.49 451.296 416.755C449.521 414.536 448.925 411.368 449.797 408.659C449.843 408.521 449.827 408.368 449.766 408.23C449.705 408.108 449.583 408.001 449.445 407.955C449.307 407.909 449.154 407.924 449.016 407.985C448.879 408.047 448.787 408.169 448.741 408.307C447.747 411.398 448.389 414.888 450.424 417.428C450.914 418.041 451.418 418.515 451.954 418.852L451.969 418.882Z" fill="black"/>
<path d="M464.467 425.326C462.279 423.948 461.636 421.04 463.013 418.867C464.39 416.694 467.297 416.036 469.47 417.413C471.658 418.791 472.3 421.698 470.923 423.872C469.546 426.045 466.639 426.703 464.467 425.326ZM468.689 418.668C467.205 417.719 465.216 418.178 464.283 419.663C463.35 421.147 463.793 423.137 465.278 424.071C466.762 425.004 468.751 424.56 469.684 423.076C470.617 421.591 470.173 419.602 468.689 418.668Z" fill="black"/>
<path d="M466.96 426.244C466.072 426.244 465.17 425.999 464.359 425.494C463.257 424.806 462.492 423.719 462.217 422.449C461.926 421.178 462.156 419.877 462.844 418.775C464.282 416.495 467.297 415.821 469.576 417.26C471.856 418.699 472.529 421.714 471.091 423.979C470.158 425.448 468.582 426.244 466.96 426.244ZM464.573 425.173C466.669 426.504 469.454 425.877 470.77 423.78C472.101 421.683 471.473 418.898 469.377 417.582C467.281 416.265 464.512 416.878 463.181 418.974C462.538 419.984 462.339 421.194 462.599 422.357C462.86 423.535 463.563 424.53 464.573 425.173ZM466.96 424.76C466.348 424.76 465.721 424.591 465.155 424.239C464.39 423.749 463.854 423 463.655 422.112C463.456 421.224 463.609 420.321 464.099 419.556C465.093 417.979 467.189 417.505 468.765 418.5C469.53 418.99 470.066 419.74 470.265 420.627C470.464 421.515 470.311 422.418 469.821 423.183C469.178 424.209 468.077 424.76 466.945 424.76H466.96ZM466.975 418.362C465.981 418.362 465.002 418.852 464.435 419.755C464.007 420.428 463.869 421.239 464.053 422.02C464.237 422.801 464.696 423.474 465.384 423.903C466.792 424.79 468.643 424.362 469.53 422.969C469.959 422.295 470.096 421.484 469.913 420.704C469.729 419.923 469.27 419.25 468.582 418.821C468.077 418.5 467.526 418.362 466.975 418.362Z" fill="black"/>
</g>
</g>
<defs>
<clipPath id="clip0_11272_5517">
<rect width="513" height="609" fill="white"/>
</clipPath>
</defs>
</svg>
