<svg width="48" height="48" viewBox="0 0 48 48" fill="none" xmlns="http://www.w3.org/2000/svg">
<g clip-path="url(#clip0_11731_24107)">
<rect width="48" height="48" rx="12" fill="#F4F4F4"/>
<mask id="mask0_11731_24107" style="mask-type:luminance" maskUnits="userSpaceOnUse" x="4" y="4" width="40" height="40">
<path d="M33.5344 4H14.4656C8.68559 4 4 8.6856 4 14.4656V33.5344C4 39.3144 8.68559 44 14.4656 44H33.5344C39.3144 44 44 39.3144 44 33.5344V14.4656C44 8.6856 39.3144 4 33.5344 4Z" fill="white"/>
</mask>
<g mask="url(#mask0_11731_24107)">
<path d="M15.9891 11.2957L10.7871 18.7139L13.3881 35.0279L15.9891 45.4319L35.9814 46.0783L33.8575 20.0221L26.7163 9.67969L15.9891 11.2957Z" fill="#986A55"/>
<path d="M22.0071 7.00158C18.5904 7.37095 14.9275 7.86345 12.4188 10.2028C9.58694 12.8346 9.00211 17.0516 8.98672 20.9146C8.97133 24.7776 9.29452 28.8099 7.69391 32.3344C6.0779 35.905 2.75355 38.3367 0.121767 41.2763C-1.01713 42.5537 -1.37112 44.3544 -0.817057 45.9858C-0.432293 47.1401 -0.216824 48.3559 -0.201433 49.5718C2.75355 49.4179 5.73932 49.264 8.60196 48.5098C9.38687 48.2944 10.1718 48.0481 10.8797 47.6172C13.0652 46.2936 13.9732 43.6618 15.1737 41.3994C15.7739 40.2605 16.4819 39.1678 16.8821 37.9366C17.236 36.813 17.3284 35.6279 17.4053 34.4429C17.4361 33.858 17.4823 33.2578 17.2514 32.7345C16.8974 31.9189 16.0356 31.4725 15.3892 30.8569C14.2657 29.7642 13.8655 28.1328 13.6039 26.5783C13.2191 24.3005 13.019 21.992 13.0036 19.6834C13.0036 18.1136 13.8655 16.6514 15.2661 15.9435C17.2822 14.9277 19.3138 13.8042 21.2838 12.8962C21.6531 12.7269 22.4688 9.69493 22.869 11.865C22.9613 12.3267 23.3307 12.9269 23.7155 13.1886C24.9159 13.9889 26.2087 14.6661 27.5631 15.1586C29.1022 15.728 30.1487 17.1747 30.241 18.8061C30.318 20.3298 30.3796 21.8534 30.4257 23.3771C30.4719 24.8546 30.4873 26.3629 30.0718 27.7788C29.6562 29.1639 28.8251 30.3952 28.3326 31.7496C26.9783 35.4895 28.4404 39.8142 31.1491 42.7076C33.8578 45.6011 37.6131 47.3094 41.3838 48.5252C43.7539 49.2794 46.6935 49.7565 48.2942 47.6634C49.0483 46.6784 49.233 45.3702 48.9406 44.1543C48.3711 41.7842 46.4781 40.2451 44.5543 38.9523C42.9998 37.9058 41.3376 36.9669 40.0602 35.5972C37.1976 32.5191 36.7513 27.9635 36.6435 23.7465C36.5358 19.5295 36.5512 15.0662 34.2888 11.5264C31.7647 7.57103 26.6551 6.4629 21.9917 6.97079L22.0071 7.00158Z" fill="#1A1C33"/>
<path d="M21.2999 29.5637C20.6535 29.5637 19.9917 29.2867 19.2529 28.6403C19.1144 28.5172 19.099 28.2863 19.2222 28.1478C19.3453 28.0093 19.5761 27.9939 19.7147 28.117C21.0229 29.2713 22.0232 29.102 23.6854 27.4398C23.8239 27.3013 24.0394 27.3013 24.1779 27.4398C24.3164 27.5783 24.3164 27.7938 24.1779 27.9323C23.1929 28.9173 22.2695 29.5637 21.2845 29.5637H21.2999Z" fill="#201C2D"/>
<path d="M20.6534 25.9783C20.2378 25.9783 19.853 25.7628 19.6222 25.3781C19.3759 24.9625 19.3759 24.4547 19.6222 24.0545C20.3917 22.854 20.8226 21.4227 20.838 20.0222C20.838 19.8375 20.992 19.6836 21.192 19.6836C21.3921 19.6836 21.546 19.8375 21.5306 20.0376C21.5306 21.5766 21.0381 23.1465 20.1916 24.4393C20.0531 24.6547 20.0993 24.8856 20.1916 25.0241C20.2994 25.1934 20.4841 25.3011 20.6687 25.2857C20.8073 25.2857 20.915 25.2396 21.0227 25.178C21.192 25.0857 21.4075 25.1472 21.4998 25.3165C21.5922 25.4858 21.5306 25.7013 21.3613 25.7936C21.1766 25.9013 20.9612 25.9629 20.7303 25.9783C20.6995 25.9783 20.6534 25.9783 20.6226 25.9783H20.6534Z" fill="#201C2D"/>
<path d="M16.8044 19.052C16.6967 19.052 16.6043 19.0059 16.5274 18.9289C16.4043 18.775 16.4197 18.5595 16.5736 18.4364C17.3277 17.8054 18.4666 17.7592 19.2977 18.2979C19.4516 18.4056 19.4978 18.6211 19.39 18.775C19.2823 18.9289 19.0668 18.9751 18.9129 18.8673C18.3589 18.498 17.5432 18.5288 17.0199 18.9597C16.9583 19.0059 16.8814 19.0366 16.8044 19.0366V19.052Z" fill="#201C2D"/>
<path d="M22.7927 18.5598C22.685 18.5598 22.5926 18.5136 22.5157 18.4367C22.3926 18.2828 22.4079 18.0673 22.5618 17.9442C23.316 17.3132 24.4703 17.267 25.286 17.8057C25.4399 17.9134 25.4861 18.1289 25.3783 18.2828C25.2706 18.4367 25.0551 18.4829 24.9012 18.3751C24.3471 18.0058 23.5315 18.0365 23.0082 18.4675C22.9466 18.5137 22.8697 18.5444 22.7927 18.5444V18.5598Z" fill="#201C2D"/>
<path d="M6.12419 65.7625C6.77059 63.4693 7.63246 61.2223 8.6944 59.083C10.926 63.6848 10.1565 69.5794 6.81676 73.4732C9.95643 76.3974 14.3735 77.5825 18.6521 77.8441C22.9307 78.1057 27.2246 77.5209 31.5032 77.4286C34.8275 77.3516 38.352 77.4901 41.1838 75.751C41.4916 75.5663 41.7994 75.3508 41.9995 75.043C42.492 74.2735 42.1688 73.2731 41.861 72.4112C40.3681 68.1481 39.9064 63.5309 40.5374 59.0523C41.3223 60.9915 41.0453 63.9465 41.8302 65.8857C42.4151 65.3624 43.6001 63.5001 43.5386 62.7152C43.477 61.9303 43.2615 61.1607 43.3077 60.3758C43.3693 59.4678 43.7694 58.6213 44.1696 57.8056C45.6163 54.8353 46.9707 52.0342 48.4174 49.0638C47.6632 48.0788 46.9091 47.0784 46.1704 46.0934C44.9545 44.4928 43.7387 42.8768 42.215 41.5532C40.245 39.8141 37.8287 38.629 35.3046 37.8749C32.7806 37.1207 30.2873 36.7052 27.6709 36.5205C26.7321 37.8903 25.2084 38.8445 23.577 39.1215C21.9457 39.3985 20.1911 38.9676 18.8675 37.9826C18.2519 37.5209 17.6979 36.9515 16.9745 36.6898C16.0972 36.382 15.143 36.5975 14.235 36.8129C12.2034 37.3054 10.1411 37.8287 8.29425 38.8137C6.23191 39.9218 4.50818 41.584 3.06147 43.4309C1.61476 45.2778 0.445071 47.3093 -0.724609 49.3408C-0.0474257 50.4951 0.768278 51.2339 1.44546 52.4035C3.87717 56.5898 5.87793 60.9453 6.0934 65.7933L6.12419 65.7625Z" fill="white"/>
<path d="M22.131 34.6894C20.0995 34.6894 18.0679 33.9045 16.5904 32.5194C16.4519 32.3809 16.4365 32.1654 16.575 32.0269C16.7135 31.8884 16.929 31.873 17.0675 32.0115C18.5912 33.4274 20.7305 34.1508 22.8082 33.9661C24.8859 33.766 26.8405 32.6425 28.0718 30.9649C28.1795 30.811 28.4104 30.7803 28.5643 30.888C28.7182 30.9957 28.7489 31.2266 28.6412 31.3805C27.3022 33.212 25.1476 34.4432 22.8851 34.6587C22.6389 34.6895 22.3926 34.6894 22.1464 34.6894H22.131Z" fill="#1A1C33"/>
<path d="M23.9926 22.3308C24.3326 22.3308 24.6082 22.0552 24.6082 21.7152C24.6082 21.3752 24.3326 21.0996 23.9926 21.0996C23.6526 21.0996 23.377 21.3752 23.377 21.7152C23.377 22.0552 23.6526 22.3308 23.9926 22.3308Z" fill="#201C2D"/>
<path d="M18.1449 22.3308C18.4849 22.3308 18.7605 22.0552 18.7605 21.7152C18.7605 21.3752 18.4849 21.0996 18.1449 21.0996C17.8049 21.0996 17.5293 21.3752 17.5293 21.7152C17.5293 22.0552 17.8049 22.3308 18.1449 22.3308Z" fill="#201C2D"/>
</g>
</g>
<defs>
<clipPath id="clip0_11731_24107">
<rect width="48" height="48" rx="8" fill="white"/>
</clipPath>
</defs>
</svg>
