<svg width="60" height="67" viewBox="0 0 60 67" fill="none" xmlns="http://www.w3.org/2000/svg">
<g clip-path="url(#clip0_19926_149824)">
<path d="M26.6994 34.3007C26.734 34.4052 26.7514 34.5271 26.7687 34.6316C26.9593 35.6763 27.1325 36.721 27.3231 37.7657C27.635 39.5591 27.9469 41.3525 28.2587 43.1459C28.4493 44.2776 28.6572 45.4094 28.8478 46.5411C28.8998 46.8023 28.9344 47.0635 28.9864 47.3421C29.3156 49.2399 29.6448 51.1378 29.9913 53.0531C31.7759 51.7124 34.1669 51.486 36.0901 50.3543C38.8276 48.735 40.283 45.183 39.486 42.0837C39.2261 41.039 38.7236 40.064 38.4638 39.0019C38.2039 37.9398 38.2212 36.7384 38.8969 35.9026C39.1395 35.5892 39.4513 35.3454 39.5726 34.9624C39.6593 34.6664 39.6073 34.3356 39.6073 34.0047C39.6073 32.3506 41.2706 31.2189 41.825 29.6692C42.0502 29.025 42.0849 28.3285 42.1195 27.6321C42.1542 26.6919 42.1888 25.7516 42.2408 24.8114C42.2408 24.6547 42.2408 24.498 42.1888 24.3413C42.1195 24.1498 41.9463 24.0279 41.7904 23.906C40.1097 22.5305 39.1048 20.5107 37.9266 18.6651C37.0777 17.3418 36.1247 16.0708 35.0852 14.9042C34.4095 14.1381 33.6125 13.3719 32.6249 13.1804C31.672 13.0063 30.7017 13.3894 29.8701 13.8769C28.9518 14.4166 28.1028 15.1131 27.3924 15.8966C26.3355 17.0632 25.5039 18.491 24.2218 19.379C23.2342 20.058 22.004 20.3888 21.1377 21.242C20.1675 22.1822 20.6873 23.7667 22.004 24.0975C21.6055 25.9954 19.821 27.5102 19.8729 29.4603C19.9076 30.7314 20.7566 31.8805 21.8481 32.5073C22.9396 33.1342 24.2044 33.3431 25.4692 33.3953C25.7638 33.3953 26.0757 33.4128 26.3009 33.5695C26.5435 33.7262 26.6474 34.0047 26.7167 34.2833L26.6994 34.3007Z" fill="#906A55"/>
<path d="M58.1807 66.408C59.151 61.9855 58.1807 57.3714 57.0892 52.9662C56.604 50.9987 56.0843 49.0312 55.1313 47.2552C54.1784 45.4792 52.827 45.3922 50.9558 44.6783C47.8371 43.4595 43.9561 43.9122 40.8893 45.2703C36.8004 47.0811 34.7906 47.8472 29.8007 50.3371C29.922 47.795 29.3156 44.3301 26.5088 43.4595C25.192 43.059 23.7712 43.4595 22.5238 44.0515C18.2442 46.0886 15.2468 50.1107 12.8212 54.2199C10.6554 57.8937 8.78423 61.8114 6.11603 65.1196C5.75218 65.5723 6.06405 66.2687 6.65313 66.2687L58.1807 66.4254V66.408Z" fill="#A985FF"/>
<path d="M30.7538 20.4935C30.4939 20.4935 30.2686 20.3194 30.182 20.0756C29.7835 18.7523 28.4147 17.8121 27.046 17.8992C26.6475 17.9514 26.4223 17.6728 26.4049 17.342C26.3876 17.0112 26.6302 16.7326 26.9594 16.6978C28.8479 16.541 30.7711 17.8817 31.3255 19.71C31.4295 20.0234 31.2389 20.3542 30.927 20.4587C30.875 20.4761 30.8057 20.4761 30.7538 20.4761V20.4935Z" fill="#1F1C2C"/>
<path d="M27.5657 20.8243C27.8719 20.8243 28.1201 20.5749 28.1201 20.2671C28.1201 19.9594 27.8719 19.71 27.5657 19.71C27.2595 19.71 27.0112 19.9594 27.0112 20.2671C27.0112 20.5749 27.2595 20.8243 27.5657 20.8243Z" fill="#1F1C2C"/>
<path d="M22.1772 27.4756C21.8653 27.4756 21.5708 27.4756 21.2762 27.4408C20.947 27.4059 20.7045 27.1273 20.7391 26.7965C20.7738 26.4657 21.0164 26.2219 21.3802 26.2568C22.593 26.3612 23.8405 26.2219 25.0013 25.8563C25.3132 25.7518 25.6424 25.9259 25.7464 26.2394C25.8503 26.5528 25.6771 26.8836 25.3652 26.9881C24.3429 27.3189 23.2687 27.4756 22.1945 27.4756H22.1772Z" fill="#1F1C2C"/>
<path d="M31.4467 15.8098C31.9145 16.7674 32.7808 17.4639 33.3873 18.3519C34.2536 19.6055 34.5134 21.2422 34.115 22.7222C33.907 23.4535 33.5778 24.3241 34.0456 24.9161C34.6174 25.6299 35.7782 25.2469 36.6099 25.6125C37.5802 26.013 37.84 27.3363 37.5282 28.3462C37.2163 29.356 36.454 30.1395 35.8476 31.0101C35.2411 31.8807 34.7214 32.9254 34.9639 33.9527C35.1892 34.8755 36.0035 35.6765 35.8649 36.6341C35.7782 37.1913 35.3797 37.6266 35.0332 38.0793C33.5778 39.9945 33.1274 42.7282 34.1669 44.9046C35.2065 47.0811 37.8227 48.4392 40.1098 47.7427C41.6171 47.29 42.8126 46.0712 44.2853 45.5314C45.6194 45.0265 47.1614 45.1136 48.4436 45.7578C49.9509 46.5065 51.1464 48.0039 52.8097 48.1954C54.5423 48.387 56.1883 46.907 56.5348 45.1658C56.8813 43.4246 56.119 41.5964 54.8888 40.3428C54.4037 39.8378 53.8146 39.3851 53.4854 38.7583C52.8444 37.5395 53.3295 36.0595 53.4161 34.684C53.5374 32.6991 52.7404 30.6793 51.3024 29.3038C50.4187 28.468 49.2925 27.8238 48.7381 26.7443C48.3743 26.0304 48.3223 25.2121 48.2357 24.4285C48.0104 22.461 47.5426 20.4761 46.5031 18.8046C45.065 16.5062 42.622 14.9914 40.0578 14.1557C37.9613 13.4766 35.7436 13.198 33.5432 13.0239C31.8626 12.8846 30.5458 13.999 31.4467 15.862V15.8098Z" fill="#1F1C2C"/>
<path d="M33.4565 31.8111C32.8848 31.8111 32.3303 31.724 31.7932 31.5499C31.4814 31.4454 31.3081 31.1146 31.4121 30.8012C31.516 30.4878 31.8452 30.3137 32.1571 30.4181C33.162 30.7315 34.2882 30.6793 35.2411 30.244C36.194 29.8087 37.0084 29.0078 37.4588 28.0501C37.6668 27.58 37.8054 26.9358 37.5281 26.5527C37.3549 26.3264 37.0257 26.1697 36.6792 26.0304C36.0381 25.7692 35.3104 25.4906 34.6 25.4906C34.5827 25.4906 34.5654 25.4906 34.5481 25.4906C33.855 25.4906 33.2486 25.8215 33.0061 26.309C32.8501 26.605 32.4863 26.7094 32.2091 26.5702C31.9145 26.4134 31.8106 26.0652 31.9492 25.7692C32.3996 24.8986 33.3872 24.3241 34.5307 24.3066C35.4837 24.3066 36.3846 24.62 37.147 24.9335C37.6321 25.1424 38.1519 25.3862 38.4984 25.8563C39.0009 26.5527 39.0182 27.5278 38.5331 28.5551C37.9613 29.7739 36.9391 30.8012 35.7262 31.3409C35.0159 31.6544 34.2362 31.8111 33.4739 31.8111H33.4565Z" fill="#1F1C2C"/>
<path d="M37.3722 66.9999C37.3722 66.9999 37.2163 66.9999 37.147 66.9477C36.8351 66.8258 36.6965 66.4775 36.8178 66.1641C37.6494 64.1444 38.2039 62.3858 38.6717 60.8362C39.7632 57.319 40.6295 54.5331 43.9908 50.7374C44.216 50.4936 44.5972 50.4762 44.8224 50.6852C45.065 50.9115 45.0823 51.2772 44.8744 51.5383C41.6691 55.1426 40.8374 57.824 39.7979 61.2018C39.3127 62.7689 38.7583 64.5623 37.892 66.6342C37.788 66.8606 37.5801 66.9999 37.3376 66.9999H37.3722Z" fill="#1F1C2C"/>
<path d="M12.5442 18.1081C12.215 18.1081 11.9551 17.8469 11.9551 17.5161V17.2549C11.9204 16.1754 11.7125 15.357 11.314 14.765C10.9328 14.2079 10.3091 13.8422 9.75467 13.8422C9.52943 13.8422 9.32152 13.7203 9.21756 13.5114C9.13093 13.3373 9.13093 13.1283 9.21756 12.9542C9.32152 12.7453 9.52943 12.6234 9.75467 12.6234C10.3091 12.6234 10.9502 12.2578 11.314 11.7006C11.7125 11.1086 11.9204 10.2902 11.9551 9.21072C11.9551 8.96696 11.9551 8.70579 11.9551 8.46202C11.9551 8.30532 12.007 8.1312 12.1283 8.02673C12.2496 7.92226 12.3882 7.83521 12.5615 7.83521C12.856 7.88744 13.2025 8.16603 13.1852 8.46202C13.1852 8.70579 13.1852 8.96696 13.1852 9.21072C13.2025 10.2902 13.4278 11.1086 13.8263 11.7006C14.1901 12.2404 14.7792 12.606 15.3336 12.6234C15.6628 12.6234 15.9054 12.902 15.9054 13.2154C15.9054 13.5636 15.6628 13.8248 15.3336 13.8248C14.7792 13.8422 14.1901 14.2079 13.8263 14.7476C13.4278 15.3396 13.2199 16.158 13.1852 17.2375V17.4987C13.1852 17.8295 12.908 18.0907 12.5788 18.0907L12.5442 18.1081ZM11.4526 13.2154C11.7818 13.4418 12.059 13.7378 12.2843 14.0686C12.3709 14.2079 12.4575 14.3472 12.5442 14.5039C12.6135 14.3472 12.7001 14.2079 12.804 14.0686C13.0293 13.7378 13.3065 13.4418 13.6357 13.2154C13.3238 12.9891 13.0293 12.6931 12.804 12.3622C12.7174 12.2229 12.6308 12.0836 12.5442 11.9269C12.4749 12.0836 12.3882 12.2229 12.2843 12.3622C12.059 12.6931 11.7645 12.9891 11.4526 13.2154Z" fill="#1F1C2C"/>
<path d="M56.6735 30.0175C56.3443 30.0175 56.0844 29.7563 56.0844 29.4255V29.1643C56.0497 28.0848 55.8418 27.2665 55.4433 26.6745C55.0622 26.1173 54.4558 25.7865 53.8667 25.7517C53.7107 25.7517 53.5548 25.682 53.4508 25.5775C53.3469 25.4731 53.2776 25.3164 53.2776 25.1597C53.2776 25.003 53.3469 24.8462 53.4508 24.7244C53.5548 24.6025 53.7107 24.5502 53.8667 24.5502C54.4384 24.5502 55.0448 24.1846 55.4433 23.6274C55.8418 23.0354 56.0497 22.2171 56.0844 21.1376C56.0844 20.8938 56.0844 20.6326 56.0844 20.3889C56.0844 20.2322 56.1364 20.058 56.2577 19.9536C56.4829 19.7098 56.8987 19.7098 57.124 19.9536C57.2279 20.0755 57.3145 20.2322 57.2972 20.3889C57.2972 20.6326 57.2972 20.8938 57.2972 21.1376C57.3319 22.2171 57.5398 23.0354 57.9383 23.6274C58.3021 24.1672 58.8912 24.5328 59.4457 24.5502C59.6709 24.5502 59.8788 24.707 59.9654 24.9333C60.0174 25.0726 60.0174 25.2467 59.9654 25.4034C59.8788 25.6298 59.6709 25.7691 59.4457 25.7865C58.8912 25.8039 58.3021 26.1695 57.9383 26.7093C57.5398 27.3013 57.3319 28.1196 57.2972 29.1992V29.4603C57.2972 29.7912 57.02 30.0523 56.7081 30.0523L56.6735 30.0175ZM55.5993 25.1248C55.9111 25.3512 56.1884 25.6472 56.4309 25.978C56.5176 26.1173 56.6042 26.2566 56.6908 26.4133C56.7601 26.2566 56.8467 26.1173 56.9507 25.978C57.1759 25.6472 57.4705 25.3512 57.7823 25.1248C57.4705 24.8985 57.1759 24.6025 56.9507 24.2717C56.8641 24.1324 56.7774 23.9931 56.6908 23.8364C56.6215 23.9931 56.5349 24.1324 56.4309 24.2717C56.2057 24.6025 55.9285 24.8985 55.5993 25.1248Z" fill="#1F1C2C"/>
<path d="M36.0382 3.74343C35.016 3.74343 34.1843 2.90767 34.1843 1.88038C34.1843 0.853093 35.016 0.017334 36.0382 0.017334C37.0604 0.017334 37.8921 0.853093 37.8921 1.88038C37.8921 2.90767 37.0604 3.74343 36.0382 3.74343ZM36.0382 1.20133C35.6744 1.20133 35.3798 1.49732 35.3798 1.88038C35.3798 2.26344 35.6744 2.55943 36.0382 2.55943C36.4021 2.55943 36.6966 2.26344 36.6966 1.88038C36.6966 1.49732 36.4021 1.20133 36.0382 1.20133Z" fill="#1F1C2C"/>
<path d="M1.85388 42.136C0.831649 42.136 0 41.3002 0 40.273C0 39.2457 0.831649 38.4099 1.85388 38.4099C2.87612 38.4099 3.70777 39.2457 3.70777 40.273C3.70777 41.3002 2.87612 42.136 1.85388 42.136ZM1.85388 39.5939C1.49004 39.5939 1.1955 39.8899 1.1955 40.273C1.1955 40.656 1.49004 40.952 1.85388 40.952C2.21773 40.952 2.51227 40.656 2.51227 40.273C2.51227 39.8899 2.21773 39.5939 1.85388 39.5939Z" fill="#1F1C2C"/>
<path d="M16.5118 66.5646C16.5118 66.5646 16.4598 66.5646 16.4425 66.5646C16.1133 66.5298 15.8881 66.2164 15.9227 65.903C16.5464 60.9755 18.1404 56.6052 21.0685 51.7299C21.2418 51.4513 21.6056 51.3643 21.8829 51.521C22.1601 51.6951 22.2467 52.0607 22.0908 52.3393C19.2493 57.0579 17.7246 61.2889 17.1182 66.0423C17.0835 66.3383 16.8237 66.5646 16.5291 66.5646H16.5118Z" fill="#1F1C2C"/>
<path d="M27.5657 34.3009C27.2018 34.3009 26.8553 34.2486 26.5088 34.1442C26.2836 34.0745 26.1623 34.0571 26.093 34.0397C25.7118 34.0919 25.4866 33.7959 25.4692 33.4825C25.4692 33.1517 25.7118 32.8731 26.0237 32.8557C26.3009 32.8557 26.5435 32.9254 26.7514 32.9776C27.3924 33.1691 28.0162 33.1343 28.5359 32.9254C28.8305 32.8035 29.1943 32.9428 29.3156 33.2562C29.4369 33.5696 29.2983 33.9178 28.9864 34.0397C28.5359 34.2312 28.0508 34.3183 27.5657 34.3183V34.3009Z" fill="#1F1C2C"/>
</g>
<defs>
<clipPath id="clip0_19926_149824">
<rect width="60" height="67" fill="white"/>
</clipPath>
</defs>
</svg>
