<svg width="513" height="606" viewBox="0 0 513 606" fill="none" xmlns="http://www.w3.org/2000/svg">
<path d="M5.41797 571.731V91.8686C5.41797 77.5954 15.6193 65.5207 29.3142 63.6014L480.477 0.261877C497.055 -2.05883 511.798 11.2547 511.798 28.5291V536.554C511.798 551.472 500.67 563.879 486.259 564.995L35.1136 600.19C19.0954 601.446 5.41797 588.342 5.41797 571.748V571.731Z" fill="#F2F0FB"/>
<g opacity="0.45">
<path d="M358.215 84.0688C355.053 84.0688 351.874 83.8419 348.782 83.6151C345.621 83.3883 342.302 83.1614 339.175 83.1614L325.655 83.2312C321.986 83.2487 318.336 83.2661 314.667 83.2487C309.636 83.2138 304.588 83.1265 299.557 83.0218C293.758 82.8997 287.976 82.8125 282.177 82.7252C276.273 82.638 270.368 82.5333 264.464 82.4111L258.822 82.289L258.944 82.2541C244.044 82.0622 203.658 82.0273 199.815 82.5158C190.592 83.6675 181.159 83.493 172.041 83.3359L128.057 82.5333C125.926 82.4984 123.777 82.4635 121.681 82.5856C120.301 82.6729 118.938 82.8474 117.576 83.0044C116.737 83.1091 115.882 83.2138 115.043 83.2836C110.886 83.7024 106.641 83.7198 102.536 83.7198L5.95543 83.999C5.46633 83.999 5.08203 83.6151 5.08203 83.1265C5.08203 82.638 5.46633 82.2541 5.95543 82.2541L102.536 81.9749C106.589 81.9749 110.781 81.9575 114.868 81.5387C115.707 81.4514 116.545 81.3467 117.366 81.2595C118.764 81.085 120.161 80.928 121.576 80.8407C123.742 80.7011 125.926 80.736 128.039 80.7709L172.093 81.5736C181.159 81.7481 190.522 81.9051 199.606 80.7709C202.89 80.3522 224.829 80.3522 234.105 80.3696C255.136 80.4045 261.914 80.422 264.167 80.7011H264.237C264.324 80.7011 264.412 80.7186 264.499 80.736V80.6313C270.403 80.7535 276.308 80.8407 282.212 80.9454C288.011 81.0327 293.793 81.1374 299.592 81.2421C304.623 81.3468 309.654 81.4514 314.685 81.4689C318.336 81.4689 322.004 81.4689 325.655 81.4514L339.175 81.3816C342.406 81.3467 345.725 81.6085 348.905 81.8353C352.957 82.132 357.132 82.4286 361.185 82.2017C364.154 82.0447 367.176 81.7655 370.093 81.5038L370.879 81.434C379.037 80.7186 387.299 80.0381 395.474 79.4448C400.068 79.1133 405.256 78.7294 410.409 79.0958C413.833 79.3401 417.274 79.9159 420.593 80.4743C426.131 81.3991 431.86 82.3588 437.45 81.7306C444.716 80.9105 452.123 80.8058 459.302 80.7011L462.569 80.6488C467.39 80.5616 472.333 80.9105 477.102 81.2421C486.465 81.8877 496.142 82.5507 505.191 79.9857C507.392 79.3576 509.191 80.1428 510.955 80.9105C511.427 81.1199 511.916 81.3293 512.44 81.5212C512.894 81.6957 513.121 82.1843 512.946 82.638C512.772 83.0916 512.265 83.3185 511.828 83.144C511.287 82.9346 510.763 82.7252 510.274 82.4984C508.597 81.7655 507.269 81.1897 505.68 81.6434C496.352 84.2956 486.517 83.6151 476.997 82.9521C472.263 82.6205 467.372 82.289 462.621 82.3762L459.355 82.4286C452.228 82.5333 444.856 82.638 437.677 83.4406C431.843 84.1037 425.991 83.1091 420.331 82.1668C417.047 81.6085 413.641 81.0501 410.305 80.8058C405.274 80.4569 400.156 80.8233 395.631 81.1548C387.474 81.7481 379.211 82.4286 371.071 83.144L370.285 83.2138C367.351 83.4755 364.311 83.7372 361.324 83.9117C360.311 83.9641 359.281 83.999 358.267 83.999L358.215 84.0688Z" fill="#515CA6"/>
<path d="M358.215 144.389C355.053 144.389 351.874 144.163 348.782 143.936C345.621 143.709 342.302 143.482 339.175 143.482L325.655 143.552C321.986 143.569 318.318 143.587 314.667 143.552C309.636 143.517 304.588 143.43 299.557 143.325C293.706 143.203 287.854 143.116 282.02 143.028C276.168 142.941 270.316 142.837 264.464 142.732L258.822 142.61L258.944 142.575C244.044 142.383 203.658 142.348 199.815 142.837C190.575 143.988 181.159 143.814 172.041 143.657L128.057 142.854C125.961 142.819 123.795 142.784 121.681 142.906C120.301 142.994 118.921 143.168 117.541 143.325C116.702 143.43 115.882 143.517 115.043 143.604C110.868 144.023 106.623 144.04 102.536 144.04L5.95543 144.32C5.46633 144.32 5.08203 143.936 5.08203 143.447C5.08203 142.959 5.46633 142.575 5.95543 142.575L102.536 142.296C106.589 142.296 110.763 142.278 114.868 141.859C115.689 141.772 116.51 141.685 117.331 141.58C118.746 141.406 120.144 141.249 121.559 141.144C123.742 141.004 125.943 141.039 128.074 141.074L172.059 141.877C181.107 142.051 190.452 142.226 199.571 141.074C202.855 140.655 224.794 140.655 234.07 140.673C255.101 140.708 261.879 140.725 264.132 141.004H264.202C264.29 141.004 264.377 141.022 264.464 141.039V140.935C270.316 141.057 276.168 141.144 282.02 141.231C287.871 141.318 293.723 141.423 299.575 141.528C304.606 141.633 309.636 141.737 314.667 141.755C318.318 141.772 321.986 141.755 325.637 141.755L339.157 141.685C342.389 141.685 345.708 141.912 348.887 142.139C352.94 142.435 357.114 142.732 361.167 142.505C364.224 142.33 367.316 142.069 370.32 141.79L370.862 141.737C379.019 141.022 387.282 140.359 395.457 139.748C400.033 139.417 405.239 139.033 410.392 139.399C413.816 139.643 417.239 140.219 420.576 140.778C426.113 141.702 431.843 142.662 437.45 142.034C443.721 141.336 477.312 141.161 497.365 141.057C503.985 141.022 509.103 141.004 511.182 140.969C511.706 140.952 512.056 141.353 512.073 141.824C512.073 142.313 511.689 142.697 511.217 142.714C509.138 142.749 504.02 142.767 497.382 142.802C477.347 142.906 443.826 143.063 437.642 143.761C431.808 144.407 425.956 143.43 420.296 142.488C417.012 141.929 413.623 141.371 410.287 141.127C405.256 140.76 400.138 141.144 395.614 141.475C387.456 142.069 379.194 142.749 371.054 143.465L370.512 143.517C367.49 143.779 364.381 144.058 361.307 144.232C360.294 144.285 359.263 144.32 358.25 144.32L358.215 144.389Z" fill="#515CA6"/>
<path d="M358.215 212.37C355.053 212.37 351.874 212.143 348.782 211.916C345.621 211.69 342.302 211.463 339.175 211.463L325.655 211.533C321.986 211.55 318.336 211.568 314.667 211.55C309.636 211.515 304.588 211.428 299.557 211.323C293.706 211.201 287.854 211.114 282.02 211.027C276.168 210.939 270.316 210.835 264.464 210.73L258.857 210.625L258.979 210.59C244.114 210.398 203.658 210.364 199.815 210.852C190.592 212.004 181.159 211.829 172.041 211.672L128.057 210.87C125.926 210.835 123.777 210.8 121.681 210.922C120.301 211.009 118.938 211.184 117.576 211.341C116.737 211.445 115.882 211.55 115.043 211.62C110.886 212.039 106.641 212.056 102.536 212.056L5.95543 212.335C5.46633 212.335 5.08203 211.951 5.08203 211.463C5.08203 210.974 5.46633 210.59 5.95543 210.59L102.536 210.311C106.589 210.311 110.781 210.294 114.868 209.875C115.707 209.788 116.545 209.683 117.366 209.596C118.764 209.421 120.161 209.264 121.576 209.177C123.742 209.037 125.926 209.072 128.039 209.107L172.093 209.91C181.159 210.084 190.522 210.241 199.606 209.107C202.89 208.688 224.829 208.688 234.105 208.706C255.136 208.741 261.931 208.758 264.185 209.037H264.255C264.342 209.037 264.429 209.055 264.517 209.072V208.968C270.368 209.09 276.22 209.177 282.072 209.264C287.924 209.352 293.776 209.456 299.627 209.561C304.658 209.666 309.689 209.77 314.72 209.788C318.37 209.788 322.039 209.788 325.69 209.77L339.21 209.7C342.441 209.7 345.76 209.927 348.939 210.154C352.992 210.451 357.167 210.747 361.219 210.521C364.189 210.364 367.211 210.084 370.128 209.823L370.914 209.753C379.072 209.037 387.334 208.357 395.509 207.764C400.103 207.432 405.291 207.048 410.444 207.415C413.868 207.659 417.309 208.235 420.628 208.793C426.165 209.718 431.895 210.678 437.485 210.049C444.751 209.229 452.158 209.125 459.337 209.02L462.604 208.968C467.425 208.898 472.368 209.229 477.137 209.561C486.5 210.207 496.177 210.87 505.226 208.305C507.427 207.676 509.226 208.462 510.99 209.229C511.462 209.439 511.951 209.648 512.475 209.84C512.929 210.015 513.156 210.503 512.981 210.957C512.807 211.41 512.3 211.637 511.863 211.463C511.322 211.253 510.798 211.044 510.309 210.817C508.632 210.084 507.304 209.509 505.715 209.962C496.387 212.614 486.552 211.934 477.032 211.271C472.298 210.939 467.407 210.608 462.656 210.695L459.39 210.747C452.263 210.852 444.891 210.957 437.712 211.759C431.877 212.423 426.026 211.428 420.366 210.486C417.082 209.927 413.676 209.369 410.339 209.125C405.309 208.776 400.191 209.142 395.666 209.474C387.509 210.067 379.246 210.747 371.106 211.463L370.32 211.533C367.386 211.794 364.346 212.056 361.359 212.231C360.346 212.283 359.315 212.318 358.302 212.318L358.215 212.37Z" fill="#515CA6"/>
<path d="M357.797 307.153C354.635 307.153 351.456 306.926 348.364 306.699C345.203 306.473 341.901 306.246 338.757 306.246L325.237 306.316C321.568 306.333 317.9 306.35 314.249 306.316C309.219 306.281 304.17 306.193 299.139 306.089C293.288 305.967 287.436 305.879 281.602 305.792C275.75 305.705 269.898 305.6 264.046 305.495L258.387 305.373L258.509 305.338C243.591 305.147 203.223 305.112 199.397 305.6C190.157 306.752 180.741 306.577 171.623 306.42L127.639 305.618C125.543 305.583 123.377 305.53 121.263 305.67C119.883 305.757 118.503 305.932 117.123 306.089C116.285 306.193 115.464 306.281 114.625 306.368C110.45 306.787 106.206 306.804 102.118 306.804L5.53746 307.083C5.04836 307.083 4.66406 306.699 4.66406 306.211C4.66406 305.722 5.04836 305.338 5.53746 305.338L102.118 305.059C106.171 305.059 110.345 305.042 114.45 304.623C115.271 304.536 116.092 304.449 116.913 304.344C118.328 304.169 119.726 304.012 121.141 303.908C123.324 303.768 125.525 303.803 127.656 303.838L171.641 304.64C180.689 304.815 190.034 304.989 199.153 303.838C202.437 303.419 224.376 303.419 233.652 303.437C254.683 303.471 261.461 303.489 263.714 303.768H263.784C263.872 303.768 263.959 303.785 264.029 303.803V303.698C269.881 303.82 275.732 303.908 281.567 303.995C287.418 304.082 293.27 304.187 299.122 304.292C304.153 304.396 309.184 304.501 314.214 304.518C317.865 304.536 321.533 304.518 325.184 304.518L338.704 304.449C341.954 304.431 345.255 304.675 348.434 304.902C352.487 305.199 356.662 305.495 360.714 305.269C363.754 305.094 366.845 304.832 369.85 304.553L370.409 304.501C378.566 303.785 386.829 303.122 395.004 302.512C399.598 302.18 404.786 301.796 409.939 302.163C413.363 302.407 416.786 302.983 420.123 303.541C425.66 304.466 431.407 305.426 436.997 304.798C444.229 303.977 451.635 303.873 458.779 303.768L462.116 303.716C466.972 303.628 471.88 303.977 476.649 304.309C486.012 304.955 495.689 305.618 504.738 303.053C506.921 302.424 508.755 303.227 510.502 303.977C510.974 304.187 511.463 304.396 511.969 304.588C512.424 304.763 512.651 305.251 512.476 305.705C512.301 306.159 511.795 306.385 511.358 306.211C510.817 306.002 510.31 305.792 509.803 305.565C508.127 304.832 506.799 304.257 505.209 304.71C495.864 307.363 486.029 306.682 476.527 306.019C471.793 305.687 466.902 305.356 462.151 305.443L458.814 305.495C451.705 305.6 444.351 305.705 437.189 306.508C431.355 307.171 425.485 306.176 419.843 305.234C416.559 304.675 413.171 304.117 409.834 303.873C404.821 303.506 399.685 303.89 395.161 304.222C387.003 304.815 378.741 305.495 370.601 306.211L370.042 306.263C367.038 306.525 363.928 306.804 360.854 306.979C359.841 307.031 358.81 307.066 357.797 307.066V307.153Z" fill="#515CA6"/>
<path d="M357.797 394.101C354.635 394.101 351.456 393.874 348.364 393.647C345.203 393.42 341.901 393.176 338.757 393.193L325.237 393.263C321.568 393.281 317.9 393.298 314.249 393.263C309.219 393.228 304.17 393.141 299.139 393.036C293.288 392.914 287.436 392.827 281.602 392.74C275.75 392.652 269.898 392.548 264.046 392.443L258.387 392.338L258.509 392.303C243.609 392.129 203.223 392.077 199.397 392.565C190.157 393.717 180.741 393.542 171.623 393.385L127.639 392.583C125.543 392.548 123.377 392.513 121.263 392.635C119.883 392.722 118.503 392.897 117.123 393.054C116.285 393.158 115.464 393.246 114.625 393.333C110.485 393.752 106.258 393.769 102.17 393.769L5.53746 394.048C5.04836 394.048 4.66406 393.664 4.66406 393.176C4.66406 392.687 5.04836 392.303 5.53746 392.303L102.118 392.024C106.206 392.024 110.38 391.989 114.45 391.588C115.271 391.501 116.092 391.414 116.913 391.309C118.328 391.134 119.726 390.977 121.141 390.873C123.324 390.733 125.525 390.768 127.656 390.803L171.641 391.605C180.689 391.762 190.034 391.937 199.153 390.803C202.437 390.401 224.394 390.401 233.652 390.401C254.683 390.436 261.461 390.454 263.714 390.733H263.784C263.872 390.733 263.959 390.75 264.029 390.768V390.663C269.881 390.785 275.732 390.873 281.567 390.96C287.418 391.047 293.27 391.152 299.122 391.256C304.153 391.361 309.184 391.466 314.214 391.483C317.865 391.501 321.533 391.483 325.184 391.483L338.704 391.414C341.954 391.414 345.255 391.64 348.434 391.867C352.487 392.164 356.662 392.46 360.714 392.234C363.684 392.077 366.688 391.797 369.605 391.553L370.409 391.483C378.566 390.768 386.829 390.105 395.004 389.494C399.598 389.163 404.786 388.779 409.939 389.145C413.363 389.389 416.786 389.965 420.123 390.524C425.66 391.448 431.407 392.408 436.997 391.78C444.264 390.96 451.67 390.855 458.849 390.75L462.116 390.698C466.954 390.628 471.88 390.96 476.649 391.291C486.012 391.937 495.689 392.6 504.738 390.035C506.921 389.407 508.755 390.21 510.502 390.96C510.974 391.169 511.463 391.379 511.969 391.571C512.424 391.745 512.651 392.234 512.476 392.687C512.301 393.141 511.795 393.368 511.358 393.193C510.817 392.984 510.31 392.775 509.803 392.548C508.127 391.815 506.799 391.239 505.209 391.693C495.881 394.345 486.029 393.664 476.527 393.001C471.793 392.67 466.902 392.338 462.151 392.426L458.884 392.478C451.757 392.583 444.368 392.687 437.206 393.49C431.372 394.153 425.503 393.158 419.861 392.216C416.577 391.658 413.188 391.099 409.852 390.855C404.838 390.489 399.703 390.873 395.178 391.204C387.021 391.797 378.759 392.478 370.618 393.193L369.815 393.263C366.88 393.525 363.858 393.787 360.871 393.961C359.858 394.013 358.828 394.048 357.814 394.048L357.797 394.101Z" fill="#515CA6"/>
</g>
<path d="M339.668 248.089L425.802 269.359C428.929 270.127 430.693 273.46 429.593 276.478L355.773 476.861C354.795 479.496 351.965 480.962 349.258 480.212L254.267 454.056C251.105 453.183 249.445 449.746 250.721 446.727L333.397 251.23C334.427 248.787 337.1 247.443 339.685 248.089H339.668Z" fill="#163B24"/>
<path d="M336.468 242.54L422.603 263.81C425.73 264.578 427.494 267.911 426.394 270.929L352.574 471.312C351.596 473.947 348.766 475.413 346.058 474.663L251.067 448.507C247.906 447.634 246.246 444.197 247.521 441.178L330.197 245.681C331.228 243.238 333.901 241.894 336.486 242.54H336.468Z" fill="#201E28"/>
<path d="M347.51 476.617C346.863 476.617 346.217 476.53 345.571 476.355L250.58 450.199C247.697 449.414 245.601 446.884 245.339 443.9C245.252 442.941 245.968 442.103 246.929 442.016C247.872 441.911 248.728 442.644 248.815 443.604C248.955 445.122 250.021 446.43 251.505 446.832L346.496 472.988C348.365 473.494 350.252 472.516 350.916 470.719L424.736 270.336C425.067 269.429 426.081 268.975 426.971 269.307C427.88 269.638 428.334 270.65 428.002 271.54L354.182 471.923C353.117 474.82 350.427 476.617 347.492 476.617H347.51Z" fill="#E3EEFD"/>
<path d="M395.688 285.639C395.111 285.639 394.517 285.569 393.923 285.43L338.166 272.482C336.052 271.994 334.253 270.633 333.205 268.731C332.157 266.846 331.964 264.578 332.681 262.554C333.956 258.89 337.764 256.761 341.554 257.616L397.469 270.074C399.566 270.546 401.382 271.889 402.43 273.739C403.496 275.606 403.723 277.839 403.059 279.881L402.902 280.369C401.854 283.58 398.919 285.621 395.688 285.621V285.639ZM339.878 259.169C337.415 259.169 335.161 260.722 334.323 263.112C333.781 264.683 333.921 266.428 334.724 267.876C335.528 269.342 336.925 270.389 338.55 270.755L394.308 283.702C397.295 284.4 400.282 282.725 401.225 279.811L401.382 279.322C401.889 277.752 401.732 276.025 400.911 274.594C400.09 273.163 398.692 272.116 397.085 271.767L341.17 259.309C340.733 259.204 340.314 259.169 339.878 259.169Z" fill="#E3EEFD"/>
<path d="M408.842 284.731C407.427 284.731 406.082 283.876 405.54 282.463C404.841 280.648 405.75 278.589 407.584 277.891C409.4 277.193 411.462 278.101 412.16 279.933C412.859 281.748 411.951 283.807 410.117 284.505C409.697 284.662 409.278 284.731 408.859 284.731H408.842ZM408.842 279.409C408.632 279.409 408.405 279.444 408.195 279.532C407.269 279.881 406.815 280.927 407.165 281.852C407.514 282.777 408.562 283.248 409.488 282.882C409.942 282.707 410.291 282.376 410.484 281.94C410.676 281.503 410.693 281.015 410.518 280.561C410.239 279.846 409.558 279.409 408.842 279.409Z" fill="#E3EEFD"/>
<path d="M412.144 288.78C411.865 288.78 411.603 288.657 411.428 288.413C410.834 287.558 410.52 286.947 410.17 286.232C409.891 285.674 409.577 285.046 409.035 284.121C408.791 283.702 408.93 283.178 409.332 282.917C409.751 282.672 410.275 282.812 410.537 283.213C411.114 284.173 411.446 284.854 411.743 285.429C412.074 286.11 412.337 286.633 412.861 287.384C413.14 287.785 413.035 288.326 412.651 288.605C412.494 288.71 412.319 288.762 412.144 288.762V288.78Z" fill="#E3EEFD"/>
<path d="M325.588 288.849C325.99 287.959 326.391 287.034 327.108 286.371C328.243 285.307 329.903 285.028 331.475 285.062C335.038 285.115 358.201 289.145 358.428 294.537C358.515 296.84 348.192 323.555 345.571 325.143C343.301 326.504 340.418 326.085 337.833 325.544C333.012 324.532 315.09 322.054 315.055 316.052C315.037 312.073 318.234 306.751 319.666 303.087C321.553 298.306 323.527 293.56 325.605 288.849H325.588Z" fill="white"/>
<path d="M411.025 299.964C410.92 299.964 410.815 299.947 410.711 299.912C403.217 296.998 330.41 277.926 321.379 276.897C320.908 276.845 320.558 276.408 320.611 275.937C320.663 275.449 321.1 275.117 321.571 275.169C331.109 276.251 403.444 295.218 411.339 298.289C411.794 298.464 412.003 298.97 411.829 299.423C411.689 299.772 411.357 299.982 411.008 299.982L411.025 299.964Z" fill="#E3EEFD"/>
<path d="M352.158 448.646C352.053 448.646 351.948 448.629 351.843 448.594C344.35 445.68 271.543 426.608 262.512 425.579C262.04 425.526 261.691 425.09 261.743 424.619C261.796 424.13 262.233 423.799 262.704 423.851C272.242 424.933 344.559 443.9 352.472 446.971C352.926 447.145 353.136 447.651 352.961 448.105C352.822 448.454 352.49 448.663 352.14 448.663L352.158 448.646Z" fill="#E3EEFD"/>
<path d="M368.471 301.29C368.873 300.4 369.274 299.476 369.99 298.812C371.126 297.748 372.785 297.469 374.357 297.504C377.921 297.556 401.084 301.587 401.311 306.979C401.398 309.282 391.074 335.996 388.454 337.584C386.183 338.945 383.301 338.526 380.716 337.985C375.895 336.973 357.973 334.495 357.938 328.493C357.92 324.515 361.117 319.193 362.549 315.529C364.436 310.748 366.41 306.001 368.488 301.29H368.471Z" fill="white"/>
<path d="M308.607 331.023C309.009 330.133 309.411 329.208 310.127 328.545C311.263 327.481 312.922 327.201 314.494 327.236C318.058 327.289 341.22 331.319 341.447 336.711C341.535 339.014 331.211 365.728 328.591 367.316C326.32 368.677 323.438 368.259 320.853 367.718C316.031 366.706 298.109 364.228 298.074 358.225C298.057 354.247 301.253 348.925 302.686 345.261C304.572 340.48 306.546 335.734 308.625 331.023H308.607Z" fill="white"/>
<path d="M351.51 343.464C351.912 342.574 352.313 341.649 353.03 340.986C354.165 339.922 355.824 339.643 357.397 339.678C360.96 339.73 384.123 343.761 384.35 349.152C384.437 351.456 374.113 378.17 371.493 379.758C369.222 381.119 366.34 380.7 363.755 380.159C358.934 379.147 341.012 376.669 340.977 370.667C340.959 366.689 344.156 361.367 345.588 357.702C347.475 352.921 349.449 348.175 351.527 343.464H351.51Z" fill="white"/>
<path d="M403.794 552.956C402.361 546.168 400.754 539.433 398.658 532.907C394.466 519.733 388.317 507.17 386.867 493.193C385.208 477.193 389.907 461.384 393.453 445.819C399.217 420.396 402.152 393.682 412.528 370.388C414.047 366.985 415.724 363.635 416.475 359.901C417.227 356.167 416.93 351.91 414.781 349.013C412.563 346.012 408.789 345.122 405.471 345.837C393.942 348.332 387.513 361.105 385.016 373.476C383.269 382.183 382.168 391.466 377.627 398.638C370.604 409.718 357.573 412.492 348.28 420.902C334.516 433.344 330.987 455.678 328.454 475.919C317.24 472.638 306.008 469.358 294.793 466.078C290.217 464.734 285.553 463.356 281.535 460.459C285.5 470.963 291.37 480.455 298.619 488.116C300.925 490.558 303.44 492.897 304.907 496.107C307.091 500.871 306.619 506.629 306.357 512.021C305.431 531.668 308.209 551.525 314.427 569.776C315.493 572.882 316.733 576.075 318.969 578.134C321.188 580.158 324.052 580.787 326.812 581.31C347.512 585.236 368.578 586.492 389.505 585.044C393.086 584.8 396.737 584.451 400.021 582.776C403.305 581.101 406.222 577.838 406.903 573.685C407.34 571.033 406.816 568.293 406.309 565.658C405.488 561.418 404.667 557.161 403.776 552.938L403.794 552.956Z" fill="#986A55"/>
<path d="M229.322 354.823C227.348 353.986 225.06 354.562 222.981 354.073C221.549 353.742 220.291 352.939 218.946 352.381C217.269 351.665 215.47 351.316 213.705 350.845C210.509 349.99 207.434 348.751 204.36 347.495C203.522 345.925 203.993 343.761 205.426 342.679C205.88 342.33 206.421 342.103 206.945 341.894C213.146 339.468 220.116 340.393 226.597 341.946C227.785 342.225 229.025 342.557 229.951 343.36C233.304 346.274 230.475 351.561 229.357 354.823H229.322Z" fill="white"/>
<path d="M6.07917 339.8C6.27131 338.561 6.4984 337.322 6.76042 336.101C8.59456 327.289 12.0532 318.896 15.6691 310.643C24.3507 290.786 34.255 271.313 46.8145 253.585C53.0331 244.808 59.898 236.467 67.5665 228.895C75.2349 221.322 83.4624 213.714 92.7553 209.003C95.7074 207.502 98.1005 205.199 100.983 203.489C104.197 201.587 107.656 200.121 111.219 199.022C118.381 196.806 125.945 196.021 133.421 196.056C147.622 196.126 161.754 198.778 175.955 198.289C185.161 197.958 194.367 196.3 203.555 196.998C213.25 197.731 222.525 201.046 231.643 204.414C243.434 208.759 256.43 214.482 260.85 226.225C263.295 232.716 262.562 239.975 261.077 246.762C254.981 274.628 236.709 301.656 243.626 329.33C244.919 334.495 247.068 339.486 247.539 344.773C248.011 350.06 246.299 356.062 241.687 358.697C240.255 359.517 238.578 360.006 237.39 361.157C233.949 364.525 236.534 371.347 232.884 374.506C226.263 371.504 219.311 369.236 212.184 367.788C210.752 367.491 209.232 367.229 207.834 367.683C205.738 368.364 204.463 370.44 203.433 372.377C194.314 389.459 188.462 409.142 173.859 421.862C165.562 429.086 153.684 435.891 154.487 446.849C146.295 442.434 137.683 438.787 128.809 435.995C126.364 435.228 123.761 434.512 121.281 435.158C117.542 436.118 115.272 439.799 113.385 443.15C107.533 453.549 101.681 463.949 95.8122 474.348C115.114 481.153 134.067 488.883 152.618 497.52C103.114 495.828 54.5354 513.434 5.03109 512.317C4.92628 463.687 4.804 415.039 4.69919 366.409C4.68173 357.51 4.66426 348.542 6.0617 339.782L6.07917 339.8Z" fill="#986A55"/>
<path d="M194.84 200.61C215.679 209.457 237.339 216.384 259.454 221.305C258.371 203.228 248.205 186.599 234.789 174.437C221.374 162.275 204.867 154.057 188.22 146.92C167.031 137.847 144.986 130.222 122.103 127.465C98.8707 124.655 65.7514 125.842 46.9209 141.598C28.1253 157.32 17.2952 181.102 12.7011 204.746C7.49564 231.617 9.45206 259.291 11.4434 286.598C12.0548 295.096 12.7884 303.943 17.2253 311.219C21.767 318.687 29.68 323.485 37.7677 326.783C47.1829 330.622 57.4716 332.803 67.5681 331.564C77.6646 330.325 87.534 325.37 93.4032 317.064C94.7832 315.093 95.9885 312.737 95.4994 310.381C94.9055 307.537 92.1805 305.792 89.9271 303.943C78.8873 294.834 77.2977 278.171 81.0359 264.369C84.8614 250.252 96.2505 235.962 110.854 237.079C121.719 237.899 130.366 247.338 133.719 257.703C137.073 268.068 136.217 279.252 135.326 290.106C133.213 315.843 131.099 341.597 128.986 367.335C127.833 381.294 126.715 395.497 129.841 409.142C133.964 427.184 145.755 443.342 161.686 452.799C180.149 463.757 206.998 463.984 220.465 447.268C230.632 434.652 230.387 416.889 229.654 400.697C229.566 398.708 229.444 396.614 228.378 394.921C227.348 393.264 225.566 392.251 223.854 391.309C216.465 387.209 208.098 381.52 208.116 373.075C208.116 371.697 208.395 370.231 209.356 369.236C210.998 367.544 213.793 367.945 216.081 368.538C221.828 370.022 227.453 371.941 232.903 374.262C235.907 369.167 238.667 363.025 236.449 357.563C233.986 351.508 226.422 349.223 219.906 349.641C213.373 350.06 207.033 352.381 200.499 352.328C189.075 352.224 178.734 344.721 172.411 335.211C166.088 325.701 163.17 314.412 160.742 303.262C158.175 291.449 156.026 279.514 155.415 267.44C154.978 258.872 155.886 249.066 162.681 243.814C166.192 241.092 170.699 240.097 174.787 238.335C188.936 232.28 197.74 215.739 194.857 200.628L194.84 200.61Z" fill="#151519"/>
<path d="M125.525 288.116C125.525 288.116 125.455 288.116 125.438 288.116C124.477 288.064 123.743 287.244 123.778 286.284C124.11 280.037 122.782 273.267 119.586 264.961C117.664 259.988 115.079 254.509 110.293 251.718C108.232 250.514 105.978 249.99 103.952 250.252C101.803 250.549 99.9168 251.77 99.0085 253.463C98.5543 254.318 97.5062 254.632 96.6503 254.178C95.7944 253.724 95.4799 252.66 95.9341 251.822C97.3665 249.153 100.266 247.233 103.498 246.797C106.275 246.413 109.332 247.094 112.075 248.699C117.804 252.067 120.843 258.488 122.852 263.705C126.224 272.482 127.639 279.723 127.272 286.476C127.219 287.401 126.451 288.133 125.525 288.133V288.116Z" fill="black"/>
<path d="M229.55 301.953C233.515 301.953 236.73 298.743 236.73 294.782C236.73 290.821 233.515 287.61 229.55 287.61C225.585 287.61 222.371 290.821 222.371 294.782C222.371 298.743 225.585 301.953 229.55 301.953Z" fill="#151519"/>
<path d="M248.905 277.437C248.416 277.437 247.927 277.228 247.595 276.844C241.237 269.551 229.795 267.055 220.974 271.034C220.1 271.435 219.052 271.034 218.668 270.161C218.266 269.289 218.668 268.242 219.541 267.858C229.708 263.269 242.914 266.148 250.233 274.541C250.862 275.274 250.792 276.373 250.058 277.001C249.726 277.298 249.324 277.437 248.905 277.437Z" fill="black"/>
<path d="M219.296 351.089C218.981 351.089 218.649 351.002 218.37 350.828C215.82 349.222 212.029 344.913 211.697 341.545C211.435 338.997 211.487 335.351 214.876 333.047C215.68 332.506 216.763 332.716 217.304 333.501C217.846 334.304 217.654 335.385 216.85 335.926C215.365 336.938 214.894 338.422 215.191 341.196C215.383 343.115 218.213 346.588 220.256 347.879C221.077 348.385 221.322 349.467 220.798 350.287C220.466 350.81 219.89 351.107 219.313 351.107L219.296 351.089Z" fill="black"/>
<path d="M119.728 436.047C119.518 436.047 119.291 436.013 119.082 435.925C116.13 434.756 114.907 433.168 113.475 431.319C113.16 430.917 112.828 430.481 112.461 430.028C106.103 422.228 101.998 412.858 100.601 402.877C100.461 401.917 101.125 401.045 102.085 400.905C103.046 400.748 103.92 401.429 104.059 402.389C105.369 411.724 109.212 420.518 115.169 427.812C115.571 428.3 115.92 428.754 116.252 429.19C117.58 430.917 118.331 431.877 120.374 432.68C121.265 433.029 121.702 434.058 121.353 434.948C121.073 435.629 120.427 436.047 119.728 436.047Z" fill="black"/>
<path d="M329.536 578.571C329.501 578.431 329.448 578.309 329.413 578.17C320.592 551.316 297.325 531.441 272.206 518.459C247.069 505.477 219.487 498.044 193.355 487.191C173.913 479.13 154.611 468.992 133.58 467.893C115.657 466.95 98.1545 472.691 80.3721 475.047C56.8777 478.135 32.3351 475.396 10.0285 483.387C8.59612 483.893 7.07641 484.539 6.32529 485.865C5.76631 486.86 5.76631 488.063 5.76631 489.215C5.80125 507.816 4.56102 526.434 2.0631 544.877C-0.137871 561.035 -2.79301 579.286 7.26856 592.129C18.7276 606.768 40.3005 606.838 57.1397 605.425C78.538 603.627 99.3423 605.041 120.758 604.482C143.152 603.889 165.564 602.406 187.713 598.934C199.032 597.154 210.299 594.886 221.723 593.804C237.2 592.338 252.816 593.123 268.328 592.146C287.735 590.925 306.845 586.964 325.885 583.02C327.457 582.689 329.326 582.113 329.745 580.543C329.92 579.897 329.78 579.216 329.588 578.571H329.536Z" fill="#A985FF"/>
<path d="M234.249 581.118C234.039 581.118 233.83 581.083 233.62 580.996C232.712 580.647 232.275 579.652 232.607 578.745C241.218 556.166 260.066 539.066 273.499 528.178C276.05 526.119 278.792 523.955 281.832 522.315C282.687 521.862 283.736 522.176 284.207 523.013C284.661 523.868 284.347 524.915 283.509 525.386C280.731 526.887 278.251 528.841 275.718 530.883C262.599 541.509 244.206 558.173 235.891 579.984C235.629 580.682 234.965 581.101 234.266 581.101L234.249 581.118Z" fill="black"/>
<path d="M298.497 282.236C295.632 278.711 292.819 274.977 288.889 272.709C284.959 270.44 279.509 270.074 276.19 273.18C273.937 275.291 273.116 278.554 273.098 281.643C273.046 290.454 278.408 298.271 283.544 305.443C288.348 312.126 292.191 317.483 296.977 324.165C300.366 316.209 303.422 309.282 307.37 299.58C308.942 295.706 309.397 295.026 307.021 291.78C304.558 288.413 301.134 285.499 298.479 282.236H298.497Z" fill="#986A55"/>
<path d="M268.87 374.087C263.961 377.263 260.345 382.358 258.948 388.029C258.127 391.379 258.057 394.886 257.288 398.271C256.625 401.22 255.454 404.029 254.389 406.874C252.188 412.771 250.476 418.843 249.27 425.02C248.886 427.01 248.554 429.051 248.956 431.04C249.358 433.029 250.668 434.949 252.607 435.525C253.533 435.804 254.528 435.751 255.489 435.612C261.55 434.774 267.001 430.464 269.201 424.776C269.726 423.398 270.092 421.967 270.442 420.536C271.402 416.627 272.363 412.719 273.306 408.81C273.953 406.193 274.582 403.576 274.983 400.923C275.368 398.411 275.542 395.863 276.066 393.368C276.783 389.966 278.163 386.738 279.525 383.544C280.643 380.91 281.761 378.292 282.879 375.657C283.857 373.354 285.586 371.435 282.827 370.405C278.931 368.922 272.014 372.063 268.835 374.105L268.87 374.087Z" fill="#986A55"/>
<path d="M272.975 355.556C268.067 358.732 264.451 363.827 263.053 369.498C262.232 372.848 262.162 376.355 261.394 379.741C260.73 382.689 259.56 385.499 258.494 388.343C256.293 394.241 254.581 400.313 253.376 406.49C252.992 408.479 252.66 410.52 253.062 412.51C253.463 414.499 254.773 416.418 256.712 416.994C257.638 417.273 258.634 417.221 259.595 417.081C265.656 416.244 271.106 411.934 273.307 406.245C273.831 404.867 274.198 403.436 274.547 402.005C275.508 398.097 276.469 394.188 277.412 390.28C278.058 387.662 278.687 385.045 279.089 382.393C279.473 379.88 279.648 377.333 280.172 374.837C280.888 371.435 282.268 368.207 283.631 365.014C284.748 362.379 281.307 359.971 282.443 357.354C283.421 355.05 285.15 353.131 282.39 352.102C278.495 350.618 276.119 353.532 272.958 355.591L272.975 355.556Z" fill="#986A55"/>
<path d="M279.526 338.595C274.617 341.771 271.001 346.866 269.604 352.537C268.783 355.887 268.713 359.395 267.945 362.78C267.281 365.728 266.11 368.538 265.045 371.382C262.844 377.28 261.132 383.352 259.927 389.529C259.542 391.518 259.211 393.559 259.612 395.549C260.014 397.538 261.324 399.457 263.263 400.033C264.189 400.312 265.185 400.26 266.145 400.12C272.207 399.283 277.657 394.973 279.858 389.284C280.382 387.906 280.749 386.475 281.098 385.044C282.059 381.136 283.019 377.227 283.963 373.319C284.609 370.701 285.238 368.084 285.64 365.432C286.024 362.919 284.225 360.424 284.749 357.929C285.465 354.526 285.779 350.984 287.142 347.774C288.26 345.139 289.989 341.195 291.107 338.578C292.085 336.275 293.815 334.355 291.055 333.326C287.159 331.843 282.653 336.554 279.491 338.613L279.526 338.595Z" fill="#986A55"/>
<path d="M291.856 311.289C290.965 311.289 290.214 310.626 290.127 309.718C289.969 308.183 290.721 306.909 291.227 306.054L297.201 295.916C297.69 295.079 298.756 294.817 299.594 295.306C300.433 295.794 300.695 296.858 300.206 297.696L294.232 307.851C293.97 308.305 293.55 308.985 293.603 309.387C293.69 310.346 292.991 311.201 292.031 311.289C291.978 311.289 291.908 311.289 291.856 311.289Z" fill="black"/>
<path d="M262.858 402.459C261.688 402.459 260.605 402.04 259.697 401.22C257.146 398.882 256.762 393.874 257.461 391.309C257.932 389.582 258.334 387.837 258.753 386.109C259.068 384.766 259.382 383.422 259.732 382.079C260.011 380.997 260.203 379.915 260.413 378.816C260.727 377.123 261.059 375.378 261.653 373.651C262.212 371.993 263.016 370.301 263.784 368.661C265.199 365.677 266.666 362.571 266.701 359.709C266.701 358.75 267.435 357.982 268.483 357.999C269.444 357.999 270.212 358.819 270.195 359.779C270.125 363.408 268.501 366.846 266.928 370.161C266.16 371.784 265.444 373.319 264.937 374.785C264.431 376.268 264.134 377.821 263.837 379.461C263.627 380.596 263.4 381.782 263.103 382.951C262.771 384.26 262.457 385.586 262.142 386.912C261.723 388.692 261.304 390.489 260.815 392.251C260.36 393.927 260.71 397.451 262.037 398.655C262.334 398.934 262.754 399.144 263.644 398.812C264.431 398.516 265.339 398.254 266.23 397.992C266.736 397.853 267.225 397.696 267.68 397.556C269.619 396.928 271.47 396.055 273.409 395.131C273.951 394.869 274.562 394.59 274.789 394.258C275.365 393.473 276.449 393.316 277.235 393.874C278.021 394.45 278.178 395.532 277.619 396.317C276.85 397.364 275.75 397.887 274.929 398.271C272.937 399.214 270.911 400.173 268.745 400.871C268.256 401.028 267.732 401.185 267.19 401.342C266.387 401.569 265.566 401.813 264.867 402.075C264.169 402.337 263.487 402.459 262.841 402.459H262.858Z" fill="black"/>
<path d="M257.217 419.087C256.903 419.087 256.554 419.053 256.222 418.948C255.436 418.721 254.859 418.232 254.44 417.849C252.85 416.365 251.68 414.498 251.034 412.439C250.754 411.515 251.261 410.538 252.187 410.258C253.112 409.979 254.091 410.485 254.37 411.41C254.842 412.893 255.68 414.254 256.833 415.319C257.095 415.563 257.2 415.615 257.217 415.633C257.357 415.633 257.846 415.476 258.143 415.371C258.388 415.284 258.615 415.196 258.859 415.127C259.663 414.882 260.484 414.813 261.2 414.743C261.812 414.69 262.405 414.638 262.877 414.481C263.646 414.254 264.397 413.696 265.13 413.172C266.58 412.125 268.013 411.078 269.445 410.014C270.685 409.107 271.838 408.112 271.891 407.1C271.943 406.14 272.746 405.373 273.725 405.46C274.685 405.512 275.419 406.332 275.367 407.292C275.209 410.084 272.799 411.864 271.506 412.823C270.056 413.888 268.607 414.952 267.157 415.999C266.283 416.627 265.2 417.412 263.908 417.814C263.069 418.075 262.248 418.145 261.515 418.215C260.903 418.267 260.344 418.32 259.855 418.477C259.68 418.529 259.506 418.599 259.331 418.651C258.755 418.861 258.038 419.122 257.235 419.122L257.217 419.087Z" fill="black"/>
<path d="M328.103 477.071C327.823 477.071 327.526 477.001 327.247 476.844C326.495 476.46 321.238 475.012 316.172 473.598C298.634 468.73 283.839 464.455 280.415 461.489C279.681 460.861 279.611 459.761 280.24 459.028C280.869 458.296 281.97 458.226 282.703 458.854C285.813 461.541 306.18 467.195 317.115 470.248C325.168 472.482 328.068 473.319 328.958 473.808C329.797 474.279 330.111 475.343 329.64 476.181C329.325 476.757 328.731 477.071 328.103 477.071Z" fill="black"/>
<path d="M325.31 311.324L337.083 298.446C337.24 298.272 337.485 298.237 337.694 298.324L345.118 301.971C345.415 302.128 345.503 302.512 345.276 302.774L333.17 316.733C332.995 316.925 332.716 316.96 332.489 316.82L325.414 312.074C325.152 311.9 325.1 311.533 325.327 311.306L325.31 311.324Z" fill="#2D2D36"/>
<path d="M325.274 310.748L337.048 297.87C337.205 297.696 337.45 297.661 337.659 297.748L345.083 301.395C345.38 301.552 345.467 301.936 345.24 302.198L333.135 316.157C332.96 316.349 332.681 316.384 332.454 316.244L325.379 311.498C325.117 311.323 325.065 310.957 325.292 310.73L325.274 310.748Z" fill="#8CB2F9"/>
<path d="M337.793 301.824C338.405 301.208 338.572 300.384 338.168 299.983C337.764 299.583 336.941 299.758 336.329 300.374C335.718 300.99 335.55 301.814 335.955 302.214C336.359 302.614 337.182 302.439 337.793 301.824Z" fill="#2D2D36"/>
<path d="M337.383 301.571C337.994 300.955 338.162 300.131 337.758 299.731C337.354 299.33 336.531 299.505 335.919 300.121C335.308 300.737 335.14 301.561 335.544 301.961C335.949 302.361 336.772 302.187 337.383 301.571Z" fill="white"/>
<path d="M335.353 301.744C335.353 301.744 335.214 301.709 335.161 301.639C335.091 301.534 335.126 301.395 335.231 301.342L337.816 299.807C337.921 299.755 338.061 299.772 338.113 299.877C338.166 299.981 338.148 300.121 338.044 300.173L335.458 301.709C335.458 301.709 335.388 301.744 335.353 301.744Z" fill="black"/>
<path d="M341.856 304.268C342.467 303.652 342.635 302.828 342.231 302.428C341.826 302.028 341.003 302.202 340.392 302.818C339.781 303.434 339.613 304.258 340.017 304.658C340.421 305.059 341.245 304.884 341.856 304.268Z" fill="#2D2D36"/>
<path d="M341.446 304.015C342.057 303.399 342.225 302.575 341.821 302.175C341.416 301.775 340.593 301.949 339.982 302.565C339.371 303.181 339.203 304.005 339.607 304.405C340.011 304.806 340.834 304.631 341.446 304.015Z" fill="white"/>
<path d="M339.424 304.205C339.424 304.205 339.284 304.17 339.232 304.1C339.162 303.995 339.197 303.856 339.302 303.803L341.887 302.268C341.992 302.215 342.131 302.233 342.184 302.338C342.254 302.442 342.219 302.582 342.114 302.634L339.529 304.17C339.529 304.17 339.459 304.205 339.424 304.205Z" fill="black"/>
<path d="M333.641 306.174C334.252 305.558 334.42 304.734 334.016 304.334C333.612 303.934 332.788 304.109 332.177 304.725C331.566 305.341 331.398 306.164 331.802 306.565C332.206 306.965 333.03 306.79 333.641 306.174Z" fill="#2D2D36"/>
<path d="M333.243 305.908C333.854 305.293 334.022 304.469 333.617 304.068C333.213 303.668 332.39 303.843 331.779 304.459C331.167 305.075 331 305.899 331.404 306.299C331.808 306.699 332.631 306.524 333.243 305.908Z" fill="white"/>
<path d="M331.193 306.088C331.193 306.088 331.054 306.053 331.001 305.984C330.931 305.879 330.966 305.739 331.071 305.687L333.656 304.152C333.761 304.082 333.901 304.117 333.953 304.221C334.023 304.326 333.988 304.466 333.883 304.518L331.298 306.053C331.298 306.053 331.228 306.088 331.193 306.088Z" fill="black"/>
<path d="M337.703 308.618C338.315 308.002 338.483 307.179 338.078 306.778C337.674 306.378 336.851 306.553 336.24 307.169C335.628 307.785 335.461 308.609 335.865 309.009C336.269 309.409 337.092 309.234 337.703 308.618Z" fill="#2D2D36"/>
<path d="M337.305 308.353C337.916 307.737 338.084 306.913 337.68 306.513C337.276 306.112 336.452 306.287 335.841 306.903C335.23 307.519 335.062 308.343 335.466 308.743C335.871 309.144 336.694 308.969 337.305 308.353Z" fill="white"/>
<path d="M335.268 308.549C335.268 308.549 335.128 308.515 335.075 308.445C335.006 308.34 335.04 308.2 335.145 308.148L337.731 306.613C337.835 306.56 337.975 306.578 338.027 306.682C338.097 306.787 338.062 306.927 337.958 306.979L335.372 308.514C335.372 308.514 335.302 308.549 335.268 308.549Z" fill="black"/>
<path d="M329.977 310.556C330.588 309.94 330.756 309.116 330.352 308.716C329.948 308.316 329.124 308.49 328.513 309.106C327.902 309.722 327.734 310.546 328.138 310.946C328.542 311.347 329.366 311.172 329.977 310.556Z" fill="#2D2D36"/>
<path d="M329.567 310.303C330.178 309.687 330.346 308.863 329.942 308.463C329.537 308.063 328.714 308.238 328.103 308.853C327.492 309.469 327.324 310.293 327.728 310.694C328.132 311.094 328.955 310.919 329.567 310.303Z" fill="white"/>
<path d="M327.545 310.486C327.545 310.486 327.405 310.451 327.353 310.381C327.283 310.277 327.318 310.137 327.423 310.085L330.008 308.549C330.113 308.497 330.252 308.514 330.305 308.619C330.375 308.724 330.34 308.863 330.235 308.916L327.65 310.451C327.65 310.451 327.58 310.486 327.545 310.486Z" fill="black"/>
<path d="M334.067 313.013C334.678 312.397 334.846 311.573 334.442 311.173C334.037 310.773 333.214 310.947 332.603 311.563C331.992 312.179 331.824 313.003 332.228 313.403C332.632 313.804 333.455 313.629 334.067 313.013Z" fill="#2D2D36"/>
<path d="M333.645 312.747C334.256 312.131 334.424 311.308 334.02 310.907C333.616 310.507 332.792 310.682 332.181 311.298C331.57 311.914 331.402 312.738 331.806 313.138C332.21 313.538 333.034 313.363 333.645 312.747Z" fill="white"/>
<path d="M331.615 312.928C331.615 312.928 331.475 312.893 331.423 312.824C331.353 312.719 331.388 312.579 331.493 312.527L334.078 310.991C334.183 310.939 334.323 310.957 334.375 311.061C334.445 311.166 334.41 311.306 334.305 311.358L331.72 312.893C331.72 312.893 331.65 312.928 331.615 312.928Z" fill="black"/>
<path d="M385.506 311.533L388.388 310.573C389.855 310.905 392.807 315.459 391.095 318.617L388.038 319.647C385.925 319.908 382.798 313.627 385.506 311.533Z" fill="white"/>
<path d="M389.576 319.681C389.576 319.681 389.419 319.664 389.349 319.612C389.14 319.489 389.087 319.21 389.21 319.001C389.856 317.989 389.769 316.052 389 314.167C388.406 312.719 387.55 311.655 386.799 311.48C386.572 311.428 386.415 311.184 386.467 310.957C386.52 310.73 386.747 310.573 386.991 310.625C388.039 310.87 389.087 312.074 389.804 313.836C390.467 315.476 390.904 317.954 389.926 319.472C389.838 319.594 389.699 319.681 389.559 319.681H389.576Z" fill="black"/>
<path d="M373.785 320.886C373.628 320.886 373.47 320.799 373.4 320.642C373.296 320.432 373.401 320.17 373.61 320.066C374.798 319.49 384.126 316.401 385.628 316.087C385.855 316.052 386.1 316.192 386.152 316.419C386.205 316.646 386.047 316.89 385.82 316.942C384.248 317.274 374.99 320.38 374.012 320.851C373.942 320.886 373.89 320.903 373.82 320.903L373.785 320.886Z" fill="black"/>
<path d="M385.503 311.533C382.987 312.371 384.996 319.874 388.036 319.647C390.097 318.792 388.56 311.987 385.503 311.533Z" fill="#2D2D36"/>
<path d="M368.752 318.495L371.634 317.535C373.101 317.867 376.053 322.421 374.341 325.579L371.285 326.609C369.171 326.87 366.044 320.589 368.752 318.495Z" fill="white"/>
<path d="M372.841 326.644C372.841 326.644 372.684 326.627 372.614 326.574C372.404 326.452 372.352 326.173 372.474 325.964C373.121 324.969 373.033 323.015 372.282 321.13C371.688 319.665 370.832 318.618 370.081 318.443C369.854 318.391 369.697 318.147 369.767 317.92C369.819 317.693 370.064 317.536 370.291 317.606C371.339 317.85 372.387 319.054 373.103 320.816C373.767 322.456 374.204 324.934 373.225 326.435C373.138 326.557 372.998 326.644 372.859 326.644H372.841Z" fill="black"/>
<path d="M368.753 318.495C366.237 319.333 368.246 326.836 371.286 326.609C373.347 325.754 371.81 318.949 368.753 318.495Z" fill="#2D2D36"/>
<path d="M310.651 345.854C310.721 345.506 310.808 345.139 311.088 344.895C311.367 344.651 311.857 344.668 311.996 344.999C313.324 342.749 314.878 340.288 317.394 339.59C319.018 339.137 320.783 339.538 322.267 340.306C323.752 341.073 325.01 342.225 326.25 343.377C327.141 347.268 327.455 351.281 327.193 355.259C327.141 356.202 326.966 357.266 326.198 357.807C325.674 358.173 324.992 358.191 324.381 358.4C323.263 358.802 322.512 359.814 321.586 360.564C319.787 361.995 317.149 362.291 315.071 361.297C312.992 360.302 311.56 358.069 311.542 355.783C308.276 353.375 309.935 349.24 310.651 345.837V345.854Z" fill="#986A55"/>
<path d="M323.7 359.116C323.578 359.116 323.578 358.993 323.63 358.889C324.521 357.528 325.098 356.324 325.552 354.841C326.006 353.357 326.041 351.804 325.325 350.391C323.997 347.809 321.936 345.802 321.097 343.045C321.062 342.958 320.958 342.923 320.888 342.993C319.63 344.092 317.866 344.389 316.329 345.069C313.342 346.395 313.237 349.588 311.333 352.258C310.983 352.764 310.617 353.288 310.582 353.898C310.547 354.509 310.494 355.539 310.494 355.539C308.678 354.858 307.123 351.229 307.944 349.257C308.084 348.908 308.276 348.559 308.346 348.175C308.416 347.791 308.346 347.39 308.311 347.006C307.979 343.394 310.372 339.712 313.796 338.561C314.302 338.386 314.861 338.247 315.211 337.845C315.403 337.636 315.508 337.374 315.7 337.147C316.171 336.554 316.957 336.38 317.621 336.048C318.268 335.734 318.809 335.245 319.42 334.879C321.552 333.588 324.224 333.727 326.705 333.919C327.089 333.954 327.473 333.972 327.805 334.111C328.119 334.251 328.399 334.46 328.661 334.687C329.639 335.49 330.67 336.327 331.246 337.461C331.805 338.578 331.893 339.904 331.473 341.091C331.072 342.225 330.198 343.272 330.338 344.458C330.443 345.383 331.107 346.134 331.491 346.989C332.417 349.03 331.561 351.525 330.058 353.2C329.709 353.584 329.325 353.951 329.115 354.422C328.836 355.015 328.871 355.696 328.678 356.324C328.382 357.266 327.578 358.016 326.67 358.4C325.884 358.732 324.486 359.133 323.683 359.098L323.7 359.116Z" fill="#5AC27A"/>
<path d="M320.992 343.324C320.8 343.324 320.625 343.202 320.573 343.01C320.503 342.783 320.643 342.539 320.87 342.469C321.411 342.312 321.935 342.347 322.459 342.399C322.651 342.399 322.826 342.434 323.018 342.434C324.416 342.434 325.866 341.719 326.652 340.532C326.739 340.392 326.826 340.27 326.896 340.131C327.141 339.712 327.403 339.276 327.822 338.944C327.997 338.822 328.189 338.717 328.381 338.613C328.695 338.438 328.957 338.299 329.045 338.072C329.08 337.967 329.08 337.81 329.08 337.688C329.045 336.955 328.922 336.222 328.678 335.542C328.608 335.315 328.73 335.071 328.957 334.983C329.184 334.896 329.429 335.036 329.516 335.262C329.778 336.03 329.936 336.833 329.953 337.653C329.953 337.88 329.953 338.124 329.866 338.368C329.674 338.892 329.219 339.154 328.8 339.38C328.643 339.468 328.486 339.555 328.363 339.642C328.067 339.869 327.874 340.201 327.647 340.567C327.56 340.724 327.473 340.864 327.368 341.003C326.425 342.434 324.713 343.289 322.983 343.289C322.774 343.289 322.582 343.272 322.372 343.254C321.918 343.219 321.499 343.184 321.114 343.289C321.079 343.289 321.027 343.306 320.992 343.306V343.324Z" fill="#101011"/>
<path d="M314.895 338.543C314.755 338.543 314.616 338.473 314.528 338.351C314.388 338.159 314.441 337.88 314.633 337.741C315.559 337.095 316.659 337.182 317.725 337.252C318.162 337.287 318.581 337.322 318.965 337.287C319.489 337.269 320.031 337.147 320.59 337.025C321.708 336.798 322.878 336.554 323.996 337.025C324.101 337.078 324.205 337.112 324.293 337.165C324.467 337.252 324.642 337.339 324.799 337.374C325.044 337.427 325.306 337.357 325.603 337.287C325.917 337.217 326.267 337.13 326.616 337.165C326.913 337.2 327.175 337.287 327.42 337.374C327.717 337.479 327.979 337.566 328.188 337.514C328.415 337.461 328.66 337.584 328.712 337.828C328.765 338.055 328.625 338.299 328.398 338.351C327.926 338.473 327.489 338.316 327.123 338.194C326.913 338.124 326.721 338.055 326.529 338.037C326.302 338.002 326.057 338.072 325.795 338.142C325.446 338.229 325.044 338.316 324.625 338.229C324.345 338.177 324.101 338.055 323.891 337.95C323.804 337.915 323.716 337.863 323.629 337.828C322.773 337.461 321.795 337.671 320.764 337.88C320.188 338.002 319.594 338.124 319 338.159C318.546 338.159 318.092 338.159 317.655 338.124C316.712 338.055 315.803 338.002 315.122 338.456C315.052 338.508 314.965 338.526 314.878 338.526L314.895 338.543Z" fill="#101011"/>
<path d="M308.26 348.402C308.138 348.402 308.015 348.35 307.928 348.262C307.771 348.088 307.788 347.809 307.963 347.652L312.365 343.743C313.046 343.132 313.815 342.452 314.758 342.033C315.038 341.911 315.317 341.824 315.614 341.737C316.086 341.58 316.54 341.44 316.907 341.178L317.064 341.056C317.239 340.916 317.448 340.742 317.71 340.655C318.025 340.55 318.356 340.585 318.601 340.62C319.632 340.794 320.61 341.353 321.274 342.155C321.431 342.347 321.396 342.609 321.204 342.766C321.012 342.923 320.75 342.888 320.592 342.696C320.068 342.051 319.282 341.597 318.461 341.475C318.322 341.457 318.129 341.44 317.99 341.475C317.867 341.51 317.745 341.614 317.605 341.719C317.535 341.771 317.483 341.824 317.413 341.876C316.942 342.225 316.4 342.4 315.876 342.557C315.614 342.644 315.352 342.731 315.107 342.836C314.304 343.185 313.605 343.796 312.941 344.389L308.539 348.297C308.539 348.297 308.347 348.402 308.243 348.402H308.26Z" fill="#101011"/>
<path d="M329.413 354.195C329.256 354.195 329.116 354.107 329.029 353.968C328.749 353.479 328.941 352.973 329.081 352.572C329.116 352.467 329.151 352.362 329.186 352.258C329.326 351.752 329.169 351.158 328.767 350.635C328.365 350.112 327.771 349.71 327.247 349.396C326.845 349.152 326.478 348.942 326.181 348.611C325.762 348.14 325.605 347.512 325.483 347.058C325.133 345.697 324.819 344.319 324.557 342.958C324.505 342.713 324.662 342.486 324.906 342.451C325.151 342.399 325.378 342.556 325.413 342.8C325.675 344.144 325.989 345.505 326.321 346.849C326.443 347.337 326.566 347.756 326.828 348.053C327.02 348.279 327.299 348.436 327.596 348.611C328.278 349.012 328.959 349.466 329.448 350.112C330.007 350.844 330.217 351.734 330.007 352.485C329.972 352.607 329.937 352.746 329.885 352.868C329.78 353.148 329.693 353.409 329.78 353.549C329.902 353.758 329.832 354.02 329.623 354.142C329.553 354.177 329.483 354.195 329.413 354.195Z" fill="#101011"/>
<path d="M330.458 343.342C330.301 343.342 330.162 343.272 330.074 343.132C329.865 342.766 329.76 342.382 329.672 341.998C329.585 341.632 329.498 341.3 329.323 341.038C329.236 340.899 329.113 340.777 328.991 340.637C328.834 340.463 328.659 340.271 328.52 340.026C328.31 339.66 328.223 339.241 328.257 338.822C328.275 338.578 328.485 338.386 328.729 338.421C328.974 338.439 329.148 338.648 329.131 338.892C329.113 339.119 329.166 339.363 329.271 339.573C329.358 339.73 329.498 339.869 329.637 340.026C329.795 340.183 329.934 340.358 330.057 340.532C330.319 340.916 330.424 341.353 330.528 341.771C330.616 342.103 330.686 342.417 330.843 342.679C330.965 342.888 330.895 343.15 330.686 343.272C330.616 343.307 330.546 343.324 330.476 343.324L330.458 343.342Z" fill="#101011"/>
<path d="M323.997 348.489C324.609 348.541 324.975 349.169 325.185 349.745C325.866 351.473 326.181 353.462 325.412 355.154C325.22 355.608 324.94 356.009 324.731 356.463C324.381 357.196 324.172 357.981 323.805 358.714C323.438 359.464 322.914 360.11 322.39 360.755C322.023 361.209 321.656 361.68 321.185 362.012C320.224 362.692 318.984 362.762 317.813 362.832C317.324 362.849 316.835 362.884 316.346 362.814C315.805 362.745 315.281 362.553 314.774 362.361C313.516 361.872 312.224 361.279 311.403 360.214C310.634 359.22 310.355 357.929 310.39 356.672C310.425 355.416 310.739 354.195 311.053 352.991C311.228 352.31 311.403 351.612 311.577 350.932C311.735 350.321 311.892 349.71 312.119 349.134C312.992 346.988 315.106 345.296 317.429 345.261C317.779 345.261 318.023 345.261 318.372 345.313C318.634 345.365 318.879 345.435 319.124 345.522C320.067 345.837 321.028 346.151 321.849 346.692C322.093 346.866 322.338 347.041 322.6 347.198C323.141 347.529 323.857 347.896 323.98 348.506L323.997 348.489Z" fill="#C8F0DC"/>
<path d="M315.962 352.939C315.805 353.235 315.665 353.549 315.508 353.846C315.455 353.968 315.386 354.09 315.263 354.16C315.141 354.23 315.001 354.212 314.862 354.212C314.163 354.143 313.429 354.09 312.783 353.811C312.067 353.497 311.91 353.096 312.189 352.345C312.329 351.979 312.538 351.63 312.748 351.298C312.958 350.984 313.167 350.653 313.517 350.496C313.936 350.304 314.442 350.443 314.879 350.618C315.193 350.74 315.508 350.88 315.77 351.089C316.032 351.298 316.242 351.595 316.259 351.944C316.294 352.293 316.137 352.625 315.98 352.956L315.962 352.939Z" fill="#986A55"/>
<path d="M323.841 355.242C323.684 355.539 323.544 355.853 323.387 356.15C323.317 356.272 323.265 356.394 323.142 356.464C323.02 356.534 322.88 356.516 322.74 356.516C322.024 356.446 321.308 356.394 320.662 356.115C319.946 355.801 319.788 355.399 320.068 354.649C320.19 354.283 320.417 353.934 320.627 353.602C320.836 353.288 321.046 352.957 321.395 352.799C321.815 352.608 322.321 352.747 322.758 352.922C323.072 353.044 323.387 353.183 323.649 353.393C323.911 353.602 324.12 353.899 324.138 354.248C324.173 354.597 324.016 354.928 323.858 355.26L323.841 355.242Z" fill="#986A55"/>
<path d="M318.652 359.883C318.442 360.372 317.814 360.476 317.29 360.459C316.434 360.424 315.56 360.267 314.844 359.813C314.337 359.499 313.691 358.906 313.586 358.278C313.447 357.423 314.547 357.58 315.141 357.684C315.455 357.737 315.77 357.789 316.084 357.859C316.888 357.998 317.744 358.173 318.338 358.749C318.635 359.045 318.844 359.499 318.67 359.883H318.652Z" fill="#986A55"/>
<path d="M316.556 360.075C315.77 360.075 315.089 359.796 314.303 358.888C314.146 358.714 314.163 358.435 314.338 358.278C314.513 358.121 314.792 358.138 314.949 358.312C315.823 359.325 316.382 359.307 317.744 359.028C317.989 358.976 318.216 359.133 318.268 359.359C318.321 359.586 318.164 359.831 317.936 359.883C317.43 359.988 316.976 360.075 316.556 360.075Z" fill="#141316"/>
<path d="M314.234 353.707C313.71 353.707 313.168 353.48 312.819 353.079C312.661 352.904 312.679 352.625 312.854 352.468C313.028 352.311 313.308 352.328 313.465 352.503C313.744 352.817 314.234 352.922 314.618 352.747C314.828 352.642 315.09 352.747 315.194 352.957C315.299 353.166 315.194 353.428 314.985 353.532C314.74 353.637 314.478 353.689 314.234 353.689V353.707Z" fill="#141316"/>
<path d="M322.374 355.73C321.85 355.73 321.309 355.503 320.959 355.102C320.802 354.928 320.82 354.648 320.994 354.491C321.169 354.334 321.448 354.352 321.606 354.526C321.885 354.84 322.392 354.945 322.759 354.771C322.968 354.666 323.23 354.771 323.335 354.98C323.44 355.189 323.335 355.451 323.125 355.556C322.881 355.661 322.636 355.713 322.374 355.713V355.73Z" fill="#141316"/>
<path d="M324.538 357.423C324.451 357.423 324.346 357.388 324.276 357.336C324.084 357.196 324.049 356.917 324.189 356.725C325.289 355.26 325.708 353.34 325.307 351.56C325.202 351.089 325.045 350.636 324.835 350.199C324.538 349.589 324.154 349.013 323.682 348.524C323.525 348.35 323.525 348.071 323.7 347.914C323.874 347.757 324.154 347.756 324.311 347.931C324.835 348.489 325.272 349.135 325.604 349.833C325.831 350.339 326.023 350.845 326.128 351.368C326.582 353.392 326.093 355.591 324.853 357.249C324.765 357.371 324.643 357.423 324.503 357.423H324.538Z" fill="#101011"/>
<path d="M311.682 351.455C311.49 351.455 311.316 351.333 311.263 351.141C311.158 350.792 311.281 350.391 311.595 350.059C311.7 349.955 311.805 349.868 311.91 349.78C311.997 349.711 312.067 349.658 312.137 349.571C312.329 349.379 312.434 349.082 312.556 348.786L312.643 348.559C313.01 347.686 313.552 346.954 314.076 346.221C314.32 345.889 314.844 345.174 315.613 345.174C315.857 345.174 316.049 345.366 316.049 345.61C316.049 345.854 315.857 346.046 315.613 346.046C315.316 346.046 315.036 346.378 314.774 346.744C314.285 347.425 313.761 348.123 313.447 348.89L313.359 349.1C313.22 349.449 313.062 349.85 312.766 350.164C312.661 350.269 312.556 350.356 312.451 350.443C312.381 350.513 312.294 350.566 312.224 350.635C312.119 350.74 312.084 350.845 312.102 350.862C312.172 351.089 312.032 351.333 311.805 351.403C311.77 351.403 311.717 351.403 311.682 351.403V351.455Z" fill="#101011"/>
<path d="M289.447 374.959C289.849 374.069 290.251 373.144 290.967 372.481C292.102 371.417 293.762 371.138 295.334 371.173C298.898 371.225 322.06 375.256 322.287 380.647C322.375 382.951 312.051 409.665 309.431 411.253C307.16 412.614 304.278 412.195 301.692 411.654C296.871 410.642 278.949 408.164 278.914 402.162C278.897 398.184 282.093 392.862 283.526 389.197C285.412 384.416 287.386 379.67 289.465 374.959H289.447Z" fill="white"/>
<path d="M375.164 365.118C375.059 365.118 374.972 365.083 374.884 365.013C374.692 364.856 374.675 364.577 374.832 364.403C375.338 363.792 374.727 362.693 374.535 362.361C374.238 361.89 373.504 360.703 373.941 359.639C373.225 358.732 372.404 357.964 371.46 357.353L371.146 357.144L371.303 356.795C371.495 356.376 372.107 355.12 371.653 354.492C371.408 354.16 370.954 354.125 370.255 354.108C369.556 354.09 368.753 354.073 368.211 353.445C368.002 353.2 367.88 352.904 367.757 352.642C367.67 352.433 367.583 352.223 367.46 352.084C366.919 351.438 365.591 352.188 365.067 352.537C364.473 352.921 362.674 354.108 361.539 352.974C361.469 352.904 361.381 352.817 361.312 352.712C361.224 352.607 361.154 352.502 361.084 352.468C360.84 352.345 360.438 352.764 360.071 353.131C359.914 353.288 359.774 353.427 359.617 353.549C358.587 354.422 357.294 354.387 356.158 354.352H355.774C355.11 354.317 353.486 354.422 352.962 355.626C352.857 355.853 352.612 355.94 352.385 355.853C352.158 355.765 352.071 355.504 352.158 355.277C352.665 354.125 353.923 353.462 355.617 353.462C355.669 353.462 355.739 353.462 355.792 353.462H356.176C357.241 353.515 358.272 353.549 359.041 352.886C359.18 352.764 359.303 352.642 359.442 352.502C360.001 351.944 360.7 351.264 361.486 351.682C361.713 351.805 361.871 351.996 361.993 352.153C362.045 352.223 362.098 352.276 362.15 352.328C362.569 352.747 363.39 352.555 364.596 351.77C366.709 350.391 367.722 351.002 368.142 351.473C368.351 351.717 368.473 352.014 368.578 352.276C368.666 352.502 368.753 352.712 368.875 352.851C369.155 353.183 369.696 353.2 370.273 353.2C371.006 353.2 371.845 353.235 372.369 353.951C372.963 354.771 372.666 355.853 372.247 356.795C373.207 357.475 374.063 358.313 374.797 359.29L374.972 359.534L374.814 359.779C374.517 360.25 374.657 360.895 375.268 361.855C376.02 363.076 376.107 364.193 375.496 364.926C375.408 365.031 375.286 365.083 375.164 365.083V365.118Z" fill="#101011"/>
<path d="M354.725 356.306C354.969 356.428 355.196 356.533 355.389 356.603C357.572 357.405 359.756 358.226 361.922 359.028C366.358 360.686 370.813 362.326 375.25 363.984C375.459 364.071 375.704 364.158 375.809 364.385C375.966 364.717 375.739 365.153 375.529 365.502C373.59 368.625 371.424 371.905 368.315 373.406C365.328 374.837 362.009 374.313 359.022 373.458C357.135 372.918 355.284 372.254 353.485 371.487C352.821 371.208 351.196 369.218 351.039 368.643C350.096 365.188 349.135 361.611 349.502 357.894C349.572 357.214 349.694 356.498 350.096 355.922C351.091 354.491 353.327 355.643 354.742 356.306H354.725Z" fill="#8CB2F9"/>
<path d="M363.512 358.523C363.512 358.523 363.425 358.523 363.39 358.523C363.163 358.453 363.023 358.208 363.093 357.982C363.302 357.231 363.267 356.603 363.005 356.307C362.726 355.992 362.167 356.045 361.765 356.254C361.241 356.533 360.805 357.057 360.385 357.563C360.228 357.755 359.949 357.772 359.774 357.615C359.599 357.458 359.564 357.179 359.721 357.004C360.176 356.464 360.682 355.835 361.363 355.486C362.202 355.033 363.163 355.137 363.687 355.731C364.333 356.464 364.123 357.615 363.949 358.226C363.896 358.418 363.722 358.54 363.53 358.54L363.512 358.523Z" fill="#101011"/>
<path d="M369.082 360.948C368.942 360.948 368.82 360.93 368.68 360.86C367.964 360.564 367.894 359.621 367.859 359.22C367.824 358.854 367.789 358.383 367.894 357.911C368.086 357.091 368.715 356.393 369.466 356.166C369.711 356.097 369.938 356.236 370.008 356.463H370.043C370.287 356.498 370.444 356.725 370.409 356.969C370.357 357.318 370.409 357.685 370.462 358.086L370.497 358.313C370.567 358.836 370.602 359.447 370.357 360.005C370.13 360.529 369.623 360.948 369.064 360.948H369.082ZM369.536 357.091C369.169 357.283 368.855 357.667 368.767 358.103C368.698 358.417 368.715 358.749 368.75 359.15C368.802 359.831 368.942 360.023 369.047 360.058C369.187 360.11 369.466 359.918 369.588 359.639C369.746 359.272 369.728 358.819 369.658 358.417L369.623 358.208C369.571 357.842 369.519 357.475 369.536 357.091Z" fill="#101011"/>
<path d="M366.026 356.847L365.817 356.341C365.467 355.539 365.275 354.649 365.258 353.741C365.258 353.602 365.31 353.48 365.415 353.392C365.52 353.218 365.729 353.131 365.939 353.218C366.585 353.462 367.109 353.951 367.441 354.596L367.511 354.718V354.858C367.371 355.504 367.005 356.132 366.481 356.498L366.044 356.83L366.026 356.847ZM366.166 354.387C366.201 354.718 366.271 355.05 366.376 355.364C366.463 355.207 366.533 355.05 366.585 354.875C366.481 354.684 366.341 354.527 366.184 354.387H366.166Z" fill="#101011"/>
<path d="M358.637 357.388C358.48 357.388 358.322 357.335 358.183 357.248C357.973 357.109 357.868 356.899 357.781 356.742L357.432 356.096C357.274 356.096 357.135 356.009 357.065 355.87C356.96 355.678 357.012 355.433 357.205 355.294C357.239 355.207 357.309 355.137 357.397 355.084C357.467 355.05 357.501 355.032 357.606 355.032C357.851 354.858 358.06 354.666 358.27 354.421L358.567 354.09L358.899 354.386C359.231 354.683 359.772 355.189 359.825 355.939C359.86 356.428 359.563 356.969 359.143 357.231C358.986 357.318 358.829 357.37 358.672 357.37L358.637 357.388ZM358.183 355.695L358.532 356.323C358.532 356.323 358.619 356.498 358.654 356.515C358.707 356.498 358.934 356.254 358.916 356.027C358.916 355.782 358.759 355.573 358.567 355.364C358.445 355.486 358.305 355.59 358.165 355.695H358.183Z" fill="#101011"/>
<path d="M294.214 392.409C293.917 392.217 293.708 391.972 293.498 391.728C293.428 391.641 293.358 391.571 293.289 391.501C293.219 391.431 293.149 391.362 293.096 391.292C292.957 391.152 292.817 391.013 292.695 390.856C292.415 390.507 292.258 390.088 292.136 389.721C291.891 389.058 291.699 388.378 291.524 387.697C291.437 387.348 291.35 386.965 291.332 386.563C291.297 385.97 291.385 385.377 291.454 384.818L291.612 383.806C291.699 383.178 291.804 382.532 291.978 381.904C292.083 381.555 292.223 381.102 292.52 380.7C292.782 380.351 293.096 380.107 293.463 380.002C293.9 379.863 294.389 379.933 294.721 380.212C294.878 380.334 294.913 380.578 294.791 380.735C294.669 380.892 294.424 380.927 294.267 380.805C294.127 380.7 293.917 380.665 293.708 380.735C293.516 380.805 293.306 380.945 293.149 381.171C292.974 381.398 292.852 381.695 292.73 382.131C292.572 382.707 292.468 383.335 292.38 383.928L292.223 384.94C292.136 385.464 292.066 386.005 292.101 386.528C292.118 386.877 292.206 387.209 292.275 387.54C292.433 388.203 292.642 388.866 292.869 389.495C292.992 389.826 293.114 390.158 293.324 390.437C293.411 390.559 293.533 390.681 293.655 390.803C293.725 390.873 293.795 390.96 293.883 391.03C293.952 391.117 294.04 391.205 294.11 391.292C294.319 391.536 294.511 391.763 294.756 391.868C295.158 392.042 295.664 391.903 296.188 391.728C296.468 391.641 296.765 391.536 297.027 391.397C297.359 391.222 297.656 390.995 297.987 390.751L298.913 390.053C299.036 389.966 299.158 389.861 299.245 389.774C299.367 389.634 299.455 389.46 299.525 389.268C300.485 387.122 300.974 384.749 300.905 382.393L299.629 382.184C299.42 382.149 299.28 381.957 299.315 381.747C299.35 381.538 299.542 381.398 299.752 381.433L301.621 381.747V382.061C301.743 384.626 301.254 387.226 300.188 389.582C300.084 389.809 299.961 390.053 299.787 390.262C299.647 390.419 299.49 390.542 299.35 390.646L298.424 391.344C298.092 391.588 297.743 391.85 297.359 392.06C297.044 392.217 296.712 392.321 296.415 392.426C295.769 392.635 295.07 392.827 294.424 392.548C294.354 392.513 294.284 392.478 294.232 392.443L294.214 392.409Z" fill="black"/>
<path d="M295.141 392.88C294.861 392.88 294.599 392.827 294.32 392.705C294.232 392.67 294.162 392.635 294.093 392.583C293.778 392.374 293.534 392.112 293.324 391.868C293.254 391.78 293.202 391.711 293.132 391.641C293.079 391.588 293.044 391.554 292.992 391.501L292.94 391.449C292.8 391.292 292.66 391.152 292.52 390.995C292.224 390.611 292.066 390.175 291.927 389.791C291.682 389.111 291.472 388.43 291.315 387.732C291.228 387.366 291.14 386.982 291.106 386.563C291.071 385.935 291.158 385.342 291.245 384.766L291.403 383.702C291.49 383.091 291.595 382.463 291.769 381.835C291.874 381.468 292.031 380.98 292.346 380.561C292.625 380.177 292.992 379.898 293.394 379.776C293.9 379.618 294.459 379.706 294.844 380.02C295.106 380.229 295.141 380.596 294.931 380.857C294.739 381.119 294.355 381.154 294.093 380.962C294.005 380.892 293.866 380.875 293.743 380.927C293.586 380.98 293.429 381.102 293.307 381.276C293.149 381.486 293.027 381.765 292.922 382.166C292.765 382.742 292.678 383.353 292.59 383.946L292.433 384.958C292.363 385.464 292.276 386.005 292.311 386.493C292.328 386.825 292.416 387.174 292.486 387.47C292.643 388.134 292.852 388.779 293.062 389.407C293.167 389.721 293.289 390.035 293.481 390.28C293.569 390.384 293.673 390.489 293.778 390.611L293.848 390.681C293.848 390.681 293.97 390.803 294.023 390.856C294.093 390.943 294.18 391.03 294.25 391.117C294.442 391.344 294.617 391.554 294.809 391.641C295.123 391.78 295.595 391.641 296.084 391.484C296.381 391.379 296.66 391.292 296.887 391.17C297.202 391.013 297.499 390.786 297.796 390.559L298.722 389.861C298.826 389.774 298.949 389.687 299.019 389.599C299.123 389.495 299.193 389.32 299.263 389.163C300.189 387.104 300.661 384.836 300.643 382.567L299.56 382.393C299.228 382.341 299.019 382.026 299.071 381.712C299.123 381.398 299.438 381.171 299.752 381.224L301.796 381.555V382.044C301.936 384.644 301.429 387.279 300.364 389.669C300.259 389.896 300.137 390.175 299.927 390.402C299.77 390.576 299.595 390.716 299.455 390.821L298.529 391.519C298.18 391.78 297.831 392.042 297.429 392.251C297.115 392.409 296.783 392.531 296.486 392.618C296.049 392.775 295.595 392.897 295.141 392.897V392.88ZM294.337 392.217C294.337 392.217 294.442 392.286 294.512 392.304C295.088 392.566 295.735 392.391 296.328 392.182C296.625 392.077 296.94 391.972 297.237 391.833C297.604 391.641 297.936 391.396 298.267 391.152L299.193 390.454C299.316 390.367 299.473 390.245 299.595 390.105C299.77 389.913 299.874 389.687 299.962 389.477C301.01 387.156 301.499 384.591 301.377 382.061V381.939L299.665 381.66C299.578 381.66 299.49 381.712 299.473 381.8C299.473 381.887 299.525 381.974 299.612 381.974L301.062 382.218V382.393C301.132 384.783 300.643 387.191 299.665 389.355C299.578 389.547 299.49 389.739 299.35 389.913C299.246 390.035 299.106 390.14 298.984 390.227L298.058 390.925C297.726 391.17 297.429 391.414 297.08 391.588C296.818 391.728 296.521 391.815 296.206 391.92C295.63 392.112 295.088 392.269 294.617 392.06C294.337 391.937 294.11 391.676 293.9 391.414C293.831 391.327 293.761 391.239 293.691 391.17C293.638 391.117 293.586 391.065 293.534 391.013L293.481 390.96C293.341 390.821 293.219 390.699 293.132 390.576C292.905 390.28 292.765 389.913 292.643 389.582C292.416 388.954 292.206 388.273 292.049 387.61C291.979 387.296 291.892 386.93 291.857 386.563C291.822 386.022 291.909 385.464 291.979 384.923L292.136 383.911C292.224 383.3 292.328 382.672 292.486 382.079C292.608 381.625 292.748 381.311 292.94 381.049C293.132 380.788 293.359 380.613 293.603 380.543C293.883 380.456 294.162 380.508 294.355 380.648C294.424 380.7 294.529 380.683 294.582 380.631C294.599 380.596 294.617 380.561 294.617 380.508C294.617 380.456 294.599 380.421 294.564 380.404C294.285 380.194 293.883 380.125 293.516 380.247C293.202 380.351 292.922 380.561 292.695 380.875C292.416 381.241 292.276 381.677 292.189 382.009C292.031 382.602 291.927 383.23 291.839 383.824L291.682 384.888C291.595 385.446 291.507 386.005 291.56 386.598C291.595 386.982 291.665 387.348 291.752 387.697C291.909 388.378 292.119 389.041 292.363 389.704C292.486 390.053 292.643 390.454 292.905 390.786C293.01 390.943 293.149 391.065 293.272 391.187L293.341 391.257C293.341 391.257 293.446 391.362 293.481 391.414C293.551 391.484 293.621 391.571 293.673 391.641C293.865 391.868 294.075 392.112 294.337 392.286V392.217Z" fill="black"/>
<path d="M296.605 397.538C296.326 397.364 296.064 397.119 295.802 396.788C294.754 395.479 294.404 393.664 294.928 392.059C294.998 391.867 295.208 391.745 295.4 391.815C295.592 391.885 295.714 392.094 295.644 392.286C295.208 393.629 295.505 395.217 296.396 396.317C296.693 396.683 296.989 396.91 297.304 397.032C297.636 397.154 298.003 397.137 298.247 396.945C298.544 396.718 298.649 396.299 298.771 395.863C298.789 395.776 298.824 395.688 298.841 395.619C299.208 394.345 299.994 393.211 301.06 392.425L301.234 392.286L301.444 392.373C302.492 392.862 303.627 393.507 303.994 394.659C304.116 395.025 304.134 395.392 304.151 395.741C304.169 396.107 304.186 396.439 304.309 396.735C304.378 396.927 304.291 397.154 304.099 397.224C303.907 397.294 303.68 397.206 303.61 397.015C303.453 396.596 303.418 396.177 303.4 395.776C303.383 395.444 303.365 395.148 303.278 394.868C303.016 394.048 302.177 393.542 301.339 393.141C300.501 393.821 299.872 394.764 299.575 395.793C299.557 395.863 299.522 395.95 299.505 396.037C299.365 396.561 299.208 397.154 298.701 397.521C298.265 397.852 297.618 397.922 297.042 397.695C296.902 397.643 296.762 397.573 296.623 397.486L296.605 397.538Z" fill="black"/>
<path d="M297.707 398.097C297.445 398.097 297.2 398.044 296.938 397.957C296.781 397.905 296.624 397.818 296.484 397.73C296.187 397.538 295.908 397.277 295.628 396.945C294.528 395.567 294.178 393.682 294.72 392.007C294.772 391.85 294.877 391.728 295.017 391.658C295.156 391.588 295.314 391.571 295.471 391.623C295.611 391.676 295.733 391.78 295.82 391.92C295.89 392.059 295.907 392.216 295.855 392.373C295.436 393.647 295.715 395.148 296.571 396.195C296.833 396.526 297.113 396.736 297.375 396.84C297.637 396.945 297.934 396.928 298.108 396.788C298.336 396.614 298.44 396.23 298.563 395.828V395.741C298.563 395.741 298.615 395.619 298.633 395.567C299.017 394.258 299.838 393.089 300.938 392.269L301.218 392.059L301.532 392.199C302.633 392.705 303.803 393.386 304.187 394.624C304.31 395.026 304.327 395.41 304.345 395.776C304.362 396.125 304.379 396.439 304.484 396.701C304.537 396.84 304.537 397.015 304.484 397.155C304.414 397.294 304.31 397.416 304.152 397.469C303.995 397.521 303.838 397.521 303.698 397.469C303.558 397.399 303.436 397.294 303.384 397.137C303.209 396.701 303.192 396.23 303.157 395.828C303.139 395.514 303.122 395.218 303.052 394.973C302.825 394.258 302.056 393.769 301.358 393.438C300.606 394.083 300.047 394.956 299.768 395.898L299.698 396.125C299.558 396.648 299.366 397.312 298.825 397.73C298.51 397.957 298.126 398.079 297.724 398.079L297.707 398.097ZM295.296 392.025C295.296 392.025 295.244 392.025 295.226 392.025C295.191 392.042 295.156 392.077 295.156 392.112C294.667 393.647 294.982 395.375 295.995 396.631C296.239 396.928 296.484 397.155 296.746 397.329C296.868 397.399 296.991 397.469 297.13 397.521C297.637 397.713 298.196 397.661 298.58 397.364C299.017 397.032 299.157 396.509 299.296 395.985L299.366 395.741C299.681 394.659 300.344 393.682 301.2 392.984L301.305 392.897L301.427 392.949C302.231 393.333 303.174 393.892 303.471 394.816C303.558 395.113 303.576 395.427 303.611 395.759C303.628 396.16 303.663 396.561 303.803 396.928C303.803 396.963 303.855 396.997 303.89 397.015C303.925 397.015 303.978 397.015 304.013 397.015C304.1 396.98 304.135 396.893 304.1 396.806C303.978 396.474 303.943 396.09 303.925 395.741C303.925 395.392 303.89 395.043 303.786 394.712C303.454 393.63 302.371 393.019 301.358 392.548L301.27 392.513L301.2 392.565C300.17 393.333 299.419 394.415 299.052 395.636L298.982 395.881C298.86 396.334 298.72 396.823 298.37 397.085C298.074 397.312 297.619 397.346 297.218 397.189C296.868 397.05 296.554 396.806 296.222 396.404C295.296 395.253 294.982 393.595 295.436 392.182C295.436 392.147 295.436 392.094 295.436 392.059C295.418 392.025 295.383 391.99 295.349 391.99C295.349 391.99 295.314 391.99 295.296 391.99V392.025Z" fill="black"/>
<path d="M303.038 400.749C301.92 400.051 301.588 398.568 302.304 397.469C303.02 396.369 304.488 396.02 305.588 396.736C306.688 397.451 307.038 398.917 306.322 400.016C305.605 401.116 304.138 401.465 303.038 400.749ZM305.186 397.347C304.435 396.875 303.422 397.102 302.933 397.853C302.444 398.603 302.688 399.615 303.439 400.103C304.191 400.592 305.204 400.348 305.693 399.597C306.182 398.847 305.937 397.835 305.186 397.347Z" fill="black"/>
<path d="M304.311 401.325C303.839 401.325 303.35 401.203 302.931 400.924C302.337 400.557 301.935 399.981 301.778 399.301C301.621 398.62 301.743 397.922 302.11 397.347C302.477 396.753 303.053 396.352 303.734 396.195C304.416 396.038 305.114 396.16 305.691 396.527C306.285 396.893 306.687 397.469 306.844 398.149C307.001 398.83 306.879 399.528 306.512 400.104C306.023 400.889 305.167 401.308 304.311 401.308V401.325ZM304.311 396.561C304.154 396.561 303.996 396.561 303.822 396.614C303.263 396.736 302.774 397.085 302.459 397.573C302.145 398.062 302.058 398.638 302.18 399.214C302.302 399.772 302.651 400.261 303.141 400.575C304.154 401.22 305.499 400.906 306.128 399.894C306.442 399.406 306.529 398.83 306.407 398.254C306.285 397.696 305.935 397.207 305.446 396.893C305.097 396.666 304.695 396.561 304.293 396.561H304.311ZM304.311 400.575C303.979 400.575 303.63 400.487 303.333 400.295C302.913 400.034 302.634 399.632 302.512 399.144C302.407 398.655 302.494 398.167 302.756 397.748C303.018 397.329 303.42 397.05 303.909 396.928C304.381 396.823 304.887 396.91 305.307 397.172C306.163 397.713 306.425 398.865 305.883 399.72C305.534 400.278 304.94 400.575 304.311 400.575ZM304.311 397.329C304.206 397.329 304.101 397.329 303.997 397.364C303.63 397.451 303.315 397.661 303.123 397.992C302.931 398.306 302.861 398.69 302.948 399.057C303.036 399.423 303.245 399.737 303.577 399.929C304.241 400.348 305.114 400.138 305.516 399.493C305.935 398.83 305.726 397.957 305.08 397.556C304.852 397.416 304.59 397.347 304.328 397.347L304.311 397.329Z" fill="black"/>
</svg>
