<svg width="40" height="40" viewBox="0 0 40 40" fill="none" xmlns="http://www.w3.org/2000/svg">
<path d="M0 20C0 12.8781 0 9.31711 1.49954 6.60634C2.49294 4.81055 3.93029 3.29954 5.67423 2.2177C8.30673 0.584663 11.8633 0.406837 18.9763 0.0511853L20 0L21.0237 0.0511852C28.1367 0.406837 31.6933 0.584663 34.3258 2.2177C36.0697 3.29954 37.5071 4.81055 38.5005 6.60634C40 9.31711 40 12.8781 40 20C40 27.1219 40 30.6829 38.5005 33.3937C37.5071 35.1894 36.0697 36.7005 34.3258 37.7823C31.6933 39.4153 28.1367 39.5932 21.0237 39.9488L20 40L18.9763 39.9488C11.8633 39.5932 8.30673 39.4153 5.67423 37.7823C3.93029 36.7005 2.49294 35.1894 1.49954 33.3937C0 30.6829 0 27.1219 0 20Z" fill="#FFE818"/>
<path d="M15.1532 15.408C16.4202 13.136 17.0532 12 18.0002 12C18.9472 12 19.5802 13.136 20.8472 15.408L21.1752 15.996C21.5352 16.642 21.7152 16.965 21.9952 17.178C22.2752 17.391 22.6252 17.47 23.3252 17.628L23.9612 17.772C26.4212 18.329 27.6502 18.607 27.9432 19.548C28.2352 20.488 27.3972 21.469 25.7202 23.43L25.2862 23.937C24.8102 24.494 24.5712 24.773 24.4642 25.117C24.3572 25.462 24.3932 25.834 24.4652 26.577L24.5312 27.254C24.7842 29.871 24.9112 31.179 24.1452 31.76C23.3792 32.342 22.2272 31.811 19.9252 30.751L19.3282 30.477C18.6742 30.175 18.3472 30.025 18.0002 30.025C17.6532 30.025 17.3262 30.175 16.6722 30.477L16.0762 30.751C13.7732 31.811 12.6212 32.341 11.8562 31.761C11.0892 31.179 11.2162 29.871 11.4692 27.254L11.5352 26.578C11.6072 25.834 11.6432 25.462 11.5352 25.118C11.4292 24.773 11.1902 24.494 10.7142 23.938L10.2802 23.43C8.60324 21.47 7.76523 20.489 8.05723 19.548C8.35024 18.607 9.58024 18.328 12.0402 17.772L12.6762 17.628C13.3752 17.47 13.7242 17.391 14.0052 17.178C14.2852 16.965 14.4652 16.642 14.8252 15.996L15.1532 15.408Z" fill="white"/>
<path d="M17.1532 13.408C18.4202 11.136 19.0532 10 20.0002 10C20.9472 10 21.5802 11.136 22.8472 13.408L23.1752 13.996C23.5352 14.642 23.7152 14.965 23.9952 15.178C24.2752 15.391 24.6252 15.47 25.3252 15.628L25.9612 15.772C28.4212 16.329 29.6502 16.607 29.9432 17.548C30.2352 18.488 29.3972 19.469 27.7202 21.43L27.2862 21.937C26.8102 22.494 26.5712 22.773 26.4642 23.117C26.3572 23.462 26.3932 23.834 26.4652 24.577L26.5312 25.254C26.7842 27.871 26.9112 29.179 26.1452 29.76C25.3792 30.342 24.2272 29.811 21.9252 28.751L21.3282 28.477C20.6742 28.175 20.3472 28.025 20.0002 28.025C19.6532 28.025 19.3262 28.175 18.6722 28.477L18.0762 28.751C15.7732 29.811 14.6212 30.341 13.8562 29.761C13.0892 29.179 13.2162 27.871 13.4692 25.254L13.5352 24.578C13.6072 23.834 13.6432 23.462 13.5352 23.118C13.4292 22.773 13.1902 22.494 12.7142 21.938L12.2802 21.43C10.6032 19.47 9.76523 18.489 10.0572 17.548C10.3502 16.607 11.5802 16.328 14.0402 15.772L14.6762 15.628C15.3752 15.47 15.7242 15.391 16.0052 15.178C16.2852 14.965 16.4652 14.642 16.8252 13.996L17.1532 13.408Z" stroke="black"/>
</svg>
