<svg width="40" height="40" viewBox="0 0 40 40" fill="none" xmlns="http://www.w3.org/2000/svg">
<path d="M0 20C0 12.8781 0 9.31711 1.49954 6.60634C2.49294 4.81055 3.93029 3.29954 5.67423 2.2177C8.30673 0.584663 11.8633 0.406837 18.9763 0.0511853L20 0L21.0237 0.0511852C28.1367 0.406837 31.6933 0.584663 34.3258 2.2177C36.0697 3.29954 37.5071 4.81055 38.5005 6.60634C40 9.31711 40 12.8781 40 20C40 27.1219 40 30.6829 38.5005 33.3937C37.5071 35.1894 36.0697 36.7005 34.3258 37.7823C31.6933 39.4153 28.1367 39.5932 21.0237 39.9488L20 40L18.9763 39.9488C11.8633 39.5932 8.30673 39.4153 5.67423 37.7823C3.93029 36.7005 2.49294 35.1894 1.49954 33.3937C0 30.6829 0 27.1219 0 20Z" fill="#D6B6FF"/>
<path d="M8 22C8 18.229 8 16.343 9.172 15.172C10.343 14 12.229 14 16 14H20C23.771 14 25.657 14 26.828 15.172C28 16.343 28 18.229 28 22C28 25.771 28 27.657 26.828 28.828C25.657 30 23.771 30 20 30H16C12.229 30 10.343 30 9.172 28.828C8 27.657 8 25.771 8 22Z" fill="white"/>
<path d="M10 20C10 16.229 10 14.343 11.172 13.172C12.343 12 14.229 12 18 12H22C25.771 12 27.657 12 28.828 13.172C30 14.343 30 16.229 30 20C30 23.771 30 25.657 28.828 26.828C27.657 28 25.771 28 22 28H18C14.229 28 12.343 28 11.172 26.828C10 25.657 10 23.771 10 20Z" stroke="black"/>
<path opacity="0.5" d="M18 24H14M22 24H20.5M10 18H30" stroke="black" stroke-linecap="round"/>
</svg>
