<svg width="40" height="40" viewBox="0 0 40 40" fill="none" xmlns="http://www.w3.org/2000/svg">
<path d="M0 20C0 12.8781 0 9.31711 1.49954 6.60634C2.49294 4.81055 3.93029 3.29954 5.67423 2.2177C8.30673 0.584663 11.8633 0.406837 18.9763 0.0511853L20 0L21.0237 0.0511852C28.1367 0.406837 31.6933 0.584663 34.3258 2.2177C36.0697 3.29954 37.5071 4.81055 38.5005 6.60634C40 9.31711 40 12.8781 40 20C40 27.1219 40 30.6829 38.5005 33.3937C37.5071 35.1894 36.0697 36.7005 34.3258 37.7823C31.6933 39.4153 28.1367 39.5932 21.0237 39.9488L20 40L18.9763 39.9488C11.8633 39.5932 8.30673 39.4153 5.67423 37.7823C3.93029 36.7005 2.49294 35.1894 1.49954 33.3937C0 30.6829 0 27.1219 0 20Z" fill="#07E688"/>
<path d="M18 32C23.5228 32 28 27.5228 28 22C28 16.4772 23.5228 12 18 12C12.4772 12 8 16.4772 8 22C8 27.5228 12.4772 32 18 32Z" fill="white"/>
<path d="M20 30C25.5228 30 30 25.5228 30 20C30 14.4772 25.5228 10 20 10C14.4772 10 10 14.4772 10 20C10 25.5228 14.4772 30 20 30Z" stroke="black"/>
<path d="M14.5 12L21.878 20V15.5M25.378 27.878L17.878 19.999V24.499" stroke="black" stroke-linecap="round" stroke-linejoin="round"/>
</svg>
