<svg width="40" height="40" viewBox="0 0 40 40" fill="none" xmlns="http://www.w3.org/2000/svg">
<path d="M0 20C0 12.8781 0 9.31711 1.49954 6.60634C2.49294 4.81055 3.93029 3.29954 5.67423 2.2177C8.30673 0.584663 11.8633 0.406837 18.9763 0.0511853L20 0L21.0237 0.0511852C28.1367 0.406837 31.6933 0.584663 34.3258 2.2177C36.0697 3.29954 37.5071 4.81055 38.5005 6.60634C40 9.31711 40 12.8781 40 20C40 27.1219 40 30.6829 38.5005 33.3937C37.5071 35.1894 36.0697 36.7005 34.3258 37.7823C31.6933 39.4153 28.1367 39.5932 21.0237 39.9488L20 40L18.9763 39.9488C11.8633 39.5932 8.30673 39.4153 5.67423 37.7823C3.93029 36.7005 2.49294 35.1894 1.49954 33.3937C0 30.6829 0 27.1219 0 20Z" fill="#82B3FF"/>
<path d="M8 22C8 18.25 8 16.375 8.955 15.061C9.26306 14.6367 9.63595 14.2634 10.06 13.955C11.375 13 13.251 13 17 13H19C22.75 13 24.625 13 25.939 13.955C26.3634 14.2634 26.7366 14.6366 27.045 15.061C28 16.375 28 18.251 28 22C28 25.75 28 27.625 27.045 28.939C26.7366 29.3634 26.3634 29.7366 25.939 30.045C24.625 31 22.749 31 19 31H17C13.25 31 11.375 31 10.061 30.045C9.6366 29.7366 9.26336 29.3634 8.955 28.939C8 27.625 8 25.749 8 22Z" fill="white"/>
<path d="M10 20C10 16.25 10 14.375 10.955 13.061C11.2631 12.6367 11.636 12.2634 12.06 11.955C13.375 11 15.251 11 19 11H21C24.75 11 26.625 11 27.939 11.955C28.3634 12.2634 28.7366 12.6366 29.045 13.061C30 14.375 30 16.251 30 20C30 23.75 30 25.625 29.045 26.939C28.7366 27.3634 28.3634 27.7366 27.939 28.045C26.625 29 24.749 29 21 29H19C15.25 29 13.375 29 12.061 28.045C11.6366 27.7366 11.2634 27.3634 10.955 26.939C10 25.625 10 23.749 10 20Z" stroke="black"/>
<path d="M19 22C19 21.068 19 20.602 19.152 20.235C19.2525 19.9922 19.3999 19.7716 19.5857 19.5857C19.7716 19.3999 19.9922 19.2525 20.235 19.152C20.602 19 21.068 19 22 19H23C23.932 19 24.398 19 24.765 19.152C25.0078 19.2525 25.2284 19.3999 25.4143 19.5857C25.6001 19.7716 25.7475 19.9922 25.848 20.235C26 20.602 26 21.068 26 22C26 22.932 26 23.398 25.848 23.765C25.7475 24.0078 25.6001 24.2284 25.4143 24.4143C25.2284 24.6001 25.0078 24.7475 24.765 24.848C24.398 25 23.932 25 23 25H22C21.068 25 20.602 25 20.235 24.848C19.9922 24.7475 19.7716 24.6001 19.5857 24.4143C19.3999 24.2284 19.2525 24.0078 19.152 23.765C19 23.398 19 22.932 19 22Z" stroke="black"/>
</svg>
