<svg width="1404" height="914" viewBox="0 0 1404 914" fill="none" xmlns="http://www.w3.org/2000/svg">
<g clip-path="url(#clip0_11677_33136)">
<path opacity="0.1" d="M54.2535 648V666.97M54.2535 666.97H35.7746C26.9381 666.97 19.7746 674.134 19.7746 682.97V701.444M54.2535 666.97H72.7324C81.5689 666.97 88.7324 674.134 88.7324 682.97V701.444M54.2535 735.918H35.7746C26.9381 735.918 19.7746 728.754 19.7746 719.918V701.444M54.2535 735.918H72.7324C81.5689 735.918 88.7324 728.754 88.7324 719.918V701.444M54.2535 735.918V774.97M88.7324 701.444H127.775M19.7746 701.444H0M162.254 648V666.97M162.254 666.97H143.775C134.938 666.97 127.775 674.134 127.775 682.97V701.444M162.254 666.97H180.732C189.569 666.97 196.732 674.134 196.732 682.97V701.444M162.254 735.918H143.775C134.938 735.918 127.775 728.754 127.775 719.918V701.444M162.254 735.918H180.732C189.569 735.918 196.732 728.754 196.732 719.918V701.444M162.254 735.918V774.97M196.732 701.444H235.775M270.254 648V666.97M270.254 666.97H251.775C242.938 666.97 235.775 674.134 235.775 682.97V701.444M270.254 666.97H288.732C297.569 666.97 304.732 674.134 304.732 682.97V701.444M270.254 735.918H251.775C242.938 735.918 235.775 728.754 235.775 719.918V701.444M270.254 735.918H288.732C297.569 735.918 304.732 728.754 304.732 719.918V701.444M270.254 735.918V774.97M304.732 701.444H343.775M378.254 648V666.97M378.254 666.97H359.775C350.938 666.97 343.775 674.134 343.775 682.97V701.444M378.254 666.97H396.732C405.569 666.97 412.732 674.134 412.732 682.97V701.444M378.254 735.918H359.775C350.938 735.918 343.775 728.754 343.775 719.918V701.444M378.254 735.918H396.732C405.569 735.918 412.732 728.754 412.732 719.918V701.444M378.254 735.918V774.97M412.732 701.444H451.775M486.254 648V666.97M486.254 666.97H467.775C458.938 666.97 451.775 674.134 451.775 682.97V701.444M486.254 666.97H504.732C513.569 666.97 520.732 674.134 520.732 682.97V701.444M486.254 735.918H467.775C458.938 735.918 451.775 728.754 451.775 719.918V701.444M486.254 735.918H504.732C513.569 735.918 520.732 728.754 520.732 719.918V701.444M486.254 735.918V774.97M520.732 701.444H559.775M594.254 648V666.97M594.254 666.97H575.775C566.938 666.97 559.775 674.134 559.775 682.97V701.444M594.254 666.97H612.732C621.569 666.97 628.732 674.134 628.732 682.97V701.444M594.254 735.918H575.775C566.938 735.918 559.775 728.754 559.775 719.918V701.444M594.254 735.918H612.732C621.569 735.918 628.732 728.754 628.732 719.918V701.444M594.254 735.918V774.97M628.732 701.444H667.775M702.254 648V666.97M702.254 666.97H683.775C674.938 666.97 667.775 674.134 667.775 682.97V701.444M702.254 666.97H720.732C729.569 666.97 736.732 674.134 736.732 682.97V701.444M702.254 735.918H683.775C674.938 735.918 667.775 728.754 667.775 719.918V701.444M702.254 735.918H720.732C729.569 735.918 736.732 728.754 736.732 719.918V701.444M702.254 735.918V774.97M736.732 701.444H775.775M810.254 648V666.97M810.254 666.97H791.775C782.938 666.97 775.775 674.134 775.775 682.97V701.444M810.254 666.97H828.732C837.569 666.97 844.732 674.134 844.732 682.97V701.444M810.254 735.918H791.775C782.938 735.918 775.775 728.754 775.775 719.918V701.444M810.254 735.918H828.732C837.569 735.918 844.732 728.754 844.732 719.918V701.444M810.254 735.918V774.97M844.732 701.444H883.775M918.254 648V666.97M918.254 666.97H899.775C890.938 666.97 883.775 674.134 883.775 682.97V701.444M918.254 666.97H936.732C945.569 666.97 952.732 674.134 952.732 682.97V701.444M918.254 735.918H899.775C890.938 735.918 883.775 728.754 883.775 719.918V701.444M918.254 735.918H936.732C945.569 735.918 952.732 728.754 952.732 719.918V701.444M918.254 735.918V774.97M952.732 701.444H991.775M1026.25 648V666.97M1026.25 666.97H1007.77C998.938 666.97 991.775 674.134 991.775 682.97V701.444M1026.25 666.97H1044.73C1053.57 666.97 1060.73 674.134 1060.73 682.97V701.444M1026.25 735.918H1007.77C998.938 735.918 991.775 728.754 991.775 719.918V701.444M1026.25 735.918H1044.73C1053.57 735.918 1060.73 728.754 1060.73 719.918V701.444M1026.25 735.918V774.97M1060.73 701.444H1099.77M1134.25 648V666.97M1134.25 666.97H1115.77C1106.94 666.97 1099.77 674.134 1099.77 682.97V701.444M1134.25 666.97H1152.73C1161.57 666.97 1168.73 674.134 1168.73 682.97V701.444M1134.25 735.918H1115.77C1106.94 735.918 1099.77 728.754 1099.77 719.918V701.444M1134.25 735.918H1152.73C1161.57 735.918 1168.73 728.754 1168.73 719.918V701.444M1134.25 735.918V774.97M1168.73 701.444H1207.77M1242.25 648V666.97M1242.25 666.97H1223.77C1214.94 666.97 1207.77 674.134 1207.77 682.97V701.444M1242.25 666.97H1260.73C1269.57 666.97 1276.73 674.134 1276.73 682.97V701.444M1242.25 735.918H1223.77C1214.94 735.918 1207.77 728.754 1207.77 719.918V701.444M1242.25 735.918H1260.73C1269.57 735.918 1276.73 728.754 1276.73 719.918V701.444M1242.25 735.918V774.97M1276.73 701.444H1315.77M1350.25 648V666.97M1350.25 666.97H1331.77C1322.94 666.97 1315.77 674.134 1315.77 682.97V701.444M1350.25 666.97H1368.73C1377.57 666.97 1384.73 674.134 1384.73 682.97V701.444M1350.25 735.918H1331.77C1322.94 735.918 1315.77 728.754 1315.77 719.918V701.444M1350.25 735.918H1368.73C1377.57 735.918 1384.73 728.754 1384.73 719.918V701.444M1350.25 735.918V774.97M1384.73 701.444H1404M54.2535 774.97H35.7746C26.9381 774.97 19.7746 782.134 19.7746 790.97V809.444M54.2535 774.97H72.7324C81.5689 774.97 88.7324 782.134 88.7324 790.97V809.444M54.2535 843.918H35.7746C26.9381 843.918 19.7746 836.754 19.7746 827.918V809.444M54.2535 843.918H72.7324C81.5689 843.918 88.7324 836.754 88.7324 827.918V809.444M54.2535 843.918V882.97M88.7324 809.444H127.775M19.7746 809.444H0M162.254 774.97H143.775C134.938 774.97 127.775 782.134 127.775 790.97V809.444M162.254 774.97H180.732C189.569 774.97 196.732 782.134 196.732 790.97V809.444M162.254 843.918H143.775C134.938 843.918 127.775 836.754 127.775 827.918V809.444M162.254 843.918H180.732C189.569 843.918 196.732 836.754 196.732 827.918V809.444M162.254 843.918V882.97M196.732 809.444H235.775M270.254 774.97H251.775C242.938 774.97 235.775 782.134 235.775 790.97V809.444M270.254 774.97H288.732C297.569 774.97 304.732 782.134 304.732 790.97V809.444M270.254 843.918H251.775C242.938 843.918 235.775 836.754 235.775 827.918V809.444M270.254 843.918H288.732C297.569 843.918 304.732 836.754 304.732 827.918V809.444M270.254 843.918V882.97M304.732 809.444H343.775M378.254 774.97H359.775C350.938 774.97 343.775 782.134 343.775 790.97V809.444M378.254 774.97H396.732C405.569 774.97 412.732 782.134 412.732 790.97V809.444M378.254 843.918H359.775C350.938 843.918 343.775 836.754 343.775 827.918V809.444M378.254 843.918H396.732C405.569 843.918 412.732 836.754 412.732 827.918V809.444M378.254 843.918V882.97M412.732 809.444H451.775M486.254 774.97H467.775C458.938 774.97 451.775 782.134 451.775 790.97V809.444M486.254 774.97H504.732C513.569 774.97 520.732 782.134 520.732 790.97V809.444M486.254 843.918H467.775C458.938 843.918 451.775 836.754 451.775 827.918V809.444M486.254 843.918H504.732C513.569 843.918 520.732 836.754 520.732 827.918V809.444M486.254 843.918V882.97M520.732 809.444H559.775M594.254 774.97H575.775C566.938 774.97 559.775 782.134 559.775 790.97V809.444M594.254 774.97H612.732C621.569 774.97 628.732 782.134 628.732 790.97V809.444M594.254 843.918H575.775C566.938 843.918 559.775 836.754 559.775 827.918V809.444M594.254 843.918H612.732C621.569 843.918 628.732 836.754 628.732 827.918V809.444M594.254 843.918V882.97M628.732 809.444H667.775M702.254 774.97H683.775C674.938 774.97 667.775 782.134 667.775 790.97V809.444M702.254 774.97H720.732C729.569 774.97 736.732 782.134 736.732 790.97V809.444M702.254 843.918H683.775C674.938 843.918 667.775 836.754 667.775 827.918V809.444M702.254 843.918H720.732C729.569 843.918 736.732 836.754 736.732 827.918V809.444M702.254 843.918V882.97M736.732 809.444H775.775M810.254 774.97H791.775C782.938 774.97 775.775 782.134 775.775 790.97V809.444M810.254 774.97H828.732C837.569 774.97 844.732 782.134 844.732 790.97V809.444M810.254 843.918H791.775C782.938 843.918 775.775 836.754 775.775 827.918V809.444M810.254 843.918H828.732C837.569 843.918 844.732 836.754 844.732 827.918V809.444M810.254 843.918V882.97M844.732 809.444H883.775M918.254 774.97H899.775C890.938 774.97 883.775 782.134 883.775 790.97V809.444M918.254 774.97H936.732C945.569 774.97 952.732 782.134 952.732 790.97V809.444M918.254 843.918H899.775C890.938 843.918 883.775 836.754 883.775 827.918V809.444M918.254 843.918H936.732C945.569 843.918 952.732 836.754 952.732 827.918V809.444M918.254 843.918V882.97M952.732 809.444H991.775M1026.25 774.97H1007.77C998.938 774.97 991.775 782.134 991.775 790.97V809.444M1026.25 774.97H1044.73C1053.57 774.97 1060.73 782.134 1060.73 790.97V809.444M1026.25 843.918H1007.77C998.938 843.918 991.775 836.754 991.775 827.918V809.444M1026.25 843.918H1044.73C1053.57 843.918 1060.73 836.754 1060.73 827.918V809.444M1026.25 843.918V882.97M1060.73 809.444H1099.77M1134.25 774.97H1115.77C1106.94 774.97 1099.77 782.134 1099.77 790.97V809.444M1134.25 774.97H1152.73C1161.57 774.97 1168.73 782.134 1168.73 790.97V809.444M1134.25 843.918H1115.77C1106.94 843.918 1099.77 836.754 1099.77 827.918V809.444M1134.25 843.918H1152.73C1161.57 843.918 1168.73 836.754 1168.73 827.918V809.444M1134.25 843.918V882.97M1168.73 809.444H1207.77M1242.25 774.97H1223.77C1214.94 774.97 1207.77 782.134 1207.77 790.97V809.444M1242.25 774.97H1260.73C1269.57 774.97 1276.73 782.134 1276.73 790.97V809.444M1242.25 843.918H1223.77C1214.94 843.918 1207.77 836.754 1207.77 827.918V809.444M1242.25 843.918H1260.73C1269.57 843.918 1276.73 836.754 1276.73 827.918V809.444M1242.25 843.918V882.97M1276.73 809.444H1315.77M1350.25 774.97H1331.77C1322.94 774.97 1315.77 782.134 1315.77 790.97V809.444M1350.25 774.97H1368.73C1377.57 774.97 1384.73 782.134 1384.73 790.97V809.444M1350.25 843.918H1331.77C1322.94 843.918 1315.77 836.754 1315.77 827.918V809.444M1350.25 843.918H1368.73C1377.57 843.918 1384.73 836.754 1384.73 827.918V809.444M1350.25 843.918V882.97M1384.73 809.444H1404M54.2535 882.97H35.7746C26.9381 882.97 19.7746 890.134 19.7746 898.97V917.444M54.2535 882.97H72.7324C81.5689 882.97 88.7324 890.134 88.7324 898.97V917.444M54.2535 951.918H35.7746C26.9381 951.918 19.7746 944.754 19.7746 935.918V917.444M54.2535 951.918H72.7324C81.5689 951.918 88.7324 944.754 88.7324 935.918V917.444M54.2535 951.918V972M88.7324 917.444H127.775M19.7746 917.444H0M162.254 882.97H143.775C134.938 882.97 127.775 890.134 127.775 898.97V917.444M162.254 882.97H180.732C189.569 882.97 196.732 890.134 196.732 898.97V917.444M162.254 951.918H143.775C134.938 951.918 127.775 944.754 127.775 935.918V917.444M162.254 951.918H180.732C189.569 951.918 196.732 944.754 196.732 935.918V917.444M162.254 951.918V972M196.732 917.444H235.775M270.254 882.97H251.775C242.938 882.97 235.775 890.134 235.775 898.97V917.444M270.254 882.97H288.732C297.569 882.97 304.732 890.134 304.732 898.97V917.444M270.254 951.918H251.775C242.938 951.918 235.775 944.754 235.775 935.918V917.444M270.254 951.918H288.732C297.569 951.918 304.732 944.754 304.732 935.918V917.444M270.254 951.918V972M304.732 917.444H343.775M378.254 882.97H359.775C350.938 882.97 343.775 890.134 343.775 898.97V917.444M378.254 882.97H396.732C405.569 882.97 412.732 890.134 412.732 898.97V917.444M378.254 951.918H359.775C350.938 951.918 343.775 944.754 343.775 935.918V917.444M378.254 951.918H396.732C405.569 951.918 412.732 944.754 412.732 935.918V917.444M378.254 951.918V972M412.732 917.444H451.775M486.254 882.97H467.775C458.938 882.97 451.775 890.134 451.775 898.97V917.444M486.254 882.97H504.732C513.569 882.97 520.732 890.134 520.732 898.97V917.444M486.254 951.918H467.775C458.938 951.918 451.775 944.754 451.775 935.918V917.444M486.254 951.918H504.732C513.569 951.918 520.732 944.754 520.732 935.918V917.444M486.254 951.918V972M520.732 917.444H559.775M594.254 882.97H575.775C566.938 882.97 559.775 890.134 559.775 898.97V917.444M594.254 882.97H612.732C621.569 882.97 628.732 890.134 628.732 898.97V917.444M594.254 951.918H575.775C566.938 951.918 559.775 944.754 559.775 935.918V917.444M594.254 951.918H612.732C621.569 951.918 628.732 944.754 628.732 935.918V917.444M594.254 951.918V972M628.732 917.444H667.775M702.254 882.97H683.775C674.938 882.97 667.775 890.134 667.775 898.97V917.444M702.254 882.97H720.732C729.569 882.97 736.732 890.134 736.732 898.97V917.444M702.254 951.918H683.775C674.938 951.918 667.775 944.754 667.775 935.918V917.444M702.254 951.918H720.732C729.569 951.918 736.732 944.754 736.732 935.918V917.444M702.254 951.918V970.97M736.732 917.444H775.775M810.254 882.97H791.775C782.938 882.97 775.775 890.134 775.775 898.97V917.444M810.254 882.97H828.732C837.569 882.97 844.732 890.134 844.732 898.97V917.444M810.254 951.918H791.775C782.938 951.918 775.775 944.754 775.775 935.918V917.444M810.254 951.918H828.732C837.569 951.918 844.732 944.754 844.732 935.918V917.444M810.254 951.918V972M844.732 917.444H883.775M918.254 882.97H899.775C890.938 882.97 883.775 890.134 883.775 898.97V917.444M918.254 882.97H936.732C945.569 882.97 952.732 890.134 952.732 898.97V917.444M918.254 951.918H899.775C890.938 951.918 883.775 944.754 883.775 935.918V917.444M918.254 951.918H936.732C945.569 951.918 952.732 944.754 952.732 935.918V917.444M918.254 951.918V972M952.732 917.444H991.775M1026.25 882.97H1007.77C998.938 882.97 991.775 890.134 991.775 898.97V917.444M1026.25 882.97H1044.73C1053.57 882.97 1060.73 890.134 1060.73 898.97V917.444M1026.25 951.918H1007.77C998.938 951.918 991.775 944.754 991.775 935.918V917.444M1026.25 951.918H1044.73C1053.57 951.918 1060.73 944.754 1060.73 935.918V917.444M1026.25 951.918V972M1060.73 917.444H1099.77M1134.25 882.97H1115.77C1106.94 882.97 1099.77 890.134 1099.77 898.97V917.444M1134.25 882.97H1152.73C1161.57 882.97 1168.73 890.134 1168.73 898.97V917.444M1134.25 951.918H1115.77C1106.94 951.918 1099.77 944.754 1099.77 935.918V917.444M1134.25 951.918H1152.73C1161.57 951.918 1168.73 944.754 1168.73 935.918V917.444M1134.25 951.918V972M1168.73 917.444H1207.77M1242.25 882.97H1223.77C1214.94 882.97 1207.77 890.134 1207.77 898.97V917.444M1242.25 882.97H1260.73C1269.57 882.97 1276.73 890.134 1276.73 898.97V917.444M1242.25 951.918H1223.77C1214.94 951.918 1207.77 944.754 1207.77 935.918V917.444M1242.25 951.918H1260.73C1269.57 951.918 1276.73 944.754 1276.73 935.918V917.444M1242.25 951.918V972M1276.73 917.444H1315.77M1350.25 882.97H1331.77C1322.94 882.97 1315.77 890.134 1315.77 898.97V917.444M1350.25 882.97H1368.73C1377.57 882.97 1384.73 890.134 1384.73 898.97V917.444M1350.25 951.918H1331.77C1322.94 951.918 1315.77 944.754 1315.77 935.918V917.444M1350.25 951.918H1368.73C1377.57 951.918 1384.73 944.754 1384.73 935.918V917.444M1350.25 951.918V972M1384.73 917.444H1404" stroke="white" stroke-linecap="round" stroke-dasharray="7 7"/>
<path opacity="0.1" d="M54.2535 0V18.9703M54.2535 18.9703H35.7746C26.9381 18.9703 19.7746 26.1338 19.7746 34.9703V53.444M54.2535 18.9703H72.7324C81.5689 18.9703 88.7324 26.1338 88.7324 34.9703V53.444M54.2535 87.9176H35.7746C26.9381 87.9176 19.7746 80.7542 19.7746 71.9176V53.444M54.2535 87.9176H72.7324C81.5689 87.9176 88.7324 80.7542 88.7324 71.9176V53.444M54.2535 87.9176V126.97M88.7324 53.444H127.775M19.7746 53.444H0M162.254 0V18.9703M162.254 18.9703H143.775C134.938 18.9703 127.775 26.1338 127.775 34.9703V53.444M162.254 18.9703H180.732C189.569 18.9703 196.732 26.1338 196.732 34.9703V53.444M162.254 87.9176H143.775C134.938 87.9176 127.775 80.7542 127.775 71.9176V53.444M162.254 87.9176H180.732C189.569 87.9176 196.732 80.7542 196.732 71.9176V53.444M162.254 87.9176V126.97M196.732 53.444H235.775M270.254 0V18.9703M270.254 18.9703H251.775C242.938 18.9703 235.775 26.1338 235.775 34.9703V53.444M270.254 18.9703H288.732C297.569 18.9703 304.732 26.1338 304.732 34.9703V53.444M270.254 87.9176H251.775C242.938 87.9176 235.775 80.7542 235.775 71.9176V53.444M270.254 87.9176H288.732C297.569 87.9176 304.732 80.7542 304.732 71.9176V53.444M270.254 87.9176V126.97M304.732 53.444H343.775M378.254 0V18.9703M378.254 18.9703H359.775C350.938 18.9703 343.775 26.1338 343.775 34.9703V53.444M378.254 18.9703H396.732C405.569 18.9703 412.732 26.1338 412.732 34.9703V53.444M378.254 87.9176H359.775C350.938 87.9176 343.775 80.7542 343.775 71.9176V53.444M378.254 87.9176H396.732C405.569 87.9176 412.732 80.7542 412.732 71.9176V53.444M378.254 87.9176V126.97M412.732 53.444H451.775M486.254 0V18.9703M486.254 18.9703H467.775C458.938 18.9703 451.775 26.1338 451.775 34.9703V53.444M486.254 18.9703H504.732C513.569 18.9703 520.732 26.1338 520.732 34.9703V53.444M486.254 87.9176H467.775C458.938 87.9176 451.775 80.7542 451.775 71.9176V53.444M486.254 87.9176H504.732C513.569 87.9176 520.732 80.7542 520.732 71.9176V53.444M486.254 87.9176V126.97M520.732 53.444H559.775M594.254 0V18.9703M594.254 18.9703H575.775C566.938 18.9703 559.775 26.1338 559.775 34.9703V53.444M594.254 18.9703H612.732C621.569 18.9703 628.732 26.1338 628.732 34.9703V53.444M594.254 87.9176H575.775C566.938 87.9176 559.775 80.7542 559.775 71.9176V53.444M594.254 87.9176H612.732C621.569 87.9176 628.732 80.7542 628.732 71.9176V53.444M594.254 87.9176V126.97M628.732 53.444H667.775M702.254 0V18.9703M702.254 18.9703H683.775C674.938 18.9703 667.775 26.1338 667.775 34.9703V53.444M702.254 18.9703H720.732C729.569 18.9703 736.732 26.1338 736.732 34.9703V53.444M702.254 87.9176H683.775C674.938 87.9176 667.775 80.7542 667.775 71.9176V53.444M702.254 87.9176H720.732C729.569 87.9176 736.732 80.7542 736.732 71.9176V53.444M702.254 87.9176V126.97M736.732 53.444H775.775M810.254 0V18.9703M810.254 18.9703H791.775C782.938 18.9703 775.775 26.1338 775.775 34.9703V53.444M810.254 18.9703H828.732C837.569 18.9703 844.732 26.1338 844.732 34.9703V53.444M810.254 87.9176H791.775C782.938 87.9176 775.775 80.7542 775.775 71.9176V53.444M810.254 87.9176H828.732C837.569 87.9176 844.732 80.7542 844.732 71.9176V53.444M810.254 87.9176V126.97M844.732 53.444H883.775M918.254 0V18.9703M918.254 18.9703H899.775C890.938 18.9703 883.775 26.1338 883.775 34.9703V53.444M918.254 18.9703H936.732C945.569 18.9703 952.732 26.1338 952.732 34.9703V53.444M918.254 87.9176H899.775C890.938 87.9176 883.775 80.7542 883.775 71.9176V53.444M918.254 87.9176H936.732C945.569 87.9176 952.732 80.7542 952.732 71.9176V53.444M918.254 87.9176V126.97M952.732 53.444H991.775M1026.25 0V18.9703M1026.25 18.9703H1007.77C998.938 18.9703 991.775 26.1338 991.775 34.9703V53.444M1026.25 18.9703H1044.73C1053.57 18.9703 1060.73 26.1338 1060.73 34.9703V53.444M1026.25 87.9176H1007.77C998.938 87.9176 991.775 80.7542 991.775 71.9176V53.444M1026.25 87.9176H1044.73C1053.57 87.9176 1060.73 80.7542 1060.73 71.9176V53.444M1026.25 87.9176V126.97M1060.73 53.444H1099.77M1134.25 0V18.9703M1134.25 18.9703H1115.77C1106.94 18.9703 1099.77 26.1338 1099.77 34.9703V53.444M1134.25 18.9703H1152.73C1161.57 18.9703 1168.73 26.1338 1168.73 34.9703V53.444M1134.25 87.9176H1115.77C1106.94 87.9176 1099.77 80.7542 1099.77 71.9176V53.444M1134.25 87.9176H1152.73C1161.57 87.9176 1168.73 80.7542 1168.73 71.9176V53.444M1134.25 87.9176V126.97M1168.73 53.444H1207.77M1242.25 0V18.9703M1242.25 18.9703H1223.77C1214.94 18.9703 1207.77 26.1338 1207.77 34.9703V53.444M1242.25 18.9703H1260.73C1269.57 18.9703 1276.73 26.1338 1276.73 34.9703V53.444M1242.25 87.9176H1223.77C1214.94 87.9176 1207.77 80.7542 1207.77 71.9176V53.444M1242.25 87.9176H1260.73C1269.57 87.9176 1276.73 80.7542 1276.73 71.9176V53.444M1242.25 87.9176V126.97M1276.73 53.444H1315.77M1350.25 0V18.9703M1350.25 18.9703H1331.77C1322.94 18.9703 1315.77 26.1338 1315.77 34.9703V53.444M1350.25 18.9703H1368.73C1377.57 18.9703 1384.73 26.1338 1384.73 34.9703V53.444M1350.25 87.9176H1331.77C1322.94 87.9176 1315.77 80.7542 1315.77 71.9176V53.444M1350.25 87.9176H1368.73C1377.57 87.9176 1384.73 80.7542 1384.73 71.9176V53.444M1350.25 87.9176V126.97M1384.73 53.444H1404M54.2535 126.97H35.7746C26.9381 126.97 19.7746 134.134 19.7746 142.97V161.444M54.2535 126.97H72.7324C81.5689 126.97 88.7324 134.134 88.7324 142.97V161.444M54.2535 195.918H35.7746C26.9381 195.918 19.7746 188.754 19.7746 179.918V161.444M54.2535 195.918H72.7324C81.5689 195.918 88.7324 188.754 88.7324 179.918V161.444M54.2535 195.918V234.97M88.7324 161.444H127.775M19.7746 161.444H0M162.254 126.97H143.775C134.938 126.97 127.775 134.134 127.775 142.97V161.444M162.254 126.97H180.732C189.569 126.97 196.732 134.134 196.732 142.97V161.444M162.254 195.918H143.775C134.938 195.918 127.775 188.754 127.775 179.918V161.444M162.254 195.918H180.732C189.569 195.918 196.732 188.754 196.732 179.918V161.444M162.254 195.918V234.97M196.732 161.444H235.775M270.254 126.97H251.775C242.938 126.97 235.775 134.134 235.775 142.97V161.444M270.254 126.97H288.732C297.569 126.97 304.732 134.134 304.732 142.97V161.444M270.254 195.918H251.775C242.938 195.918 235.775 188.754 235.775 179.918V161.444M270.254 195.918H288.732C297.569 195.918 304.732 188.754 304.732 179.918V161.444M270.254 195.918V234.97M304.732 161.444H343.775M378.254 126.97H359.775C350.938 126.97 343.775 134.134 343.775 142.97V161.444M378.254 126.97H396.732C405.569 126.97 412.732 134.134 412.732 142.97V161.444M378.254 195.918H359.775C350.938 195.918 343.775 188.754 343.775 179.918V161.444M378.254 195.918H396.732C405.569 195.918 412.732 188.754 412.732 179.918V161.444M378.254 195.918V234.97M412.732 161.444H451.775M486.254 126.97H467.775C458.938 126.97 451.775 134.134 451.775 142.97V161.444M486.254 126.97H504.732C513.569 126.97 520.732 134.134 520.732 142.97V161.444M486.254 195.918H467.775C458.938 195.918 451.775 188.754 451.775 179.918V161.444M486.254 195.918H504.732C513.569 195.918 520.732 188.754 520.732 179.918V161.444M486.254 195.918V234.97M520.732 161.444H559.775M594.254 126.97H575.775C566.938 126.97 559.775 134.134 559.775 142.97V161.444M594.254 126.97H612.732C621.569 126.97 628.732 134.134 628.732 142.97V161.444M594.254 195.918H575.775C566.938 195.918 559.775 188.754 559.775 179.918V161.444M594.254 195.918H612.732C621.569 195.918 628.732 188.754 628.732 179.918V161.444M594.254 195.918V234.97M628.732 161.444H667.775M702.254 126.97H683.775C674.938 126.97 667.775 134.134 667.775 142.97V161.444M702.254 126.97H720.732C729.569 126.97 736.732 134.134 736.732 142.97V161.444M702.254 195.918H683.775C674.938 195.918 667.775 188.754 667.775 179.918V161.444M702.254 195.918H720.732C729.569 195.918 736.732 188.754 736.732 179.918V161.444M702.254 195.918V234.97M736.732 161.444H775.775M810.254 126.97H791.775C782.938 126.97 775.775 134.134 775.775 142.97V161.444M810.254 126.97H828.732C837.569 126.97 844.732 134.134 844.732 142.97V161.444M810.254 195.918H791.775C782.938 195.918 775.775 188.754 775.775 179.918V161.444M810.254 195.918H828.732C837.569 195.918 844.732 188.754 844.732 179.918V161.444M810.254 195.918V234.97M844.732 161.444H883.775M918.254 126.97H899.775C890.938 126.97 883.775 134.134 883.775 142.97V161.444M918.254 126.97H936.732C945.569 126.97 952.732 134.134 952.732 142.97V161.444M918.254 195.918H899.775C890.938 195.918 883.775 188.754 883.775 179.918V161.444M918.254 195.918H936.732C945.569 195.918 952.732 188.754 952.732 179.918V161.444M918.254 195.918V234.97M952.732 161.444H991.775M1026.25 126.97H1007.77C998.938 126.97 991.775 134.134 991.775 142.97V161.444M1026.25 126.97H1044.73C1053.57 126.97 1060.73 134.134 1060.73 142.97V161.444M1026.25 195.918H1007.77C998.938 195.918 991.775 188.754 991.775 179.918V161.444M1026.25 195.918H1044.73C1053.57 195.918 1060.73 188.754 1060.73 179.918V161.444M1026.25 195.918V234.97M1060.73 161.444H1099.77M1134.25 126.97H1115.77C1106.94 126.97 1099.77 134.134 1099.77 142.97V161.444M1134.25 126.97H1152.73C1161.57 126.97 1168.73 134.134 1168.73 142.97V161.444M1134.25 195.918H1115.77C1106.94 195.918 1099.77 188.754 1099.77 179.918V161.444M1134.25 195.918H1152.73C1161.57 195.918 1168.73 188.754 1168.73 179.918V161.444M1134.25 195.918V234.97M1168.73 161.444H1207.77M1242.25 126.97H1223.77C1214.94 126.97 1207.77 134.134 1207.77 142.97V161.444M1242.25 126.97H1260.73C1269.57 126.97 1276.73 134.134 1276.73 142.97V161.444M1242.25 195.918H1223.77C1214.94 195.918 1207.77 188.754 1207.77 179.918V161.444M1242.25 195.918H1260.73C1269.57 195.918 1276.73 188.754 1276.73 179.918V161.444M1242.25 195.918V234.97M1276.73 161.444H1315.77M1350.25 126.97H1331.77C1322.94 126.97 1315.77 134.134 1315.77 142.97V161.444M1350.25 126.97H1368.73C1377.57 126.97 1384.73 134.134 1384.73 142.97V161.444M1350.25 195.918H1331.77C1322.94 195.918 1315.77 188.754 1315.77 179.918V161.444M1350.25 195.918H1368.73C1377.57 195.918 1384.73 188.754 1384.73 179.918V161.444M1350.25 195.918V234.97M1384.73 161.444H1404M54.2535 234.97H35.7746C26.9381 234.97 19.7746 242.134 19.7746 250.97V269.444M54.2535 234.97H72.7324C81.5689 234.97 88.7324 242.134 88.7324 250.97V269.444M54.2535 303.918H35.7746C26.9381 303.918 19.7746 296.754 19.7746 287.918V269.444M54.2535 303.918H72.7324C81.5689 303.918 88.7324 296.754 88.7324 287.918V269.444M54.2535 303.918V324M88.7324 269.444H127.775M19.7746 269.444H0M162.254 234.97H143.775C134.938 234.97 127.775 242.134 127.775 250.97V269.444M162.254 234.97H180.732C189.569 234.97 196.732 242.134 196.732 250.97V269.444M162.254 303.918H143.775C134.938 303.918 127.775 296.754 127.775 287.918V269.444M162.254 303.918H180.732C189.569 303.918 196.732 296.754 196.732 287.918V269.444M162.254 303.918V324M196.732 269.444H235.775M270.254 234.97H251.775C242.938 234.97 235.775 242.134 235.775 250.97V269.444M270.254 234.97H288.732C297.569 234.97 304.732 242.134 304.732 250.97V269.444M270.254 303.918H251.775C242.938 303.918 235.775 296.754 235.775 287.918V269.444M270.254 303.918H288.732C297.569 303.918 304.732 296.754 304.732 287.918V269.444M270.254 303.918V324M304.732 269.444H343.775M378.254 234.97H359.775C350.938 234.97 343.775 242.134 343.775 250.97V269.444M378.254 234.97H396.732C405.569 234.97 412.732 242.134 412.732 250.97V269.444M378.254 303.918H359.775C350.938 303.918 343.775 296.754 343.775 287.918V269.444M378.254 303.918H396.732C405.569 303.918 412.732 296.754 412.732 287.918V269.444M378.254 303.918V324M412.732 269.444H451.775M486.254 234.97H467.775C458.938 234.97 451.775 242.134 451.775 250.97V269.444M486.254 234.97H504.732C513.569 234.97 520.732 242.134 520.732 250.97V269.444M486.254 303.918H467.775C458.938 303.918 451.775 296.754 451.775 287.918V269.444M486.254 303.918H504.732C513.569 303.918 520.732 296.754 520.732 287.918V269.444M486.254 303.918V324M520.732 269.444H559.775M594.254 234.97H575.775C566.938 234.97 559.775 242.134 559.775 250.97V269.444M594.254 234.97H612.732C621.569 234.97 628.732 242.134 628.732 250.97V269.444M594.254 303.918H575.775C566.938 303.918 559.775 296.754 559.775 287.918V269.444M594.254 303.918H612.732C621.569 303.918 628.732 296.754 628.732 287.918V269.444M594.254 303.918V324M628.732 269.444H667.775M702.254 234.97H683.775C674.938 234.97 667.775 242.134 667.775 250.97V269.444M702.254 234.97H720.732C729.569 234.97 736.732 242.134 736.732 250.97V269.444M702.254 303.918H683.775C674.938 303.918 667.775 296.754 667.775 287.918V269.444M702.254 303.918H720.732C729.569 303.918 736.732 296.754 736.732 287.918V269.444M702.254 303.918V322.97M736.732 269.444H775.775M810.254 234.97H791.775C782.938 234.97 775.775 242.134 775.775 250.97V269.444M810.254 234.97H828.732C837.569 234.97 844.732 242.134 844.732 250.97V269.444M810.254 303.918H791.775C782.938 303.918 775.775 296.754 775.775 287.918V269.444M810.254 303.918H828.732C837.569 303.918 844.732 296.754 844.732 287.918V269.444M810.254 303.918V324M844.732 269.444H883.775M918.254 234.97H899.775C890.938 234.97 883.775 242.134 883.775 250.97V269.444M918.254 234.97H936.732C945.569 234.97 952.732 242.134 952.732 250.97V269.444M918.254 303.918H899.775C890.938 303.918 883.775 296.754 883.775 287.918V269.444M918.254 303.918H936.732C945.569 303.918 952.732 296.754 952.732 287.918V269.444M918.254 303.918V324M952.732 269.444H991.775M1026.25 234.97H1007.77C998.938 234.97 991.775 242.134 991.775 250.97V269.444M1026.25 234.97H1044.73C1053.57 234.97 1060.73 242.134 1060.73 250.97V269.444M1026.25 303.918H1007.77C998.938 303.918 991.775 296.754 991.775 287.918V269.444M1026.25 303.918H1044.73C1053.57 303.918 1060.73 296.754 1060.73 287.918V269.444M1026.25 303.918V324M1060.73 269.444H1099.77M1134.25 234.97H1115.77C1106.94 234.97 1099.77 242.134 1099.77 250.97V269.444M1134.25 234.97H1152.73C1161.57 234.97 1168.73 242.134 1168.73 250.97V269.444M1134.25 303.918H1115.77C1106.94 303.918 1099.77 296.754 1099.77 287.918V269.444M1134.25 303.918H1152.73C1161.57 303.918 1168.73 296.754 1168.73 287.918V269.444M1134.25 303.918V324M1168.73 269.444H1207.77M1242.25 234.97H1223.77C1214.94 234.97 1207.77 242.134 1207.77 250.97V269.444M1242.25 234.97H1260.73C1269.57 234.97 1276.73 242.134 1276.73 250.97V269.444M1242.25 303.918H1223.77C1214.94 303.918 1207.77 296.754 1207.77 287.918V269.444M1242.25 303.918H1260.73C1269.57 303.918 1276.73 296.754 1276.73 287.918V269.444M1242.25 303.918V324M1276.73 269.444H1315.77M1350.25 234.97H1331.77C1322.94 234.97 1315.77 242.134 1315.77 250.97V269.444M1350.25 234.97H1368.73C1377.57 234.97 1384.73 242.134 1384.73 250.97V269.444M1350.25 303.918H1331.77C1322.94 303.918 1315.77 296.754 1315.77 287.918V269.444M1350.25 303.918H1368.73C1377.57 303.918 1384.73 296.754 1384.73 287.918V269.444M1350.25 303.918V324M1384.73 269.444H1404" stroke="white" stroke-linecap="round" stroke-dasharray="7 7"/>
<path opacity="0.1" d="M54.2535 324V342.97M54.2535 342.97H35.7746C26.9381 342.97 19.7746 350.134 19.7746 358.97V377.444M54.2535 342.97H72.7324C81.5689 342.97 88.7324 350.134 88.7324 358.97V377.444M54.2535 411.918H35.7746C26.9381 411.918 19.7746 404.754 19.7746 395.918V377.444M54.2535 411.918H72.7324C81.5689 411.918 88.7324 404.754 88.7324 395.918V377.444M54.2535 411.918V450.97M88.7324 377.444H127.775M19.7746 377.444H0M162.254 324V342.97M162.254 342.97H143.775C134.938 342.97 127.775 350.134 127.775 358.97V377.444M162.254 342.97H180.732C189.569 342.97 196.732 350.134 196.732 358.97V377.444M162.254 411.918H143.775C134.938 411.918 127.775 404.754 127.775 395.918V377.444M162.254 411.918H180.732C189.569 411.918 196.732 404.754 196.732 395.918V377.444M162.254 411.918V450.97M196.732 377.444H235.775M270.254 324V342.97M270.254 342.97H251.775C242.938 342.97 235.775 350.134 235.775 358.97V377.444M270.254 342.97H288.732C297.569 342.97 304.732 350.134 304.732 358.97V377.444M270.254 411.918H251.775C242.938 411.918 235.775 404.754 235.775 395.918V377.444M270.254 411.918H288.732C297.569 411.918 304.732 404.754 304.732 395.918V377.444M270.254 411.918V450.97M304.732 377.444H343.775M378.254 324V342.97M378.254 342.97H359.775C350.938 342.97 343.775 350.134 343.775 358.97V377.444M378.254 342.97H396.732C405.569 342.97 412.732 350.134 412.732 358.97V377.444M378.254 411.918H359.775C350.938 411.918 343.775 404.754 343.775 395.918V377.444M378.254 411.918H396.732C405.569 411.918 412.732 404.754 412.732 395.918V377.444M378.254 411.918V450.97M412.732 377.444H451.775M486.254 324V342.97M486.254 342.97H467.775C458.938 342.97 451.775 350.134 451.775 358.97V377.444M486.254 342.97H504.732C513.569 342.97 520.732 350.134 520.732 358.97V377.444M486.254 411.918H467.775C458.938 411.918 451.775 404.754 451.775 395.918V377.444M486.254 411.918H504.732C513.569 411.918 520.732 404.754 520.732 395.918V377.444M486.254 411.918V450.97M520.732 377.444H559.775M594.254 324V342.97M594.254 342.97H575.775C566.938 342.97 559.775 350.134 559.775 358.97V377.444M594.254 342.97H612.732C621.569 342.97 628.732 350.134 628.732 358.97V377.444M594.254 411.918H575.775C566.938 411.918 559.775 404.754 559.775 395.918V377.444M594.254 411.918H612.732C621.569 411.918 628.732 404.754 628.732 395.918V377.444M594.254 411.918V450.97M628.732 377.444H667.775M702.254 324V342.97M702.254 342.97H683.775C674.938 342.97 667.775 350.134 667.775 358.97V377.444M702.254 342.97H720.732C729.569 342.97 736.732 350.134 736.732 358.97V377.444M702.254 411.918H683.775C674.938 411.918 667.775 404.754 667.775 395.918V377.444M702.254 411.918H720.732C729.569 411.918 736.732 404.754 736.732 395.918V377.444M702.254 411.918V450.97M736.732 377.444H775.775M810.254 324V342.97M810.254 342.97H791.775C782.938 342.97 775.775 350.134 775.775 358.97V377.444M810.254 342.97H828.732C837.569 342.97 844.732 350.134 844.732 358.97V377.444M810.254 411.918H791.775C782.938 411.918 775.775 404.754 775.775 395.918V377.444M810.254 411.918H828.732C837.569 411.918 844.732 404.754 844.732 395.918V377.444M810.254 411.918V450.97M844.732 377.444H883.775M918.254 324V342.97M918.254 342.97H899.775C890.938 342.97 883.775 350.134 883.775 358.97V377.444M918.254 342.97H936.732C945.569 342.97 952.732 350.134 952.732 358.97V377.444M918.254 411.918H899.775C890.938 411.918 883.775 404.754 883.775 395.918V377.444M918.254 411.918H936.732C945.569 411.918 952.732 404.754 952.732 395.918V377.444M918.254 411.918V450.97M952.732 377.444H991.775M1026.25 324V342.97M1026.25 342.97H1007.77C998.938 342.97 991.775 350.134 991.775 358.97V377.444M1026.25 342.97H1044.73C1053.57 342.97 1060.73 350.134 1060.73 358.97V377.444M1026.25 411.918H1007.77C998.938 411.918 991.775 404.754 991.775 395.918V377.444M1026.25 411.918H1044.73C1053.57 411.918 1060.73 404.754 1060.73 395.918V377.444M1026.25 411.918V450.97M1060.73 377.444H1099.77M1134.25 324V342.97M1134.25 342.97H1115.77C1106.94 342.97 1099.77 350.134 1099.77 358.97V377.444M1134.25 342.97H1152.73C1161.57 342.97 1168.73 350.134 1168.73 358.97V377.444M1134.25 411.918H1115.77C1106.94 411.918 1099.77 404.754 1099.77 395.918V377.444M1134.25 411.918H1152.73C1161.57 411.918 1168.73 404.754 1168.73 395.918V377.444M1134.25 411.918V450.97M1168.73 377.444H1207.77M1242.25 324V342.97M1242.25 342.97H1223.77C1214.94 342.97 1207.77 350.134 1207.77 358.97V377.444M1242.25 342.97H1260.73C1269.57 342.97 1276.73 350.134 1276.73 358.97V377.444M1242.25 411.918H1223.77C1214.94 411.918 1207.77 404.754 1207.77 395.918V377.444M1242.25 411.918H1260.73C1269.57 411.918 1276.73 404.754 1276.73 395.918V377.444M1242.25 411.918V450.97M1276.73 377.444H1315.77M1350.25 324V342.97M1350.25 342.97H1331.77C1322.94 342.97 1315.77 350.134 1315.77 358.97V377.444M1350.25 342.97H1368.73C1377.57 342.97 1384.73 350.134 1384.73 358.97V377.444M1350.25 411.918H1331.77C1322.94 411.918 1315.77 404.754 1315.77 395.918V377.444M1350.25 411.918H1368.73C1377.57 411.918 1384.73 404.754 1384.73 395.918V377.444M1350.25 411.918V450.97M1384.73 377.444H1404M54.2535 450.97H35.7746C26.9381 450.97 19.7746 458.134 19.7746 466.97V485.444M54.2535 450.97H72.7324C81.5689 450.97 88.7324 458.134 88.7324 466.97V485.444M54.2535 519.918H35.7746C26.9381 519.918 19.7746 512.754 19.7746 503.918V485.444M54.2535 519.918H72.7324C81.5689 519.918 88.7324 512.754 88.7324 503.918V485.444M54.2535 519.918V558.97M88.7324 485.444H127.775M19.7746 485.444H0M162.254 450.97H143.775C134.938 450.97 127.775 458.134 127.775 466.97V485.444M162.254 450.97H180.732C189.569 450.97 196.732 458.134 196.732 466.97V485.444M162.254 519.918H143.775C134.938 519.918 127.775 512.754 127.775 503.918V485.444M162.254 519.918H180.732C189.569 519.918 196.732 512.754 196.732 503.918V485.444M162.254 519.918V558.97M196.732 485.444H235.775M270.254 450.97H251.775C242.938 450.97 235.775 458.134 235.775 466.97V485.444M270.254 450.97H288.732C297.569 450.97 304.732 458.134 304.732 466.97V485.444M270.254 519.918H251.775C242.938 519.918 235.775 512.754 235.775 503.918V485.444M270.254 519.918H288.732C297.569 519.918 304.732 512.754 304.732 503.918V485.444M270.254 519.918V558.97M304.732 485.444H343.775M378.254 450.97H359.775C350.938 450.97 343.775 458.134 343.775 466.97V485.444M378.254 450.97H396.732C405.569 450.97 412.732 458.134 412.732 466.97V485.444M378.254 519.918H359.775C350.938 519.918 343.775 512.754 343.775 503.918V485.444M378.254 519.918H396.732C405.569 519.918 412.732 512.754 412.732 503.918V485.444M378.254 519.918V558.97M412.732 485.444H451.775M486.254 450.97H467.775C458.938 450.97 451.775 458.134 451.775 466.97V485.444M486.254 450.97H504.732C513.569 450.97 520.732 458.134 520.732 466.97V485.444M486.254 519.918H467.775C458.938 519.918 451.775 512.754 451.775 503.918V485.444M486.254 519.918H504.732C513.569 519.918 520.732 512.754 520.732 503.918V485.444M486.254 519.918V558.97M520.732 485.444H559.775M594.254 450.97H575.775C566.938 450.97 559.775 458.134 559.775 466.97V485.444M594.254 450.97H612.732C621.569 450.97 628.732 458.134 628.732 466.97V485.444M594.254 519.918H575.775C566.938 519.918 559.775 512.754 559.775 503.918V485.444M594.254 519.918H612.732C621.569 519.918 628.732 512.754 628.732 503.918V485.444M594.254 519.918V558.97M628.732 485.444H667.775M702.254 450.97H683.775C674.938 450.97 667.775 458.134 667.775 466.97V485.444M702.254 450.97H720.732C729.569 450.97 736.732 458.134 736.732 466.97V485.444M702.254 519.918H683.775C674.938 519.918 667.775 512.754 667.775 503.918V485.444M702.254 519.918H720.732C729.569 519.918 736.732 512.754 736.732 503.918V485.444M702.254 519.918V558.97M736.732 485.444H775.775M810.254 450.97H791.775C782.938 450.97 775.775 458.134 775.775 466.97V485.444M810.254 450.97H828.732C837.569 450.97 844.732 458.134 844.732 466.97V485.444M810.254 519.918H791.775C782.938 519.918 775.775 512.754 775.775 503.918V485.444M810.254 519.918H828.732C837.569 519.918 844.732 512.754 844.732 503.918V485.444M810.254 519.918V558.97M844.732 485.444H883.775M918.254 450.97H899.775C890.938 450.97 883.775 458.134 883.775 466.97V485.444M918.254 450.97H936.732C945.569 450.97 952.732 458.134 952.732 466.97V485.444M918.254 519.918H899.775C890.938 519.918 883.775 512.754 883.775 503.918V485.444M918.254 519.918H936.732C945.569 519.918 952.732 512.754 952.732 503.918V485.444M918.254 519.918V558.97M952.732 485.444H991.775M1026.25 450.97H1007.77C998.938 450.97 991.775 458.134 991.775 466.97V485.444M1026.25 450.97H1044.73C1053.57 450.97 1060.73 458.134 1060.73 466.97V485.444M1026.25 519.918H1007.77C998.938 519.918 991.775 512.754 991.775 503.918V485.444M1026.25 519.918H1044.73C1053.57 519.918 1060.73 512.754 1060.73 503.918V485.444M1026.25 519.918V558.97M1060.73 485.444H1099.77M1134.25 450.97H1115.77C1106.94 450.97 1099.77 458.134 1099.77 466.97V485.444M1134.25 450.97H1152.73C1161.57 450.97 1168.73 458.134 1168.73 466.97V485.444M1134.25 519.918H1115.77C1106.94 519.918 1099.77 512.754 1099.77 503.918V485.444M1134.25 519.918H1152.73C1161.57 519.918 1168.73 512.754 1168.73 503.918V485.444M1134.25 519.918V558.97M1168.73 485.444H1207.77M1242.25 450.97H1223.77C1214.94 450.97 1207.77 458.134 1207.77 466.97V485.444M1242.25 450.97H1260.73C1269.57 450.97 1276.73 458.134 1276.73 466.97V485.444M1242.25 519.918H1223.77C1214.94 519.918 1207.77 512.754 1207.77 503.918V485.444M1242.25 519.918H1260.73C1269.57 519.918 1276.73 512.754 1276.73 503.918V485.444M1242.25 519.918V558.97M1276.73 485.444H1315.77M1350.25 450.97H1331.77C1322.94 450.97 1315.77 458.134 1315.77 466.97V485.444M1350.25 450.97H1368.73C1377.57 450.97 1384.73 458.134 1384.73 466.97V485.444M1350.25 519.918H1331.77C1322.94 519.918 1315.77 512.754 1315.77 503.918V485.444M1350.25 519.918H1368.73C1377.57 519.918 1384.73 512.754 1384.73 503.918V485.444M1350.25 519.918V558.97M1384.73 485.444H1404M54.2535 558.97H35.7746C26.9381 558.97 19.7746 566.134 19.7746 574.97V593.444M54.2535 558.97H72.7324C81.5689 558.97 88.7324 566.134 88.7324 574.97V593.444M54.2535 627.918H35.7746C26.9381 627.918 19.7746 620.754 19.7746 611.918V593.444M54.2535 627.918H72.7324C81.5689 627.918 88.7324 620.754 88.7324 611.918V593.444M54.2535 627.918V648M88.7324 593.444H127.775M19.7746 593.444H0M162.254 558.97H143.775C134.938 558.97 127.775 566.134 127.775 574.97V593.444M162.254 558.97H180.732C189.569 558.97 196.732 566.134 196.732 574.97V593.444M162.254 627.918H143.775C134.938 627.918 127.775 620.754 127.775 611.918V593.444M162.254 627.918H180.732C189.569 627.918 196.732 620.754 196.732 611.918V593.444M162.254 627.918V648M196.732 593.444H235.775M270.254 558.97H251.775C242.938 558.97 235.775 566.134 235.775 574.97V593.444M270.254 558.97H288.732C297.569 558.97 304.732 566.134 304.732 574.97V593.444M270.254 627.918H251.775C242.938 627.918 235.775 620.754 235.775 611.918V593.444M270.254 627.918H288.732C297.569 627.918 304.732 620.754 304.732 611.918V593.444M270.254 627.918V648M304.732 593.444H343.775M378.254 558.97H359.775C350.938 558.97 343.775 566.134 343.775 574.97V593.444M378.254 558.97H396.732C405.569 558.97 412.732 566.134 412.732 574.97V593.444M378.254 627.918H359.775C350.938 627.918 343.775 620.754 343.775 611.918V593.444M378.254 627.918H396.732C405.569 627.918 412.732 620.754 412.732 611.918V593.444M378.254 627.918V648M412.732 593.444H451.775M486.254 558.97H467.775C458.938 558.97 451.775 566.134 451.775 574.97V593.444M486.254 558.97H504.732C513.569 558.97 520.732 566.134 520.732 574.97V593.444M486.254 627.918H467.775C458.938 627.918 451.775 620.754 451.775 611.918V593.444M486.254 627.918H504.732C513.569 627.918 520.732 620.754 520.732 611.918V593.444M486.254 627.918V648M520.732 593.444H559.775M594.254 558.97H575.775C566.938 558.97 559.775 566.134 559.775 574.97V593.444M594.254 558.97H612.732C621.569 558.97 628.732 566.134 628.732 574.97V593.444M594.254 627.918H575.775C566.938 627.918 559.775 620.754 559.775 611.918V593.444M594.254 627.918H612.732C621.569 627.918 628.732 620.754 628.732 611.918V593.444M594.254 627.918V648M628.732 593.444H667.775M702.254 558.97H683.775C674.938 558.97 667.775 566.134 667.775 574.97V593.444M702.254 558.97H720.732C729.569 558.97 736.732 566.134 736.732 574.97V593.444M702.254 627.918H683.775C674.938 627.918 667.775 620.754 667.775 611.918V593.444M702.254 627.918H720.732C729.569 627.918 736.732 620.754 736.732 611.918V593.444M702.254 627.918V646.97M736.732 593.444H775.775M810.254 558.97H791.775C782.938 558.97 775.775 566.134 775.775 574.97V593.444M810.254 558.97H828.732C837.569 558.97 844.732 566.134 844.732 574.97V593.444M810.254 627.918H791.775C782.938 627.918 775.775 620.754 775.775 611.918V593.444M810.254 627.918H828.732C837.569 627.918 844.732 620.754 844.732 611.918V593.444M810.254 627.918V648M844.732 593.444H883.775M918.254 558.97H899.775C890.938 558.97 883.775 566.134 883.775 574.97V593.444M918.254 558.97H936.732C945.569 558.97 952.732 566.134 952.732 574.97V593.444M918.254 627.918H899.775C890.938 627.918 883.775 620.754 883.775 611.918V593.444M918.254 627.918H936.732C945.569 627.918 952.732 620.754 952.732 611.918V593.444M918.254 627.918V648M952.732 593.444H991.775M1026.25 558.97H1007.77C998.938 558.97 991.775 566.134 991.775 574.97V593.444M1026.25 558.97H1044.73C1053.57 558.97 1060.73 566.134 1060.73 574.97V593.444M1026.25 627.918H1007.77C998.938 627.918 991.775 620.754 991.775 611.918V593.444M1026.25 627.918H1044.73C1053.57 627.918 1060.73 620.754 1060.73 611.918V593.444M1026.25 627.918V648M1060.73 593.444H1099.77M1134.25 558.97H1115.77C1106.94 558.97 1099.77 566.134 1099.77 574.97V593.444M1134.25 558.97H1152.73C1161.57 558.97 1168.73 566.134 1168.73 574.97V593.444M1134.25 627.918H1115.77C1106.94 627.918 1099.77 620.754 1099.77 611.918V593.444M1134.25 627.918H1152.73C1161.57 627.918 1168.73 620.754 1168.73 611.918V593.444M1134.25 627.918V648M1168.73 593.444H1207.77M1242.25 558.97H1223.77C1214.94 558.97 1207.77 566.134 1207.77 574.97V593.444M1242.25 558.97H1260.73C1269.57 558.97 1276.73 566.134 1276.73 574.97V593.444M1242.25 627.918H1223.77C1214.94 627.918 1207.77 620.754 1207.77 611.918V593.444M1242.25 627.918H1260.73C1269.57 627.918 1276.73 620.754 1276.73 611.918V593.444M1242.25 627.918V648M1276.73 593.444H1315.77M1350.25 558.97H1331.77C1322.94 558.97 1315.77 566.134 1315.77 574.97V593.444M1350.25 558.97H1368.73C1377.57 558.97 1384.73 566.134 1384.73 574.97V593.444M1350.25 627.918H1331.77C1322.94 627.918 1315.77 620.754 1315.77 611.918V593.444M1350.25 627.918H1368.73C1377.57 627.918 1384.73 620.754 1384.73 611.918V593.444M1350.25 627.918V648M1384.73 593.444H1404" stroke="white" stroke-linecap="round" stroke-dasharray="7 7"/>
</g>
<defs>
<clipPath id="clip0_11677_33136">
<rect width="1404" height="914" fill="white"/>
</clipPath>
</defs>
</svg>
