<svg width="22" height="22" viewBox="0 0 22 22" fill="none" xmlns="http://www.w3.org/2000/svg">
<path d="M11.0037 22C9.48322 22 8.05322 21.7116 6.71367 21.1347C5.37493 20.557 4.21015 19.7731 3.21933 18.7831C2.22852 17.7939 1.44426 16.6304 0.866556 15.2924C0.288852 13.9545 0 12.5249 0 11.0037C0 9.48322 0.288444 8.05322 0.865333 6.71367C1.44304 5.37493 2.22689 4.21015 3.21689 3.21933C4.20607 2.22852 5.36963 1.44426 6.70756 0.866556C8.04548 0.288852 9.47507 0 10.9963 0C12.5168 0 13.9468 0.288444 15.2863 0.865333C16.6251 1.44304 17.7899 2.22689 18.7807 3.21689C19.7715 4.20607 20.5557 5.36963 21.1334 6.70756C21.7111 8.04548 22 9.47507 22 10.9963C22 12.5168 21.7116 13.9468 21.1347 15.2863C20.557 16.6251 19.7731 17.7899 18.7831 18.7807C17.7939 19.7715 16.6304 20.5557 15.2924 21.1334C13.9545 21.7111 12.5249 22 11.0037 22ZM11 16.0771C11.6975 15.3796 12.3139 14.6646 12.8492 13.9321C13.3088 13.3063 13.7304 12.6117 14.1142 11.8482C14.498 11.0856 14.6899 10.3371 14.6899 9.603C14.6899 8.59426 14.3285 7.72893 13.6058 7.007C12.883 6.28426 12.0144 5.92289 11 5.92289C9.98474 5.92289 9.11574 6.28426 8.393 7.007C7.67107 7.72974 7.31011 8.59833 7.31011 9.61278C7.31011 10.3404 7.50363 11.0843 7.89067 11.8446C8.27689 12.6056 8.70222 13.3043 9.16667 13.9407C9.69141 14.6675 10.3025 15.3796 11 16.0771ZM11.0012 11C10.6166 11 10.2891 10.8656 10.0186 10.5967C9.74804 10.327 9.61278 9.99981 9.61278 9.61522C9.61278 9.22981 9.74763 8.90185 10.0173 8.63133C10.2862 8.36163 10.6134 8.22678 10.9988 8.22678C11.3834 8.22678 11.7109 8.36122 11.9814 8.63011C12.252 8.89981 12.3872 9.22696 12.3872 9.61156C12.3872 9.99696 12.2524 10.3245 11.9827 10.5942C11.7138 10.8647 11.3866 11 11.0012 11Z" fill="#A985FF"/>
</svg>
