<svg width="48" height="48" viewBox="0 0 48 48" fill="none" xmlns="http://www.w3.org/2000/svg">
<g clip-path="url(#clip0_11578_5970)">
<rect width="48" height="48" rx="12" fill="#F5F2FE"/>
<path d="M33.4496 43.822C24.7856 43.044 3.8577 47.8642 4.17803 33.4496C4.95596 24.7856 0.135819 3.85769 14.5504 4.17801C23.2144 4.95594 44.1423 0.135852 43.822 14.5504C43.044 23.2145 47.8642 44.1423 33.4496 43.822Z" fill="#F5F2FE"/>
<mask id="mask0_11578_5970" style="mask-type:luminance" maskUnits="userSpaceOnUse" x="4" y="4" width="40" height="40">
<path d="M33.4496 43.822C24.7856 43.044 3.8577 47.8642 4.17803 33.4496C4.95596 24.7856 0.135819 3.85769 14.5504 4.17801C23.2144 4.95594 44.1423 0.135852 43.822 14.5504C43.044 23.2145 47.8642 44.1423 33.4496 43.822Z" fill="white"/>
</mask>
<g mask="url(#mask0_11578_5970)">
<path d="M32.1077 21.7352L34.1669 20.6064L35.0516 20.7742C35.799 21.3386 36.0736 22.3301 35.7533 23.2148L35.2957 24.4808C35.1737 24.8011 34.9906 25.0909 34.7313 25.335L33.9534 26.0519C33.5568 26.418 33.0382 26.6163 32.5043 26.6163H31.5586L32.1077 21.7505V21.7352Z" fill="#986A55"/>
<path d="M34.7769 23.6571C34.7769 23.6571 34.7311 23.6571 34.7159 23.6571C34.5328 23.6266 34.4261 23.4435 34.4566 23.2605C34.5481 22.8029 34.6396 22.3453 34.7311 21.8724C34.6244 21.8266 34.5176 21.7809 34.4413 21.7809C34.3345 21.7809 34.1973 21.8571 34.06 21.9487C33.9532 22.0097 33.8312 22.086 33.7091 22.1317C33.4651 22.2233 33.221 22.2385 32.9617 22.1927C32.7787 22.1622 32.6719 21.9792 32.7024 21.7962C32.7329 21.6131 32.916 21.5063 33.099 21.5368C33.221 21.5673 33.3583 21.5368 33.4803 21.5063C33.5719 21.4758 33.6481 21.4148 33.7397 21.3691C33.938 21.247 34.1668 21.125 34.4566 21.125C34.7159 21.125 34.9447 21.2317 35.1125 21.3233C35.1735 21.3538 35.265 21.3996 35.3413 21.5063C35.4633 21.6894 35.4328 21.8877 35.4023 21.9639C35.3108 22.4368 35.2193 22.9249 35.1125 23.3978C35.082 23.5503 34.9447 23.6571 34.7922 23.6571H34.7769Z" fill="#201C2D"/>
<path d="M17.4786 21.7352L15.4194 20.6064L14.5347 20.7742C13.7873 21.3386 13.5127 22.3301 13.833 23.2148L14.2906 24.4808C14.4127 24.8011 14.5957 25.0909 14.855 25.335L15.633 26.0519C16.0296 26.418 16.5482 26.6163 17.082 26.6163H18.0277L17.4786 21.7505V21.7352Z" fill="#986A55"/>
<path d="M16.3197 11.958L17.6621 25.0913L18.7146 29.3013L19.2179 31.4215L19.2942 36.1654L4.3457 40.7262L26.7379 59.7321L43.6846 40.5737L30.9021 36.6077L30.231 29.7741L32.1072 23.3371L32.7021 18.1814L32.58 12.3698L16.3197 11.958Z" fill="#986A55"/>
<path d="M24.7393 26.4632C24.4342 26.4632 24.1596 26.3259 23.9461 26.0666C23.641 25.6853 23.6105 25.1666 23.9003 24.7701C24.5257 23.9006 24.8918 22.8939 24.9681 21.8414C24.9681 21.6584 25.1359 21.5211 25.3189 21.5363C25.5019 21.5363 25.6392 21.7041 25.624 21.8872C25.5325 23.0617 25.1206 24.1904 24.4342 25.1514C24.2969 25.3344 24.3579 25.5327 24.4647 25.6395C24.5105 25.6853 24.663 25.8531 24.8918 25.7463L25.0444 26.0361L25.1664 26.3412C25.0291 26.4022 24.8766 26.4327 24.7393 26.4327V26.4632Z" fill="#201C2D"/>
<path d="M21.034 23.2449C21.4131 23.2449 21.7205 22.9376 21.7205 22.5585C21.7205 22.1794 21.4131 21.8721 21.034 21.8721C20.6549 21.8721 20.3477 22.1794 20.3477 22.5585C20.3477 22.9376 20.6549 23.2449 21.034 23.2449Z" fill="#201C2D"/>
<path d="M24.6028 29.3459C23.9469 29.3459 23.3063 29.2544 22.6809 29.0866C22.4521 29.0256 22.3148 28.7815 22.3758 28.5375C22.4368 28.3087 22.6809 28.1714 22.925 28.2324C24.1148 28.568 25.4266 28.5375 26.6011 28.1409C26.8299 28.0646 27.0892 28.1867 27.1655 28.4155C27.2417 28.6443 27.1197 28.9036 26.8909 28.9798C26.1587 29.2239 25.3808 29.3459 24.6028 29.3459Z" fill="#201C2D"/>
<path d="M22.5588 20.576C22.5588 20.576 22.4673 20.576 22.4063 20.5455C21.2928 20.1489 20.0725 20.1336 18.959 20.4692C18.7302 20.5455 18.4709 20.4082 18.4099 20.1794C18.3336 19.9506 18.4709 19.6913 18.6997 19.6303C19.9962 19.2337 21.4301 19.2642 22.7114 19.7065C22.9402 19.7828 23.0622 20.0422 22.9859 20.271C22.9249 20.454 22.7571 20.5607 22.5741 20.5607L22.5588 20.576Z" fill="#201C2D"/>
<path d="M29.5438 23.2449C29.9229 23.2449 30.2302 22.9376 30.2302 22.5585C30.2302 22.1794 29.9229 21.8721 29.5438 21.8721C29.1648 21.8721 28.8574 22.1794 28.8574 22.5585C28.8574 22.9376 29.1648 23.2449 29.5438 23.2449Z" fill="#201C2D"/>
<path d="M31.1463 20.408C31.1463 20.408 31.0548 20.408 30.9938 20.3775C29.8803 19.9809 28.66 19.9657 27.5312 20.3012C27.3024 20.3775 27.0431 20.2402 26.9821 20.0114C26.9059 19.7826 27.0431 19.5233 27.2719 19.4623C28.5684 19.0657 30.0023 19.0962 31.2836 19.5386C31.5124 19.6148 31.6345 19.8741 31.5582 20.1029C31.4972 20.286 31.3294 20.3928 31.1463 20.3928V20.408Z" fill="#201C2D"/>
<path d="M43.959 96.8741C43.715 87.6152 43.5014 78.3257 43.2574 69.0668C41.5185 66.428 39.7491 63.7281 38.8949 60.6927C38.3153 58.6487 38.1779 56.5132 38.0559 54.3777C37.7508 49.2067 37.3237 43.929 37.156 38.7428C36.0272 38.0564 34.7764 37.7818 33.4799 37.5225C33.0222 39.6885 32.5494 41.9003 31.5579 43.8832C30.5665 45.8662 29.0258 47.6814 26.9666 48.505C24.343 49.5575 21.094 48.7491 19.2178 46.6289C17.0518 44.1883 16.64 40.6037 16.5179 37.3242L11.8199 38.4835C12.5978 40.5732 12.3995 42.846 12.2927 45.073C12.1707 47.3 12.0486 49.5423 11.9266 51.7693C11.8046 53.9353 11.6978 56.1013 11.1639 58.2063C10.2487 61.8977 8.1285 65.1467 6.05402 68.3346C6.16079 77.8376 5.61164 87.5541 4.74219 97.0113C6.16077 98.4604 8.29627 98.6129 10.325 98.7197C21.6126 99.3604 33.1748 100.26 43.959 96.8741Z" fill="#8080E0"/>
<path d="M24.5414 33.9528C23.0923 33.9528 21.628 33.4646 20.4993 32.5342C19.4925 31.7105 18.7145 30.5665 18.1654 29.1021C17.7078 27.8971 17.4638 26.6463 17.235 25.1515C16.8079 22.3601 16.5486 19.5229 16.457 16.7162C16.457 16.4722 16.6401 16.2739 16.8841 16.2587C17.1434 16.2434 17.3265 16.4417 17.3418 16.6858C17.4333 19.4619 17.6926 22.2685 18.1044 25.0142C18.318 26.4633 18.562 27.653 18.9891 28.7818C19.4925 30.0936 20.1789 31.1156 21.0636 31.8478C22.6195 33.1291 24.9075 33.4341 26.7532 32.5952C28.2175 31.924 29.4836 30.5359 30.292 28.675C31.0394 26.9666 31.3598 25.0752 31.6801 23.2448C32.1377 20.5296 32.6258 17.7383 32.3512 14.9774C32.3207 14.7333 32.5038 14.5197 32.7478 14.4892C32.9919 14.474 33.2054 14.6418 33.2359 14.8858C33.5105 17.7688 33.0224 20.6211 32.5495 23.382C32.2292 25.2582 31.8936 27.2107 31.1004 29.0106C30.2005 31.0698 28.7819 32.6257 27.1193 33.3731C26.3109 33.7392 25.4261 33.9222 24.5414 33.9222V33.9528Z" fill="#201C2D"/>
<path d="M14.0465 15.466C13.9703 13.7423 14.3974 11.9272 15.5414 10.6306C16.8379 9.19678 18.8209 8.61713 20.7276 8.28155C23.4275 7.80869 26.1883 7.68666 28.9187 7.94597C30.3373 8.068 31.8016 8.32732 32.9456 9.15101C34.2269 10.0815 34.9438 11.6373 35.1879 13.2085C35.432 14.7796 35.2642 16.3812 35.0812 17.9523C34.9896 18.776 34.8981 19.6149 34.4863 20.3471C34.0744 21.0793 33.2812 21.6284 32.4728 21.5064C32.4423 19.5997 32.4118 17.6777 32.3813 15.771C32.3813 15.3287 32.3508 14.8559 32.0762 14.505C31.8322 14.2 31.4355 14.0626 31.0389 13.9559C27.0883 12.8729 22.8936 13.5288 18.9124 14.505C18.3328 14.6423 18.3785 14.9168 17.9667 15.3287C17.1735 16.1219 17.0972 17.2506 17.4633 18.3031C17.8294 19.3556 17.4023 20.3929 17.082 21.4606C16.3955 21.3691 16.2735 21.3233 15.6481 21.0183C14.9007 20.6522 15.0228 20.5454 14.916 19.8438C14.6872 18.3489 14.0923 16.9913 14.0312 15.4507L14.0465 15.466Z" fill="#201C2D"/>
<path d="M25.0151 28.3248C24.9083 28.3248 24.8168 28.2943 24.7252 28.218L24.1151 27.6994C24.0388 27.6231 23.9473 27.6536 23.9015 27.6688C23.8558 27.6688 23.7948 27.7146 23.7795 27.8061C23.749 28.0349 23.5202 28.2332 23.2914 28.218L22.9253 28.1874C22.6813 28.1569 22.4982 27.9434 22.5287 27.6994C22.5592 27.4553 22.7575 27.2875 23.0168 27.3028H23.0321C23.1541 27.0892 23.3524 26.9214 23.6117 26.8299C23.9778 26.7079 24.3897 26.7689 24.6795 27.0282L24.8015 27.1197C24.9388 26.9519 25.1065 26.8299 25.3201 26.7689C25.8082 26.6163 26.3574 26.8451 26.6014 27.2875C26.7235 27.501 26.6319 27.7756 26.4184 27.8824C26.2048 28.0044 25.9303 27.9129 25.8235 27.6994C25.7777 27.6231 25.671 27.5773 25.5947 27.6079C25.5184 27.6384 25.4422 27.7451 25.4574 27.8214C25.4727 28.0044 25.3811 28.1722 25.2286 28.2637C25.1676 28.2943 25.0913 28.3095 25.0151 28.3095V28.3248Z" fill="#201C2D"/>
<path d="M14.8251 23.6571C14.6726 23.6571 14.5353 23.5503 14.5048 23.3978C14.4133 22.9249 14.3065 22.452 14.215 21.9639C14.1997 21.8724 14.154 21.6741 14.2913 21.5063C14.3675 21.3996 14.459 21.3538 14.5201 21.3233C14.6878 21.2317 14.9166 21.125 15.176 21.125C15.4658 21.125 15.6946 21.2623 15.8929 21.3691C15.9844 21.4148 16.0607 21.4758 16.1522 21.5063C16.2742 21.5521 16.4115 21.5673 16.5335 21.5368C16.7013 21.5063 16.8843 21.6131 16.9301 21.7962C16.9606 21.9792 16.8539 22.147 16.6708 22.1927C16.4268 22.2385 16.1675 22.2233 15.9234 22.1317C15.7861 22.086 15.6641 22.0097 15.5726 21.9487C15.42 21.8571 15.298 21.7961 15.1912 21.7809C15.0997 21.7809 15.0082 21.8266 14.9014 21.8724C14.9929 22.3605 15.0844 22.8029 15.176 23.2605C15.2065 23.4435 15.0997 23.6113 14.9167 23.6571C14.9014 23.6571 14.8709 23.6571 14.8556 23.6571H14.8251Z" fill="#201C2D"/>
</g>
</g>
<defs>
<clipPath id="clip0_11578_5970">
<rect width="48" height="48" rx="8" fill="white"/>
</clipPath>
</defs>
</svg>
