<svg width="57" height="67" viewBox="0 0 57 67" fill="none" xmlns="http://www.w3.org/2000/svg">
<g clip-path="url(#clip0_19926_149873)">
<path d="M56.1087 56.888L31.6712 2.82819C31.3603 2.11607 30.5934 1.70915 29.8058 1.81088L1.53377 5.57493C0.373039 5.73769 -0.310961 6.91777 0.124312 7.97578L24.4581 65.9217C24.8105 66.7356 25.7018 67.1832 26.5723 66.939L54.9479 59.2889C56.005 59.004 56.5439 57.8646 56.1087 56.888Z" fill="#2D2D36"/>
<path d="M56.8548 55.0975L32.4173 1.03766C32.1064 0.325545 31.3395 -0.0813787 30.5519 0.0203523L2.27986 3.7844C1.11913 3.94717 0.435133 5.12725 0.870406 6.18525L25.2042 64.1312C25.5566 64.945 26.4479 65.3927 27.3184 65.1485L55.694 57.4983C56.7511 57.2135 57.29 56.0741 56.8548 55.0975Z" fill="#FFC901"/>
<path d="M31.2599 16.099C33.0153 15.2489 33.3668 12.4275 32.0449 9.79736C30.723 7.16722 28.2282 5.72425 26.4728 6.57441C24.7173 7.42458 24.3658 10.2459 25.6877 12.8761C27.0097 15.5062 29.5044 16.9492 31.2599 16.099Z" fill="#2D2D36"/>
<path d="M32.8902 15.6647C34.6457 14.8145 34.9972 11.9932 33.6752 9.36304C32.3533 6.73289 29.8586 5.28993 28.1031 6.14009C26.3477 6.99025 25.9962 9.8116 27.3181 12.4417C28.64 15.0719 31.1348 16.5149 32.8902 15.6647Z" fill="#C8C7DC"/>
<path d="M33.9718 14.8936C33.9718 14.8936 34.0962 14.8732 34.1584 14.8325C34.2827 14.7308 34.2827 14.568 34.1791 14.4459L27.422 6.71439C27.3184 6.59231 27.1525 6.59231 27.0282 6.69405C26.9038 6.79578 26.9038 6.95855 27.0074 7.08062L33.7645 14.8122C33.7645 14.8122 33.8889 14.9139 33.9718 14.9139V14.8936Z" fill="black"/>
<path d="M15.2745 19.5949C17.03 18.7447 17.3814 15.9234 16.0595 13.2932C14.7376 10.6631 12.2429 9.2201 10.4874 10.0703C8.73193 10.9204 8.38047 13.7418 9.70239 16.3719C11.0243 19.0021 13.519 20.445 15.2745 19.5949Z" fill="#2D2D36"/>
<path d="M16.8841 19.1605C18.6396 18.3104 18.9911 15.489 17.6691 12.8589C16.3472 10.2287 13.8525 8.78578 12.097 9.63594C10.3416 10.4861 9.99009 13.3074 11.312 15.9376C12.6339 18.5677 15.1286 20.0107 16.8841 19.1605Z" fill="#C8C7DC"/>
<path d="M17.9706 18.3931C17.9706 18.3931 18.0949 18.3727 18.1571 18.332C18.2815 18.2303 18.2815 18.0675 18.1779 17.9455L11.4208 10.2139C11.3171 10.0918 11.1513 10.0918 11.0269 10.1936C10.9026 10.2953 10.9026 10.4581 11.0062 10.5801L17.7633 18.3117C17.7633 18.3117 17.8877 18.4134 17.9706 18.4134V18.3931Z" fill="black"/>
<path d="M40.0689 34.5419C41.8244 33.6917 42.1759 30.8704 40.854 28.2402C39.532 25.6101 37.0373 24.1671 35.2818 25.0173C33.5264 25.8674 33.1749 28.6888 34.4968 31.3189C35.8187 33.9491 38.3135 35.3921 40.0689 34.5419Z" fill="#2D2D36"/>
<path d="M41.7179 34.0985C43.4733 33.2484 43.8248 30.427 42.5029 27.7969C41.181 25.1667 38.6862 23.7238 36.9308 24.5739C35.1753 25.4241 34.8238 28.2454 36.1457 30.8756C37.4677 33.5057 39.9624 34.9487 41.7179 34.0985Z" fill="#C8C7DC"/>
<path d="M42.7811 33.3269C42.7811 33.3269 42.9055 33.3066 42.9677 33.2659C43.092 33.1641 43.092 33.0014 42.9884 32.8793L36.2313 25.1477C36.1277 25.0257 35.9619 25.0257 35.8375 25.1274C35.7131 25.2291 35.7131 25.3919 35.8168 25.514L42.5739 33.2455C42.5739 33.2455 42.6982 33.3473 42.7811 33.3473V33.3269Z" fill="black"/>
<path d="M24.0836 38.0377C25.8391 37.1876 26.1905 34.3662 24.8686 31.7361C23.5467 29.1059 21.052 27.663 19.2965 28.5131C17.541 29.3633 17.1895 32.1846 18.5115 34.8148C19.8334 37.4449 22.3281 38.8879 24.0836 38.0377Z" fill="#2D2D36"/>
<path d="M25.7118 37.5944C27.4672 36.7442 27.8187 33.9229 26.4968 31.2927C25.1749 28.6626 22.6801 27.2196 20.9247 28.0698C19.1692 28.9199 18.8177 31.7413 20.1396 34.3714C21.4616 37.0016 23.9563 38.4445 25.7118 37.5944Z" fill="#C8C7DC"/>
<path d="M26.7797 36.8267C26.7797 36.8267 26.904 36.8063 26.9662 36.7656C27.0906 36.6639 27.0906 36.5011 26.9869 36.379L20.2298 28.6475C20.1262 28.5254 19.9604 28.5254 19.836 28.6272C19.7117 28.7289 19.7117 28.8917 19.8153 29.0137L26.5724 36.7453C26.5724 36.7453 26.6968 36.847 26.7797 36.847V36.8267Z" fill="black"/>
<path d="M47.2652 52.5692C49.0207 51.7191 49.3722 48.8977 48.0502 46.2676C46.7283 43.6374 44.2336 42.1945 42.4781 43.0446C40.7227 43.8948 40.3712 46.7161 41.6931 49.3463C43.015 51.9764 45.5097 53.4194 47.2652 52.5692Z" fill="#2D2D36"/>
<path d="M48.8934 52.1259C50.6489 51.2757 51.0003 48.4544 49.6784 45.8242C48.3565 43.1941 45.8618 41.7511 44.1063 42.6013C42.3508 43.4514 41.9994 46.2728 43.3213 48.9029C44.6432 51.5331 47.1379 52.976 48.8934 52.1259Z" fill="#C8C7DC"/>
<path d="M49.9733 51.3538C49.9733 51.3538 50.0976 51.3334 50.1598 51.2927C50.2842 51.191 50.2842 51.0282 50.1805 50.9062L43.4235 43.1746C43.3198 43.0525 43.154 43.0525 43.0296 43.1543C42.9053 43.256 42.9053 43.4188 43.0089 43.5408L49.766 51.2724C49.766 51.2724 49.8904 51.3741 49.9733 51.3741V51.3538Z" fill="black"/>
<path d="M31.2591 56.0651C33.0146 55.2149 33.3661 52.3936 32.0441 49.7634C30.7222 47.1333 28.2275 45.6903 26.472 46.5405C24.7166 47.3906 24.3651 50.212 25.687 52.8421C27.0089 55.4723 29.5036 56.9152 31.2591 56.0651Z" fill="#2D2D36"/>
<path d="M32.8895 55.6308C34.645 54.7806 34.9964 51.9592 33.6745 49.3291C32.3526 46.699 29.8579 45.256 28.1024 46.1062C26.3469 46.9563 25.9955 49.7777 27.3174 52.4078C28.6393 55.038 31.134 56.4809 32.8895 55.6308Z" fill="#C8C7DC"/>
<path d="M33.972 54.8738C33.972 54.8738 34.0964 54.8534 34.1586 54.8127C34.283 54.711 34.283 54.5482 34.1793 54.4262L27.4222 46.6946C27.3186 46.5725 27.1528 46.5725 27.0284 46.6743C26.9041 46.776 26.904 46.9388 27.0077 47.0608L33.7648 54.7924C33.7648 54.7924 33.8891 54.8941 33.972 54.8941V54.8738Z" fill="black"/>
</g>
<defs>
<clipPath id="clip0_19926_149873">
<rect width="57" height="67" fill="white"/>
</clipPath>
</defs>
</svg>
