<svg width="380" height="354" viewBox="0 0 380 354" fill="none" xmlns="http://www.w3.org/2000/svg">
<g clip-path="url(#clip0_11366_35661)">
<path d="M334.78 236.968C335.359 235.911 335.914 234.848 336.45 233.753C336.633 233.372 336.842 232.997 337.025 232.615C337.692 231.232 338.359 229.849 338.983 228.428C338.989 228.403 338.996 228.378 339.003 228.352C339.62 226.956 340.218 225.528 340.791 224.093C340.956 223.679 341.121 223.266 341.292 222.827C341.748 221.63 342.203 220.433 342.634 219.229C342.753 218.884 342.873 218.539 342.992 218.194C343.51 216.663 344.028 215.133 344.502 213.564C344.597 213.212 344.698 212.835 344.817 212.49C345.185 211.216 345.554 209.941 345.904 208.635C346.025 208.183 346.146 207.731 346.274 207.253C346.712 205.621 347.106 203.949 347.474 202.271C362.831 132.882 311.624 63.8575 230.264 42.0571C228.126 41.4841 226.024 40.9748 223.891 40.4839C223.639 40.4165 223.387 40.3491 223.161 40.2885C221.153 39.8313 219.132 39.4243 217.104 39.0425C216.777 38.9549 216.412 38.9108 216.078 38.8483C214.1 38.4799 212.109 38.1618 210.143 37.8505C209.81 37.788 209.469 37.7506 209.129 37.7132C207.131 37.4202 205.126 37.1524 203.134 36.9415C202.869 36.9243 202.61 36.8821 202.345 36.8649C200.245 36.6522 198.17 36.4462 196.1 36.3223C196.075 36.3156 196.05 36.3089 196.025 36.3021C193.961 36.1531 191.885 36.0544 189.826 35.9875C189.586 35.9771 189.347 35.9667 189.107 35.9562C187.131 35.8845 185.166 35.8697 183.22 35.8867C182.898 35.8812 182.569 35.9008 182.247 35.8953C180.326 35.9191 178.424 35.9747 176.515 36.0555C176.186 36.0751 175.857 36.0947 175.503 36.1076C173.587 36.2135 171.672 36.3194 169.767 36.4823C169.521 36.497 169.242 36.5301 168.996 36.5447C167.009 36.7125 165.009 36.9306 163.06 37.1621C163.01 37.1486 162.978 37.167 162.921 37.1786C160.964 37.4353 159.001 37.717 157.057 38.0306C156.861 38.0588 156.632 38.1054 156.411 38.1268C154.549 38.4355 152.673 38.7945 150.847 39.167C150.537 39.2184 150.245 39.3017 149.935 39.3532C148.134 39.7324 146.327 40.1367 144.564 40.5796C144.247 40.6562 143.929 40.7327 143.637 40.8161C141.842 41.2773 140.072 41.7454 138.32 42.2453C138.085 42.317 137.825 42.3819 137.59 42.4536C135.749 42.9835 133.927 43.5453 132.142 44.1708C132.085 44.1824 132.021 44.2192 131.964 44.2308C130.185 44.8312 128.393 45.4818 126.651 46.1459C126.53 46.1943 126.384 46.236 126.263 46.2844C121.127 48.2466 116.156 50.4957 111.346 52.9494C107.976 50.8348 104.435 48.755 100.94 46.9033C89.0347 40.6169 83.7435 40.8415 81.9229 41.2961C81.131 41.4339 80.7735 41.6612 80.7735 41.6612C76.1219 43.3227 74.5217 49.1942 73.2477 54.0493C72.3727 57.315 68.7013 78.4633 66.5217 91.1262C58.9236 101.772 53.1361 113.71 49.6359 126.773C47.4079 135.088 46.2149 143.465 45.9446 151.82C36.3768 156.634 29.1902 164.536 26.4978 174.584C20.783 195.912 37.3097 218.864 63.3984 225.855C64.2537 226.084 65.1091 226.313 65.9779 226.492C66.2547 226.566 66.5381 226.615 66.8216 226.664C67.3818 226.787 67.9739 226.892 68.5408 226.99C68.6163 227.011 68.6918 227.031 68.7672 227.051C69.0255 227.093 69.2838 227.136 69.5422 227.178C69.7183 227.225 69.8876 227.297 70.057 227.37C70.2296 227.631 70.4273 227.9 70.6066 228.136C70.6066 228.136 70.7239 228.302 70.7859 228.373C71.9287 229.944 73.1218 231.53 74.3535 233.071C74.5144 233.276 74.6753 233.48 74.8546 233.717C75.3188 234.299 75.783 234.881 76.2539 235.438L85.9634 294.097L123.952 304.276L125.121 274.353C126.422 275.132 120.593 272.736 121.926 273.497C122.157 273.639 122.395 273.757 122.608 273.868C122.684 273.888 128.326 274.969 128.402 274.989L127.608 305.525L158.074 313.688C158.074 313.688 158.342 301.617 161.739 289.846C163.638 290.408 161.712 289.946 163.624 290.458C165.536 290.971 167.379 291.438 169.28 291.893C169.632 291.987 170.009 292.089 170.368 292.158C172.193 292.593 173.999 292.996 175.838 293.381C176.165 293.469 176.53 293.513 176.857 293.6C178.671 293.979 180.465 294.325 182.267 294.646C182.367 294.673 182.468 294.7 182.569 294.727C184.42 295.061 186.279 295.371 188.144 295.655C188.535 295.706 188.894 295.776 189.26 295.82C190.892 296.068 190.343 296.002 191.963 296.194L197.513 323.987L224.759 331.287L232.062 300.207L232.705 297.606C234.217 297.5 235.71 297.362 237.203 297.223C237.482 297.19 237.728 297.175 238.007 297.142C239.728 296.957 241.424 296.766 243.109 296.517C243.469 296.479 243.812 296.409 244.172 296.371C245.04 296.254 237.685 296.329 238.534 296.18L242.428 336.291L275.863 345.249L295.326 278.549C295.715 278.303 296.098 278.083 296.487 277.837C296.551 277.8 296.615 277.764 296.679 277.727C298.07 276.861 299.425 275.932 300.779 275.002C301.048 274.805 301.31 274.633 301.578 274.436C302.876 273.518 304.155 272.568 305.441 271.593C305.677 271.414 305.889 271.229 306.094 271.068C307.322 270.105 308.526 269.135 309.693 268.102C309.802 267.996 309.904 267.916 310.039 267.817C311.269 266.747 312.481 265.645 313.675 264.511C313.925 264.282 314.175 264.052 314.4 263.817C315.562 262.701 316.712 261.528 317.837 260.349C318.023 260.156 318.185 259.957 318.371 259.765C319.432 258.622 320.468 257.473 321.486 256.291C321.608 256.136 321.756 255.987 321.879 255.831C322.948 254.556 323.993 253.275 325.001 251.929C325.207 251.661 325.42 251.369 325.627 251.101C326.635 249.755 327.617 248.403 328.581 247.019C328.711 246.838 328.847 246.632 328.976 246.452C329.87 245.129 330.745 243.775 331.601 242.389C331.699 242.227 331.79 242.09 331.88 241.953C331.88 241.953 331.887 241.927 331.894 241.902L331.88 241.953C331.88 241.953 331.978 241.79 331.998 241.715C332.771 240.441 333.518 239.161 334.222 237.841C334.385 237.535 334.548 237.229 334.711 236.922L334.78 236.968Z" fill="#F1FFF9"/>
<path d="M87.2832 223.962L96.8591 281.912L108.18 284.945L110.847 281.433L111.803 285.916L119.224 287.904L126.453 257.505L130.848 239.593L87.2832 223.962Z" fill="#FF735D"/>
<path d="M87.2832 223.962L96.8591 281.912L108.18 284.945L111.803 285.916L119.224 287.904L126.453 257.505L130.848 239.593L87.2832 223.962Z" fill="#997107"/>
<path d="M188.363 256.996L198.848 309.239L210.169 312.273L212.749 309.087L213.792 313.243L221.213 315.232L227.756 287.395L231.754 270.965L188.363 256.996Z" fill="#FF735D"/>
<path d="M188.363 256.996L198.848 309.239L210.169 312.273L213.792 313.243L221.213 315.232L227.756 287.395L231.754 270.965L188.363 256.996Z" fill="#997107"/>
<path d="M331.067 199.598C313.92 277.177 239.315 298.193 166.433 278.664C93.5508 259.136 47.8533 193.5 64.3177 132.054C80.7821 70.6076 153.207 36.5955 226.064 56.1174C298.921 75.6394 344.776 137.468 331.067 199.598Z" fill="#FFC901"/>
<path d="M317.14 235.175C287.907 283.292 226.586 294.782 166.459 278.671C130.836 269.125 101.699 248.556 83.1393 222.824" stroke="#141414" stroke-miterlimit="10"/>
<path d="M331.068 199.598C328.077 213.174 323.321 224.985 317.139 235.176" stroke="#141414" stroke-miterlimit="10"/>
<path d="M132.898 59.9628C160.476 49.4204 193.227 47.3454 226.058 56.1424" stroke="#141414" stroke-miterlimit="10"/>
<g opacity="0.3">
<path d="M209.519 81.139C209.519 81.139 219.014 80.7216 224.72 92.1318C230.419 103.567 237.595 122.372 237.595 122.372C235.191 127.22 231.127 130.412 224.676 131.241L209.487 81.1574L209.519 81.139Z" fill="#002817"/>
</g>
<g opacity="0.3">
<path d="M88.1436 223.869C113.098 230.555 137.474 220.5 142.589 201.409C147.704 182.319 131.622 161.422 106.668 154.736C81.7137 148.049 57.3376 158.105 52.2223 177.195C47.107 196.286 63.1895 217.182 88.1436 223.869Z" fill="#002817"/>
</g>
<path d="M164.308 108.174C164.308 108.174 201.766 74.2429 212.701 81.9385C223.636 89.634 224.681 131.217 224.681 131.217" fill="#FFC901"/>
<path d="M164.308 108.174C164.308 108.174 201.766 74.2429 212.701 81.9385C223.636 89.634 224.681 131.217 224.681 131.217" stroke="#141414" stroke-miterlimit="10"/>
<g opacity="0.3">
<path d="M134.2 91.3291L138.637 79.2981C138.637 79.2981 123.909 67.9474 109.975 60.5789C96.0403 53.2104 92.2133 55.8198 92.2133 55.8198L106.906 94.9741L134.225 91.3359L134.2 91.3291Z" fill="#002817"/>
</g>
<g opacity="0.3">
<path d="M182.751 60.8816L190.138 68.4343C190.138 68.4343 235.714 68.611 265.36 88.5899L256.092 75.1753C256.092 75.1753 218.744 56.0673 182.733 60.8498L182.751 60.8816Z" fill="#002817"/>
</g>
<path d="M190.137 68.4343C190.137 68.4343 235.713 68.611 265.359 88.5899L256.092 75.1753C256.092 75.1753 255.734 74.9988 255.064 74.6845" stroke="#141414" stroke-miterlimit="10"/>
<g opacity="0.3">
<path d="M87.8917 223.801C112.846 230.488 137.222 220.432 142.337 201.342C147.452 182.251 131.37 161.355 106.416 154.668C81.4617 147.982 57.0857 158.037 51.9704 177.128C46.8551 196.219 62.9376 217.115 87.8917 223.801Z" fill="#002817"/>
</g>
<path d="M128.25 197.567C123.134 216.659 100.044 227.058 76.6721 220.796C53.3005 214.533 38.5031 193.983 43.6188 174.891C48.7345 155.799 71.8247 145.4 95.1963 151.663" fill="#FFC901"/>
<path d="M95.1719 151.656C118.543 157.919 133.341 178.469 128.225 197.561L95.1719 151.656Z" fill="#FFC901"/>
<path d="M81.4543 221.861C79.8542 221.594 78.249 221.245 76.6389 220.813C53.2673 214.551 38.4699 194 43.5856 174.908C48.7013 155.816 71.7915 145.418 95.1631 151.68C97.5531 152.321 99.8523 153.098 102.054 154.038" stroke="#141414" stroke-miterlimit="10"/>
<g opacity="0.3">
<path d="M65.315 198.07C62.8244 197.403 61.3319 194.822 61.9983 192.335L68.265 168.948C68.9313 166.461 71.5143 164.972 74.005 165.639C76.4956 166.307 77.9881 168.887 77.3218 171.374L71.0551 194.762C70.3887 197.249 67.8057 198.738 65.315 198.07Z" fill="black"/>
</g>
<g opacity="0.3">
<path d="M101.65 177.893C102.319 175.396 100.834 172.828 98.3331 172.158C95.8321 171.488 93.2622 172.969 92.5931 175.466L86.3264 198.854C85.6572 201.351 87.1422 203.919 89.6432 204.589C92.1441 205.259 94.714 203.778 95.3832 201.281L101.65 177.893Z" fill="black"/>
</g>
<path d="M77.4962 170.317C77.4841 170.664 77.4402 171.029 77.346 171.381L71.0793 194.768C70.4129 197.255 67.8299 198.744 65.3393 198.077C63.1002 197.477 61.6693 195.37 61.8893 193.141" stroke="#141414" stroke-miterlimit="10"/>
<path d="M101.806 176.804C101.794 177.151 101.743 177.541 101.649 177.893L95.3824 201.281C94.716 203.768 92.133 205.256 89.6424 204.589C87.1518 203.922 85.6592 201.341 86.3256 198.854" stroke="#141414" stroke-miterlimit="10"/>
<g opacity="0.3">
<path d="M134.318 91.0913C135.096 87.9879 136.55 84.8772 138.631 79.323C138.631 79.323 124.195 67.8891 110.254 60.5457C96.3196 53.1772 92.4926 55.7866 92.4926 55.7866L107.186 94.9409L134.337 91.1231L134.318 91.0913Z" fill="#002817"/>
</g>
<path d="M135.099 92.4041C135.099 92.4041 134.194 91.3538 132.662 89.6241C125.469 81.4501 104.335 57.8823 97.9163 55.974C89.0778 53.3365 86.9996 60.9916 85.4362 66.9269C84.3054 71.1473 77.9833 108.629 77.9833 108.629" fill="#FFC901"/>
<path d="M135.099 92.4041C135.099 92.4041 134.194 91.3538 132.662 89.6241C125.469 81.4501 104.335 57.8823 97.9163 55.974C89.0778 53.3365 86.9996 60.9916 85.4362 66.9269C84.3054 71.1473 77.9833 108.629 77.9833 108.629" stroke="#141414" stroke-miterlimit="10"/>
<path d="M239.653 272.678L245.178 321.896L257.103 325.091L262.763 326.608L266.964 327.734L287.464 257.569L239.653 272.678Z" fill="#FFC901"/>
<path d="M128.383 249.595L132.867 291.829L155.232 297.822C155.232 297.822 168.288 255.037 167.133 253.408C165.979 251.779 128.383 249.595 128.383 249.595Z" fill="#FFC901"/>
<g opacity="0.2">
<path d="M288.33 133.382C288.556 133.443 288.776 133.528 289.003 133.589C289.003 133.589 289.028 133.596 289.053 133.602L288.349 133.414L288.33 133.382Z" fill="white"/>
</g>
<path d="M97.9984 132.246C97.0762 135.688 93.5366 137.728 90.0899 136.805C86.6433 135.881 84.598 132.344 85.5201 128.903C86.4423 125.461 89.982 123.421 93.4286 124.345C96.8752 125.268 98.9206 128.805 97.9984 132.246Z" fill="#003C22"/>
<path d="M161.67 151.031C160.748 154.472 157.208 156.512 153.762 155.589C150.315 154.665 148.27 151.129 149.192 147.687C150.114 144.245 153.654 142.205 157.1 143.129C160.547 144.052 162.592 147.589 161.67 151.031Z" fill="#003C22"/>
</g>
<defs>
<clipPath id="clip0_11366_35661">
<rect width="317.336" height="281.138" fill="white" transform="translate(73.3047) rotate(15)"/>
</clipPath>
</defs>
</svg>
