<svg width="84" height="158" viewBox="0 0 84 158" fill="none" xmlns="http://www.w3.org/2000/svg">
<g clip-path="url(#clip0_11603_4557)">
<path d="M12.5514 117.595C21.5526 117.424 30.616 117.269 39.4925 118.825C41.7973 119.229 44.0865 119.743 46.4224 119.991C51.7639 120.536 57.1521 119.556 62.5092 119.851C64.7984 119.976 67.2122 120.412 68.9408 121.921C69.7661 122.636 70.3735 123.554 70.9497 124.488C72.8496 127.522 74.4536 130.743 75.7617 134.072C76.8518 136.842 77.7239 139.891 76.9141 142.739C76.587 143.874 76.0264 144.901 75.5592 145.99C73.8462 150.02 73.7684 154.532 73.7216 158.92C68.3023 160.227 62.7272 161.549 57.1833 160.88C53.9908 160.507 50.9074 159.465 47.7305 159.044C45.9708 154.937 44.8184 150.565 44.2734 146.131C43.4791 148.776 42.7005 151.421 41.9063 154.066C41.6104 156.82 40.8162 159.527 39.5859 162.016C32.0019 160.211 24.1532 159.48 16.3512 159.854C13.9841 159.962 11.2278 160.04 9.67047 158.251C9.00083 157.489 8.6738 156.477 8.42464 155.481C7.42798 151.421 7.61485 147.189 7.92631 143.019C8.56479 134.508 10.8852 125.966 12.5514 117.595Z" fill="#59C27A"/>
<path d="M57.3866 140.435C61.856 136.328 65.8427 131.691 69.2687 126.681C70.5612 124.799 71.7604 122.854 72.9595 120.909C75.638 116.583 78.3321 112.258 81.0106 107.917C81.5557 107.03 82.1163 106.128 82.4122 105.116C82.6925 104.167 82.7081 103.156 82.7392 102.16C82.8794 95.5322 85.0284 88.4528 83.3933 82.0425C82.4278 78.2928 82.3032 74.3875 82.3499 70.5133C82.3966 65.7834 82.6769 60.9135 81.0885 56.448C80.5902 55.0322 79.905 53.663 79.5312 52.216C79.3288 51.3914 79.2042 50.5512 78.9239 49.7577C78.0985 47.5639 76.0273 46.1324 74.0807 44.8566C71.6981 43.2851 69.1908 41.6826 66.341 41.3403C65.6402 41.2625 64.9239 41.2469 64.2231 41.0913C63.2732 40.8735 62.4166 40.3756 61.5913 39.8622C59.598 38.633 57.6046 37.2327 55.2998 36.7815C53.7737 36.4859 52.1853 36.6259 50.6436 36.7815C43.371 37.4505 36.1297 38.0418 28.8727 38.7419C26.9417 38.9286 24.9795 39.1309 23.1886 39.8933C21.351 40.6868 19.8093 42.0404 18.0028 42.9273C16.4923 43.6741 14.8416 44.0787 13.2998 44.7321C9.29762 46.4125 6.05846 49.8355 4.57904 53.9119C3.86269 55.9035 3.56681 58.0039 3.25535 60.0888C1.30874 73.594 -0.637866 87.2081 0.203068 100.822C0.343224 103.172 0.576817 105.537 1.24645 107.808C2.16525 110.92 3.86269 113.721 5.60685 116.459C8.42554 120.893 11.4 125.234 14.3588 129.56C15.3087 130.944 16.2587 132.345 17.2086 133.729C18.3922 135.472 19.5913 137.215 21.0396 138.739C23.4378 138.148 25.6335 136.763 27.1908 134.834C28.0941 133.714 28.8104 132.407 29.8538 131.427C30.8972 130.447 32.4856 129.793 33.8093 130.369C33.7159 129.186 32.9061 128.206 32.143 127.304C27.44 121.718 23.064 115.868 19.0462 109.769C17.8315 107.933 16.648 106.066 15.7915 104.027C13.5646 98.7373 13.7826 92.4826 16.3833 87.3637C18.0963 91.3313 18.3922 95.7967 18.0028 100.107C17.816 102.114 17.5045 104.105 17.0373 106.066C17.9561 106.595 18.6725 107.933 19.0774 108.928C19.4978 109.971 19.6224 111.247 20.5101 111.931C21.0863 112.383 21.8961 112.476 22.4567 112.958C23.1886 113.581 23.3132 114.639 23.5468 115.588C24.6369 119.866 29.0752 122.496 33.4044 123.352C37.7337 124.207 42.2342 123.803 46.5946 124.487C46.8749 124.534 47.1708 124.581 47.42 124.456C47.7003 124.332 47.856 124.021 48.0585 123.787C49.242 122.403 51.4689 123.336 52.9795 124.347C54.1319 122.138 55.2998 119.913 56.4522 117.704C57.9317 114.872 59.4267 112.009 61.4511 109.551C62.0585 108.804 62.7281 108.088 63.2264 107.248C63.9116 106.097 64.2387 104.759 64.5657 103.452C65.4066 100.013 66.232 96.5746 67.0729 93.1361C67.8983 93.6184 68.1007 94.7698 67.836 95.6878C67.5713 96.6057 66.9795 97.3837 66.5123 98.2083C64.8616 101.056 64.6436 104.51 63.4756 107.59C62.8371 109.286 61.9183 110.842 60.9995 112.398C59.2553 115.354 57.5268 118.311 55.7826 121.282C54.381 123.663 52.9016 126.121 50.6124 127.646C49.8805 128.128 49.0551 128.533 48.5879 129.264C47.9339 130.306 47.6536 132.142 46.4389 131.925C49.9116 133.449 53.6958 135.285 55.1441 138.771C55.8137 137.884 57.7915 139.377 57.4022 140.42L57.3866 140.435Z" fill="#F3FFF8"/>
<path d="M34.0273 129.871C34.0273 129.871 33.9494 129.871 33.9183 129.871C33.3732 129.824 32.9527 129.482 32.8282 128.968C32.7347 128.548 32.9839 128.128 33.4044 128.035C33.6535 127.972 33.9027 128.035 34.0896 128.19C34.1363 128.05 34.1207 127.879 34.1207 127.708C34.1207 127.428 34.1207 127.148 34.1674 126.883C34.183 126.774 34.2453 126.463 34.51 126.214C34.6969 126.043 35.1018 125.794 35.7714 126.059C36.6591 126.416 37.4377 126.992 38.0295 127.755C38.0918 127.832 38.1385 127.91 38.1852 127.941C38.1852 127.91 38.2787 127.879 38.4344 127.77C39.7114 126.93 40.9105 125.965 41.985 124.876C42.2186 124.643 42.5612 124.581 42.8571 124.721C43.7136 125.11 44.7881 125.607 45.4578 126.588L45.6291 126.852C45.7069 126.992 45.8315 127.194 45.8938 127.226C45.9405 127.226 46.1118 127.148 46.2052 126.992C46.3765 126.697 46.361 126.23 46.361 125.81C46.361 125.53 46.5011 125.265 46.7503 125.125C46.9995 124.985 47.2954 124.985 47.5445 125.125L51.1263 127.303C51.5 127.521 51.609 128.003 51.391 128.377C51.173 128.75 50.6902 128.859 50.3165 128.641L47.8093 127.117C47.7625 127.319 47.6847 127.537 47.5757 127.723C47.1552 128.501 46.1274 129.061 45.2086 128.61C44.7258 128.377 44.4767 127.957 44.2898 127.646L44.1652 127.443C43.8537 126.977 43.3398 126.665 42.7014 126.339C41.658 127.35 40.5056 128.268 39.2909 129.061C39.0262 129.233 38.3254 129.684 37.5779 129.373C37.2041 129.217 36.9861 128.937 36.8304 128.735C36.4878 128.299 36.0985 127.957 35.6624 127.708C35.6624 128.066 35.6624 128.47 35.4911 128.875C35.2575 129.435 34.6346 129.839 34.0117 129.839L34.0273 129.871Z" fill="black"/>
<path d="M42.8562 155.435C42.6537 155.435 42.4513 155.357 42.2956 155.201C41.221 154.112 40.0219 153.132 38.7449 152.307C38.5736 152.198 38.4958 152.167 38.4491 152.152C38.4646 152.167 38.4179 152.245 38.3868 152.276C37.7638 153.085 36.9852 153.676 36.082 154.019C35.4123 154.283 35.0075 154.034 34.8206 153.863C34.5558 153.63 34.4935 153.303 34.478 153.21C34.4313 152.945 34.4313 152.665 34.4313 152.385C34.4313 152.198 34.4313 152.027 34.4157 151.887C34.2288 152.043 33.9796 152.121 33.7149 152.058C33.2944 151.965 33.0453 151.545 33.1387 151.125C33.2633 150.611 33.6838 150.269 34.2288 150.222C34.8984 150.176 35.5836 150.58 35.8172 151.187C35.9885 151.607 35.9885 151.996 35.9885 152.354C36.4402 152.105 36.8139 151.778 37.1254 151.374C37.3122 151.125 37.5303 150.845 37.904 150.689C38.6515 150.378 39.3523 150.829 39.617 151C40.8317 151.794 41.9841 152.712 43.0275 153.723C43.666 153.412 44.1799 153.085 44.4913 152.618L44.6159 152.416C44.8028 152.105 45.0519 151.685 45.5347 151.452C46.4535 151 47.4813 151.56 47.9018 152.338C48.0108 152.541 48.0887 152.743 48.1354 152.945L50.6426 151.42C51.0164 151.203 51.4835 151.312 51.7171 151.685C51.9351 152.058 51.8261 152.525 51.4524 152.759L47.8706 154.937C47.6215 155.077 47.3256 155.092 47.0764 154.937C46.8273 154.797 46.6871 154.532 46.6871 154.252C46.6871 153.848 46.6871 153.381 46.5314 153.07C46.4535 152.914 46.2666 152.821 46.2199 152.836C46.1576 152.867 46.033 153.07 45.9552 153.21L45.7839 153.474C45.1298 154.454 44.0553 154.952 43.1832 155.341C43.0742 155.388 42.9652 155.419 42.8562 155.419V155.435Z" fill="black"/>
<path d="M31.2555 131.194C32.4235 131.38 33.5759 131.583 34.7439 131.769C35.5537 131.909 36.3634 132.05 37.0954 132.407C38.1232 132.921 38.8862 133.808 39.6182 134.679C40.7394 136.017 41.8762 137.355 42.9975 138.709C43.6827 139.533 44.3835 140.358 45.131 141.12C46.6104 142.63 48.3078 143.905 49.9274 145.259C50.7528 145.944 51.5781 146.675 52.0609 147.64C52.3568 148.215 52.4658 149.024 51.9674 149.444C51.656 149.709 51.1888 149.725 50.7683 149.709C49.1955 149.647 49.1799 148.495 47.6849 148.044C47.4046 147.966 47.0776 147.795 47.0931 147.515C46.5014 147.951 44.2589 149.118 43.5425 149.242C42.6705 149.382 41.7828 149.289 40.8951 149.18C38.6994 148.931 36.4725 148.666 34.4636 147.749C33.3423 147.235 32.3145 146.535 31.3023 145.835C30.6949 145.415 30.072 144.995 29.5737 144.434C29.1688 143.999 28.8573 143.485 28.4369 143.065C27.7672 142.381 26.8796 141.945 26.3034 141.183C25.5247 140.171 24.7928 138.211 23.5781 137.806C23.7961 137.215 24.4969 137.402 24.824 136.857C25.1043 136.39 25.9763 135.908 26.2878 135.457C26.428 135.27 26.5681 135.084 26.6927 134.881C27.1599 134.228 27.6582 133.543 28.359 133.139C28.8885 132.827 28.6082 132.33 29.1376 132.018C29.4335 131.847 29.7138 131.614 30.0253 131.458C30.3367 131.303 30.8974 131.132 31.24 131.194H31.2555Z" fill="#C69784"/>
<path d="M31.9556 146.457C31.0524 146.146 30.2738 145.492 29.8066 144.652C29.3394 143.812 29.3705 142.723 29.573 141.789C29.8689 142.023 30.3049 141.945 30.6787 142.007C31.286 142.116 31.7532 142.645 32.3605 142.739C33.1859 142.863 33.8867 142.194 34.4629 141.587C36.1292 139.845 37.9668 138.258 39.8043 136.702C36.2849 137.277 32.8589 139.02 29.3238 138.522C29.0747 138.491 28.8255 138.429 28.6542 138.258C28.4517 138.055 28.4206 137.744 28.405 137.464C28.3894 137.168 28.3583 136.857 28.4673 136.593C28.6542 136.126 29.1525 135.861 29.6508 135.784C30.1492 135.706 31.068 135.426 31.5819 135.441C33.1547 135.488 33.108 135.115 34.5719 134.539C34.9145 133.59 37.048 133.154 38.0135 132.827C40.5207 131.987 43.2304 132.096 45.8778 132.221C46.4695 132.252 47.0146 132.267 47.6064 132.345C47.8399 132.376 48.0891 132.407 48.3071 132.501C48.5719 132.625 48.7743 132.859 48.9768 133.061C49.7243 133.808 50.8144 134.072 51.7332 134.57C52.2626 134.85 52.6364 135.379 53.1036 135.737C53.8666 136.313 54.474 137.075 55.0658 137.822C55.3616 138.195 55.6731 138.678 55.5018 139.113C54.8322 140 54.1625 140.887 53.4462 141.727C52.9634 142.287 52.4651 142.816 51.9668 143.345C51.6241 143.703 51.2971 144.061 50.9389 144.403C50.098 145.197 49.1636 145.881 48.1514 146.442C46.89 147.126 45.5352 147.609 44.1959 148.075C43.6976 148.246 43.1992 148.433 42.6853 148.604C42.7788 148.48 38.5274 148.526 38.6208 148.744C37.3438 148.884 36.0357 148.62 34.9145 147.997C34.6186 147.826 34.3227 147.64 34.0112 147.531C33.6375 147.391 33.2326 147.375 32.8589 147.251C32.4851 147.126 32.0802 146.846 31.9868 146.473L31.9556 146.457Z" fill="#C69784"/>
<path d="M37.8904 149.553C36.7068 149.553 35.5233 149.258 34.4955 148.682L34.2463 148.542C34.075 148.433 33.8881 148.324 33.7013 148.262C33.5455 148.2 33.3742 148.168 33.2029 148.137C32.9849 148.091 32.7825 148.044 32.5644 147.982C32.0194 147.795 31.5833 147.468 31.3498 147.064C30.4154 146.644 29.6056 145.928 29.1073 145.025C28.4376 143.827 28.6245 142.38 28.7958 141.618C28.8581 141.354 29.045 141.136 29.2941 141.058C29.5433 140.965 29.8392 141.027 30.0416 141.198C30.0416 141.198 30.2129 141.198 30.3064 141.198C30.4621 141.198 30.6178 141.198 30.7736 141.229C31.2096 141.307 31.5678 141.509 31.8637 141.68C32.0817 141.805 32.2841 141.929 32.4399 141.945C32.8603 142.023 33.3898 141.509 33.857 141.027C34.8225 140.016 35.8347 139.066 36.8781 138.148C36.7068 138.195 36.5355 138.242 36.3642 138.288C34.0594 138.942 31.6612 139.611 29.1851 139.253C28.8114 139.206 28.3909 139.098 28.0639 138.771C27.659 138.351 27.6123 137.822 27.5967 137.495C27.5656 137.168 27.5344 136.733 27.7057 136.281C27.9704 135.597 28.6401 135.114 29.4966 134.974C29.6523 134.943 29.8703 134.897 30.0884 134.85C30.6023 134.741 31.1473 134.632 31.5678 134.617C32.4554 134.648 32.6423 134.539 33.1718 134.274C33.3898 134.165 33.639 134.025 33.9816 133.885C34.5733 132.983 35.9749 132.563 37.1273 132.236C37.3453 132.174 37.5633 132.112 37.7191 132.049C38.124 131.909 38.5756 132.127 38.7001 132.532C38.8403 132.936 38.6223 133.372 38.2174 133.512C38.0305 133.574 37.8125 133.636 37.5633 133.714C36.9716 133.885 35.4143 134.336 35.2741 134.757C35.1963 134.959 35.0405 135.13 34.8381 135.208C34.4176 135.379 34.1373 135.519 33.8881 135.643C33.2029 136.001 32.7669 136.204 31.5366 136.157C31.303 136.126 30.8047 136.266 30.4465 136.344C30.1818 136.406 29.9326 136.452 29.7458 136.484C29.4654 136.53 29.2318 136.67 29.1696 136.81C29.1228 136.935 29.1384 137.168 29.1696 137.355C29.1696 137.417 29.1851 137.604 29.2163 137.666C29.2163 137.666 29.2786 137.666 29.4343 137.697C31.5833 137.993 33.7168 137.402 35.9749 136.764C37.174 136.421 38.4198 136.079 39.6812 135.877C40.0238 135.83 40.3664 136.001 40.5066 136.312C40.6468 136.624 40.5689 136.997 40.3042 137.23C38.5133 138.771 36.6601 140.358 35.025 142.069C34.4955 142.629 33.5144 143.656 32.2374 143.454C31.7858 143.376 31.4276 143.174 31.1162 142.987C30.8981 142.863 30.6957 142.754 30.54 142.723C30.4621 142.723 30.3687 142.723 30.2752 142.707C30.2597 142.707 30.2285 142.707 30.2129 142.707C30.1818 143.205 30.2129 143.765 30.4777 144.232C30.8514 144.901 31.4743 145.43 32.2063 145.679C32.4554 145.772 32.6423 145.975 32.7046 146.239C32.7202 146.27 32.8448 146.395 33.0628 146.457C33.2185 146.504 33.3587 146.535 33.5144 146.566C33.7636 146.613 33.9971 146.659 34.2307 146.753C34.511 146.861 34.7758 147.001 35.0405 147.157L35.2585 147.282C36.2396 147.826 37.3765 148.044 38.4977 147.935C39.2919 147.811 41.3787 147.608 42.5311 147.779L43.9015 147.297C45.194 146.846 46.5489 146.364 47.748 145.71C48.6979 145.181 49.5856 144.543 50.3798 143.796C50.6912 143.501 51.1896 143.516 51.4855 143.827C51.7814 144.139 51.7658 144.637 51.4543 144.932C50.5667 145.772 49.57 146.504 48.4955 147.095C47.1874 147.811 45.7702 148.308 44.4154 148.775L42.9048 149.304C42.7335 149.366 42.5466 149.366 42.3753 149.304C41.7991 149.258 39.5722 149.304 38.9649 149.398C38.8714 149.444 38.7624 149.491 38.6534 149.491C38.4043 149.522 38.1395 149.538 37.8748 149.538L37.8904 149.553Z" fill="#211C2E"/>
<path d="M50.7216 19.4648C51.874 18.6557 52.9018 17.6755 53.7428 16.5397C54.2723 18.998 54.2567 21.5808 53.7116 24.0391C53.3223 25.7662 52.2789 27.7421 50.5192 27.7733C50.7528 29.8582 50.9864 32.0053 50.5192 34.0591C50.4102 34.5414 50.2545 35.0237 50.2233 35.5216C50.1766 36.3774 50.5192 37.1864 50.6282 38.0422C50.9085 40.2516 49.5848 42.3209 48.8996 44.4369C48.6193 45.3082 48.4324 46.2106 48.0587 47.0508C46.626 50.3182 42.6861 51.9519 41.3001 55.2348C38.5748 53.041 36.0053 50.6605 33.4358 48.2955C32.1588 47.1131 30.804 45.7906 30.5704 44.0791C30.3212 42.2742 31.3957 40.4849 31.1154 38.6801C31.0376 38.1355 30.8351 37.6376 30.6327 37.1242C29.963 35.4283 29.2934 33.7323 28.6082 32.0364C28.5148 31.8186 28.4213 31.5852 28.2344 31.4452C28.0008 31.274 27.6738 31.274 27.3935 31.2274C25.9608 31.0095 25.0264 29.6248 24.2945 28.3645C23.3601 26.7775 22.379 25.0971 22.2545 23.2456C22.1922 22.4521 22.4725 21.4408 23.2667 21.3007C23.9831 21.1607 24.5748 21.8609 24.933 22.4988C25.2912 23.1367 25.6338 23.8991 26.3346 24.1013C26.8017 24.0236 27.0353 23.4323 26.9419 22.9655C26.8485 22.4988 26.5214 22.1098 26.2723 21.7053C25.6493 20.6784 25.4002 19.4648 25.3223 18.2667C25.0576 14.7348 26.0542 11.1252 28.0631 8.20008C28.359 7.76443 28.7016 7.32878 29.1688 7.07983C29.4958 6.89312 29.8852 6.81533 30.2589 6.75309C34.4636 5.94403 38.7617 5.58617 43.0598 5.67952C44.1032 5.71064 44.913 6.36412 45.7383 6.98648C46.8752 7.84222 48.3546 8.27787 49.2889 9.367C50.2389 10.4717 50.4258 12.012 50.5815 13.459C50.6594 14.2525 50.7528 15.046 50.6438 15.824C50.5659 16.4152 50.3635 17.0065 50.4725 17.5977C50.5815 18.2512 50.8929 18.8269 50.7684 19.4648H50.7216Z" fill="#C69784"/>
<path d="M24.4189 21.7985C24.0451 21.4406 23.4378 21.7985 23.2509 21.3006C23.064 20.8338 22.7526 18.9201 22.7681 18.4222C22.9083 14.4546 23.5156 10.3782 25.618 7.01746C29.044 1.47846 36.3632 -1.151 42.7014 0.467131C43.6202 0.700515 44.5234 1.01169 45.3955 1.41623C48.7281 2.94101 51.4689 5.74162 52.9483 9.10236C53.1508 9.55357 53.3221 10.0048 53.4311 10.4871C53.7426 11.7941 54.1319 13.5211 54.1475 14.8747C54.1786 17.3175 51.7648 18.6867 51.5779 20.3671C50.846 20.6004 51.173 20.1181 50.737 19.4802C50.301 18.8423 50.3321 17.3175 50.2075 16.5707C49.9116 14.9525 49.6157 13.3344 49.3199 11.7163C49.1953 11.0161 49.0551 10.3004 48.7592 9.64692C47.5913 7.11081 43.8382 6.42622 41.6113 8.09103C41.0351 8.52668 40.5212 9.0868 39.8671 9.41354C38.9483 9.86475 37.8582 9.75584 36.8304 9.64692C34.1519 9.3513 34.5724 9.41354 31.8938 9.11792C31.3176 9.05568 30.5857 9.07124 30.3521 9.60025C30.1341 10.0981 30.5234 10.6271 30.6792 11.1406C31.0685 12.4631 26.7859 13.35 26.6458 14.7191C26.4589 16.7418 28.608 18.4844 28.3121 20.4915C28.2186 21.1139 27.0507 24.0234 26.3188 24.1168C25.5868 24.2101 24.9328 22.3119 24.4189 21.814V21.7985Z" fill="black"/>
<path d="M41.7057 83.9094C41.2852 83.9094 40.927 83.5671 40.927 83.147C40.8803 79.584 41.1762 76.0055 41.7991 72.4891L41.8458 72.2246C42.0171 71.2444 42.1884 70.3264 42.095 69.424C42.0016 68.6305 41.7057 67.8681 41.3942 67.0435C41.2696 66.7168 41.145 66.39 41.0205 66.0633C39.7279 62.3602 40.0082 58.2993 40.273 54.7208C40.3041 54.2851 40.6623 53.974 41.0983 54.0051C41.5344 54.0362 41.8458 54.4096 41.8147 54.8297C41.5811 58.2527 41.3008 62.1424 42.4843 65.5498C42.5933 65.861 42.7179 66.1722 42.8269 66.4678C43.1695 67.3391 43.5121 68.2415 43.6211 69.2373C43.7457 70.3576 43.5433 71.4467 43.3564 72.4891L43.3097 72.7536C42.7023 76.161 42.4064 79.6463 42.4532 83.1003C42.4532 83.536 42.1106 83.8783 41.6901 83.8939L41.7057 83.9094Z" fill="#211C2E"/>
<path d="M15.978 88.1107C15.5576 88.1107 15.215 87.784 15.1994 87.3483C15.1682 86.3059 15.5731 85.3879 15.9625 84.5166C16.1338 84.1432 16.2895 83.7853 16.4141 83.4119C17.0681 81.4048 16.4919 79.0399 16.0247 77.1572L14.3273 70.2335C14.2183 69.8134 14.483 69.3933 14.9035 69.2999C15.324 69.191 15.7444 69.4555 15.8379 69.8756L17.5353 76.7994C18.0492 78.8843 18.6877 81.4826 17.8935 83.9098C17.7533 84.3299 17.5665 84.75 17.3796 85.1701C17.0526 85.9169 16.7255 86.6326 16.7567 87.3172C16.7567 87.7529 16.4296 88.1107 15.9936 88.1107H15.978Z" fill="#211C2E"/>
<path d="M66.7157 93.7898C66.6222 93.7898 66.5444 93.7898 66.4509 93.7432C66.046 93.6031 65.8436 93.1519 65.9837 92.7474C66.4976 91.3315 66.8247 89.8534 66.9493 88.3598C67.0271 87.4573 67.0427 86.5238 67.0427 85.6058V84.6101C67.1673 78.931 68.2107 73.2831 69.2073 67.8375C69.2852 67.4174 69.6901 67.1373 70.1105 67.2151C70.531 67.2929 70.8113 67.6975 70.7335 68.1175C69.7368 73.5165 68.709 79.0866 68.6 84.6412V85.6214C68.5844 86.5549 68.5688 87.5196 68.491 88.4842C68.3508 90.1179 67.9926 91.7205 67.432 93.2608C67.323 93.572 67.0116 93.7743 66.7001 93.7743L66.7157 93.7898Z" fill="#211C2E"/>
<path d="M41.8443 45.6968C41.564 45.6968 41.2837 45.6812 41.0034 45.6345C39.7109 45.4478 38.5429 44.8255 37.6085 44.3276C36.2537 43.5963 34.9144 42.865 33.5751 42.1026C32.5473 41.527 31.4261 40.7957 31.0212 39.551C30.8966 39.1464 31.1146 38.7108 31.5351 38.5708C31.94 38.4307 32.376 38.6641 32.5162 39.0842C32.7342 39.7999 33.544 40.2978 34.3538 40.749C35.6775 41.4958 37.0167 42.2427 38.356 42.9584C39.415 43.5185 40.287 43.9697 41.237 44.1097C42.9967 44.3742 45.0056 43.4407 46.3916 41.7603C47.762 40.0955 48.4628 37.9017 48.9767 35.9724C49.0857 35.5523 49.5062 35.3034 49.9267 35.4123C50.3471 35.5212 50.5963 35.9413 50.4873 36.3614C49.9422 38.4463 49.1636 40.8424 47.6063 42.7406C46.0646 44.6076 43.9311 45.6968 41.8599 45.6968H41.8443Z" fill="black"/>
<path d="M32.9692 23.0584C32.2217 23.0584 31.4275 22.8095 30.5866 22.1871C30.244 21.9226 30.1817 21.4403 30.4309 21.098C30.6956 20.7557 31.1783 20.6934 31.521 20.9424C32.6111 21.767 33.4987 21.6892 35.1494 20.6468C35.5076 20.4134 35.9904 20.5223 36.224 20.8801C36.4575 21.238 36.3485 21.7203 35.9904 21.9537C35.0404 22.5605 34.0438 23.0584 32.9537 23.0584H32.9692Z" fill="black"/>
<path d="M31.3792 26.5282C31.1612 26.5282 30.9587 26.4504 30.803 26.2792C30.5071 25.968 30.5382 25.4702 30.8497 25.1745C32.3136 23.8365 33.7774 23.9454 35.5216 24.5211C35.9265 24.6611 36.16 25.0967 36.0199 25.5013C35.8797 25.9058 35.4437 26.1392 35.0388 25.9992C33.4815 25.5013 32.7184 25.5791 31.9087 26.3259C31.7529 26.4659 31.5661 26.5282 31.3792 26.5282Z" fill="black"/>
<path d="M44.2427 23.0584C43.4952 23.0584 42.701 22.8095 41.86 22.1871C41.5174 21.9226 41.4551 21.4403 41.7043 21.098C41.969 20.7557 42.4518 20.6934 42.7944 20.9424C43.8845 21.767 44.7721 21.6892 46.4229 20.6468C46.781 20.4134 47.2638 20.5223 47.4974 20.8801C47.731 21.238 47.622 21.7203 47.2638 21.9537C46.3139 22.5605 45.3172 23.0584 44.2271 23.0584H44.2427Z" fill="black"/>
<path d="M42.6546 26.5282C42.4365 26.5282 42.2341 26.4504 42.0784 26.2792C41.7825 25.968 41.8136 25.4702 42.1251 25.1745C43.5889 23.8365 45.0528 23.9454 46.797 24.5211C47.2018 24.6611 47.4354 25.0967 47.2953 25.5013C47.1551 25.9058 46.7191 26.1392 46.3142 25.9992C44.7569 25.5013 43.9938 25.5791 43.184 26.3259C43.0283 26.4659 42.8414 26.5282 42.6546 26.5282Z" fill="black"/>
<path d="M39.2918 32.6583C39.2918 32.6583 39.1984 32.6583 39.1361 32.6583C38.4353 32.6271 37.8279 32.2382 37.4698 31.6158C37.096 30.9623 37.096 30.1533 37.4698 29.4998C38.5754 27.4927 39.0893 25.1588 38.918 22.9028C38.8869 22.4671 39.2139 22.0937 39.6344 22.0626C40.0704 22.0315 40.4442 22.3582 40.4753 22.7783C40.6622 25.33 40.086 27.975 38.8402 30.2311C38.7156 30.4489 38.7623 30.6978 38.8402 30.8379C38.9025 30.9468 39.0115 31.0712 39.2139 31.0868C39.5098 31.1179 39.8057 31.0246 40.0237 30.8845C40.3819 30.6511 40.8646 30.7445 41.0982 31.1024C41.3318 31.4602 41.2384 31.9425 40.8802 32.1759C40.413 32.4871 39.868 32.6427 39.2918 32.6427V32.6583Z" fill="black"/>
<path d="M36.5806 37.8087C36.2692 37.8087 35.9889 37.622 35.8643 37.3263C35.693 36.9374 35.8799 36.4706 36.2848 36.315C39.5862 34.9458 41.1123 35.3348 43.8999 36.0349L44.4917 36.1905C44.9121 36.2994 45.1613 36.7195 45.0523 37.1396C44.9433 37.5597 44.5228 37.8087 44.1023 37.6998L43.495 37.5442C40.8009 36.8596 39.6796 36.5795 36.861 37.7464C36.7675 37.7931 36.6585 37.8087 36.5651 37.8087H36.5806Z" fill="black"/>
<path d="M26.1015 28.2247C25.9925 28.2247 25.8679 28.1936 25.7589 28.1469C25.2139 27.8824 24.9491 27.3534 24.7778 27.0111L23.4697 24.475C23.2673 24.086 23.423 23.6192 23.8123 23.4325C24.2016 23.2303 24.6688 23.3859 24.8557 23.7748L26.1638 26.3265C26.2261 26.451 26.3663 26.7155 26.4597 26.7622C26.849 26.9489 27.0048 27.4156 26.8179 27.8046C26.6777 28.0847 26.413 28.2403 26.1171 28.2403L26.1015 28.2247Z" fill="black"/>
<path d="M51.8418 25.564C51.6082 25.564 51.3902 25.4707 51.2344 25.2684C50.9697 24.9261 51.0164 24.4438 51.359 24.1793C51.7328 23.8837 51.7951 23.1991 51.7795 22.8257C51.7795 22.6234 51.7795 22.4056 51.7483 22.2033C51.7172 21.6587 51.6861 21.0831 51.8106 20.4918C51.9041 20.0717 52.309 19.8072 52.7294 19.9006C53.1499 19.9939 53.4146 20.3985 53.3212 20.8186C53.2433 21.2075 53.2589 21.6432 53.2901 22.11C53.2901 22.3433 53.3212 22.5767 53.3212 22.8101C53.3212 23.9615 52.9786 24.8639 52.309 25.3929C52.1688 25.5018 51.9975 25.564 51.8262 25.564H51.8418Z" fill="black"/>
<path d="M33.2797 146.784C33.015 146.784 32.7347 146.753 32.4855 146.706C32.0651 146.613 31.8003 146.208 31.8938 145.788C31.9872 145.368 32.3921 145.088 32.8126 145.197C33.4355 145.321 34.1674 145.197 34.9928 144.777C35.4444 144.559 35.8648 144.279 36.2853 144.014C36.6123 143.812 36.9394 143.594 37.282 143.408C37.4844 142.848 37.8582 142.412 38.3409 142.163C38.7147 141.961 39.1974 142.101 39.3999 142.474C39.6023 142.848 39.4622 143.33 39.0884 143.532C38.9327 143.626 38.8081 143.781 38.7458 143.952C38.7147 144.061 38.668 144.217 38.5589 144.372C38.4032 144.575 38.2163 144.684 38.1073 144.746C37.7647 144.932 37.4377 145.15 37.1107 145.353C36.6435 145.648 36.1763 145.944 35.678 146.193C34.837 146.613 34.0272 146.831 33.2642 146.831L33.2797 146.784Z" fill="#211C2E"/>
<path d="M37.5622 148.931C37.2508 148.931 36.9705 148.744 36.8459 148.449C36.6901 148.044 36.877 147.593 37.2663 147.437L39.4933 146.473C39.8203 145.975 40.1629 145.726 40.4432 145.508L40.6768 145.337C40.9415 145.119 41.0505 144.948 41.0505 144.854C41.0661 144.419 41.4087 144.061 41.8603 144.108C42.2964 144.123 42.6234 144.481 42.6078 144.917C42.5923 145.508 42.2652 146.052 41.6579 146.55L41.3932 146.753C41.1751 146.924 40.9727 147.079 40.8637 147.235C40.7547 147.422 40.6457 147.562 40.5055 147.702C40.3186 147.873 40.1006 147.966 39.9604 148.013L37.8737 148.869C37.7802 148.915 37.6712 148.931 37.5778 148.931H37.5622Z" fill="#211C2E"/>
</g>
<defs>
<clipPath id="clip0_11603_4557">
<rect width="84" height="162" fill="white"/>
</clipPath>
</defs>
</svg>
