<svg width="147" height="129" viewBox="0 0 147 129" fill="none" xmlns="http://www.w3.org/2000/svg">
<g clip-path="url(#clip0_11603_4647)">
<path d="M52.3743 50.7668C53.1405 50.3783 53.5906 49.589 54.0649 48.8726C54.892 47.6219 56.0596 46.3956 57.5557 46.2863C57.957 46.262 58.3827 46.3227 58.7354 46.5291C59.3314 46.9055 59.5625 47.6219 59.7571 48.2898C59.8179 48.4962 59.8788 48.7148 59.8666 48.9455C59.8058 49.6011 59.1125 49.9533 58.5408 50.269C56.6313 51.3375 54.4906 55.8302 52.8486 57.2751C52.4473 57.6272 51.9729 57.9672 51.4499 57.9308C51.1823 57.9065 50.9391 57.7972 50.7201 57.6515C49.8323 57.0565 49.9417 53.0253 49.9539 51.9446C49.9539 50.609 51.4864 51.2161 52.3864 50.7547L52.3743 50.7668Z" fill="#986A55"/>
<path d="M82.3193 46.5894C82.1855 47.1115 81.6017 47.4393 81.103 47.6579C80.6043 47.8765 79.9475 47.84 79.607 47.4151C79.3759 47.1236 79.3394 46.7351 79.3151 46.3708C79.0232 42.5096 78.7434 38.6362 78.4515 34.7749C78.415 34.3135 78.3785 33.8278 78.5367 33.3785C78.6583 33.0143 78.9015 32.7107 79.1448 32.4193C79.6556 31.7879 80.1543 31.1565 80.6652 30.5251C81.4314 29.5658 82.222 28.5823 83.3045 27.9995C84.387 27.4167 86.7709 26.931 86.7587 28.1573C86.7222 33.8035 83.6694 41.3682 82.3071 46.5894H82.3193Z" fill="black"/>
<path d="M81.6502 51.7746C83.2557 53.0738 84.849 54.3731 86.4545 55.6723C87.5614 56.5708 88.6925 57.4815 90.0304 57.955C91.9278 58.6229 94.0077 58.3436 96.0145 58.2829C100.734 58.1493 105.477 59.3393 109.564 61.6827C112.58 63.4069 115.378 65.9811 116.193 69.3567C119.343 72.2465 122.165 75.4278 124.646 78.9005C125.959 80.734 127.164 82.6282 128.38 84.5346C131.433 89.3308 134.498 94.1392 137.125 99.1904C138.584 101.995 139.922 104.885 141.832 107.399C142.708 108.54 143.693 109.608 144.435 110.835C145.31 112.304 145.809 113.968 146.259 115.619C147.062 118.606 147.634 122.103 145.724 124.531C143.474 127.385 139.168 127.178 135.726 128.38C134.96 128.648 134.206 129 133.391 129C132.649 129 131.944 128.72 131.226 128.49C128.283 127.543 125.132 127.531 122.031 127.531C109.515 127.531 96.9875 127.531 84.472 127.543C78.4757 127.543 72.4794 127.543 66.5075 128.138C63.8195 128.405 61.1315 128.793 58.4314 128.66C54.4785 128.453 50.635 127.13 46.6821 127.13C41.7196 127.13 36.5626 129.17 31.965 127.324C32.2934 125.515 31.515 123.633 30.7974 121.945C30.019 120.136 29.3014 118.302 28.6324 116.445C26.2242 109.742 24.5579 102.809 22.8916 95.8876C22.2956 93.3985 21.6996 90.9214 21.0915 88.4323C20.7266 86.9266 20.3131 85.3238 19.1576 84.3039C18.7562 82.9075 18.3062 81.1833 17.9048 79.7869C17.7224 79.1555 17.5399 78.512 17.6251 77.8563C17.6737 77.4435 17.844 77.0428 18.0021 76.6542C20.7023 70.3402 25.2633 64.8276 30.9677 60.9785C34.7503 61.282 38.2532 59.0964 42.0237 58.7321C43.9819 58.55 45.9766 58.8171 47.9227 58.5257C51.5472 58.0036 54.6122 55.648 57.4948 53.3774C62.4329 53.0253 67.2373 52.4303 72.1632 52.0782C75.2526 51.8596 78.5609 51.3982 81.6259 51.7503L81.6502 51.7746Z" fill="#59C27A"/>
<path d="M50.6825 20.1926C50.8771 26.7616 51.1569 32.2863 51.5461 38.8432C51.6434 40.4095 51.7407 41.988 52.1056 43.5058C52.8232 46.505 54.5381 49.1642 56.2166 51.7626C57.2383 53.3411 58.187 54.8832 57.6762 56.6924L55.9004 57.2388C56.8248 60.6022 58.7586 63.6014 60.6682 66.5277C61.4223 66.4791 62.1277 66.9162 62.7602 67.3291C64.0251 68.1669 65.3022 69.0168 66.7496 69.5025C68.197 69.9882 69.8147 70.0975 71.1891 69.4418C71.6391 69.2233 72.0648 68.9318 72.5513 68.8226C73.4757 68.6283 74.4 69.1383 75.3366 69.1261C75.8596 69.1261 76.3704 68.9318 76.8569 68.7376C81.6491 66.7219 85.0304 61.7557 85.152 56.5588C84.4344 56.4738 83.7168 56.3888 82.9992 56.3038C82.0018 52.5519 81.2964 48.727 80.8828 44.8658C80.8099 44.1737 80.8099 42.3037 81.2234 41.733C81.795 40.9438 82.9262 41.9759 83.6803 41.3688C84.8236 40.4338 86.4656 38.0782 87.5602 35.2733C87.9008 34.4112 87.39 32.2135 87.1954 31.3028C86.9521 30.1614 85.529 29.7729 84.3614 29.9186C83.5343 30.0157 81.6004 33.0634 81.5275 33.8891C81.4545 34.7148 80.445 35.5647 80.2625 36.3783C80.2869 32.2499 78.7057 27.5387 81.6734 22.8517C82.3059 21.8561 81.345 20.5083 80.9072 19.4033C80.822 19.4276 80.8707 19.7069 80.9437 19.6462C81.0166 19.5855 80.9923 19.4762 80.9558 19.379C80.445 17.9827 79.2652 16.9506 78.3651 15.7606C77.4894 14.5828 76.8691 13.1986 76.5894 11.7537C76.4921 11.2801 76.4312 10.7823 76.1515 10.3937C75.9569 10.1266 75.6771 9.93231 75.3852 9.76232C73.95 8.90021 72.2959 8.40238 70.6296 8.31738C70.5566 8.31738 70.4471 8.31738 70.4228 8.40238C70.3985 8.48738 70.5688 8.49952 70.5323 8.42666C67.0415 8.69379 63.4048 8.69379 59.9141 8.96093C58.7222 9.04592 57.5059 9.1552 56.4355 9.67732C54.7936 10.4787 53.7719 12.1422 52.8353 13.7086C51.9353 15.2264 51.0352 16.7442 50.1352 18.2619C50.0136 18.4684 49.8798 18.7112 49.9163 18.9541C49.9406 19.1848 50.1109 19.3669 50.2447 19.5612C50.5487 20.0104 50.646 19.6462 50.6582 20.1926H50.6825Z" fill="#986A55"/>
<path d="M30.4677 70.9835C32.1218 67.4744 33.7881 63.9774 35.4423 60.4683C35.795 59.7155 36.1599 58.9626 36.391 58.1613C36.8045 56.777 36.8288 55.3078 36.8897 53.8629C37.0721 49.1517 37.5465 44.4404 38.3127 39.7899C38.4708 38.8671 38.8236 37.9929 39.3101 37.1793C39.8331 36.3051 40.2223 35.3458 40.4655 34.3502C40.7331 33.2574 41.621 32.4317 42.7157 32.1767L50.6093 31.3389C50.6458 31.5089 51.8743 31.4967 52.604 31.6789C52.9324 31.7638 53.2487 31.9096 53.5041 32.1403C54.4041 32.9417 53.8933 33.913 53.4068 34.6901C53.8811 35.0423 54.3312 35.4308 54.7569 35.8315C54.9636 36.0258 53.5163 38.2478 52.8838 38.4057C52.4824 38.5028 52.0567 38.4057 51.6432 38.2843C50.8769 38.0779 50.0985 37.8593 49.3566 37.5557C48.8214 37.3372 48.2862 37.07 47.7146 37.1186C47.2037 37.1672 46.7537 37.4707 46.328 37.7622C45.6591 38.2236 45.0023 38.685 44.3333 39.1342C43.4576 39.7414 42.594 40.3363 41.7183 40.9434C41.548 41.0649 41.3656 41.1863 41.2561 41.3684C41.1466 41.5506 41.1345 41.8055 41.2804 41.9634C41.475 42.1577 41.8156 42.0727 42.0345 41.9148C42.2535 41.757 42.4481 41.5263 42.7035 41.4291C43.0319 41.3199 43.3846 41.4291 43.7252 41.3927C44.163 41.3441 44.5036 41.0284 44.8685 40.7977C46.2915 39.8871 48.1281 40.0328 49.8188 40.2149C50.6093 40.2999 51.4242 40.3849 52.1662 40.6763C52.823 40.9313 53.419 41.3563 54.1244 41.4656C54.4893 41.5263 54.8785 41.502 55.0974 42.0484C55.2434 42.4127 55.219 42.8376 55.0123 43.1655C54.6717 43.6876 54.0393 43.9426 53.4433 44.0883C52.8595 44.234 52.2513 44.2947 51.6553 44.2219C51.181 44.1612 50.7188 44.0276 50.2566 43.9305C49.0282 43.6755 47.6538 43.7847 46.6321 44.5254C45.6226 45.2661 45.1117 46.7596 45.732 47.8524C45.878 48.0953 46.0604 48.3138 46.1699 48.581C46.3159 48.9452 46.2915 49.3702 46.4375 49.7345C46.6686 50.293 47.2767 50.6209 47.8605 50.7666C48.4443 50.9123 49.0768 50.9487 49.6485 51.1551C49.9647 51.2766 50.5242 51.3008 50.5242 51.6408C50.5242 52.6244 51.631 54.5064 51.631 55.8178C51.631 57.0077 51.8013 57.2991 51.5702 58.7684C51.4851 59.3391 50.9985 59.7762 50.5607 60.1647C49.685 60.954 48.3835 61.2211 47.6903 62.1561C46.7172 63.4674 45.9753 64.961 45.0996 66.333C43.0076 69.6236 42.3386 73.582 41.2926 77.334C41.244 77.5282 41.1831 77.7225 41.0372 77.8682C40.8791 78.0382 40.6236 78.0989 40.3926 78.1111C39.6628 78.1597 38.9695 77.8197 38.2884 77.589C37.6073 77.3583 36.7802 77.2368 36.1842 77.6618C35.1625 76.739 34.9193 75.1969 33.9706 74.1891C33.3989 73.5699 32.6083 73.2177 31.8907 72.7685C31.1731 72.3192 30.6501 71.7728 30.4434 70.9471L30.4677 70.9835Z" fill="#986A55"/>
<path d="M17.5515 77.1157C17.5515 77.1157 17.4664 76.9943 17.4299 76.9336C14.1338 83.4298 10.8011 89.9866 6.19142 95.6206C3.27234 99.2026 -0.437323 101.595 0.0491904 106.439C0.535704 111.284 2.21417 116.032 4.63458 120.197C5.72923 122.079 7.05498 123.9 8.90373 125.041C13.4161 127.822 19.4124 125.636 23.6208 122.419C31.8915 116.093 36.9756 105.784 36.9391 95.3778C36.9269 91.128 36.112 86.8782 36.5742 82.6526C36.635 82.0577 36.7201 81.4384 36.4769 80.892C36.1971 80.2728 35.5647 79.9085 35.0052 79.5199C33.2659 78.3178 31.9766 76.5936 30.3103 75.2944C28.644 73.9952 26.3209 73.1574 24.4357 74.1045C23.1464 74.7601 22.3558 76.0958 21.2368 76.9943C20.1665 77.8564 18.3421 78.1478 17.5637 77.1036L17.5515 77.1157Z" fill="#59C27A"/>
<path d="M47.1562 56.9712C47.1562 56.9712 47.0954 56.9712 47.0711 56.9712C46.7427 56.9226 46.5116 56.6191 46.5602 56.2791C46.767 54.8341 46.9251 53.5471 46.7427 52.2721C46.5481 50.9 45.9399 49.7222 45.0642 49.0544C44.7966 48.848 44.748 48.4716 44.9426 48.2044C45.1494 47.9373 45.5264 47.8887 45.794 48.083C46.9495 48.9573 47.7035 50.3779 47.9468 52.1021C48.1414 53.5349 47.9833 54.9191 47.7644 56.4491C47.7157 56.7526 47.4603 56.9712 47.1684 56.9712H47.1562Z" fill="#1F1C2C"/>
<path d="M40.0779 43.0444C39.8468 43.0444 39.6157 42.9109 39.5184 42.6802C39.3846 42.3766 39.5184 42.0123 39.8346 41.8788C40.4549 41.5995 41.0509 41.2717 41.6226 40.8952C41.8293 40.7495 42.0361 40.6038 42.255 40.446C43.2159 39.7539 44.2132 39.0253 45.4782 38.9282C45.8066 38.916 46.1106 39.1468 46.135 39.4867C46.1593 39.8267 45.916 40.1181 45.5755 40.1424C44.6511 40.2153 43.8362 40.8102 42.9726 41.4295C42.7537 41.5874 42.5348 41.7452 42.3158 41.8909C41.6955 42.3159 41.0266 42.6802 40.3455 42.9837C40.2603 43.0202 40.1873 43.0323 40.1022 43.0323L40.0779 43.0444Z" fill="#1F1C2C"/>
<path d="M40.7094 36.8884C40.3931 36.8884 40.1255 36.6456 40.1012 36.3177C40.0769 35.9777 40.3323 35.6985 40.6729 35.6742C41.1837 35.6377 41.6094 35.237 42.1202 34.7756C42.3513 34.5571 42.5946 34.3385 42.8378 34.1564C43.3122 33.8043 43.823 33.5614 44.3096 33.3307C45.2339 32.8936 46.2799 32.3957 47.4476 32.335C48.2625 32.2986 49.0652 32.4686 49.7342 32.6629C51.0599 33.0271 52.3492 33.525 53.5776 34.1442C53.8817 34.2899 53.9912 34.6664 53.8452 34.9578C53.6993 35.2492 53.3222 35.3706 53.0303 35.2249C51.8748 34.6421 50.6586 34.1685 49.4179 33.8285C48.8463 33.6707 48.1652 33.5128 47.5205 33.5493C46.5962 33.5978 45.7083 34.0228 44.8447 34.4357C44.4069 34.6421 43.9568 34.8606 43.5798 35.1399C43.3609 35.2978 43.1662 35.492 42.9595 35.6742C42.3757 36.2206 41.7067 36.8398 40.7702 36.8884C40.758 36.8884 40.7458 36.8884 40.7337 36.8884H40.7094Z" fill="#1F1C2C"/>
<path d="M81.6618 65.9201C80.8956 65.5316 80.4456 64.7423 79.9712 64.0259C79.1441 62.7753 77.9765 61.5489 76.4805 61.4396C76.0791 61.4153 75.6534 61.476 75.3007 61.6825C74.7047 62.0589 74.4736 62.7753 74.279 63.4431C74.2182 63.6495 74.1574 63.8681 74.1695 64.0988C74.2303 64.7545 74.9236 65.1066 75.4953 65.4223C77.4048 66.4908 78.6941 68.385 80.3361 69.83C80.7375 70.1821 82.27 74.3469 82.8051 74.3105C83.0727 74.2862 82.2457 70.3521 82.4646 70.2064C83.3525 69.6114 84.0944 68.1907 84.0822 67.1101C84.0822 65.7744 82.5497 66.3815 81.6497 65.9201H81.6618Z" fill="#986A55"/>
<path d="M103.566 86.1251C101.912 82.616 100.246 79.119 98.5918 75.6099C98.2391 74.8571 97.8742 74.1042 97.6431 73.3029C97.2295 71.9186 97.2052 70.4494 97.1444 69.0045C96.962 64.2933 96.4876 59.582 95.7213 54.9315C95.5632 54.0087 95.2105 53.1345 94.724 52.3209C94.201 51.4467 93.8118 50.4874 93.5685 49.4918C93.3009 48.399 92.4131 47.5733 91.3184 47.3183L83.4247 46.4805C83.3882 46.6505 82.1598 46.6383 81.43 46.8205C81.1016 46.9055 80.7854 47.0512 80.53 47.2819C79.6299 48.0833 80.1408 49.0546 80.6273 49.8318C80.1529 50.1839 79.7029 50.5724 79.2772 50.9731C79.0704 51.1674 80.5178 53.3894 81.1503 53.5473C81.5517 53.6444 81.9773 53.5473 82.3909 53.4259C83.1571 53.2195 83.9356 53.0009 84.6775 52.6973C85.2127 52.4788 85.7478 52.2116 86.3195 52.2602C86.8303 52.3088 87.2803 52.6123 87.706 52.9038C88.375 53.3652 89.0318 53.8266 89.7007 54.2758C90.5765 54.883 91.44 55.4779 92.3158 56.085C92.486 56.2065 92.6685 56.3279 92.7779 56.51C92.8874 56.6922 92.8996 56.9471 92.7536 57.105C92.559 57.2993 92.2185 57.2143 91.9995 57.0564C91.7806 56.8986 91.586 56.6679 91.3306 56.5707C91.0022 56.4615 90.6494 56.5707 90.3089 56.5343C89.871 56.4857 89.5305 56.17 89.1656 55.9393C87.7425 55.0287 85.9059 55.1744 84.2153 55.3565C83.4247 55.4415 82.6098 55.5265 81.8679 55.8179C81.2111 56.0729 80.6151 56.4979 79.9097 56.6072C79.5448 56.6679 79.1556 56.6436 78.9366 57.19C78.7907 57.5543 78.815 57.9792 79.0218 58.3071C79.3623 58.8292 79.9948 59.0842 80.5908 59.2299C81.1746 59.3756 81.7827 59.4363 82.3787 59.3635C82.8531 59.3028 83.3153 59.1692 83.7774 59.0721C85.0059 58.8171 86.3803 58.9263 87.402 59.667C88.4237 60.4077 88.9223 61.9012 88.302 62.994C88.1561 63.2369 87.9736 63.4554 87.8642 63.7226C87.7182 64.0868 87.7425 64.5118 87.5966 64.8761C87.3655 65.4346 86.7573 65.7625 86.1735 65.9082C85.5897 66.0539 84.9572 66.0903 84.3856 66.2967C84.0694 66.4182 83.5099 66.4424 83.5099 66.7824C83.5099 67.766 82.403 69.648 82.403 70.9594C82.403 72.1493 82.2328 72.4407 82.4639 73.91C82.549 74.4807 83.0355 74.9178 83.4734 75.3063C84.3491 76.0956 85.6505 76.3627 86.3438 77.2977C87.3168 78.609 88.0588 80.1026 88.9345 81.4746C91.0265 84.7652 91.6955 88.7236 92.7415 92.4756C92.7901 92.6699 92.8509 92.8641 92.9969 93.0098C93.155 93.1798 93.4104 93.2405 93.6415 93.2527C94.3713 93.3013 95.0646 92.9613 95.7457 92.7306C96.4268 92.4999 97.2539 92.3784 97.8498 92.8034C98.8715 91.8806 99.1148 90.3385 100.063 89.3307C100.635 88.7115 101.426 88.3593 102.143 87.9101C102.861 87.4608 103.384 86.9144 103.591 86.0887L103.566 86.1251Z" fill="#986A55"/>
<path d="M86.8797 72.1131C86.5878 72.1131 86.3202 71.8946 86.2837 71.591C86.0648 70.0611 85.8945 68.6769 86.1012 67.2441C86.3445 65.532 87.0986 64.0992 88.2541 63.2249C88.5216 63.0185 88.8987 63.0792 89.1055 63.3464C89.3122 63.6135 89.2514 63.9899 88.9838 64.1963C88.1081 64.8642 87.4878 66.0298 87.3054 67.414C87.1229 68.689 87.281 69.9882 87.4878 71.421C87.5365 71.7489 87.3054 72.0646 86.977 72.1131C86.9526 72.1131 86.9162 72.1131 86.8918 72.1131H86.8797Z" fill="#1F1C2C"/>
<path d="M93.9583 58.1852C93.8731 58.1852 93.788 58.1731 93.715 58.1367C93.0217 57.8331 92.3649 57.4688 91.7446 57.0439C91.5257 56.8981 91.3068 56.7403 91.0878 56.5703C90.2243 55.9389 89.4094 55.3561 88.485 55.2832C88.1444 55.2589 87.9012 54.9675 87.9255 54.6275C87.9498 54.2997 88.2417 54.0447 88.5823 54.069C89.8472 54.1661 90.8446 54.8947 91.8054 55.5868C92.0122 55.7325 92.219 55.8903 92.4379 56.036C92.9974 56.4125 93.6055 56.7524 94.2259 57.0196C94.5299 57.1531 94.6759 57.5174 94.5421 57.821C94.4448 58.0517 94.2137 58.1852 93.9826 58.1852H93.9583Z" fill="#1F1C2C"/>
<path d="M93.326 52.0297C93.326 52.0297 93.3016 52.0297 93.2895 52.0297C92.3529 51.969 91.684 51.3498 91.1002 50.8155C90.8934 50.6334 90.6988 50.4391 90.4799 50.2812C90.115 50.002 89.6771 49.7956 89.2149 49.577C88.3514 49.1642 87.4513 48.7392 86.5391 48.6906C85.8945 48.642 85.2255 48.812 84.6417 48.9699C83.4011 49.3099 82.1848 49.7834 81.0294 50.3662C80.7253 50.5241 80.3604 50.4027 80.2144 50.0991C80.0685 49.7956 80.178 49.4313 80.482 49.2856C81.7105 48.6663 82.9997 48.1685 84.3255 47.8042C84.9944 47.6221 85.785 47.4399 86.6121 47.4764C87.7676 47.5371 88.8257 48.0349 89.7501 48.472C90.2488 48.7027 90.7596 48.9456 91.2218 49.3099C91.4651 49.492 91.7083 49.7106 91.9394 49.9291C92.4381 50.3905 92.8759 50.7912 93.3868 50.8277C93.7273 50.8519 93.9828 51.1312 93.9584 51.4712C93.9341 51.7869 93.6665 52.0419 93.3503 52.0419L93.326 52.0297Z" fill="#1F1C2C"/>
<path d="M19.9118 80.2113C19.6564 80.2113 19.4132 80.0413 19.328 79.7863C19.2307 79.4706 19.401 79.1307 19.7294 79.0214C22.5147 78.1471 25.0324 76.5443 26.9906 74.3709C27.2582 74.0673 27.6231 74.0552 27.842 74.043C27.842 74.043 27.8663 74.043 27.8785 74.043C28.2555 73.6302 28.6083 73.1809 28.9245 72.7195C29.1799 72.331 29.411 71.9303 29.6421 71.5296C30.6516 69.7689 31.6855 67.9597 32.1476 65.9927C32.2328 65.6163 32.3544 65.1306 32.7071 64.7906C32.8774 63.9892 33.2301 63.2485 33.7531 62.605C33.7775 62.4107 33.8991 62.2407 34.0815 62.1436C34.337 62.01 34.6897 62.095 34.8721 62.3257C35.0667 62.5807 35.0546 62.9692 34.8235 63.2242C34.3126 63.807 33.9842 64.487 33.8504 65.2277L33.8018 65.4948L33.5707 65.6405C33.4612 65.7134 33.3761 66.0291 33.3274 66.2598C32.8288 68.409 31.7463 70.3032 30.7003 72.1245C30.457 72.5495 30.2138 72.9745 29.9462 73.3752C29.557 73.958 29.1191 74.5166 28.6326 75.0144L28.4015 75.1601C28.219 75.2208 28.0488 75.233 27.915 75.2451C27.8907 75.2451 27.8663 75.2451 27.842 75.2451C25.75 77.54 23.0742 79.2399 20.1064 80.1627C20.0456 80.187 19.9848 80.187 19.924 80.187L19.9118 80.2113Z" fill="#1F1C2C"/>
<path d="M28.6323 118.448C28.4741 118.448 28.3039 118.387 28.1822 118.254C27.9511 118.011 27.9633 117.622 28.2187 117.392C29.5201 116.19 30.5905 114.696 31.3324 113.081C31.6 112.498 31.8189 111.903 32.05 111.308L32.3298 110.568C33.1568 108.431 34.2028 106.366 35.2124 104.375L35.5651 103.683C35.8813 103.064 36.0394 102.384 36.2097 101.667C36.307 101.279 36.4043 100.89 36.5138 100.514C36.6354 100.113 36.7692 99.6882 36.7935 99.2875C36.8178 98.9111 36.7449 98.5104 36.6719 98.0854L36.0394 94.5155C35.5407 91.6864 35.7597 88.7358 35.9786 85.8824C36.0759 84.6438 36.1732 83.3568 36.1975 82.1304C36.2097 81.499 36.38 81.0619 36.7084 80.7947C36.8057 80.4305 37.0489 79.9205 37.5598 79.969L38.1436 80.0298L38.1193 80.7219C38.1071 80.8919 38.022 81.0497 37.9003 81.1469C37.876 81.2076 37.8638 81.2561 37.8638 81.2804L37.7909 81.6083L37.4746 81.7418C37.4746 81.7418 37.4503 81.8511 37.4381 82.1425C37.4017 83.4053 37.3044 84.6924 37.2192 85.9552C37.0124 88.7358 36.7935 91.6135 37.2679 94.2848L37.9003 97.8547C37.9733 98.3039 38.0706 98.8139 38.0341 99.3239C37.9976 99.8703 37.8395 100.38 37.7057 100.842C37.5963 101.206 37.5111 101.57 37.4138 101.934C37.2314 102.687 37.0368 103.464 36.6719 104.205L36.3192 104.897C35.3218 106.864 34.3001 108.904 33.4852 110.993L33.2055 111.721C32.9744 112.34 32.7311 112.972 32.4514 113.567C31.6486 115.327 30.4688 116.942 29.058 118.266C28.9363 118.375 28.7904 118.424 28.6444 118.424L28.6323 118.448Z" fill="#1F1C2C"/>
<path d="M104.272 127.7C104.138 127.7 103.993 127.651 103.883 127.554C102.411 126.304 101.171 124.725 100.295 123.013C99.9909 122.418 99.7233 121.811 99.4679 121.192L99.1639 120.475C98.2638 118.423 97.1448 116.432 96.0745 114.513L95.6975 113.833C95.2961 113.105 95.065 112.34 94.8582 111.599C94.7487 111.235 94.6514 110.883 94.5298 110.531C94.3595 110.057 94.1893 109.572 94.1406 109.037C94.092 108.515 94.1528 108.029 94.2136 107.556L94.6879 103.962C95.0407 101.266 94.7001 98.4006 94.3717 95.6321C94.2257 94.3815 94.0676 93.0944 93.9825 91.8437C93.9582 91.5037 93.8974 91.4188 93.8852 91.4188L93.5325 91.3095V90.9816C93.5325 90.9816 93.496 90.9088 93.4716 90.8481C93.3379 90.7509 93.2527 90.6174 93.2284 90.4474C93.1919 90.1195 93.423 89.7188 93.7514 89.6703C94.2622 89.5974 94.5177 90.0952 94.6393 90.4595C94.9677 90.7024 95.1623 91.1395 95.1988 91.7709C95.2839 92.9973 95.4299 94.2722 95.5758 95.5107C95.9164 98.352 96.2691 101.29 95.8921 104.132L95.4177 107.726C95.3569 108.151 95.3082 108.552 95.3447 108.928C95.3812 109.329 95.5272 109.717 95.6731 110.142C95.8069 110.519 95.9164 110.907 96.0258 111.284C96.2326 111.988 96.4272 112.656 96.7678 113.263L97.1448 113.943C98.2395 115.886 99.3585 117.913 100.295 120.014L100.611 120.742C100.867 121.325 101.11 121.92 101.402 122.491C102.205 124.069 103.348 125.514 104.698 126.668C104.953 126.886 104.978 127.275 104.771 127.53C104.649 127.676 104.479 127.749 104.309 127.749L104.272 127.7Z" fill="#1F1C2C"/>
<path d="M122.262 109.281H122.25C121.909 109.281 121.654 108.989 121.654 108.662C121.739 105.007 119.209 101.753 117.068 99.6762C116.132 98.7655 115.122 97.8913 114.137 97.0535C112.386 95.56 110.573 94.0057 109.114 92.148C108.664 91.5773 108.238 90.9823 107.812 90.3752C106.499 88.5174 105.258 86.7689 103.349 85.9918C103.032 85.8704 102.887 85.5061 103.02 85.2026C103.142 84.8869 103.495 84.7412 103.811 84.8747C106.049 85.7854 107.46 87.7646 108.81 89.6831C109.223 90.2659 109.637 90.8487 110.075 91.3951C111.473 93.1558 113.237 94.6736 114.94 96.1306C115.937 96.9806 116.971 97.867 117.932 98.802C121.252 102.032 122.967 105.456 122.882 108.686C122.882 109.014 122.602 109.281 122.274 109.281H122.262Z" fill="#1F1C2C"/>
<path d="M64.0128 40.1177C64.0128 40.1177 63.8912 40.1177 63.8304 40.1177C63.0641 40.0813 62.3708 39.6441 61.9816 38.9642C61.5681 38.2235 61.5681 37.3128 61.9694 36.5721C63.4655 33.8644 64.1588 30.6952 63.9277 27.6475C63.9033 27.3075 64.1588 27.0161 64.4872 26.9918C64.8277 26.9676 65.1196 27.2225 65.1439 27.5504C65.3872 30.8288 64.6453 34.2408 63.0398 37.1428C62.833 37.5192 62.833 37.9806 63.0398 38.357C63.1492 38.5513 63.4047 38.867 63.879 38.8913C64.3655 38.9035 64.8277 38.7942 65.1926 38.5513C65.4723 38.3692 65.8494 38.442 66.0318 38.7213C66.2143 39.0006 66.1413 39.377 65.8616 39.5591C65.3264 39.9113 64.6818 40.1055 64.0006 40.1055L64.0128 40.1177Z" fill="black"/>
<path d="M59.9262 47.9255C59.61 47.9255 59.3424 47.6826 59.3181 47.3669C59.2938 47.0391 59.537 46.7355 59.8776 46.7113C61.629 46.5656 62.8818 46.0191 63.9886 45.5456C65.5333 44.8778 66.9807 44.2585 69.1578 44.9749C69.474 45.0842 69.6443 45.4242 69.547 45.7399C69.4497 46.0556 69.097 46.2377 68.7808 46.1284C67.0536 45.5577 65.9711 46.0192 64.4751 46.6627C63.2832 47.1727 61.9331 47.7555 59.987 47.9134C59.9749 47.9134 59.9505 47.9134 59.9384 47.9134L59.9262 47.9255Z" fill="black"/>
<path d="M75.8488 26.5304C75.6542 26.5304 75.4596 26.4333 75.3379 26.2511C74.146 24.4298 71.6648 23.5191 69.5849 24.1384C69.2565 24.2355 68.9281 24.0534 68.8308 23.7255C68.7335 23.4098 68.916 23.0698 69.2444 22.9727C71.8715 22.1956 74.8636 23.3005 76.3596 25.5954C76.5421 25.8747 76.4691 26.2511 76.1772 26.4333C76.0799 26.5061 75.9582 26.5304 75.8488 26.5304Z" fill="black"/>
<path d="M72.808 32.6623C73.8626 32.6623 74.7176 31.8088 74.7176 30.756C74.7176 29.7031 73.8626 28.8496 72.808 28.8496C71.7534 28.8496 70.8984 29.7031 70.8984 30.756C70.8984 31.8088 71.7534 32.6623 72.808 32.6623Z" fill="black"/>
<path d="M53.079 26.9916C52.9938 26.9916 52.9087 26.9795 52.8357 26.943C52.5316 26.8095 52.3857 26.4452 52.5316 26.1416C53.6506 23.6403 56.4359 22.0861 59.1482 22.4382C59.4766 22.4868 59.7199 22.7904 59.6712 23.1182C59.6347 23.4461 59.3307 23.6768 58.9901 23.6403C56.8251 23.3611 54.5263 24.6481 53.6385 26.6395C53.5412 26.8702 53.3101 27.0037 53.079 27.0037V26.9916Z" fill="black"/>
<path d="M57.1908 32.6623C58.2454 32.6623 59.1004 31.8088 59.1004 30.756C59.1004 29.7031 58.2454 28.8496 57.1908 28.8496C56.1362 28.8496 55.2812 29.7031 55.2812 30.756C55.2812 31.8088 56.1362 32.6623 57.1908 32.6623Z" fill="black"/>
<path d="M65.1939 57.8703C64.6831 57.8703 64.1844 57.8339 63.6735 57.761C60.9369 57.3603 58.3949 55.8911 56.7042 53.7055C56.4975 53.4384 56.5461 53.062 56.8137 52.8555C57.0813 52.6491 57.4583 52.6977 57.6651 52.9648C59.1733 54.8955 61.4234 56.2068 63.856 56.559C66.2886 56.9111 68.8184 56.2918 70.8131 54.859C71.6645 54.2519 72.4673 53.4627 73.4403 52.3091C73.6592 52.0542 74.0363 52.0177 74.2917 52.2363C74.5471 52.4548 74.5836 52.8313 74.3647 53.0862C73.3308 54.3126 72.4429 55.1626 71.5186 55.8304C69.682 57.1418 67.444 57.8582 65.1939 57.8582V57.8703Z" fill="black"/>
<path d="M50.9995 10.3084C53.2009 6.37431 56.9836 3.4723 61.1676 1.77237C69.7302 -1.72461 80.397 -0.0125473 86.8555 6.60502C93.3018 13.2226 93.0707 27.8541 87.5731 35.273C87.5488 32.9903 87.0866 29.6026 84.8243 29.8818C82.562 30.1611 81.5525 33.8888 80.2876 36.3658C79.3632 33.816 78.6456 28.0969 77.6482 25.5713C76.6509 23.0457 76.1644 20.1316 77.3077 17.6667C71.3236 18.893 65.0475 18.7352 59.1242 17.2053C57.7012 16.841 56.193 16.3917 54.7943 16.8288C52.5928 17.5088 52.2887 26.5184 50.3913 24.7092C48.1534 22.56 49.8318 12.409 51.0116 10.3084H50.9995Z" fill="black"/>
<path d="M85.59 36.9847C85.371 36.9847 85.1521 36.9239 84.9575 36.8025C84.3859 36.4504 84.2034 35.7097 84.5561 35.1269C84.9332 34.5076 85.1521 33.7669 85.1521 33.0384C85.1521 32.8927 85.1521 32.7713 85.1278 32.6863C85.0791 32.747 85.0062 32.8198 84.9453 32.917C84.6291 33.4027 84.4102 33.9491 84.3129 34.5198C84.2034 35.1755 83.5709 35.6247 82.9142 35.5154C82.2574 35.4062 81.8073 34.7748 81.9168 34.1191C82.0628 33.2205 82.4155 32.3342 82.9142 31.5813C83.6318 30.5007 84.6534 29.9664 85.663 30.185C86.3562 30.3307 86.9644 30.8285 87.2928 31.5206C87.5604 32.1034 87.5847 32.6863 87.5847 33.0748C87.5847 34.2526 87.2441 35.4062 86.6238 36.414C86.3927 36.7904 85.9914 36.9968 85.59 36.9968V36.9847Z" fill="black"/>
<path d="M76.724 18.7961C76.5416 18.7961 76.3591 18.7111 76.2375 18.5532C76.0429 18.2861 76.0916 17.9097 76.3591 17.7032C77.466 16.8897 79.0593 15.5419 79.9715 14.5705L80.1175 14.4127C80.4823 14.012 80.8837 13.5749 81.431 13.3199C81.6135 12.8099 81.8689 12.3242 82.1973 11.8871C82.3919 11.6199 82.7811 11.5592 83.0487 11.7535C83.3163 11.9478 83.3771 12.3363 83.1825 12.6035C82.8784 13.0163 82.6595 13.4656 82.5135 13.9513C82.4527 14.1455 82.3068 14.2913 82.1243 14.352C81.7229 14.4855 81.3824 14.8498 81.0297 15.2384L80.8715 15.4083C79.9107 16.4404 78.2444 17.8368 77.1011 18.6868C76.9916 18.7718 76.87 18.8082 76.7362 18.8082L76.724 18.7961Z" fill="#986A55"/>
<path d="M69.2914 76.0834C70.1184 77.7104 71.0428 79.4468 72.6726 80.2725C73.2808 76.3141 73.8889 72.3557 74.4971 68.4094C74.3146 69.5872 65.3993 68.0937 64.4141 67.8145C66.8831 68.628 68.2332 73.9949 69.2914 76.0834Z" fill="#986A55"/>
<path d="M82.2947 54.3363C82.2947 54.3363 82.2339 54.3363 82.2096 54.3363L80.1419 54.0206C79.9594 53.9963 79.7162 53.9599 79.4851 53.8263C79.2053 53.6685 79.0351 53.4256 78.9134 53.2556C78.6945 52.9521 78.4512 52.5999 78.3053 52.1749C78.1228 51.6164 78.1715 51.0579 78.4512 50.6329C78.6337 50.3657 78.8648 50.1715 79.1202 50.05C78.8283 49.6372 78.6215 49.1637 78.6459 48.6172C78.6945 47.5852 79.5946 46.9052 80.0689 46.5288C80.2513 46.3952 80.7135 46.0309 81.273 46.2131C81.5893 46.3224 81.7595 46.6623 81.6622 46.978C81.5649 47.2694 81.273 47.4394 80.969 47.3787C80.9446 47.3909 80.896 47.4273 80.8108 47.488C80.3608 47.8401 79.8743 48.2408 79.85 48.678C79.8256 49.0908 80.2027 49.5158 80.5919 49.9165L81.346 50.7057L80.2878 50.9364C79.9473 51.0093 79.5824 51.1064 79.4608 51.2886C79.3878 51.3978 79.3878 51.5921 79.4486 51.7864C79.5337 52.0414 79.7162 52.2964 79.8986 52.5514C79.9473 52.6242 80.0324 52.7456 80.0811 52.7699C80.1176 52.7942 80.2392 52.8063 80.3243 52.8185L82.392 53.1342C82.7204 53.1828 82.9515 53.4985 82.9028 53.8263C82.8542 54.1299 82.5988 54.3484 82.3069 54.3484L82.2947 54.3363Z" fill="#1F1C2C"/>
<path d="M83.5348 60.3959C83.5348 60.3959 83.4861 60.3959 83.4618 60.3959C83.2064 60.3959 82.9753 60.3231 82.7685 60.2623C82.6834 60.2381 82.5861 60.2138 82.5009 60.1895C82.282 60.1409 82.0266 60.1409 81.7711 60.1409C81.3698 60.1409 80.9197 60.1409 80.4697 59.9709C80.0562 59.8252 79.7156 59.5581 79.4724 59.3517C78.5602 58.5746 78.4629 57.8582 78.548 57.3968C78.7183 56.4618 79.6548 56.049 80.1048 55.8425C80.9441 55.4661 81.8198 55.0776 82.7685 54.859C83.0969 54.7862 83.4253 54.9804 83.4983 55.3083C83.5712 55.6361 83.3766 55.964 83.0482 56.0368C82.2212 56.2311 81.3941 56.5954 80.6035 56.9475C80.2265 57.1175 79.7886 57.336 79.7399 57.6032C79.7035 57.8096 79.8981 58.101 80.2629 58.4167C80.4454 58.5746 80.6522 58.7324 80.8833 58.8174C81.1387 58.9145 81.4549 58.9145 81.7833 58.9145C82.0995 58.9145 82.4158 58.9145 82.7563 58.9874C82.878 59.0117 82.9874 59.0481 83.1091 59.0724C83.255 59.121 83.401 59.1574 83.5226 59.1574C83.7172 59.1574 83.924 59.0724 84.0456 58.9145C84.2524 58.6474 84.6294 58.5867 84.897 58.7931C85.1646 58.9995 85.2254 59.376 85.0186 59.6431C84.6781 60.0923 84.1186 60.3716 83.5469 60.3716L83.5348 60.3959Z" fill="#1F1C2C"/>
<path d="M78.0122 68.9433C77.8176 68.9433 77.6351 68.8462 77.5135 68.6762L75.908 66.3691C75.8107 66.2234 75.6283 65.9563 75.6526 65.6042C75.6891 65.1428 76.054 64.8756 76.2121 64.7663C76.7473 64.3778 77.5013 63.8435 78.3892 63.8557C79.0947 63.8557 79.7028 64.2078 80.1893 64.4749L81.5394 65.2278C81.8313 65.3977 81.9408 65.762 81.7705 66.0534C81.6002 66.3448 81.2353 66.4541 80.9434 66.2841L79.5934 65.5313C79.2041 65.3128 78.7785 65.0699 78.3771 65.0699C77.9027 65.0699 77.4405 65.3735 76.9175 65.7499C76.9175 65.7499 76.9175 65.7499 76.9054 65.7499L78.5109 67.9841C78.7055 68.2633 78.6325 68.6397 78.3527 68.834C78.2433 68.9069 78.1217 68.9433 78.0122 68.9433Z" fill="#1F1C2C"/>
<path d="M52.1065 39.1462C51.851 39.1462 51.5956 39.1462 51.3402 39.122C50.9996 39.1098 50.7442 38.8184 50.7686 38.4784C50.7807 38.1384 51.0726 37.8956 51.4132 37.9077C52.0213 37.9441 52.6416 37.932 53.2498 37.8834C53.42 37.8713 53.6025 37.847 53.7363 37.7863C53.9431 37.6892 54.1133 37.3977 54.1498 37.0578C54.1863 36.6571 54.0768 36.2199 53.9674 35.7828C53.8822 35.455 53.7971 35.37 53.7971 35.37V34.18C53.7971 34.18 53.9309 34.0829 53.943 33.9372C53.9674 33.7065 53.8822 33.4151 53.7849 33.1358C53.7484 33.0022 53.6998 32.8565 53.639 32.7958C53.5782 32.7351 53.4322 32.6622 53.3592 32.6258C52.5565 32.2494 51.7173 31.9944 50.8415 31.8608C50.5131 31.8123 50.282 31.5087 50.3307 31.1687C50.3793 30.8409 50.6834 30.598 51.024 30.6588C52.0213 30.8045 52.9822 31.0959 53.8944 31.533C54.1255 31.6423 54.3687 31.7758 54.5755 32.0066C54.7944 32.2615 54.8918 32.553 54.9526 32.7715C55.0742 33.1358 55.2201 33.5972 55.1593 34.095C55.1228 34.3622 55.0255 34.605 54.8918 34.8114C55.0012 34.9936 55.0864 35.2121 55.1593 35.4914C55.281 36.0014 55.4269 36.5721 55.3661 37.1792C55.2931 37.9441 54.8674 38.5998 54.2593 38.8791C53.9552 39.0248 53.639 39.0612 53.3592 39.0855C52.9457 39.1219 52.5322 39.1341 52.1186 39.1341L52.1065 39.1462Z" fill="#1F1C2C"/>
<path d="M52.4706 45.1932C52.2638 45.1932 52.0692 45.1568 51.8868 45.0718C51.5827 44.9382 51.4368 44.5861 51.5584 44.2825C51.6922 43.979 52.0449 43.8333 52.3611 43.9547C52.4706 44.0032 52.6652 43.9547 52.8598 43.8575C53.0058 43.7847 53.1396 43.6875 53.2733 43.6025C53.4193 43.5054 53.5774 43.3961 53.7355 43.3111C53.8572 43.2383 53.9788 43.1776 54.1126 43.1169C54.3923 42.9833 54.6599 42.8497 54.745 42.6797C54.8059 42.5583 54.7572 42.3519 54.6477 42.194C54.514 42.0119 54.295 41.8419 53.9423 41.6719C53.4558 41.4291 52.7503 41.1862 52.1057 41.3684C51.7773 41.4655 51.4489 41.2591 51.3638 40.9434C51.2786 40.6155 51.4732 40.2877 51.7895 40.2027C52.5922 39.9841 53.5166 40.1177 54.4775 40.5913C54.8059 40.7491 55.2924 41.0284 55.6208 41.4898C56.01 42.024 56.083 42.6797 55.8397 43.214C55.5721 43.7725 55.0491 44.0154 54.6356 44.2218C54.5261 44.2704 54.4288 44.3189 54.3315 44.3797C54.2099 44.4525 54.0883 44.5375 53.9666 44.6104C53.7963 44.7318 53.6139 44.8532 53.4315 44.9503C53.1152 45.1203 52.7868 45.2053 52.4828 45.2053L52.4706 45.1932Z" fill="#1F1C2C"/>
</g>
<defs>
<clipPath id="clip0_11603_4647">
<rect width="147" height="129" fill="white"/>
</clipPath>
</defs>
</svg>
