<svg width="135" height="134" viewBox="0 0 135 134" fill="none" xmlns="http://www.w3.org/2000/svg">
<g clip-path="url(#clip0_11603_5147)">
<path d="M41.1929 44.5948C41.4687 42.9256 42.2525 41.3715 42.6154 39.731C43.5733 35.227 41.3236 30.2193 43.3991 26.1038C44.1684 24.5784 45.4457 23.3697 46.3891 21.9451C48.3196 18.9663 48.5954 15.2393 49.8291 11.9153C51.4692 7.49755 54.8947 3.77056 59.1765 1.75596C63.4583 -0.25863 68.5384 -0.546429 73.0234 0.993296C77.2036 2.4179 80.8032 5.32467 85.0995 6.36075C86.7832 6.76367 88.554 6.87878 90.1215 7.59828C92.8793 8.8646 94.4904 11.6994 95.9128 14.3616C97.4949 17.3259 99.1351 20.6068 98.4674 23.9021C98.032 26.0174 96.6531 28.0896 97.2192 30.1761C97.7707 32.2051 100.064 33.5577 100.224 35.6731C100.383 37.8028 98.2497 39.731 98.7577 41.8032C99.2512 43.8034 101.777 44.4365 103.257 45.9043C105.797 48.4226 104.709 52.6244 105.231 56.1644C98.061 59.5604 89.7296 59.4021 82.1095 61.6325C79.4243 62.424 76.8117 63.5032 74.0394 63.8342C71.5429 64.122 69.0319 63.791 66.5354 63.5608C62.718 63.1866 58.8862 63.0284 55.0543 63.0715C52.3837 63.1003 49.4953 63.1579 47.3471 61.5894C44.9087 59.805 44.5748 56.74 43.6314 54.0922C42.5283 50.9552 40.6269 48.0916 41.2074 44.6236L41.1929 44.5948Z" fill="black"/>
<path d="M133.534 101.809C134.376 103.248 134.651 104.917 134.898 106.558C135.609 111.019 131.894 123.667 129.005 125.193C125.333 127.135 120.863 125.308 117.132 123.495C115.492 122.689 113.838 121.897 112.197 121.092C111.065 120.545 109.904 119.969 109.033 119.048C105.376 115.206 108.38 107.248 103.721 104.687C103.271 106.414 102.197 107.896 101.573 109.565C100.934 111.235 100.847 113.321 102.139 114.573C102.792 115.206 103.706 115.523 104.359 116.156C105.913 117.71 105.23 120.286 104.838 122.444C103.866 127.826 105.521 133.409 108.336 138.101C73.0516 137.942 44.5595 140.892 9.59388 136.302C7.15544 135.985 4.58636 135.539 2.71398 133.942C0.609365 132.143 -0.188937 129.179 0.028782 126.43C0.231986 123.682 1.29155 121.077 2.36563 118.53C7.27155 106.774 25.4873 69.849 26.634 68.8129C28.2596 67.3452 29.4353 65.4601 30.7561 63.7045C37.5635 54.5957 48.551 48.6814 59.9739 47.9763C65.1992 47.6597 70.3228 46.2927 75.5481 46.2063C78.2333 46.1632 80.8894 46.7532 83.5166 47.3287C89.0176 48.5519 94.5041 49.7607 100.005 50.9838C99.7439 51.4155 106.711 54.4806 109.28 57.229C110.862 58.9127 111.472 61.4885 113.475 62.654C113.997 62.9562 114.592 63.1433 115.042 63.5462C115.594 64.0211 115.855 64.7262 116.131 65.4025C118.685 71.5614 123.925 76.2382 127.031 82.138C128.526 84.9729 129.499 88.0523 130.471 91.103C130.791 92.1103 132.082 99.2621 133.563 101.809H133.534Z" fill="#59C27A"/>
<path d="M59.6836 28.0465C59.9304 29.0826 60.4964 30.0611 61.4979 30.4352C64.5605 31.572 67.057 29.4135 67.9279 26.8953C68.5375 25.1253 68.4794 23.2115 68.2617 21.3551C71.2517 22.0459 74.6046 19.9449 75.2432 16.9662C75.4609 15.9301 75.4755 14.7214 76.3173 14.0738C76.5931 13.858 76.9414 13.7429 77.2898 13.6565C79.7427 13.0378 82.3554 13.2104 84.5906 14.3904C90.7303 17.6282 91.1802 24.0605 91.4415 29.9172C91.5866 33.342 91.7318 36.7812 91.8914 40.206C91.964 41.7889 92.0221 43.4005 91.6882 44.9403C91.3399 46.5088 90.5996 47.9766 90.2077 49.5451C89.5546 52.1352 89.9175 54.8837 89.4094 57.5027C88.9595 59.8195 87.8419 61.9636 87.0871 64.194C85.5195 68.842 85.4905 73.8353 85.0551 78.7135C84.7648 82.0088 84.2277 85.3904 82.9795 88.4123C82.3263 89.9808 80.2653 90.2974 79.046 89.1174C78.9444 89.0167 78.8428 88.916 78.7412 88.8296C77.7252 87.9374 76.506 87.2179 75.8238 86.0667C75.3593 85.2753 75.1852 84.3543 74.8368 83.5053C74.5175 82.6851 74.0385 81.9224 73.545 81.1886C71.9484 78.8862 70.3663 76.5838 68.7697 74.2958C65.2862 69.3456 61.9479 64.2516 57.9854 59.6612C57.1 58.6395 56.1275 57.5315 55.9969 56.1932C55.7937 54.1067 58.1596 52.236 60.1626 52.8835C59.9449 48.7392 60.2932 44.5661 61.2222 40.5226C58.6821 40.8535 56.3598 38.9684 54.8793 36.8963C53.3698 34.781 52.3102 32.0181 53.2827 29.6006C54.2406 27.1975 59.103 25.6002 59.6836 28.0753V28.0465Z" fill="#986A55"/>
<path d="M70.8745 48.1782C70.9325 49.5596 72.1953 50.5669 73.342 51.3584C75.9836 53.2003 78.6253 55.0422 81.2669 56.8841C83.1103 58.1648 88.9741 69.3314 89.6854 73.5621C90.2805 77.0876 91.3545 80.5268 92.6463 83.8653C93.6188 86.3835 94.7074 88.8442 95.9266 91.2473C97.2765 93.9239 98.7715 96.5284 100.281 99.133C101.036 100.442 101.776 101.738 102.531 103.047C103.619 104.947 104.708 106.832 105.797 108.731C106.29 109.58 106.769 110.429 107.263 111.278C107.8 112.199 108.351 113.163 109.251 113.739C109.28 112.185 110.238 110.818 111.094 109.523C115.623 102.601 117.916 94.2692 117.568 86.0238C111.544 76.7566 104.81 67.8349 97.4942 59.5319C97.2039 59.2153 96.9281 58.8843 96.7249 58.5102C96.5508 58.1936 96.4491 57.8483 96.304 57.5173C95.9702 56.7258 95.4477 56.0351 94.9396 55.3444C93.5898 53.4737 92.327 51.5455 91.1658 49.5453C90.7594 48.8545 90.353 48.1063 90.3966 47.3004C90.4546 46.1636 88.5387 40.2781 88.6548 38.8535C88.7709 37.4289 89.0903 35.9755 88.7709 34.5797C88.6984 34.2775 88.5968 33.9753 88.379 33.7451C87.6243 32.9105 86.1583 33.5436 85.5777 34.5078C84.9972 35.4719 85.6213 38.3643 84.9681 39.2852C81.804 39.3428 77.6383 35.4143 74.8515 33.9322C74.0387 33.5005 72.9355 33.0256 72.2969 33.6875C71.6438 34.3495 72.4421 36.9828 73.2404 37.4721C74.0387 37.9614 75.0402 38.1196 75.7514 38.7096C74.1838 38.3355 72.4421 39.7169 72.4711 41.3142C72.4711 41.6883 72.5582 42.0769 72.3695 42.4078C72.2388 42.6525 71.9776 42.7964 71.7889 42.9978C71.3825 43.4008 71.2373 43.9764 71.1067 44.5376C70.7584 45.9766 70.8019 46.768 70.8745 48.2358V48.1782Z" fill="#986A55"/>
<path d="M75.2717 27.4274C74.5025 27.4274 73.6896 27.1828 72.8333 26.5352C72.514 26.2906 72.4559 25.8445 72.6881 25.5279C72.9349 25.2113 73.3848 25.1538 73.7041 25.384C74.8798 26.2618 75.8378 26.1899 77.6086 25.0818C77.9424 24.866 78.3924 24.9667 78.6101 25.2977C78.8278 25.6287 78.7262 26.0747 78.3924 26.2906C77.4054 26.9094 76.3748 27.4274 75.2717 27.4274Z" fill="black"/>
<path d="M73.6034 31.025C73.4002 31.025 73.2115 30.9531 73.0664 30.7948C72.7906 30.507 72.8196 30.0465 73.1099 29.7731C74.6049 28.4204 76.1144 28.5355 77.9142 29.1111C78.2916 29.2407 78.5093 29.6436 78.3787 30.0177C78.2481 30.3919 77.8417 30.6077 77.4643 30.4782C75.7951 29.9458 74.9823 30.0321 74.0824 30.8379C73.9373 30.9674 73.7631 31.025 73.5889 31.025H73.6034Z" fill="black"/>
<path d="M87.0725 27.4274C86.3032 27.4274 85.4904 27.1828 84.6341 26.5352C84.3147 26.2906 84.2567 25.8445 84.4889 25.5279C84.7357 25.2113 85.1856 25.1538 85.5049 25.384C86.6806 26.2618 87.6386 26.1899 89.4093 25.0818C89.7432 24.866 90.1931 24.9667 90.4109 25.2977C90.6286 25.6287 90.527 26.0747 90.1931 26.2906C89.2061 26.9094 88.1756 27.4274 87.0725 27.4274Z" fill="black"/>
<path d="M85.4042 31.025C85.201 31.025 85.0123 30.9531 84.8672 30.7948C84.5914 30.507 84.6204 30.0465 84.9107 29.7731C86.4057 28.4204 87.9152 28.5355 89.715 29.1111C90.0924 29.2407 90.3101 29.6436 90.1795 30.0177C90.0489 30.3919 89.6424 30.6077 89.2651 30.4782C87.5959 29.9458 86.7831 30.0321 85.8832 30.8379C85.738 30.9674 85.5639 31.025 85.3897 31.025H85.4042Z" fill="black"/>
<path d="M85.3886 34.7952C85.2579 34.7952 85.1273 34.7664 85.0112 34.6801C84.5467 34.3923 84.2709 33.9606 84.0387 33.5865L83.8791 33.3418C83.7629 33.1692 83.4726 32.7662 83.1678 32.3345C82.7759 31.7733 82.3405 31.1689 82.1518 30.8811L81.9922 30.6509C81.789 30.3775 81.5567 30.0609 81.4406 29.6436C81.3535 29.3126 81.3535 28.9961 81.3535 28.7227V26.9959C81.3535 26.5929 81.6728 26.2764 82.0792 26.2764C82.4857 26.2764 82.805 26.5929 82.805 26.9959V28.7227C82.805 28.9241 82.805 29.1112 82.8485 29.2407C82.8921 29.4134 83.0372 29.6004 83.1824 29.8019L83.371 30.0753C83.5597 30.3487 83.9807 30.9387 84.358 31.4855C84.6774 31.9316 84.9676 32.3489 85.0838 32.5216L85.2579 32.8094C85.4176 33.0684 85.5773 33.3274 85.7659 33.4426C86.0998 33.6584 86.2159 34.0901 85.9982 34.4355C85.8675 34.6513 85.6208 34.7808 85.3886 34.7808V34.7952Z" fill="black"/>
<path d="M55.9976 35.011C55.9976 35.011 55.983 35.011 55.9685 35.011C55.5621 34.9966 55.2573 34.6512 55.2718 34.2627C55.2863 33.8742 55.0977 33.4569 54.7929 33.2122C54.7348 33.1691 54.6622 33.1259 54.6042 33.0683C54.2848 32.8525 53.8639 32.5647 53.7188 32.0035C53.5591 31.3991 53.8639 30.8667 54.0236 30.5789C54.3719 29.9457 55.0396 28.7801 56.2443 28.5499C57.2894 28.3484 58.1893 28.924 58.9585 29.4852C59.2779 29.7155 59.3504 30.1759 59.1182 30.4925C58.886 30.8091 58.4215 30.8811 58.1022 30.6508C57.5651 30.2623 56.9991 29.8738 56.5201 29.9745C56.0121 30.0752 55.6202 30.7084 55.2863 31.284C55.1702 31.4854 55.1267 31.6149 55.1267 31.6581C55.1557 31.6869 55.3299 31.8164 55.4315 31.8884C55.5186 31.9459 55.6202 32.0179 55.6928 32.0754C56.3749 32.6078 56.7668 33.4569 56.7378 34.3203C56.7233 34.7088 56.404 35.011 56.0121 35.011H55.9976Z" fill="black"/>
<path d="M78.973 56.352C78.973 56.352 78.9295 56.352 78.9005 56.352C78.3344 56.2944 77.4925 56.0642 76.7523 55.8627C76.4185 55.762 76.1137 55.69 75.9395 55.6468C75.8669 55.6468 75.7943 55.6468 75.7363 55.6468C74.3719 55.4598 73.1527 54.9273 72.2383 54.4956C70.4965 53.6466 68.8419 52.6106 67.3469 51.3874C66.9259 51.0421 66.3889 50.596 65.8954 50.0492C65.3439 49.4304 64.8504 48.7109 64.3859 47.8187C63.4715 46.0631 62.9199 44.1781 62.557 42.7247C62.4554 42.3361 62.6877 41.9476 63.0796 41.8469C63.4715 41.7462 63.8634 41.9764 63.965 42.3649C64.3133 43.7464 64.8358 45.5307 65.6777 47.1568C66.0841 47.9338 66.505 48.567 66.984 49.085C67.3178 49.4592 67.7097 49.8189 68.2613 50.265C69.6692 51.4162 71.2222 52.3947 72.8624 53.1862C73.9945 53.733 74.8799 54.0496 75.7363 54.1791C76.0121 54.1359 76.4185 54.2654 77.1442 54.4669C77.7538 54.6395 78.5956 54.8698 79.0456 54.913C79.4375 54.9561 79.7423 55.3015 79.6988 55.7044C79.6552 56.0785 79.3504 56.352 78.973 56.352Z" fill="black"/>
<path d="M83.5754 139.727C83.2561 139.727 82.9513 139.511 82.8787 139.18L78.9308 123.423C78.4663 121.581 78.0018 119.711 77.6245 117.84C77.0874 115.106 76.7391 112.314 76.5939 109.537L76.5649 108.947C76.5068 107.81 76.4633 106.731 76.2311 105.68C75.9698 104.529 75.4908 103.421 74.9828 102.299C72.5298 96.8594 69.6705 91.5495 66.4773 86.4986C65.5774 85.074 64.4743 83.3185 64.4597 81.419C62.5874 80.7858 61.6294 79.0015 60.686 77.2747C60.0618 76.1379 59.4232 74.9579 58.5378 74.1808C58.3056 73.9794 58.0588 73.7923 57.8121 73.6052C57.4637 73.3606 57.1299 73.1016 56.8251 72.8138C56.0994 72.1231 55.6349 71.2741 55.1704 70.4395L54.8656 69.8926C54.0528 68.468 53.0078 67.1298 51.9917 65.8203C50.6564 64.0935 49.263 62.3091 48.3341 60.2514C46.5488 56.3373 47.2019 50.9411 51.0193 49.1423C51.3821 48.9697 51.8176 49.1279 51.9917 49.4877C52.1659 49.8474 52.0062 50.2791 51.6434 50.4518C48.5953 51.8908 48.1599 56.3805 49.6549 59.6758C50.5258 61.5752 51.803 63.2157 53.1529 64.9569C54.1979 66.2951 55.272 67.6766 56.1284 69.1875L56.4477 69.7487C56.8686 70.5114 57.2605 71.2309 57.8266 71.7777C58.0879 72.0223 58.3781 72.2382 58.6684 72.454C58.9587 72.6699 59.249 72.8714 59.5103 73.116C60.5844 74.0657 61.2811 75.3608 61.9632 76.5983C62.9212 78.3683 63.7485 79.8793 65.3596 80.1814C65.737 80.2534 65.9983 80.5988 65.9402 80.9873C65.7225 82.6421 66.7821 84.297 67.6965 85.7647C70.9187 90.8588 73.8216 96.2406 76.2891 101.738C76.8262 102.932 77.3342 104.112 77.6245 105.393C77.8857 106.573 77.9438 107.753 78.0018 108.904L78.0309 109.494C78.176 112.213 78.5098 114.933 79.0324 117.595C79.3952 119.423 79.8597 121.279 80.3097 123.078L84.2721 138.864C84.3737 139.252 84.127 139.641 83.7496 139.741C83.6915 139.741 83.6335 139.756 83.5754 139.756V139.727Z" fill="black"/>
<path d="M91.1364 139.324C91.1364 139.324 91.1073 139.324 91.0783 139.324C90.6719 139.295 90.3816 138.95 90.4106 138.547C90.5413 136.734 89.7284 135.007 88.8721 133.194C88.5528 132.503 88.2334 131.827 87.9577 131.136C87.0287 128.791 86.6514 126.315 86.303 123.912L84.5467 112.228C84.3435 110.889 84.1258 109.379 84.4016 107.911C84.6048 106.86 85.0402 105.896 85.4757 104.961L85.5628 104.788C88.5673 98.2551 90.759 91.3623 92.0798 84.3112C92.1524 83.9227 92.5298 83.6637 92.9216 83.7356C93.3135 83.8076 93.5748 84.1817 93.5022 84.5703C92.1524 91.7365 89.9171 98.7444 86.8691 105.378L86.782 105.551C86.3756 106.443 85.9837 107.278 85.8095 108.17C85.5773 109.407 85.766 110.731 85.9692 112.012L87.7254 123.697C88.0738 126.013 88.4367 128.416 89.293 130.618C89.5543 131.28 89.8591 131.928 90.1784 132.59C91.0783 134.503 92.0072 136.475 91.8476 138.662C91.8185 139.036 91.4992 139.324 91.1218 139.324H91.1364Z" fill="black"/>
<path d="M58.1879 142C58.0718 142 57.9702 141.971 57.8686 141.928C50.6259 138.302 43.9346 133.712 37.9837 128.258C36.0677 126.517 34.1228 124.56 32.802 122.185C31.4666 119.782 30.9876 117.206 31.4521 114.947C31.8876 112.846 33.1068 111.033 34.1663 109.421L38.6804 102.658C41.801 97.9814 45.0377 93.132 46.8521 87.7501C47.5052 85.8219 47.9116 83.9368 48.1003 82.1668C48.3906 79.2457 48.0713 76.1806 47.1714 73.3458C45.2264 67.2445 40.5527 62.0641 34.6598 59.4883C34.297 59.33 34.1228 58.8983 34.297 58.5385C34.4566 58.1788 34.8921 58.0061 35.2549 58.1788C41.5252 60.9273 46.5037 66.4386 48.5648 72.9285C49.5227 75.9648 49.8711 79.2025 49.5663 82.3251C49.3776 84.2102 48.9422 86.196 48.26 88.225C46.3876 93.7939 43.1073 98.7153 39.9286 103.478L35.4146 110.242C34.3695 111.81 33.2809 113.436 32.9036 115.264C32.5117 117.192 32.9326 119.408 34.1083 121.523C35.3275 123.725 37.1854 125.567 39.0142 127.236C44.8781 132.589 51.4532 137.122 58.5798 140.676C58.9427 140.849 59.0879 141.281 58.8992 141.64C58.7685 141.885 58.5218 142.029 58.246 142.029L58.1879 142Z" fill="black"/>
<path d="M7.86669 136.317C7.73606 136.317 7.61995 136.288 7.50383 136.216C7.15548 136.015 7.03936 135.569 7.24257 135.238C9.33267 131.698 12.671 128.647 17.7656 125.64C19.3767 124.69 21.0604 123.798 22.6716 122.934C25.11 121.639 27.6355 120.286 29.9579 118.732C30.2917 118.517 30.7417 118.588 30.9594 118.919C31.1771 119.25 31.09 119.696 30.7707 119.912C28.3903 121.51 25.8357 122.862 23.3683 124.186C21.7571 125.035 20.1025 125.927 18.5059 126.863C13.629 129.741 10.4503 132.619 8.49082 135.943C8.36019 136.173 8.11344 136.302 7.86669 136.302V136.317Z" fill="black"/>
<path d="M111.805 121.625C111.471 121.625 111.166 121.394 111.094 121.049C111.007 120.66 111.253 120.272 111.66 120.2C117.291 119.006 120.905 113.883 122.415 109.465C124.171 104.285 124.07 98.7014 123.968 93.3052C123.925 91.2474 123.794 89.2904 122.647 88.0097C121.384 86.5995 119.265 86.3261 117.016 86.1534C116.609 86.1246 116.319 85.7792 116.348 85.3763C116.377 84.9878 116.725 84.7 117.132 84.7144C119.585 84.9015 122.11 85.2468 123.736 87.0456C125.216 88.7004 125.376 90.9308 125.434 93.262C125.536 98.5287 125.652 104.501 123.808 109.911C122.183 114.689 118.22 120.272 111.979 121.581C111.921 121.581 111.877 121.596 111.834 121.596L111.805 121.625Z" fill="black"/>
<path d="M59.6843 57.9634C59.6843 57.9634 59.6262 57.9634 59.6117 57.9634C59.2198 57.9203 58.9295 57.5605 58.9731 57.172C59.1763 55.2725 59.2489 53.3299 59.1763 51.416C59.1763 51.0131 59.4811 50.6821 59.873 50.6677C60.2649 50.6246 60.6132 50.9699 60.6277 51.3584C60.7003 53.3443 60.6277 55.3445 60.41 57.3159C60.3665 57.69 60.0617 57.9634 59.6843 57.9634Z" fill="black"/>
<path d="M77.391 69.9361C77.1298 69.9361 76.8685 69.7922 76.7524 69.5475C75.9686 68.051 73.7769 67.8064 72.5287 67.792C72.1803 67.792 71.832 67.792 71.4836 67.792C69.8725 67.8207 68.2033 67.8351 66.7083 67.0437C66.1277 66.7415 65.5762 66.3242 65.0536 65.9213C63.8489 65.0003 63.0506 64.4535 62.2088 64.7413C61.8314 64.8708 61.4105 64.6693 61.2799 64.2952C61.1492 63.9211 61.3524 63.5038 61.7298 63.3742C63.37 62.7987 64.7343 63.8491 65.939 64.7701C66.447 65.1586 66.9115 65.5184 67.3905 65.763C68.5662 66.3817 69.9741 66.353 71.4691 66.3386C71.832 66.3386 72.1948 66.3386 72.5432 66.3386C75.2429 66.3674 77.2023 67.2739 78.0297 68.8712C78.2184 69.231 78.0732 69.6627 77.7249 69.8353C77.6233 69.8929 77.5071 69.9217 77.391 69.9217V69.9361Z" fill="black"/>
<path d="M77.6374 40.5653C77.5503 40.5653 77.4487 40.5509 77.3616 40.5078C76.4762 40.148 75.6779 39.6588 74.9667 39.04C74.6619 38.781 74.6329 38.3205 74.9087 38.0183C75.1699 37.7161 75.6344 37.6873 75.9392 37.9607C76.5343 38.4788 77.1874 38.8817 77.9277 39.1839C78.3051 39.3278 78.4792 39.7595 78.3196 40.1192C78.2035 40.3926 77.9277 40.5653 77.6519 40.5653H77.6374Z" fill="black"/>
<path d="M74.9677 43.7167C74.8661 43.7167 74.7645 43.7023 74.6629 43.6592C73.9227 43.3282 73.1534 43.0404 72.3696 42.8102C71.9923 42.695 71.7745 42.2921 71.8907 41.918C72.0068 41.5438 72.4132 41.328 72.7906 41.4431C73.6324 41.6877 74.4597 42.0043 75.2725 42.3641C75.6354 42.5224 75.7951 42.9541 75.6354 43.3138C75.5193 43.5728 75.2435 43.7311 74.9677 43.7311V43.7167Z" fill="black"/>
<path d="M73.3136 47.6599C73.3136 47.6599 73.241 47.6599 73.1975 47.6599C72.1089 47.4872 71.1074 46.9548 70.3672 46.1489C70.0914 45.8611 70.1204 45.4006 70.4107 45.1272C70.701 44.8538 71.1655 44.8826 71.4412 45.1704C71.9492 45.7316 72.675 46.1057 73.4297 46.2209C73.8216 46.2784 74.0974 46.6526 74.0393 47.0411C73.9813 47.4008 73.6765 47.6455 73.3281 47.6455L73.3136 47.6599Z" fill="black"/>
<path d="M90.7012 48.9982C90.7012 48.9982 90.6431 48.9982 90.6286 48.9982C90.2367 48.955 89.9464 48.5953 89.99 48.2067C90.0625 47.588 89.7432 45.6453 89.5981 45.3144C89.4094 45.041 88.4079 41.3859 88.3934 41.3427C88.1902 40.5657 88.2047 39.7598 88.2192 39.0547L88.2772 35.2558C88.2772 34.7665 88.2627 34.1909 88.0015 34.0039C87.8853 33.9175 87.6676 33.8887 87.3919 33.9175C87.1161 33.9463 86.8984 34.0039 86.7387 34.1046C86.3758 34.3204 86.1291 34.8529 86.0855 35.5292C86.0565 35.9321 86.0855 36.3494 86.1291 36.7523C86.2017 37.587 86.3033 38.5943 85.7227 39.4289C85.6646 39.5152 85.4904 39.7598 85.1711 39.8462C84.8663 39.9181 84.6196 39.8174 84.518 39.7742L83.6181 39.4001C83.5455 39.3713 83.4729 39.3281 83.4149 39.2706C83.2552 39.213 83.023 39.1699 82.7472 39.0979C81.6731 38.8245 80.8022 38.5799 80.2942 38.2057L76.8398 35.6731C75.9253 35.0112 74.9819 34.3204 73.9368 33.9607C73.7772 33.9031 73.574 33.8456 73.4288 33.86C73.2256 33.8887 72.9789 34.1046 72.7757 34.2917C72.8628 34.8241 73.2111 35.3421 73.545 35.8314L73.7917 36.2055C73.9659 36.4789 74.0385 36.5221 74.2852 36.6804C74.5174 36.8243 74.8077 37.0114 75.2432 37.4143C75.5335 37.6877 75.5625 38.1338 75.2867 38.436C75.0109 38.7382 74.561 38.7525 74.2562 38.4791C73.8933 38.1626 73.6611 38.0043 73.4724 37.8748C73.1676 37.6733 72.8918 37.5006 72.558 36.9682L72.3257 36.6084C71.8903 35.9609 71.3968 35.227 71.3097 34.3636C71.3097 34.2341 71.2662 34.0183 71.3533 33.7736C71.4403 33.5002 71.629 33.3275 71.7306 33.2412C72.05 32.9534 72.5289 32.5073 73.1966 32.4066C73.6611 32.3346 74.082 32.4641 74.4013 32.5649C75.6496 32.9966 76.7382 33.788 77.6816 34.4787L81.1361 37.0114C81.4699 37.256 82.4859 37.515 83.0955 37.6733C83.7487 37.846 84.1261 37.9323 84.3438 38.1194L84.6631 38.2489C84.7647 37.8604 84.7212 37.3711 84.6631 36.8819C84.6196 36.3926 84.5905 35.9033 84.6196 35.4141C84.6921 34.2629 85.1856 33.3275 85.9694 32.8527C86.3178 32.6368 86.7387 32.5217 87.2467 32.4641C87.8853 32.4066 88.4079 32.5217 88.8143 32.7951C89.7577 33.4427 89.7287 34.6658 89.7287 35.2558L89.6706 39.0547C89.6706 39.7023 89.6416 40.3642 89.8013 40.9542C89.99 41.6737 90.7592 44.3215 90.8899 44.6236C91.2092 45.0697 91.5285 47.5592 91.4414 48.3363C91.3979 48.7104 91.0931 48.9838 90.7157 48.9838L90.7012 48.9982Z" fill="black"/>
<path d="M86.3767 66.4961C86.3767 66.4961 86.2896 66.4961 86.2315 66.4961C85.8396 66.4241 85.5784 66.0356 85.6654 65.6471C85.7235 65.3449 85.4187 64.9563 85.0994 64.539C84.9833 64.3951 84.8671 64.2368 84.7655 64.0929C84.3591 63.503 84.1124 62.8554 83.8802 62.2366C83.8076 62.0208 83.7205 61.8193 83.6334 61.6035C83.0383 60.1645 82.0803 58.8838 80.8756 57.8909C80.6289 57.6894 80.3821 57.488 80.1499 57.2721C79.3952 56.6246 78.6694 56.0202 77.8276 55.5741C75.5923 54.3797 73.6909 52.7249 71.8476 51.1276C71.2815 50.6383 70.4977 49.962 70.251 48.9835C70.1784 48.7101 70.1639 48.4367 70.1494 48.1489C70.1349 47.8611 70.1203 47.6308 70.0333 47.4438C69.9897 47.3574 69.9462 47.2711 69.8881 47.1991C69.7284 46.9545 69.5398 46.6667 69.4962 46.2638C69.4527 45.7602 69.6559 45.3716 69.8155 45.0407C69.8591 44.9687 69.8881 44.8968 69.9317 44.8104C70.0187 44.5946 70.0768 44.3499 70.1349 44.0765C70.1784 43.8751 70.2219 43.6736 70.28 43.4721C70.4687 42.8534 70.788 42.3785 71.2089 42.1051C71.3105 41.4 71.5137 40.5078 72.0072 39.7164C72.6314 38.7091 73.6184 38.0471 74.6489 37.9464C75.0408 37.9176 75.4036 38.191 75.4472 38.594C75.4907 38.9825 75.2004 39.3422 74.794 39.3854C74.2134 39.443 73.6183 39.8603 73.241 40.479C72.9071 41.0115 72.7039 41.7166 72.6023 42.6663C72.5733 42.9541 72.3701 43.1844 72.0943 43.2707C71.9347 43.3282 71.7605 43.5585 71.6734 43.8895C71.6299 44.0477 71.5863 44.2204 71.5573 44.3931C71.4847 44.7097 71.4121 45.0694 71.267 45.4148C71.2234 45.5155 71.1654 45.6163 71.1218 45.717C71.0493 45.8609 70.9477 46.048 70.9477 46.1343C70.9477 46.1919 71.0348 46.3357 71.1073 46.4365C71.1944 46.5804 71.2815 46.7099 71.3541 46.8682C71.5428 47.2855 71.5718 47.7028 71.6008 48.0769C71.6008 48.264 71.6153 48.4655 71.6734 48.6525C71.804 49.1562 72.2685 49.5879 72.82 50.0627C74.6053 51.6025 76.4487 53.2141 78.5388 54.3222C79.5113 54.8402 80.3241 55.5309 81.1079 56.1929C81.3401 56.3943 81.5723 56.5958 81.8191 56.7829C83.2125 57.9197 84.3156 59.4018 84.9978 61.0567C85.0849 61.2869 85.1719 61.5028 85.259 61.733C85.4768 62.2942 85.6654 62.8266 85.9702 63.2727C86.0573 63.4022 86.1589 63.5317 86.2605 63.6612C86.725 64.2512 87.2911 64.9851 87.1024 65.9205C87.0298 66.2658 86.725 66.4961 86.3912 66.4961H86.3767Z" fill="black"/>
</g>
<defs>
<clipPath id="clip0_11603_5147">
<rect width="135" height="142" fill="white"/>
</clipPath>
</defs>
</svg>
