<svg width="144" height="134" viewBox="0 0 144 134" fill="none" xmlns="http://www.w3.org/2000/svg">
<g clip-path="url(#clip0_11596_34462)">
<path d="M61.9082 50.7715C63.1157 54.3724 65.0685 57.7193 67.6324 60.5283C69.0039 62.0224 70.7181 63.4568 72.7455 63.4867C74.4449 63.5166 76.0995 62.5454 77.784 62.7994H77.6945C78.0225 63.3223 78.3654 63.8453 78.589 64.413C78.6784 64.6372 78.738 64.8762 78.8722 65.1003C78.9914 65.2946 79.1405 65.4739 79.2747 65.6532C79.6921 66.2359 78.7082 66.9531 78.8424 67.6553C77.6349 69.7621 76.6809 72.1079 76.8001 74.5284C76.8449 75.38 76.9641 76.2317 77.0237 77.0834C77.0983 78.2189 77.0535 79.3694 77.0237 80.5199C76.9492 82.6714 76.8598 84.823 76.7852 86.9746C76.7554 87.6469 76.7405 88.3342 76.9492 88.9618C77.1579 89.5744 77.5604 90.0973 77.9629 90.6053C78.9914 91.8903 80.02 93.1902 81.0486 94.4752C81.2573 94.7292 81.466 94.9981 81.7194 95.2073C81.9877 95.4165 82.2858 95.5509 82.584 95.7004C85.297 97.0003 87.7268 98.7932 90.1418 100.586C92.4672 99.9587 94.9268 99.8989 97.2821 100.422C97.5355 100.482 97.8039 100.541 98.0573 100.497C98.3405 100.437 98.579 100.257 98.8175 100.078C101.441 98.0013 104.109 95.8647 105.913 93.0408C105.809 92.9661 105.69 92.8764 105.585 92.8017C109.58 87.4228 112.04 80.9831 115.99 75.5743C116.452 74.9467 116.929 74.3192 117.138 73.5721C117.347 72.8251 117.198 71.9286 116.572 71.4654C116.109 71.1367 115.498 71.1068 114.977 70.9125C114.455 70.7183 113.918 70.1655 114.127 69.6425L113.128 69.4632C110.504 67.1473 106.465 67.2071 103.632 65.1601C102.172 64.1142 101.143 62.5752 100.129 61.0811C100.085 56.9274 100.368 52.8185 101.203 48.7544C101.381 47.9028 101.575 47.0511 101.948 46.2742C102.321 45.4673 102.872 44.7651 103.409 44.0628C105.153 41.7917 106.912 39.5356 108.656 37.2645C107.732 36.9955 106.793 36.7266 106.018 36.1588C105.242 35.591 104.646 34.6796 104.721 33.7234C103.29 33.8578 101.799 33.3498 100.741 32.3637C97.6995 29.5099 93.3169 28.9272 89.3815 27.5227C84.1492 25.6699 79.3045 22.6966 73.9082 21.4266C73.0287 21.2174 72.1045 21.053 71.3144 20.6048C70.1815 19.9773 69.4212 18.8417 68.3778 18.0648C67.0809 17.0936 65.4411 16.7499 63.8461 16.4212C61.9529 16.0327 59.9107 15.6443 58.1368 16.4063C56.3181 17.1832 55.1405 19.036 54.574 20.9335C54.3057 21.8599 54.1567 22.8311 54.1268 23.7873C54.0821 25.5952 54.4399 27.3882 54.8126 29.1513C54.9467 29.7788 55.066 30.4064 55.2001 31.0339C55.6175 33.0659 56.0349 35.1129 56.5865 37.1151C56.9591 38.4747 57.3914 39.8195 57.8386 41.1642C59.0461 44.6904 60.7157 47.2453 61.9082 50.7715Z" fill="#C69784"/>
<path d="M61.6844 50.5021C58.9862 49.7102 56.944 47.0207 56.9291 44.1968C56.9291 43.2405 57.0782 42.1648 56.467 41.4326C56.1987 41.1189 55.826 40.9097 55.4682 40.7154C52.6657 39.0868 50.5043 36.3974 49.5055 33.3045C48.5216 30.2564 49.6844 26.8349 50.3105 23.6972C50.7428 21.5157 51.2049 19.3193 52.1887 17.3321C53.1726 15.3449 54.7378 13.5669 56.8247 12.7899C57.6744 12.4762 58.5838 12.3267 59.4931 12.2072C64.7552 11.4601 70.0471 11.0119 75.3539 10.8625C79.7515 10.743 84.149 10.3993 88.5614 10.4591C89.7987 10.474 91.0359 10.5039 92.2583 10.728C95.0161 11.251 97.5055 12.8049 99.4881 14.7921C101.471 16.7793 102.976 19.2147 104.243 21.71C104.705 22.6214 105.063 23.8167 105.719 24.6086C106.36 25.3706 107.195 25.9533 107.91 26.6556C109.565 28.2842 110.534 30.5553 110.698 32.8712C110.862 35.1871 110.251 37.5329 109.103 39.55C109.416 41.328 109.684 43.2555 109.625 45.0634C109.565 46.8713 109.118 48.724 108.03 50.1734C107.419 50.9802 106.643 51.6376 105.943 52.3697C105.093 53.2513 104.378 54.2374 103.647 55.2086C103.006 56.0902 102.35 56.9568 101.709 57.8383C100.606 59.3324 101.068 59.8405 99.667 61.0507C98.7577 59.437 97.8633 57.9429 97.4757 56.1499C97.3564 55.5523 97.2819 54.9546 97.1328 54.357C96.7303 52.6985 95.7465 51.1744 95.5825 49.4711C95.508 48.739 95.5825 47.9471 95.1949 47.3345C95.2546 46.946 95.0608 46.4679 94.8521 46.1392C95.4185 46.3334 96.0744 46.1392 96.5962 45.8553C97.1179 45.5714 97.5502 45.1232 97.9676 44.6899C98.8471 43.7934 99.7415 42.867 100.263 41.7165C101.247 39.5799 100.785 37.0996 100.263 34.8136C100.219 34.6044 100.159 34.3952 100.025 34.2159C99.3092 33.3194 98.2061 32.7218 97.0732 32.5275C95.5229 32.2586 94.0173 33.1401 92.7055 34.0067C92.467 34.1562 92.2285 34.3205 91.9452 34.3653C91.6471 34.4102 91.349 34.3355 91.0657 34.2607C90.2459 34.0516 89.426 33.8274 88.6061 33.6183C87.667 33.3643 86.6682 33.0804 86.072 32.3184C84.5366 32.3333 83.2098 31.7954 81.9129 30.9736C80.4819 30.0622 79.0061 29.1956 77.4558 28.5083C75.4583 27.6118 73.1775 26.8647 71.9999 25.012C70.226 22.2478 66.4993 21.4111 63.2198 21.4261C62.7577 21.4261 62.2807 21.4709 61.8484 21.3065C61.1477 21.0525 60.3279 21.2617 59.7465 21.7398C59.031 22.3226 58.867 23.3236 58.7477 24.2351C58.6285 25.1614 58.5092 26.0878 58.39 27.0142C58.3303 27.4475 58.2707 27.8957 58.2856 28.329C58.2856 28.7772 58.3602 29.2404 58.4049 29.6887C58.5838 31.4069 58.4645 33.1551 58.1515 34.8435C57.9726 35.7848 58.2707 37.1295 58.6136 38.026C60.1788 42.1199 61.3862 46.1093 61.7142 50.4871L61.6844 50.5021Z" fill="#11100F"/>
<path d="M62.0717 43.3157C61.7289 43.3157 61.3562 43.256 60.9537 43.1364C60.5662 43.0169 60.3426 42.5985 60.4618 42.1951C60.5811 41.8066 60.9985 41.5825 61.4009 41.7021C62.3699 42.0009 62.9363 41.7319 63.8606 40.5516C64.114 40.2229 64.5761 40.1631 64.904 40.4171C65.232 40.6711 65.2916 41.1343 65.0382 41.463C64.278 42.4342 63.3985 43.3008 62.0717 43.3008V43.3157Z" fill="black"/>
<path d="M72.6262 36.5026C72.4025 36.5026 72.1939 36.5026 71.9553 36.4727C71.538 36.4428 71.2398 36.0842 71.2696 35.6659C71.2994 35.2624 71.6572 34.9487 72.0746 34.9785C74.0572 35.128 75.3839 34.366 77.0237 32.9764C77.3367 32.7075 77.8137 32.7523 78.0671 33.066C78.3355 33.3798 78.2907 33.8579 77.9777 34.1269C76.2634 35.5911 74.728 36.5175 72.5963 36.5175L72.6262 36.5026Z" fill="black"/>
<path d="M67.6019 45.7515C66.9311 45.7515 66.2603 45.4676 65.7684 44.9446C65.0827 44.1976 64.874 43.1666 65.2168 42.2552C66.2454 39.5508 66.5137 36.5177 65.9473 33.6937C65.8727 33.2903 66.1262 32.9018 66.5286 32.8122C66.9311 32.7225 67.3187 32.9915 67.4082 33.3949C68.0342 36.4728 67.751 39.8048 66.6181 42.7781C66.4392 43.2413 66.6181 43.6746 66.8566 43.9137C67.1398 44.2125 67.5125 44.3171 67.8703 44.2125C68.1237 44.1378 68.3473 44.0183 68.5262 43.8539C68.8392 43.585 69.3162 43.6148 69.5845 43.9286C69.8529 44.2424 69.8231 44.7205 69.51 44.9895C69.1672 45.2883 68.7647 45.4975 68.3175 45.6469C68.079 45.7216 67.8404 45.7515 67.6019 45.7515Z" fill="black"/>
<path d="M59.8515 37.8318C59.7471 37.8318 59.6278 37.8019 59.5235 37.7571C59.1508 37.5778 59.0018 37.1295 59.1657 36.756C60.0601 34.8734 61.5359 34.3952 63.4738 34.2608C63.8912 34.2309 64.2341 34.5446 64.2639 34.9481C64.2937 35.3515 63.9806 35.7101 63.5782 35.74C61.7893 35.8744 61.044 36.2629 60.5073 37.3835C60.3732 37.6525 60.1198 37.8019 59.8365 37.8019L59.8515 37.8318Z" fill="black"/>
<path d="M70.8065 30.9441C70.7022 30.9441 70.5829 30.9142 70.4786 30.8694C70.1059 30.6901 69.9568 30.2418 70.1208 29.8683C71.0152 27.9857 72.491 27.5075 74.4289 27.3731C74.8612 27.3432 75.1891 27.657 75.2189 28.0604C75.2488 28.4787 74.9357 28.8224 74.5332 28.8523C72.7444 28.9867 71.9991 29.3752 71.4624 30.4958C71.3283 30.7648 71.0748 30.9142 70.7916 30.9142L70.8065 30.9441Z" fill="black"/>
<path d="M67.4093 54.5963C67.2901 54.5963 67.1708 54.5664 67.0665 54.5066C66.7087 54.3124 66.5596 53.8642 66.7534 53.4906C68.3634 50.4575 70.7634 49.6208 74.1323 49.2622C74.5497 49.2024 74.9075 49.5162 74.9522 49.9196C74.9969 50.323 74.6988 50.6966 74.2963 50.7414C71.3447 51.0552 69.3919 51.7126 68.0801 54.1779C67.946 54.4319 67.6926 54.5813 67.4242 54.5813L67.4093 54.5963Z" fill="black"/>
<path d="M70.7177 8.90548C70.8519 7.94922 70.9413 7.0378 70.9264 6.06661C70.9264 5.67813 70.9264 5.28965 71.0158 4.90118C71.0904 4.63223 71.1947 4.37823 71.2841 4.10928C71.5227 3.25762 71.1947 2.37608 71.4034 1.52442C71.4779 1.24053 71.5376 0.9417 71.4332 0.672754C71.3438 0.433692 71.1202 0.254395 70.8817 0.164746C70.6432 0.0750977 70.3748 0.0452149 70.1214 0.0302734C70.0171 0.0302734 69.9127 0.0302734 69.8084 0.0452149C69.6444 0.104981 69.5401 0.254395 69.4357 0.388867C69.2419 0.672754 69.0332 0.956641 68.8991 1.27041C68.7351 1.65889 68.6158 2.07725 68.5413 2.49561C68.5264 2.34619 68.4966 2.18184 68.4071 2.04736C68.3475 1.97266 68.273 1.91289 68.1835 1.85313C67.7065 1.58418 66.8568 1.5543 66.6481 2.07725C66.4394 2.6002 66.2606 3.10821 66.0668 3.61621C65.9624 3.87022 65.873 4.13916 65.7388 4.37823C65.6643 4.5127 65.5748 4.64717 65.5152 4.78164C65.4109 4.97588 65.396 5.17012 65.3214 5.36436C65.0233 5.02071 64.6059 4.70694 64.1736 4.81153C63.8755 4.88623 63.6668 5.14024 63.473 5.3793C62.996 5.96202 62.6084 6.61944 62.3848 7.33663C61.7885 9.14454 59.5376 13.373 58.1214 14.628C57.0928 15.5395 55.796 16.1222 54.6332 16.8543C52.0842 18.468 50.0717 20.9184 48.9835 23.7274C47.6717 24.4595 46.3003 25.2962 44.8842 25.7594C44.437 25.9088 43.9748 26.0283 43.5425 26.2076C42.9463 26.4467 42.3947 26.7903 41.8581 27.1191C41.3065 27.4627 40.755 27.8064 40.2034 28.1351C39.2941 28.6879 38.3102 28.8821 37.3711 29.3752C34.7773 30.7648 9.71894 42.9121 7.93012 44.989C4.78478 47.0808 2.05683 49.9794 0.595958 53.4608C0.312728 54.1331 0.0742188 54.8354 0.0742188 55.5675C0.0742188 56.4789 0.476703 57.3306 0.879188 58.1374C1.22204 58.8546 1.57981 59.5868 2.10155 60.1844C2.48913 60.6177 2.96614 60.9763 3.44316 61.305C4.36739 61.9624 5.33633 62.6049 6.43944 62.8888C6.69285 62.9486 7.0208 63.0532 7.05062 63.3221C7.94502 63.5911 8.83944 63.86 9.76366 63.9198C10.509 63.9795 11.2692 63.8899 12.0146 63.8002C13.714 63.5761 15.3984 63.2773 17.0531 62.8739C17.381 62.7992 17.8432 62.7543 18.0519 62.4854C19.4978 61.9774 20.8394 61.1556 21.9574 60.0948C22.6432 59.4523 23.2394 58.6903 23.9848 58.1225C24.9686 57.3754 33.5102 49.2025 34.4047 48.3508C35.0158 47.783 35.6121 47.2003 36.2233 46.6325C37.1475 45.7659 38.2357 44.989 39.2345 44.1971C40.7848 42.9719 42.022 41.3732 43.6022 40.1928C44.6009 39.4457 45.5699 38.7584 46.3748 37.8321C46.673 37.4884 46.9562 37.1448 47.2991 36.8609C47.5674 36.6367 47.8506 36.4574 48.1189 36.2333C48.3873 36.0092 48.6109 35.7552 48.8494 35.5161C49.386 34.9334 49.9227 34.3657 50.4593 33.7829C51.0854 33.1106 51.8009 32.483 52.6357 32.0946C54.1115 31.4222 55.5425 30.6751 56.9587 29.8832C57.3761 29.6442 57.7935 29.4051 58.1512 29.0913C58.5537 28.7327 58.8519 28.2994 59.2096 27.911C59.8804 27.1489 60.7301 26.5961 61.6692 26.1927C62.0717 26.0283 62.4742 25.864 62.8767 25.6847C63.145 25.5801 63.4133 25.4606 63.6369 25.2813C64.0692 24.9376 64.2928 24.3698 64.7102 24.0112C64.9935 23.7572 65.3512 23.6228 65.6345 23.3688C65.7984 23.2343 65.9177 23.055 66.0817 22.9205C66.2606 22.7562 66.4692 22.6217 66.663 22.4872C66.9761 22.293 67.2742 22.0838 67.5873 21.8896C68.2879 21.4413 69.0481 20.8437 69.4655 20.1265C71.6419 16.421 73.3711 12.4466 74.6382 8.3377C74.7873 7.84463 75.9947 2.07725 76.0543 1.56924C76.0991 1.24053 75.7711 0.747461 75.4879 0.583106C75.145 0.403809 74.7276 0.568164 74.3848 0.762403C74.0717 0.9417 73.7736 1.16582 73.5947 1.47959C73.3562 1.92783 73.4009 2.46572 73.2369 2.94385C73.1177 3.31739 72.8643 3.63116 72.7003 3.98975C72.4916 4.46787 72.432 4.99082 72.3127 5.49883C72.2084 5.91719 72.0593 6.32061 71.9251 6.72403C71.7015 7.35157 71.463 7.99405 70.986 8.44229C70.6432 8.78594 70.7326 9.44337 70.4643 9.84678C70.2705 10.1456 70.0469 10.4295 69.8829 10.7433C69.7637 10.9674 69.6742 11.2065 69.5848 11.4306C69.4357 11.8041 69.3015 12.1776 69.1525 12.5362" fill="#C69784"/>
<path d="M27.07 54.9998C28.4414 54.94 29.7532 55.463 31.0352 55.9561C35.7457 57.749 40.6501 59.1087 45.6588 59.6615C47.9991 59.9155 50.3693 60.0052 52.6948 60.3936C55.6165 60.8867 58.4339 61.828 61.3408 62.3958C65.306 63.1578 75.5172 65.3542 78.8265 67.6402C78.6476 69.9711 80.1979 71.9434 80.3917 74.2145C80.5557 75.9626 80.3321 77.7257 80.6749 79.4738C81.0476 81.3116 81.2116 82.8357 80.9582 84.6734C80.4811 88.0502 81.4799 90.0972 83.7755 92.4878C84.5805 93.3245 85.4749 94.2061 86.6377 94.3405C87.3383 94.4153 88.024 94.2061 88.6948 93.9969C89.619 93.713 90.5582 93.4142 91.4824 93.1303C92.5259 92.8016 93.5693 92.4878 94.5234 91.9649C95.3432 91.5166 96.0886 90.9339 96.8041 90.3213C97.8625 89.4099 98.8613 88.4237 99.8004 87.3778C102.379 84.4792 103.855 80.6094 105.927 77.3223C106.598 76.2614 107.269 75.2006 108.104 74.2593C109.326 72.8847 110.876 71.8089 111.92 70.2998C112.069 70.0757 112.233 69.8366 112.456 69.7022C112.635 69.6125 112.829 69.5826 113.038 69.5677C114.677 69.4183 116.407 69.6125 117.808 70.494C118.151 70.7032 118.479 70.9572 118.851 71.0917C119.224 71.2262 119.686 71.2112 119.984 70.9423C124.352 71.5997 129.018 72.7651 133.058 74.588C136.62 76.1867 138.156 80.1761 139.87 83.6873C140.377 84.7332 140.884 85.8239 140.973 86.9744C141.077 88.1399 140.824 89.5145 141.674 90.3213C141.525 93.2947 143.284 96.0439 143.761 98.9724C144.223 101.781 143.537 104.665 143.746 107.504C143.835 108.789 144.104 110.074 143.954 111.344C143.746 113.077 142.762 114.78 143.209 116.484C143.403 117.201 143.149 117.903 143.12 118.65C143.09 119.397 140.913 135.385 141.331 135.997C122.981 139.015 104.228 138.478 85.6538 137.536C74.2501 136.968 62.8464 136.386 51.4426 135.818C45.8078 130.334 46.896 123.282 56.2426 108.864C57.0625 107.594 57.8973 103.574 57.3457 102.17C57.0774 101.453 56.4215 100.96 55.8103 100.511C47.0004 93.9969 38.1905 90.4857 28.8141 84.8378C21.3457 80.3404 13.5793 75.9925 7.7507 69.5079C6.73703 68.3724 5.44014 66.7886 4.4712 65.6231C4.2625 65.3691 4.0538 65.1301 3.87492 64.8611C3.05505 63.7256 2.60784 62.2464 2.98051 60.9017" fill="#F3FFF8"/>
<path d="M55.6771 26.5217C55.6771 26.5217 55.6026 26.5217 55.5578 26.5217C55.1554 26.4619 54.8721 26.0734 54.9318 25.67C55.3641 22.9208 56.3926 20.5302 57.8833 18.797C58.5094 18.0648 59.2249 17.4373 59.9106 16.8247C60.179 16.5856 60.4473 16.3466 60.7156 16.1075C62.2063 14.7329 63.5181 13.1641 64.6212 11.4607C64.9193 10.9975 65.7988 9.62294 67.1405 9.93671C68.2883 10.2206 68.6759 11.5205 68.4672 12.656C68.2436 13.8812 67.6473 14.9271 67.0659 15.9432L66.7231 16.5408C66.2013 17.4821 65.62 18.7223 65.8287 19.8727C65.9032 20.2762 65.6349 20.6646 65.2324 20.7394C64.8299 20.8141 64.4423 20.5451 64.3678 20.1417C64.0697 18.528 64.7703 16.9741 65.4262 15.8087L65.7839 15.1811C66.3206 14.2398 66.8274 13.3433 67.0063 12.3722C67.0957 11.8791 66.9616 11.401 66.7827 11.3711C66.7082 11.3561 66.4398 11.3711 65.8734 12.2377C64.7106 14.0605 63.3094 15.719 61.7144 17.1833C61.4461 17.4373 61.1628 17.6764 60.8796 17.9304C60.1939 18.528 59.5529 19.0958 58.9864 19.7532C57.6746 21.2922 56.7653 23.4139 56.3777 25.8941C56.3181 26.2677 56.0051 26.5217 55.6473 26.5217H55.6771Z" fill="black"/>
<path d="M61.3421 14.5978C61.1931 14.5978 61.044 14.553 60.9098 14.4634C60.5819 14.2243 60.4924 13.7611 60.7459 13.4175C61.6403 12.1773 62.3558 10.8027 62.8626 9.3534C62.9521 9.08446 63.0415 8.80057 63.1309 8.53163C63.2502 8.17303 63.3695 7.81444 63.4887 7.47079C63.8018 6.61912 64.2042 5.7824 64.6813 5.00545C64.89 4.64686 65.3521 4.54227 65.7098 4.75145C66.0676 4.96063 66.1719 5.42381 65.9633 5.7824C65.5459 6.48465 65.1881 7.21678 64.9049 7.99373C64.7856 8.32245 64.6664 8.6661 64.562 8.99481C64.4726 9.2787 64.3682 9.56258 64.2788 9.84647C63.7123 11.4303 62.9372 12.9095 61.9682 14.2691C61.8192 14.4783 61.5955 14.5829 61.357 14.5829L61.3421 14.5978Z" fill="black"/>
<path d="M66.9607 10.9825C66.8712 10.9825 66.7818 10.9676 66.6924 10.9377C66.3048 10.7883 66.1259 10.355 66.275 9.96652C66.6327 9.05509 66.7073 8.05401 66.7967 6.99317C66.8862 5.94728 66.9756 4.85655 67.3334 3.81065L67.4526 3.48194C67.5868 3.13829 67.706 2.79464 67.6911 2.52569C67.6613 2.12227 67.9594 1.74874 68.3768 1.71885C68.7793 1.68897 69.152 1.9878 69.1818 2.40616C69.2265 3.01876 69.0327 3.54171 68.8539 4.00489L68.7495 4.28878C68.4514 5.15538 68.3619 6.09669 68.2874 7.09776C68.198 8.21837 68.0936 9.3838 67.6613 10.4895C67.5421 10.7883 67.2588 10.9676 66.9607 10.9676V10.9825Z" fill="black"/>
<path d="M89.5156 98.8081C88.1591 98.8081 86.8026 98.6886 85.4759 98.4346C85.0734 98.3598 84.8051 97.9714 84.8796 97.568C84.9542 97.1645 85.3417 96.8956 85.7442 96.9703C88.5169 97.4933 91.4386 97.4335 94.1964 96.7761C95.8809 96.3876 97.0883 95.8497 97.9976 95.1026C98.8622 94.4004 99.5479 93.4441 100.174 92.5178C102.44 89.1559 104.467 85.5849 106.167 81.9094C106.405 81.4013 106.629 80.8784 106.867 80.3704C108.611 76.5006 110.415 72.4963 113.918 69.9712C114.246 69.7321 114.723 69.8068 114.962 70.1355C115.2 70.4642 115.126 70.9424 114.798 71.1814C111.622 73.4824 109.908 77.2925 108.239 80.983C108 81.5059 107.777 82.0289 107.538 82.5369C105.794 86.2872 103.752 89.9329 101.426 93.3545C100.74 94.3705 99.9802 95.4463 98.9517 96.2681C97.8486 97.1645 96.4473 97.7771 94.5542 98.2254C92.9144 98.6139 91.2299 98.8081 89.5306 98.8081H89.5156Z" fill="black"/>
<path d="M57.5403 102.692C57.5403 102.692 57.5254 102.692 57.5105 102.692C57.0931 102.677 56.78 102.334 56.7949 101.915C56.8695 99.9282 55.9303 98.0904 54.9316 96.133C54.7229 95.7147 54.5142 95.3113 54.3055 94.8929C53.3365 92.8758 52.5912 90.7541 52.0844 88.5727C51.9949 88.1693 52.2483 87.7658 52.6508 87.6762C53.0533 87.5866 53.4558 87.8406 53.5452 88.244C54.0222 90.3208 54.7229 92.3379 55.6471 94.2504C55.8409 94.6538 56.0496 95.0573 56.2583 95.4607C57.3018 97.4927 58.375 99.5995 58.2856 101.975C58.2707 102.379 57.9427 102.692 57.5403 102.692Z" fill="black"/>
<path d="M108.298 139C108.208 139 108.104 138.986 108.015 138.941C107.627 138.791 107.448 138.343 107.597 137.969C111.16 129.139 116.884 108.311 117.182 98.7333C117.182 98.315 117.51 98.0012 117.957 98.0161C118.375 98.0161 118.688 98.3747 118.673 98.7931C118.36 108.684 112.666 129.393 108.969 138.537C108.849 138.821 108.566 139 108.283 139H108.298Z" fill="black"/>
<path d="M14.6969 62.3955C14.3838 62.3955 14.0857 62.1863 13.9813 61.8726C13.8621 61.4841 14.0857 61.0657 14.4733 60.9462L20.3167 59.1682C22.031 58.6452 23.8049 58.1073 25.3254 57.1959C26.1751 56.6879 26.9652 56.0603 27.6509 55.3432C27.9341 55.0443 28.4112 55.0294 28.7093 55.3133C29.0074 55.5972 29.0223 56.0753 28.7391 56.3741C27.964 57.1959 27.0695 57.8981 26.1006 58.4809C24.4161 59.4819 22.5528 60.0497 20.7639 60.5876L14.9205 62.3656C14.9205 62.3656 14.7714 62.3955 14.6969 62.3955Z" fill="black"/>
<path d="M97.3422 77.2176C97.208 77.2176 97.0738 77.1877 96.9546 77.113C96.5968 76.9038 96.4776 76.4406 96.7012 76.082L98.4751 73.0938C98.5645 72.9294 98.7136 72.7053 98.967 72.526C99.2801 72.3318 99.608 72.3168 99.8167 72.3019C101.427 72.2272 102.917 71.5847 104.512 70.8824C105.288 70.5388 106.107 70.1802 106.927 69.9112C108.91 69.2389 111.071 68.9849 113.158 69.1642C113.576 69.1941 113.874 69.5676 113.829 69.971C113.799 70.3744 113.442 70.7031 113.024 70.6434C111.131 70.479 109.193 70.7181 107.404 71.3157C106.629 71.5697 105.854 71.9134 105.109 72.2421C103.469 72.9593 101.784 73.6914 99.9061 73.7811C99.8316 73.7811 99.772 73.7811 99.7273 73.7811L97.9832 76.8142C97.849 77.0532 97.5956 77.1728 97.3422 77.1728V77.2176Z" fill="black"/>
<path d="M68.0638 13.1185C67.8402 13.1185 67.6166 13.014 67.4675 12.8347C67.2141 12.5059 67.2737 12.0428 67.6017 11.7888C68.7197 10.9222 69.629 9.7119 70.1358 8.38212C70.2849 7.99364 70.7172 7.7994 71.1048 7.94881C71.4924 8.09823 71.6861 8.53153 71.5371 8.92001C70.9259 10.5187 69.8824 11.9232 68.5259 12.9841C68.3917 13.0887 68.2278 13.1335 68.0638 13.1335V13.1185Z" fill="black"/>
<path d="M98.1757 41.0592C97.9223 41.0592 97.639 40.9098 97.49 40.7006C97.3409 40.4765 97.2962 40.1179 97.4154 39.8789C97.49 39.7295 97.6241 39.595 97.7732 39.5203C98.0117 38.8927 98.131 38.2204 98.1459 37.548C98.1608 36.7113 97.9968 35.9792 97.6539 35.4114C97.2962 34.7988 96.7148 34.3655 96.1185 34.2758C95.9695 34.246 95.9247 34.2758 95.9247 34.2758C95.9247 34.2758 95.8651 34.3207 95.7757 34.4253C95.2539 34.993 94.8515 35.6355 94.5533 36.3527C94.3893 36.7412 93.957 36.9205 93.5844 36.7561C93.1968 36.5918 93.0179 36.1585 93.1819 35.7849C93.5397 34.9183 94.0465 34.1264 94.6726 33.4242C94.8515 33.2299 95.0452 33.0506 95.3285 32.9162C95.6266 32.7817 95.9695 32.7518 96.372 32.8116C97.4005 32.9759 98.3695 33.6782 98.9508 34.6643C99.4278 35.4712 99.6664 36.4872 99.6365 37.5928C99.6216 38.579 99.398 39.58 98.9956 40.4765C98.7869 40.9547 98.4291 41.0592 98.2204 41.0742C98.2055 41.0742 98.1906 41.0742 98.1608 41.0742L98.1757 41.0592Z" fill="black"/>
<path d="M58.3749 29.9281C58.211 29.9281 58.047 29.8683 57.9128 29.7637C57.5849 29.5097 57.5402 29.0316 57.7936 28.7178C59.4333 26.6559 61.3712 24.8629 63.5625 23.3987C64.6954 22.6367 65.8731 21.9643 67.0358 21.3218C67.3936 21.1126 67.8557 21.2471 68.0644 21.6057C68.2731 21.9643 68.1538 22.4125 67.7812 22.6217C66.6333 23.2642 65.4706 23.9216 64.3973 24.6388C62.3402 26.0284 60.5215 27.7018 58.9712 29.6442C58.8221 29.8235 58.6134 29.9281 58.3898 29.9281H58.3749Z" fill="black"/>
<path d="M77.3808 62.9339C77.0976 62.9339 76.8292 62.7696 76.71 62.5006C76.546 62.1271 76.71 61.6789 77.0826 61.5145C83.4181 58.6009 88.2479 52.2658 89.3659 45.3628C89.4255 44.9594 89.8131 44.6755 90.2156 44.7502C90.6181 44.81 90.9013 45.1985 90.8268 45.6019C89.6044 53.0876 84.5808 59.7066 77.6938 62.8742C77.5895 62.919 77.4851 62.9489 77.3808 62.9489V62.9339Z" fill="black"/>
</g>
<defs>
<clipPath id="clip0_11596_34462">
<rect width="144" height="139" fill="white"/>
</clipPath>
</defs>
</svg>
