<svg width="86" height="156" viewBox="0 0 86 156" fill="none" xmlns="http://www.w3.org/2000/svg">
<g clip-path="url(#clip0_11603_4583)">
<path d="M68.0293 48.1066C67.6568 48.4153 67.2714 48.7367 66.7962 48.8268C66.6549 48.8525 66.5007 48.8653 66.3594 48.9039C66.1539 48.9682 65.9869 49.1097 65.7942 49.1997C65.5116 49.3283 65.1776 49.354 64.895 49.4954C64.6767 49.6112 64.4326 49.7398 64.1757 49.7655C63.8802 49.354 63.5848 48.9296 63.4564 48.441C63.3921 48.1966 63.3793 47.9395 63.3279 47.6951C63.2123 47.0907 62.904 46.4735 63.0838 45.8819C65.5116 37.922 70.0589 29.6148 68.1963 21.5005C67.3999 18.0284 65.8199 14.5049 62.8655 12.5246C60.5404 10.9686 57.6631 10.5314 55.1711 9.24544C54.182 8.73107 53.2186 8.07524 52.1139 7.94664C51.1633 7.83091 50.2127 8.12667 49.3007 8.40958C46.7702 9.20687 44.2396 9.99129 41.7091 10.7886C39.8593 11.3672 37.9839 11.9588 36.3269 12.9618C32.3962 15.3665 30.1611 19.9831 29.8014 24.5739C29.4417 29.1647 30.7776 33.7555 32.6788 37.9605C33.822 40.4938 35.1836 42.9114 36.7379 45.2133L37.9582 45.8691C39.1657 47.3479 42.9037 49.8169 44.6764 50.5371C45.4728 50.8585 46.282 51.18 47.1298 51.3601V53.3533C47.0785 53.6105 46.8986 55.4751 46.7316 56.1052C42.2357 56.5681 35.5304 57.0311 32.6274 60.5031C32.0108 61.2361 31.5227 62.0591 31.0474 62.8821C30.3409 64.078 29.6344 65.274 28.9279 66.4699C27.0782 69.5947 25.2284 72.7196 23.5585 75.9601C22.2097 78.5706 20.9894 81.2454 19.7691 83.9201C18.6901 86.2734 17.6111 88.6267 16.5449 90.9799C21.105 90.1055 25.7037 89.2696 30.2638 88.4081C30.8033 88.3052 31.3428 88.2023 31.8566 87.9966C32.4475 87.7651 32.987 87.405 33.5009 87.045C37.5215 84.2931 41.5035 81.3225 46.1407 79.818C48.1061 79.175 50.3926 78.6478 51.4074 76.8346C51.7413 76.243 51.9083 75.5358 52.4478 75.1114C52.9488 74.7128 53.6425 74.6742 54.2333 74.4427C55.0811 74.1084 55.7106 73.3883 56.2886 72.681C61.7608 66.0327 65.9484 58.3299 68.5688 50.1256C68.8 49.4054 68.7743 48.0552 68.0165 48.1195L68.0293 48.1066Z" fill="#986A55"/>
<path d="M39.9623 47.5538L38.7676 47.3995C38.0868 48.2225 37.3033 49.0455 36.2756 49.3541C35.248 49.6628 33.9506 49.3284 33.5139 48.3511C33.2441 47.7467 33.334 47.0009 32.9615 46.4608C32.5119 45.8178 31.6127 45.7278 30.8292 45.7921C30.0456 45.8564 29.2235 46.0235 28.517 45.702C27.8105 45.3806 27.4251 44.2747 28.0546 43.8117C26.8856 43.4131 25.691 43.0016 24.7405 42.2171C23.7899 41.4327 23.1219 40.1854 23.366 38.9766C23.4559 38.5651 23.6486 38.1407 23.5587 37.7292C23.4174 37.0734 22.6723 36.7647 22.1714 36.3275C21.3236 35.5817 21.118 34.2957 21.375 33.1898C21.6319 32.0839 22.2741 31.1195 22.9036 30.1679C21.7089 29.5377 21.2337 27.8403 21.9273 26.6701C22.1971 26.22 22.6081 25.86 22.8907 25.4099C23.3917 24.5997 23.4431 23.6096 23.5715 22.6708C24.0596 18.8773 26.1791 17.0384 29.018 14.4665C30.3924 13.2191 30.9063 9.54134 31.921 7.98535C33.0643 6.22361 34.2974 4.37185 36.1729 3.45883C38.6649 2.23719 41.9019 2.8673 44.1113 1.18271C44.4838 0.899808 44.8178 0.552603 45.2674 0.39829C46.3336 0.0253666 47.4511 0.886948 48.5815 0.784073C49.2238 0.732635 49.8018 0.359712 50.4184 0.17968C51.2919 -0.0775088 52.2168 0.0253666 53.116 0.141101C55.4024 0.424009 57.7275 0.719775 59.847 1.61994C60.6819 1.98 61.4912 2.44294 62.4032 2.57153C62.8913 2.64869 63.418 2.62297 63.8419 2.88016C65.0365 3.58743 64.3814 5.54206 65.1136 6.73799C65.409 7.21379 65.8971 7.52241 66.3082 7.90819C67.734 9.25843 68.0809 11.496 69.6223 12.7176C70.7655 13.6178 72.4868 13.9264 73.0777 15.2509C73.3089 15.7653 73.3089 16.3311 73.3989 16.8841C73.9769 20.4076 77.8691 22.7094 78.2801 26.2457C78.5113 28.2518 77.5608 30.1679 76.6487 31.9682C76.0193 33.177 75.4027 34.3986 74.7733 35.6074C73.5016 38.0764 72.2042 40.584 70.2903 42.5901C68.3763 44.609 65.743 46.0878 62.9684 45.985C62.7886 45.5349 62.6986 45.1234 62.5188 44.6733C62.0821 43.9017 60.7204 40.8669 60.9131 40.0696C61.6196 37.2405 61.9022 34.2057 61.6068 31.2995C63.1097 31.3252 64.1887 29.8721 64.8053 28.4961C65.6274 26.6572 66.1155 24.5869 65.7301 22.6194C65.5118 21.5006 65.0108 20.4461 64.2915 19.5717C64.0731 19.3145 63.829 19.0573 63.5207 18.9159C62.9042 18.6587 62.172 18.9416 61.7095 19.4302C61.2471 19.9189 61.0159 20.5747 60.8232 21.2048C60.6177 21.8607 60.3479 22.6194 59.6928 22.8251C59.6928 23.1723 59.8341 23.5195 60.0525 23.7767C60.2195 23.9696 60.425 24.1239 60.6048 24.3168C60.9774 24.7283 61.1315 25.3327 61.0159 25.8728C60.8232 26.0786 60.4764 26.0528 60.2452 25.8985C60.0139 25.7442 59.847 25.4999 59.6543 25.2941C59.1918 24.8055 58.5624 24.5483 57.933 24.304C56.7641 23.8667 55.5823 23.4681 54.3877 23.1338C50.7267 22.105 46.8859 21.552 43.4305 19.9318C42.1588 19.3402 40.9642 18.6072 39.8595 17.7457C38.9732 17.0512 38.1382 16.2925 37.3161 15.521C36.9436 15.1738 36.5582 14.8137 36.1857 14.4665C36.1857 14.968 36.0701 15.4695 35.8774 15.9325C35.6462 16.4469 35.1324 16.9612 34.9654 17.4885C34.914 17.6685 34.8755 17.8485 34.8113 18.0286C34.7213 18.2858 34.58 18.5301 34.4387 18.7616C33.4496 20.4719 32.6404 22.2593 31.8183 24.0468C31.6513 24.4197 31.4714 24.8055 31.3687 25.2041C31.0219 26.4643 31.3687 27.8146 31.6898 29.0748C31.754 29.332 31.8311 29.5892 31.9467 29.8335C32.0752 30.0907 32.2679 30.3093 32.422 30.5408C33.5396 32.1996 33.257 34.4372 34.0791 36.2632C34.2204 36.5847 34.4002 36.8805 34.5287 37.202C34.6314 37.472 34.7085 37.7421 34.7727 38.025C35.7361 41.5099 37.9584 44.519 39.9623 47.5409V47.5538Z" fill="#211C2E"/>
<path d="M46.1933 44.5193C45.14 44.5193 44.0481 44.0563 42.892 42.899C42.648 42.6418 42.648 42.2431 42.892 41.986C43.1361 41.7288 43.5471 41.7416 43.8041 41.986C45.6153 43.8249 47.0539 43.6705 49.7129 41.343C49.9827 41.1115 50.3809 41.1372 50.625 41.4073C50.8562 41.6773 50.8305 42.076 50.5607 42.3203C49.1863 43.5162 47.7476 44.5193 46.1933 44.5193Z" fill="#211C2E"/>
<path d="M37.5868 24.9216C37.4455 24.9216 37.3171 24.883 37.2015 24.793C36.4693 24.2272 35.3517 24.2143 34.5938 24.7544C34.3113 24.9602 33.9002 24.8959 33.6947 24.613C33.4891 24.33 33.5534 23.9185 33.836 23.7128C35.0434 22.8384 36.7904 22.8641 37.9722 23.7771C38.2548 23.9957 38.3062 24.3943 38.0878 24.6772C37.9593 24.8444 37.7667 24.9344 37.574 24.9344L37.5868 24.9216Z" fill="#211C2E"/>
<path d="M45.3712 23.0185C45.1399 23.0185 44.9344 22.9027 44.806 22.6841C44.6261 22.3755 44.7417 21.9769 45.05 21.8097C46.0777 21.231 47.2723 20.9996 48.4412 21.141C48.788 21.1796 49.0449 21.5011 49.0064 21.8611C48.9679 22.2083 48.6339 22.4527 48.2871 22.4269C47.3879 22.3112 46.463 22.5041 45.6794 22.9413C45.5767 22.9928 45.4739 23.0185 45.3712 23.0185Z" fill="#211C2E"/>
<path d="M37.2274 32.1227C37.9581 32.1227 38.5505 31.5297 38.5505 30.7982C38.5505 30.0666 37.9581 29.4736 37.2274 29.4736C36.4967 29.4736 35.9043 30.0666 35.9043 30.7982C35.9043 31.5297 36.4967 32.1227 37.2274 32.1227Z" fill="#211C2E"/>
<path d="M48.7868 52.1702C48.1574 52.1702 47.5665 52.1188 47.0141 52.003C46.6673 51.9259 46.4489 51.5915 46.5131 51.2443C46.5902 50.8971 46.9242 50.6656 47.271 50.7428C48.3757 50.9743 49.6089 50.9357 51.176 50.6399C52.255 50.4342 53.0386 50.1898 53.7066 49.8426C54.5801 49.3926 55.3379 48.7239 55.8903 47.9009C56.083 47.6051 56.4812 47.5279 56.7766 47.7337C57.0721 47.9266 57.1491 48.3381 56.9436 48.621C56.2757 49.6112 55.3508 50.4342 54.2846 50.9871C53.501 51.3858 52.6147 51.6687 51.4072 51.9001C50.4438 52.0802 49.5703 52.1831 48.7739 52.1831L48.7868 52.1702Z" fill="#211C2E"/>
<path d="M68.5952 47.8878C69.8283 47.7335 71.0743 47.7464 72.3203 47.7464C71.4212 49.2252 71.0486 50.8455 70.1495 52.3243C69.9953 52.5815 69.7513 52.8258 69.5971 53.083C69.0705 53.9446 68.8135 54.5619 68.3768 55.462C68.0814 56.0793 67.8244 56.6194 67.4776 57.2109C66.9253 58.1882 67.195 58.2654 66.4885 59.1398C64.7544 61.3002 65.4095 64.6179 64.1764 67.0998C63.2129 69.0158 61.7229 71.6777 60.9907 73.6838C60.2457 75.7285 56.7774 79.3677 56.0324 81.4123C55.0561 84.0742 55.3387 82.8783 54.9534 85.6945C54.568 88.5622 53.1036 93.2816 52.7311 96.1492C52.3971 98.7597 52.9495 101.795 52.4613 104.379C51.9732 106.964 50.4318 109.202 51.4979 111.606C51.8319 112.352 52.2687 113.047 52.7183 113.741C55.2873 117.689 56.9572 122.974 61.2476 124.929C61.7871 125.173 62.2239 125.584 62.6606 125.996C64.0993 127.346 65.6407 128.941 65.6407 130.908C65.6407 131.153 65.615 131.397 65.6793 131.641C65.8334 132.271 66.5014 132.619 67.0923 132.876C66.7454 137.042 68.8007 141.067 68.9805 145.247C69.0448 146.584 68.9035 147.934 69.0319 149.272C69.1604 150.622 69.5586 151.946 69.61 153.297C69.6613 154.557 69.4044 155.83 69.61 157.064C69.8412 158.389 70.3935 159.701 70.1623 161.012C57.6766 160.472 45.2422 161.295 32.7436 160.819C30.1103 160.716 27.4899 160.575 24.8566 160.369C23.4179 160.266 21.9792 160.138 20.5405 160.138C19.3073 160.138 18.087 160.215 16.8539 160.266C14.8243 160.343 12.7819 160.086 10.7523 159.983C9.94304 159.353 9.19801 158.633 8.5429 157.836C7.75933 156.859 7.11705 155.791 6.47478 154.711C6.19219 154.235 5.90959 153.772 5.62699 153.297C4.4709 151.355 3.31481 149.4 2.14588 147.458C1.82475 146.905 1.49077 146.352 1.36231 145.722C1.25955 145.182 1.31093 144.629 1.22101 144.089C1.15679 143.729 1.02833 143.395 0.925568 143.048C0.604433 142.019 0.488824 140.939 0.386061 139.871C0.0777712 136.618 -0.410354 133.043 0.604433 129.931C1.42654 127.398 2.2358 124.864 3.05791 122.331C3.30197 121.585 3.54603 120.839 3.82863 120.106C4.68927 117.907 5.96097 115.901 7.23266 113.921C9.66045 110.102 12.0882 106.282 14.516 102.463C15.1968 101.396 15.9033 100.29 16.8924 99.5055C17.4062 99.094 18.01 98.7597 18.4467 98.2453C18.9862 97.6152 19.2046 96.7665 19.6799 96.0721C20.4506 94.9533 21.8379 94.3489 22.5701 93.1916C22.8527 92.7286 23.0325 92.2014 23.3151 91.7384C23.8032 90.954 24.5997 90.2082 25.3704 89.6809C25.2548 89.3466 25.1263 89.0122 25.0236 88.6779C23.906 85.1287 24.5226 81.078 26.6421 78.0174C27.4513 76.8601 28.4533 75.8442 29.2625 74.6869C30.0975 73.4909 30.7398 72.1535 31.7289 71.0862C32.4739 70.3018 33.3859 69.6845 34.1053 68.8744C34.9787 67.8714 35.5054 66.6111 36.3275 65.5567C37.368 64.2064 37.0469 63.0876 38.28 61.9046C39.9499 60.2972 40.1683 58.2139 41.7483 56.5165C42.3263 55.8992 42.0309 56.285 42.853 56.1178C43.5209 55.9892 44.343 55.8992 45.0238 55.8607C44.7669 56.3622 45.8588 55.3463 45.6404 55.8092C45.3707 56.375 47.0277 55.5392 46.7451 56.105C46.4497 56.7094 46.1157 59.7056 45.8074 60.3357C45.5248 60.9144 45.0238 61.4288 44.7541 61.9432C44.5743 62.2904 44.4972 62.7147 44.2917 63.0233C44.0476 63.4091 43.6879 63.8721 43.3668 64.1807C42.3263 65.2352 41.6584 67.3313 40.7592 68.7458C40.5151 69.1187 40.2197 69.4916 39.9756 69.8646C39.7315 70.2375 39.4489 70.4561 39.1535 70.829C38.8966 71.1634 38.781 71.6392 38.5883 72.0121C38.2158 72.7708 37.5607 73.6067 37.6763 74.5068C37.7405 74.944 38.0873 75.3298 38.3699 75.6513C38.8324 76.1914 39.0764 76.41 39.9885 76.3457C40.8234 76.2943 41.9024 75.8828 42.686 75.6384C43.2255 75.4713 44.0476 75.1755 44.4843 74.8669C45.2165 74.3396 46.6938 73.118 47.3103 72.7579C47.6572 72.5522 47.9526 72.295 48.2737 72.0121C48.7105 71.6263 49.0702 71.2791 49.6097 71.0605C50.2262 70.8033 50.8171 70.4947 51.1126 69.9031C51.408 69.3116 51.8191 68.6172 52.487 68.6172C52.7183 67.8714 53.3734 67.2927 54.1312 67.1255C54.3753 66.2768 55.146 65.5952 56.0195 65.4538C56.1865 64.6051 56.7517 63.8464 57.4967 63.422C58.0106 62.2904 58.8198 61.3002 59.8089 60.5543C60.0273 60.4 60.2457 60.2457 60.4383 60.0528C60.7209 59.7699 60.9136 59.397 61.1705 59.0884C61.4274 58.7797 61.8256 58.5354 62.2239 58.6126C63.3286 56.2722 64.6773 54.0346 66.2316 51.9642C66.7069 51.3341 67.2079 50.704 67.5162 49.971C67.7731 49.3666 68.1327 48.3636 68.5823 47.8878H68.5952Z" fill="#A184F6"/>
<path d="M15.6199 92.1631C16.943 90.71 18.7028 89.7584 20.4241 88.8325C20.8223 88.6139 21.2333 88.3953 21.6701 88.2796C22.261 88.1124 22.8904 88.1381 23.507 88.1767C24.085 88.2024 24.7658 88.0738 25.2796 88.331C26.0504 88.7168 26.7954 89.154 27.5404 89.5784C31.3683 91.7773 35.2477 94.0149 38.4076 97.1011C39.6408 98.3099 40.7583 99.6344 42.1071 100.702C43.0448 101.435 44.0981 102.039 44.9588 102.862C45.5368 103.415 46.025 104.045 46.5131 104.675C47.5664 106.051 48.9409 106.951 49.9942 108.327C50.5337 106.913 51.0732 105.485 51.6127 104.071C51.8054 103.569 51.9981 103.055 52.1265 102.528C52.2807 101.923 52.3449 101.293 52.422 100.663C52.8716 96.3553 53.1156 91.9831 54.3231 87.8295C54.9397 85.6948 55.8132 83.4444 55.1323 81.3226L72.358 47.6952C75.2611 47.438 77.9073 49.1869 80.2837 50.8586C81.003 51.3602 81.7352 51.8745 82.2875 52.5561C82.9298 53.3277 83.328 54.2793 83.7262 55.218C84.1116 56.131 84.4969 57.0569 84.7667 58.0213C85.1135 59.243 85.2934 60.5032 85.4347 61.7634C85.8329 65.2741 86.0256 68.8104 85.9999 72.3339C85.9742 76.346 84.9594 80.6539 83.662 84.4475C83.2895 85.5405 82.8399 86.6207 82.4032 87.688C80.6947 91.8288 78.9863 95.9695 77.2778 100.097C74.4518 106.951 70.2257 113.703 65.6656 119.541C63.3663 122.473 60.8871 125.495 57.4702 126.961C53.9891 128.452 50.1483 125.868 46.8856 123.952C43.0834 121.714 39.5766 118.988 36.2368 116.107C30.071 110.796 24.3291 104.855 20.347 97.757C19.8717 98.3614 19.1395 99.2101 18.6385 99.7888C16.5704 102.155 14.5023 104.508 12.4342 106.874C12.3443 106.964 12.2672 107.067 12.1516 107.131C11.8176 107.312 11.3295 106.99 11.3809 106.604C11.2011 106.553 11.0983 106.424 11.0212 106.257C10.6744 105.46 10.7772 104.547 10.9056 103.685C11.0598 102.618 11.2267 101.551 11.4965 100.496C11.9846 98.6314 12.8196 96.8825 13.6417 95.1337C14.0784 94.2078 14.9776 92.9347 15.6456 92.1503" fill="#986A55"/>
<path d="M11.4327 106.295C11.4327 106.295 11.3684 106.295 11.3299 106.295C10.9831 106.244 10.739 105.909 10.8032 105.562C10.9189 104.881 11.2015 104.251 11.4584 103.698L12.2291 102.026C12.4475 101.563 12.6915 101.023 13.1154 100.586C13.2824 100.406 13.4751 100.251 13.6678 100.097L13.8605 99.9427C14.2715 99.6084 14.6183 99.2097 14.9138 98.7597C15.1065 98.4639 15.5047 98.3739 15.8001 98.5668C16.0956 98.7597 16.1855 99.1583 15.9928 99.4541C15.6331 100.007 15.1964 100.509 14.6826 100.933L14.477 101.1C14.3357 101.216 14.1816 101.332 14.0531 101.46C13.7834 101.743 13.5907 102.155 13.4109 102.553L12.6401 104.225C12.4089 104.726 12.1649 105.241 12.0878 105.755C12.0364 106.077 11.7667 106.295 11.4584 106.295H11.4327Z" fill="#211C2E"/>
<path d="M47.1434 29.9752C47.8741 29.9752 48.4665 29.3822 48.4665 28.6507C48.4665 27.9192 47.8741 27.3262 47.1434 27.3262C46.4127 27.3262 45.8203 27.9192 45.8203 28.6507C45.8203 29.3822 46.4127 29.9752 47.1434 29.9752Z" fill="#211C2E"/>
<path d="M51.9598 112.584C51.7158 112.584 51.4717 112.443 51.3689 112.199C50.8423 110.951 50.2129 109.742 49.5064 108.598C49.3137 108.302 49.4164 107.903 49.7119 107.711C50.0073 107.518 50.4055 107.621 50.5982 107.916C51.3432 109.125 51.9984 110.385 52.5507 111.697C52.692 112.018 52.5379 112.404 52.2167 112.546C52.1397 112.584 52.0497 112.597 51.9598 112.597V112.584Z" fill="#211C2E"/>
<path d="M16.6092 91.6356C16.4422 91.6356 16.2752 91.5713 16.1596 91.4427C15.9155 91.1855 15.9155 90.7869 16.1596 90.5297C17.9837 88.7165 20.617 88.0478 22.7365 87.5206C23.1604 87.4177 23.6485 87.2891 24.1751 87.3149C25.2927 87.3663 26.2047 88.0993 26.8727 88.6265C27.1553 88.8451 27.1938 89.2566 26.9754 89.5267C26.7571 89.7967 26.346 89.8482 26.0763 89.6295C25.3955 89.0894 24.7789 88.6265 24.1238 88.6008C23.7898 88.5751 23.4301 88.6779 23.0704 88.768C21.0023 89.2823 18.6516 89.8739 17.0845 91.4427C16.956 91.5713 16.789 91.6356 16.6349 91.6356H16.6092Z" fill="#211C2E"/>
<path d="M43.3921 39.1433C42.7627 39.1433 42.1461 38.8861 41.6837 38.4103C41.0157 37.7159 40.7973 36.7514 41.1185 35.8641C42.0947 33.1636 42.2874 30.1545 41.6708 27.3769C41.5938 27.0297 41.8121 26.6825 42.159 26.6053C42.5058 26.5282 42.8526 26.7468 42.9297 27.094C43.5976 30.1031 43.3921 33.3694 42.3388 36.2885C42.159 36.79 42.3645 37.2401 42.6214 37.4973C42.9297 37.8059 43.3407 37.9216 43.7261 37.793C43.983 37.703 44.2142 37.5744 44.4069 37.4072C44.6767 37.1758 45.0749 37.1886 45.3189 37.4587C45.5501 37.7287 45.5373 38.1274 45.2676 38.3717C44.9464 38.6546 44.5611 38.8732 44.1372 39.0147C43.9059 39.0918 43.6619 39.1304 43.4178 39.1304L43.3921 39.1433Z" fill="#211C2E"/>
</g>
<defs>
<clipPath id="clip0_11603_4583">
<rect width="86" height="161" fill="white"/>
</clipPath>
</defs>
</svg>
