<svg width="108" height="132" viewBox="0 0 108 132" fill="none" xmlns="http://www.w3.org/2000/svg">
<g clip-path="url(#clip0_11603_4616)">
<path d="M34.6536 58.7553C32.6877 59.2654 30.431 58.3693 29.3512 56.646C28.479 55.2399 28.3544 53.4339 27.3161 52.1518C25.8901 50.4148 23.1212 50.084 21.986 48.1539C21.6399 47.5473 21.4876 46.8581 21.363 46.1688C20.7538 42.6809 20.74 39.0966 21.3491 35.6088C19.5494 34.5197 17.625 33.3065 16.8497 31.3489C16.3513 30.0944 16.4205 28.6882 16.4898 27.3372C16.5867 25.5037 16.7113 23.615 17.5696 21.9883C18.2757 20.6373 19.4248 19.5758 20.1585 18.2385C20.8923 16.9151 21.1692 15.3435 20.9338 13.8546C19.8539 13.9649 18.8987 12.9309 18.7879 11.8556C18.6772 10.7803 19.2309 9.71883 19.9232 8.89168C20.6154 8.06452 21.4876 7.37523 22.1936 6.54808C22.6643 5.99664 23.0935 5.37627 23.7442 5.08677C24.2841 4.83862 24.8933 4.8662 25.4748 4.83862C28.8113 4.67319 32.0093 2.82588 33.7952 0.0273438C36.1349 1.64029 39.0422 2.38473 41.8665 2.10901C42.9187 0.647709 45.0922 0.34442 46.8505 0.771782C48.6087 1.19915 50.1316 2.23309 51.6683 3.17053C52.1252 3.44625 52.6097 3.73575 53.1358 3.81847C53.7865 3.91497 54.4372 3.72197 55.074 3.54275C56.86 3.06024 58.7013 2.78452 60.5426 2.74317C61.747 2.71559 63.0899 2.85345 63.8514 3.77711C64.4605 4.52155 64.5021 5.56928 64.8897 6.46536C66.3018 9.81533 71.5765 9.67747 73.584 12.7242C75.0238 14.9023 74.29 18.0317 75.8406 20.141C77.1004 21.8642 79.6201 22.5121 80.5062 24.456C80.8107 25.1315 80.88 25.8897 81.1292 26.579C82.0152 29.0191 84.9779 30.246 85.8778 32.6861C86.7915 35.1125 85.3517 37.7318 83.9811 39.9237C83.0951 41.3299 82.209 42.7498 81.323 44.156C82.3475 45.893 82.0429 48.1815 80.963 49.8909C79.8832 51.6004 78.1665 52.7998 76.3805 53.751C69.9429 57.1837 62.3839 57.8454 55.0879 57.5697C52.5128 57.4732 49.9378 57.2664 47.3904 56.8942C46.8366 56.8115 46.269 56.7288 45.7152 56.7288C45.1061 56.7288 44.4969 56.839 43.9016 56.9493C40.662 57.5283 37.8239 57.9557 34.6259 58.7829L34.6536 58.7553Z" fill="black"/>
<path d="M20.8782 62.7253C14.9389 67.2471 10.7025 73.823 8.52896 80.9365C8.1967 82.0256 7.90597 83.1285 7.62908 84.2176C7.21375 85.8305 6.79842 87.4297 6.36924 89.0426C3.04659 101.863 -0.317594 114.864 0.0285158 128.098C0.0285158 128.567 0.070049 129.063 0.346937 129.449C0.623824 129.835 1.10838 130.001 1.57909 130.125C3.3927 130.607 5.27554 130.648 7.15837 130.676C34.944 131.117 62.7297 131.558 90.5154 131.999C95.0425 132.068 99.9711 131.999 103.501 129.187C106.284 126.954 107.641 123.342 107.945 119.799C108.167 117.249 107.904 114.698 107.641 112.148C107.253 108.384 106.866 104.621 106.353 100.871C105.107 91.786 103.155 82.7976 100.511 74.0298C98.6697 67.9226 96.4546 61.8568 93.0212 56.4803C92.2459 55.2672 91.3737 54.0678 90.197 53.2406C89.0479 52.441 87.6773 52.055 86.3067 51.7793C83.0256 51.1038 79.6337 50.9522 76.311 51.3657C73.2514 51.738 70.2472 52.5789 67.1599 52.6478C64.9586 52.6892 62.7712 52.3445 60.57 52.2618C53.3709 51.9999 47.2794 55.3637 40.3433 56.2735C33.1858 57.2248 26.8589 58.2311 20.9335 62.7391L20.8782 62.7253Z" fill="#F3FFF8"/>
<path d="M31.5653 14.833C30.1532 16.1151 28.7134 17.4385 27.7304 19.0791C26.2767 21.5054 25.9306 24.4556 26.0968 27.2817C26.2629 30.1078 26.8997 32.8788 27.2735 35.6911C27.4951 37.3316 27.6196 38.9721 27.9796 40.5851C28.7272 43.935 30.4577 46.9679 32.1745 49.9457C32.6452 50.7729 33.1436 51.6276 33.8773 52.2342C34.8603 53.0475 36.1478 53.337 37.3938 53.6127C38.889 53.9436 40.398 54.2745 41.8932 54.6053C41.4087 55.0465 41.6855 55.8185 41.8101 56.4664C42.1562 58.1207 41.3394 59.7613 40.5365 61.2501C39.8027 62.6287 39.0551 64.0211 38.3214 65.3997C37.0477 67.7847 36.7431 70.6797 37.0754 73.3679C37.2415 74.6914 37.6153 76.07 38.529 77.035C39.069 77.6002 39.775 78 40.4949 78.3309C43.1807 79.544 46.3788 79.8887 49.1061 78.7444C51.2243 77.8621 52.8856 76.1803 54.4501 74.4984C55.0731 73.8367 55.6822 73.1749 56.2498 72.4719C58.2019 70.018 59.4894 67.1367 61.0677 64.4347C63.8504 59.6648 66.5916 56.5078 70.2326 52.3582C67.0208 52.6615 64.3211 51.8068 61.8845 49.7113C60.7908 48.7601 60.0709 47.4505 59.4063 46.1684C58.1188 43.6455 56.9282 41.0676 55.8483 38.4483C57.2328 38.8343 58.728 38.1588 59.7248 37.1386C60.7216 36.1184 61.303 34.7812 61.8845 33.4715C62.2721 32.5892 62.1614 31.6242 62.4521 30.7006C63.0336 28.8119 63.0613 26.744 62.5352 24.8416C62.4798 24.6624 62.4244 24.4831 62.3275 24.3315C62.2168 24.1798 62.0506 24.0696 61.8983 23.9593C61.5522 23.7249 61.22 23.4906 60.8739 23.2562C60.5554 23.0356 60.237 22.815 59.8771 22.6634C58.9772 22.2912 57.9527 22.4015 56.9836 22.5393C56.3329 23.5043 55.6684 24.4694 55.0177 25.4481C54.7823 25.7928 54.547 26.1374 54.2147 26.3718C53.9932 26.5235 53.7301 26.62 53.4671 26.7165C52.8995 26.9232 52.3457 27.1162 51.7781 27.323C51.5981 27.392 51.4043 27.4471 51.2243 27.4333C50.989 27.4195 50.7951 27.2817 50.6013 27.1438C49.6876 26.5097 48.7462 25.8342 48.1509 24.8967C47.334 23.6008 47.1679 21.8225 45.9081 20.9402C45.1605 20.4301 44.1914 20.3612 43.2915 20.4301C42.3916 20.499 41.4917 20.692 40.5918 20.5955C39.8165 20.5266 39.069 20.2509 38.3352 19.9751C37.4768 19.6581 36.6185 19.341 35.8155 18.9274C34.0296 18.0038 32.6175 16.57 31.5653 14.8606V14.833Z" fill="#C69784"/>
<path d="M84.7416 115.47C84.5201 115.47 84.2986 115.36 84.1602 115.153C83.0665 113.485 82.3881 111.638 81.7236 109.846L79.5085 103.849C78.3732 100.774 77.1964 97.5899 76.2135 94.4054C74.6352 89.2494 73.5138 83.9005 72.434 78.717C72.3509 78.3448 72.6001 77.9863 72.9739 77.9036C73.3477 77.8209 73.7077 78.0691 73.7907 78.4413C74.8706 83.5834 75.9781 88.9048 77.5425 94.0056C78.5117 97.1625 79.6746 100.32 80.8098 103.366L83.0388 109.377C83.6756 111.1 84.3401 112.878 85.3369 114.409C85.5446 114.726 85.4615 115.153 85.1293 115.36C85.0185 115.429 84.8801 115.47 84.7555 115.47H84.7416Z" fill="black"/>
<path d="M43.4723 61.94C43.1954 61.94 42.9185 61.7608 42.8216 61.4851C42.6693 61.0715 42.6555 60.6579 42.6555 60.2995C42.6555 60.1754 42.6555 60.0376 42.6417 59.9135C42.5863 59.2518 42.3094 58.59 42.0187 57.9008C41.5756 56.8117 41.1049 55.695 41.4095 54.4405C41.4926 54.0683 41.8664 53.8477 42.2402 53.9304C42.614 54.0131 42.8355 54.3853 42.7524 54.7576C42.5586 55.5709 42.9185 56.4532 43.3062 57.3769C43.6246 58.1489 43.943 58.9347 44.0261 59.8032C44.0261 59.9549 44.0399 60.1065 44.0538 60.2581C44.0538 60.5339 44.0676 60.8096 44.1368 61.0164C44.2614 61.3748 44.0815 61.7746 43.7215 61.8987C43.6385 61.9262 43.5692 61.94 43.4862 61.94H43.4723Z" fill="black"/>
<path d="M58.3142 131.641C58.2172 131.641 58.1065 131.613 58.0096 131.572C57.6635 131.407 57.525 130.993 57.6912 130.648C58.5357 128.898 60.3354 128.222 62.0798 127.574C62.6059 127.381 63.132 127.174 63.6304 126.954C65.0702 126.292 66.3439 125.203 67.5761 124.169L67.8391 123.949C71.6048 120.778 76.1596 117.304 81.4897 115.58C87.2351 113.719 93.1466 114.326 97.3276 117.18C97.646 117.4 97.7153 117.828 97.5076 118.145C97.2861 118.462 96.8569 118.544 96.5385 118.324C92.7174 115.705 87.2489 115.167 81.905 116.904C76.8103 118.558 72.38 121.922 68.7251 125.01L68.4621 125.231C67.1607 126.333 65.8178 127.464 64.2119 128.208C63.6858 128.457 63.132 128.663 62.5644 128.87C61.0138 129.449 59.5463 130.001 58.9372 131.255C58.8126 131.503 58.5772 131.641 58.3142 131.641Z" fill="black"/>
<path d="M62.4668 111.404C60.3347 111.404 58.2304 110.866 56.3476 110.384C53.0941 109.557 49.7438 108.702 46.7949 106.827C44.3168 105.255 42.337 103.077 40.4265 100.982C39.3882 99.8376 38.1007 98.4177 37.8238 96.5841C37.7684 96.2119 38.0314 95.8535 38.4052 95.7984C38.779 95.7432 39.139 96.0051 39.1944 96.3774C39.4159 97.7973 40.5511 99.0518 41.4648 100.058C43.3061 102.085 45.2167 104.194 47.5425 105.669C50.2976 107.42 53.551 108.247 56.6937 109.047C58.9088 109.612 61.1931 110.191 63.4497 109.97C63.8374 109.943 64.1696 110.205 64.2112 110.591C64.2527 110.963 63.9758 111.307 63.5882 111.349C63.2144 111.39 62.8406 111.404 62.4668 111.404Z" fill="black"/>
<path d="M24.2414 100.127C25.0305 96.3492 25.5704 92.5167 25.8335 88.6704C25.9858 86.4096 26.055 84.1349 26.4703 81.9016C27.0379 78.8135 28.2424 75.8358 28.5193 72.7202C28.6162 71.7 28.6023 70.6523 28.81 69.6459C29.1284 68.0881 29.9453 66.6544 30.2221 65.0966C30.3883 64.1591 30.3467 63.2079 30.3052 62.2567C30.2083 60.0785 30.1252 57.9003 30.0283 55.7084C29.9314 53.3372 29.876 50.7868 31.2328 48.8292C31.6896 48.1675 32.2988 47.6023 32.5895 46.8578C32.8803 46.1134 32.728 45.0932 31.9942 44.7761C31.0113 44.3488 30.0837 45.4379 29.5438 46.3615C27.9932 49.0911 26.4011 51.9172 26.0688 55.0466C25.4735 50.1113 27.6886 45.2311 30.5544 41.178C30.7067 40.9574 30.8728 40.7369 30.9005 40.4749C31.0113 39.7305 30.0283 39.2066 29.3084 39.441C28.5885 39.6754 28.1178 40.3509 27.7025 40.985C26.7887 42.3912 25.875 43.7973 24.9474 45.2035C24.5183 45.8652 24.0752 46.5407 23.8676 47.299C23.6184 48.1537 23.6737 49.0636 23.4938 49.9321C23.2584 51.1039 22.6908 51.6415 22.0816 52.6617C21.9155 51.0349 21.7494 49.422 21.5971 47.7953C21.5556 47.3679 21.514 46.9267 21.5971 46.4994C21.7079 45.9893 22.0124 45.5482 22.3032 45.107C24.2552 42.2533 26.1934 39.3859 28.1455 36.5322C27.2456 35.6912 26.3873 36.2565 25.5427 36.4908C25.8889 35.9945 25.9996 35.3466 25.8612 34.7676C24.6705 34.8365 23.6461 35.5947 22.7739 36.4081C19.3405 39.5926 17.0423 43.9766 16.4055 48.6086C15.5886 54.4814 17.3192 60.3542 18.5929 66.1443C18.8836 67.4953 19.1605 68.8739 19.022 70.2525C18.8698 71.7276 18.2606 73.1062 17.6514 74.4434C14.1765 82.1221 10.4247 89.6906 6.4375 97.1212C7.66965 97.3004 8.88795 97.5486 10.1201 97.7278C10.7016 97.8105 11.283 97.8932 11.8645 97.9759C16.0455 98.5549 20.2542 98.8031 24.2414 100.168V100.127Z" fill="#C69784"/>
<path d="M18.9265 52.0549C18.9265 52.0549 18.885 52.0549 18.8712 52.0549C18.4835 52.0273 18.2066 51.6965 18.2343 51.3105L18.5251 47.5469C18.6773 45.548 18.8712 43.0665 20.1587 41.0813C20.9063 39.9233 21.9585 39.041 22.9691 38.2001C23.7167 37.5659 24.4366 36.9731 25.0319 36.2701C25.2811 35.9806 25.7103 35.9392 26.001 36.1874C26.2918 36.4355 26.3333 36.8629 26.0841 37.1524C25.4196 37.9519 24.6166 38.6137 23.8551 39.2478C22.886 40.0612 21.9585 40.8332 21.3216 41.8258C20.2279 43.5077 20.0618 45.6996 19.9095 47.6434L19.6188 51.407C19.5911 51.7654 19.2865 52.0411 18.9265 52.0411V52.0549Z" fill="black"/>
<path d="M49.9099 31.7076C49.453 31.6249 48.8993 31.5835 48.6362 31.9696C48.4839 32.1901 48.5116 32.4934 48.5393 32.7691C48.5808 33.1551 48.6501 33.5963 48.9546 33.8307C49.1208 33.9547 49.3423 34.0099 49.5499 34.0374C49.8684 34.0788 50.2006 34.0788 50.519 34.0374C50.3252 33.3757 50.9067 32.5623 50.4775 32.0385C50.1729 31.6663 49.5915 31.7214 49.1208 31.8179" fill="#D9544F"/>
<path d="M30.279 19.8376C30.0021 19.7824 29.6421 19.7686 29.4898 20.003C29.3929 20.1408 29.4068 20.3338 29.4345 20.4993C29.4621 20.7474 29.5037 21.0094 29.6975 21.161C29.8083 21.2437 29.9329 21.2713 30.0713 21.2851C30.2651 21.3126 30.4728 21.3126 30.6666 21.2851C30.542 20.8715 30.902 20.3752 30.6389 20.0443C30.4451 19.81 30.099 19.8513 29.7944 19.9065" fill="#D9544F"/>
<path d="M42.9469 37.4557C42.67 37.4006 42.3101 37.3868 42.1578 37.6211C42.0609 37.759 42.0747 37.952 42.1024 38.1174C42.1301 38.3656 42.1716 38.6275 42.3655 38.7792C42.4762 38.8619 42.6008 38.8894 42.7393 38.9032C42.9331 38.9308 43.1408 38.9308 43.3346 38.9032C43.21 38.4897 43.5699 37.9934 43.3069 37.6625C43.1131 37.4281 42.767 37.4695 42.4624 37.5246" fill="#D9544F"/>
<path d="M48.7184 40.1032C48.4415 40.048 48.0816 40.0342 47.9293 40.2686C47.8324 40.4065 47.8462 40.5995 47.8739 40.7649C47.9016 41.013 47.9431 41.275 48.137 41.4266C48.2477 41.5093 48.3723 41.5369 48.5108 41.5507C48.7046 41.5783 48.9122 41.5783 49.1061 41.5507C48.9815 41.1371 49.3414 40.6408 49.0784 40.31C48.8846 40.0756 48.5384 40.117 48.2339 40.1721" fill="#D9544F"/>
<path d="M51.5153 57.2116C51.2384 57.1564 50.8785 57.1426 50.7262 57.377C50.6293 57.5149 50.6431 57.7079 50.6708 57.8733C50.6985 58.1214 50.74 58.3834 50.9338 58.535C51.0446 58.6177 51.1692 58.6453 51.3076 58.6591C51.5015 58.6867 51.7091 58.6867 51.9029 58.6591C51.7783 58.2455 52.1383 57.7492 51.8753 57.4184C51.6814 57.184 51.3353 57.2254 51.0307 57.2805" fill="#D9544F"/>
<path d="M44.8981 73.6715C44.6212 73.6164 44.2613 73.6026 44.109 73.837C44.0121 73.9748 44.0259 74.1678 44.0536 74.3333C44.0813 74.5814 44.1228 74.8433 44.3166 74.995C44.4274 75.0777 44.552 75.1053 44.6904 75.1191C44.8843 75.1466 45.0919 75.1466 45.2857 75.1191C45.1611 74.7055 45.5211 74.2092 45.2581 73.8783C45.0642 73.644 44.7181 73.6853 44.4136 73.7405" fill="#D9544F"/>
<path d="M59.8779 30.7005C59.8779 30.7005 59.781 30.7005 59.7256 30.6867C59.3518 30.604 59.1165 30.2318 59.1995 29.8595C59.4487 28.7567 59.5733 27.6262 59.5595 26.4958C59.1995 26.3304 58.7981 26.1925 58.4104 26.0684C57.8289 26.7439 57.3721 27.5435 57.0814 28.3982C56.9568 28.7567 56.5691 28.9497 56.2092 28.8256C55.8492 28.7015 55.6554 28.3155 55.78 27.9571C56.1815 26.7853 56.846 25.6962 57.7044 24.8139C57.8843 24.6347 58.1474 24.5658 58.3827 24.6347C58.9919 24.8001 59.5872 25.0207 60.1548 25.2688C60.2933 25.324 60.5424 25.4343 60.7224 25.6962C60.9439 25.9995 60.9439 26.3304 60.9439 26.4958C60.9578 27.7365 60.8332 28.9773 60.5563 30.1766C60.4871 30.4937 60.1963 30.7143 59.8779 30.7143V30.7005Z" fill="black"/>
<path d="M37.52 47.2712C37.0355 47.2712 36.5094 47.2436 35.9141 47.1747C35.5403 47.1333 35.2634 46.7887 35.3049 46.4164C35.3464 46.0442 35.6925 45.7685 36.0663 45.8099C39.1536 46.1407 40.2335 45.5066 42.5871 44.1142L43.127 43.7971C43.4592 43.6041 43.8746 43.7144 44.0684 44.0453C44.2622 44.3761 44.1515 44.7897 43.8192 44.9827L43.2793 45.2998C41.2303 46.5129 39.9428 47.2849 37.5062 47.2849L37.52 47.2712Z" fill="black"/>
<path d="M36.0788 39.9651C36.0788 39.9651 35.9819 39.9651 35.9265 39.9651C35.262 39.9375 34.6667 39.5653 34.3344 38.9725C33.9745 38.3384 33.9745 37.5664 34.3344 36.9322C35.4558 34.9195 35.9681 32.5483 35.8019 30.2736C35.7742 29.8876 36.065 29.5567 36.4388 29.5292C36.8264 29.4878 37.1587 29.7911 37.1864 30.1633C37.3802 32.6999 36.7987 35.333 35.5527 37.5939C35.4143 37.8559 35.4558 38.1178 35.5527 38.297C35.6081 38.4073 35.7465 38.5727 36.0096 38.5865C36.328 38.6141 36.6326 38.5176 36.8679 38.3659C37.1864 38.1591 37.6155 38.2419 37.8232 38.5589C38.0309 38.876 37.9478 39.3034 37.6294 39.5102C37.1864 39.7997 36.6464 39.9651 36.0788 39.9651Z" fill="black"/>
<path d="M38.5847 26.6482C38.2247 26.6482 37.9201 26.3724 37.8924 26.0002C37.8648 25.6142 38.1555 25.2971 38.5431 25.2696C39.0692 25.242 39.623 25.0766 40.1491 24.9249C41.2013 24.6079 42.4057 24.2494 43.5825 24.9801C43.9148 25.1869 44.0117 25.6004 43.804 25.9313C43.5963 26.2622 43.181 26.3587 42.8487 26.1519C42.2396 25.7797 41.5751 25.9451 40.5367 26.2484C39.9553 26.4138 39.3046 26.6068 38.6262 26.6482C38.6124 26.6482 38.5985 26.6482 38.5847 26.6482Z" fill="black"/>
<path d="M41.4375 32.424C42.0415 32.424 42.5312 31.7575 42.5312 30.9352C42.5312 30.1129 42.0415 29.4463 41.4375 29.4463C40.8334 29.4463 40.3438 30.1129 40.3438 30.9352C40.3438 31.7575 40.8334 32.424 41.4375 32.424Z" fill="black"/>
<path d="M29.0742 28.5368C28.742 28.5368 28.4512 28.3024 28.3958 27.9715C28.3266 27.5993 28.5897 27.2409 28.9635 27.172C29.4342 27.0892 29.891 26.8962 30.3756 26.6894C31.317 26.2897 32.383 25.8347 33.546 26.3862C33.8921 26.5516 34.0444 26.9652 33.8782 27.3098C33.7121 27.6545 33.2968 27.8061 32.9506 27.6407C32.383 27.365 31.8016 27.5855 30.9017 27.9578C30.3894 28.1783 29.8218 28.4127 29.185 28.523C29.1434 28.523 29.1019 28.523 29.0604 28.523L29.0742 28.5368Z" fill="black"/>
<path d="M32.2578 33.8996C32.8618 33.8996 33.3515 33.233 33.3515 32.4108C33.3515 31.5885 32.8618 30.9219 32.2578 30.9219C31.6537 30.9219 31.1641 31.5885 31.1641 32.4108C31.1641 33.233 31.6537 33.8996 32.2578 33.8996Z" fill="black"/>
<path d="M41.5193 55.1024C41.2008 55.1024 40.9101 54.8818 40.8409 54.5509C40.7578 54.1787 40.9932 53.8065 41.367 53.7376C43.5821 53.2689 45.368 52.6071 46.8355 51.7386C50.172 49.7397 52.6917 46.0037 53.73 41.4957C53.8131 41.1235 54.1869 40.8891 54.5607 40.9856C54.9345 41.0683 55.1698 41.4406 55.0729 41.8128C53.9377 46.693 51.1965 50.746 47.5416 52.9242C45.9495 53.8754 44.0113 54.5923 41.6577 55.1024C41.6023 55.1024 41.5608 55.1162 41.5054 55.1162L41.5193 55.1024Z" fill="black"/>
<path d="M47.0708 68.0885C45.9495 68.0885 44.8419 67.5784 44.1497 66.6961C43.9143 66.3929 43.9697 65.9655 44.2743 65.7311C44.5789 65.4968 45.008 65.5519 45.2434 65.8552C45.811 66.5859 46.9047 66.9029 47.7769 66.5996C47.9846 66.5307 48.1369 66.4342 48.2061 66.3377C48.2615 66.255 48.3168 66.1171 48.3722 65.9655C48.4137 65.8552 48.4414 65.7449 48.4968 65.6484C49.1475 64.1044 50.9057 63.5805 52.1794 63.1945C55.1421 62.2984 57.9941 61.0715 60.6799 59.5413C61.0121 59.3483 61.4275 59.4585 61.6213 59.7894C61.8151 60.1203 61.7044 60.5338 61.3721 60.7268C58.6032 62.3122 55.6405 63.5943 52.5809 64.5042C51.501 64.8213 50.172 65.2348 49.7705 66.1723C49.7428 66.2412 49.7151 66.3239 49.6874 66.4066C49.6044 66.6272 49.5213 66.8891 49.3413 67.1373C49.106 67.4682 48.7322 67.7301 48.2476 67.8955C47.8738 68.0334 47.4723 68.0885 47.0847 68.0885H47.0708Z" fill="black"/>
<path d="M20.7666 122.901C20.7666 122.901 20.6697 122.901 20.6282 122.887C20.2544 122.804 20.019 122.446 20.0882 122.074L21.9849 113.003C22.8848 108.674 23.8262 104.207 23.2309 99.7958C23.1755 99.4236 23.4524 99.079 23.8262 99.0238C24.2139 98.9825 24.56 99.2444 24.6015 99.6166C25.2245 104.262 24.2139 109.06 23.3278 113.292L21.4311 122.363C21.3619 122.694 21.0712 122.915 20.7528 122.915L20.7666 122.901Z" fill="black"/>
<path d="M3.83512 102.457C3.71052 102.457 3.59976 102.429 3.48901 102.36C3.15674 102.167 3.04599 101.74 3.25365 101.409C4.18122 99.8648 5.02573 98.2519 5.77333 96.6114C5.92562 96.2667 6.34095 96.1151 6.68706 96.2667C7.03317 96.4184 7.18545 96.8319 7.03317 97.1766C6.27173 98.8585 5.39953 100.527 4.44427 102.112C4.31967 102.333 4.08431 102.443 3.84896 102.443L3.83512 102.457Z" fill="black"/>
<path d="M28.8395 44.5283C28.6319 44.5283 28.4242 44.4318 28.2857 44.2664C28.0504 43.9631 28.1058 43.5357 28.4103 43.3014C28.5073 43.2324 28.5765 43.1359 28.6319 43.0394C28.6734 42.9567 28.7011 42.874 28.7288 42.7913C28.7703 42.681 28.8118 42.5707 28.8672 42.4604C29.0472 42.0882 29.2964 41.7987 29.5179 41.5505C29.601 41.454 29.6702 41.3713 29.7532 41.2748C29.9194 41.068 30.1824 40.6545 30.127 40.296C30.1132 40.1857 30.0301 40.0617 29.9332 40.0065C29.7671 39.9927 29.6563 40.0617 29.5594 40.1306C29.4071 40.2271 29.241 40.3512 29.0333 40.4201C28.8118 40.6958 28.5626 40.944 28.2719 41.1508C27.9673 41.3851 27.5381 41.3162 27.3028 41.0129C27.0674 40.7096 27.1367 40.2822 27.4412 40.0479C27.6766 39.8687 27.8843 39.6481 28.0642 39.4137L28.2304 39.1794L28.5211 39.138C28.5211 39.138 28.6872 39.0415 28.7703 38.9864C28.9503 38.8623 29.1579 38.7244 29.4487 38.6417C29.8502 38.5314 30.2932 38.6004 30.667 38.8485C31.0961 39.1242 31.4007 39.5792 31.4838 40.0755C31.5945 40.7372 31.3592 41.454 30.8331 42.1296C30.75 42.2398 30.6531 42.3501 30.5562 42.4466C30.3762 42.6534 30.2101 42.8464 30.1132 43.0394C30.0855 43.1084 30.0578 43.1911 30.0301 43.26C29.9748 43.3979 29.9332 43.5219 29.864 43.646C29.7256 43.9355 29.504 44.1837 29.2548 44.3767C29.1302 44.4732 28.978 44.5145 28.8257 44.5145L28.8395 44.5283Z" fill="black"/>
<path d="M31.3718 49.5463C31.1503 49.5463 30.9149 49.436 30.7903 49.2292C30.5827 48.9122 30.6796 48.4848 30.998 48.278C31.0949 48.2091 31.1918 47.9885 31.2887 47.7817C31.3441 47.6577 31.3995 47.5336 31.4549 47.4233C31.5795 47.2027 31.7179 46.9821 31.8702 46.7754C32.0502 46.5134 32.2163 46.2928 32.2717 46.0723C32.327 45.8793 32.3132 45.6173 32.2855 45.3554C32.2855 45.3278 32.2855 45.3003 32.2855 45.2727C32.2578 45.2727 32.1886 45.2727 32.0917 45.2727C31.8287 45.2727 31.5656 45.2589 31.3856 45.3278C31.1918 45.3968 31.0257 45.5898 30.818 45.8103C30.6519 45.9758 30.4857 46.155 30.3058 46.2929C30.0012 46.5272 29.572 46.4859 29.3367 46.1826C29.1013 45.8793 29.1428 45.4519 29.4474 45.2175C29.5859 45.1073 29.6966 44.9832 29.8212 44.8591C30.0981 44.5696 30.4165 44.225 30.8872 44.0458C31.3303 43.8665 31.7871 43.8941 32.1471 43.8941C32.424 43.8941 33.0746 43.9217 33.4484 44.4593C33.6561 44.7488 33.67 45.0797 33.6838 45.2727C33.6976 45.6036 33.7253 46.0171 33.6284 46.4169C33.5038 46.8856 33.2408 47.2441 33.0193 47.5749C32.9085 47.7266 32.7978 47.892 32.7008 48.0574C32.6593 48.1402 32.6178 48.2367 32.5763 48.3332C32.424 48.6916 32.2163 49.1465 31.7594 49.436C31.6487 49.505 31.5102 49.5463 31.3856 49.5463H31.3718Z" fill="black"/>
</g>
<defs>
<clipPath id="clip0_11603_4616">
<rect width="108" height="132" fill="white"/>
</clipPath>
</defs>
</svg>
