<svg width="143" height="136" viewBox="0 0 143 136" fill="none" xmlns="http://www.w3.org/2000/svg">
<g clip-path="url(#clip0_11603_4710)">
<path d="M38.2513 42.0834C37.1584 45.1097 36.9597 48.3787 37.0448 51.6049C37.1016 54.0317 37.3145 56.5156 38.3364 58.714C39.3584 60.9124 41.3455 62.7967 43.7442 63.0965C45.3197 63.2963 46.9661 62.811 48.499 63.2392C51.4513 64.0672 52.8422 67.8644 55.7945 68.6495C56.6603 68.8779 57.5829 68.8208 58.4771 68.9208C60.3648 69.1206 62.0964 69.9914 63.9416 70.4625C65.9571 70.9621 68.0577 70.9764 70.13 70.9764C72.7558 70.9764 75.3816 70.9764 77.9932 70.748C86.2397 70.0342 94.2874 67.0364 101.001 62.1686C101.555 61.7689 102.108 61.3406 102.491 60.7839C102.988 60.0701 103.173 59.1851 103.428 58.3571C104.18 56.016 105.642 53.9603 107.133 52.0046C107.785 51.1481 108.467 50.2488 108.595 49.1924C108.708 48.3216 108.424 47.4651 108.169 46.6229C107.062 43.1254 106.111 39.5995 105.287 36.0307C102.69 36.0307 100.164 35.0171 97.5661 35.0314C95.2809 35.0314 93.0242 35.8594 91.25 37.3012C88.6668 35.8594 85.5016 35.5168 82.6771 36.359C82.2229 36.5017 81.8397 37.2726 82.3081 37.2726C78.6887 37.087 75.0693 36.8872 71.45 36.7016C71.0384 36.673 70.5842 36.673 70.2577 36.93C69.9313 37.187 69.9029 37.8151 70.2861 37.9435C67.4758 37.5153 64.6655 37.0728 61.8693 36.6445C61.0177 36.516 60.1661 36.3875 59.3145 36.2448C57.81 36.0164 56.2913 35.7737 54.7726 35.7309C53.7364 35.7023 52.7003 35.7594 51.6642 35.788C49.1803 35.8451 45.5751 34.7602 43.2474 35.5881C40.9197 36.4161 39.0461 39.8421 38.2513 42.0691V42.0834Z" fill="black"/>
<path d="M94.7126 60.8271C100.844 62.3546 104.208 60.8271 108.622 65.3666C110.141 66.9369 115.109 73.2037 115.535 76.0873C115.733 77.4577 116.485 78.3428 117.28 79.4848C118.827 81.726 119.622 84.4098 120.289 87.065C121.723 92.6609 122.787 98.3567 123.497 104.081C123.682 105.637 123.852 107.207 123.625 108.749C123.398 110.305 122.773 111.761 122.305 113.246C120.36 119.527 121.184 126.479 118.941 132.66C114.754 132.731 110.567 132.803 106.38 132.874C101.795 132.946 97.2248 133.031 92.6403 133.103C84.5784 133.245 76.5164 133.374 68.4545 133.517C61.3293 133.631 54.19 133.759 47.079 134.302C37.1293 135.058 34.2481 137.043 24.4261 135.272C23.9861 135.201 23.5461 135.101 23.1771 134.844C21.8855 133.931 21.9423 129.191 22.5526 127.721C24.2842 123.624 22.6945 122.653 21.4171 118.399C21.1616 117.571 25.5048 112.76 25.5616 111.89C25.6468 110.662 26.4842 109.606 26.6829 108.378C26.8674 107.207 26.4558 106.037 26.2855 104.866C25.7035 101.012 27.6197 97.2432 28.0881 93.3746C28.2726 91.8186 28.23 90.2341 28.4145 88.6638C28.7977 85.252 30.2171 82.0544 31.821 79.028C33.9074 75.1309 36.6468 71.1766 40.8197 69.7634C41.8984 69.4065 46.3693 66.0804 52.5293 64.2674C56.0919 63.2111 59.8248 62.9113 63.5293 62.6115C69.2352 62.1547 74.941 61.6979 80.6468 61.2411C85.2455 60.8699 90.1848 59.6565 94.7268 60.7843L94.7126 60.8271Z" fill="#A184F6"/>
<path d="M42.8643 40.2701C40.6927 38.6856 39.5147 35.8163 39.9547 33.1611C40.0966 32.2617 40.4088 31.3909 40.3805 30.4916C40.3521 29.6922 40.0682 28.9213 40.1108 28.1219C40.1534 27.3225 40.7069 26.4374 41.4876 26.4803C41.374 23.8965 42.3392 21.2984 44.0992 19.4283C44.3972 19.1143 44.7237 18.8002 44.9508 18.429C45.5469 17.4441 45.334 16.1736 45.1069 15.0458C45.0076 14.5605 45.2347 13.9038 45.5185 13.5041C46.725 13.0758 47.5624 12.7903 48.7688 12.3621C48.854 12.3335 48.9392 12.305 48.9959 12.2336C49.1095 12.1051 49.0811 11.9338 49.0669 11.7625C48.9676 10.6919 49.663 9.72117 50.3869 8.93603C51.3805 7.83684 52.5159 6.8233 53.8359 6.16664C55.1559 5.50998 56.703 5.2102 58.1508 5.56708C58.2076 5.2673 58.3921 5.12455 58.5624 4.88187C59.7688 3.19739 61.3301 1.72704 63.2037 0.856256C65.0772 -0.0145327 67.2772 -0.271487 69.2359 0.413724C70.0308 0.684953 70.8114 1.11321 71.6347 1.04183C71.9327 1.01328 72.2308 0.927632 72.5147 0.84198C74.885 0.199596 77.4682 0.313797 79.7676 1.18459C80.4347 1.44154 81.0734 1.75559 81.7263 2.05537C82.3792 2.36943 83.0463 2.69776 83.6992 3.01181C84.8063 3.55427 85.9417 4.11101 86.7508 5.05317C88.3688 4.71056 90.1572 5.28157 91.2927 6.50924C92.2153 7.52278 92.6837 8.8932 93.6347 9.87819C94.3585 10.6348 95.3095 11.1344 95.9908 11.9338C97.3108 13.5041 97.2256 15.9023 98.503 17.5012C99.2553 18.4433 100.462 19.1285 100.689 20.3134C100.873 21.3126 100.277 22.2548 99.8514 23.1827C99.7521 23.3968 99.6669 23.6395 99.6953 23.8822C99.7379 24.1677 99.9508 24.3961 100.149 24.6245C102.009 26.7229 102.605 29.8635 101.654 32.5044C100.987 34.3602 102.903 36.3016 102.491 38.2288C102.151 39.7848 100.675 40.7983 99.3263 41.6263C98.6592 42.0403 98.0063 42.44 97.3392 42.8539C97.4243 42.7397 97.5095 42.6255 97.6088 42.5113C90.654 43.1823 83.5288 41.5549 76.6024 40.627C71.4359 39.9275 66.1843 39.9704 61.0179 39.2709C60.1805 39.1567 59.3288 39.0282 58.4914 39.071C57.6256 39.1281 56.774 39.3708 55.9224 39.5421C52.2037 40.2844 48.343 39.5278 44.5817 39.9989C44.8088 40.1559 45.0501 40.3272 45.2772 40.4843C44.3547 40.1274 43.4463 39.7705 42.5237 39.3993C42.4669 39.6848 42.6656 40.0988 42.8785 40.2987L42.8643 40.2701Z" fill="black"/>
<path d="M51.026 36.5731C50.4156 38.643 50.7705 41.0269 52.1473 42.6828C53.524 44.3388 55.9369 45.1239 57.9524 44.3816C57.9098 47.0082 59.826 49.2066 60.706 51.6762C61.3447 53.4892 61.4015 55.4306 61.4724 57.3435C61.515 58.7425 61.5576 60.17 61.1034 61.4976C60.6492 62.8252 59.5847 64.0243 58.2079 64.2242C57.3563 67.2077 57.6827 70.5052 59.1163 73.2461C60.5782 76.0726 63.0763 78.1853 64.9356 80.7691C66.8092 83.3672 70.2866 86.779 70.7124 89.9481C75.0414 89.6626 69.8182 86.2365 73.6505 84.1666C75.964 82.9104 77.2982 81.4543 79.2427 79.6699C82.0105 77.1289 83.586 73.9027 85.8995 70.9478C86.3679 70.3625 89.0363 64.9807 89.235 64.2527C89.8169 62.0829 90.0298 60.5126 87.8014 60.327C85.1047 60.0986 87.4466 60.5411 84.4376 60.327C84.2956 57.6861 84.2531 56.901 84.1111 54.26C84.0969 53.9032 84.0827 53.532 84.2247 53.2037C84.3808 52.8754 84.6931 52.6469 84.9769 52.4043C87.6169 50.1773 87.9008 46.2659 87.9576 42.8113C88.0144 38.7143 88.0144 34.5888 87.2195 30.5775C86.4673 26.7945 85.0053 23.1829 83.4724 19.6426C83.0608 18.6862 82.6208 17.7012 81.8543 17.016C80.8182 16.0881 79.3847 15.8169 78.0079 15.617C74.6866 15.1317 71.3369 14.8462 67.9731 14.7462C65.404 14.6749 62.6363 14.7891 60.5498 16.3022C59.5279 17.0446 58.7473 18.0866 58.0802 19.1716C56.0931 22.4263 55.0569 26.2663 55.1137 30.0921C55.1137 30.9914 55.1563 31.9051 55.3976 32.7758C55.5679 33.3469 55.9227 33.7751 55.795 34.4032C55.3976 36.4018 52.6014 36.5302 51.0544 36.5445L51.026 36.5731Z" fill="#986A55"/>
<path d="M59.0878 22.5266C58.7046 22.755 58.293 22.9548 57.9524 23.2689C57.5124 23.6828 57.2285 24.2824 56.9446 24.8534C55.2556 28.4079 53.4672 32.1623 50.4582 34.2893C49.6491 34.8603 48.3575 35.1601 47.9317 34.1894C47.8182 33.9182 47.804 33.6041 47.7898 33.3043C47.7188 31.2487 47.6478 29.2074 47.5769 27.1517C47.5343 26.0525 47.5059 24.9248 47.8749 23.9112C48.3007 22.7407 49.2091 21.8984 50.0749 21.1133C52.3743 19.0291 61.7278 8.12286 64.5098 9.93581C68.853 12.748 61.3304 21.2418 59.0595 22.5408L59.0878 22.5266Z" fill="black"/>
<path d="M84.0548 22.0695C84.3954 22.3693 84.7503 22.6405 85.0199 23.0117C85.3748 23.5113 85.5451 24.1394 85.7012 24.7675C86.6948 28.579 87.7309 32.6046 90.2857 35.2741C90.967 35.9878 92.1735 36.5303 92.7838 35.6595C92.9541 35.4168 93.0251 35.1028 93.0961 34.8173C93.5503 32.8187 94.0045 30.8202 94.4587 28.8217C94.6999 27.751 94.9412 26.6376 94.7709 25.5812C94.5722 24.3535 93.8341 23.3543 93.1387 22.4121C91.2793 19.9282 84.1541 7.4374 81.0741 8.67935C76.2767 10.6208 82.0677 20.385 84.0548 22.0838V22.0695Z" fill="black"/>
<path d="M71.6198 18.2155C73.5928 19.0006 75.6934 19.7144 77.794 19.4003C79.8947 19.0863 81.9386 17.4018 81.9528 15.2748C81.9528 14.0186 81.2998 12.8766 80.6469 11.8059C80.505 11.5632 80.3347 11.3063 80.0934 11.1635C79.7669 10.9922 79.3837 11.0636 79.0147 11.0921C76.7295 11.3491 74.5011 10.307 72.216 10.0786C70.8534 9.93586 69.4908 10.0786 68.1282 10.2642C67.4186 10.3641 66.6805 10.4926 66.1269 10.9351C64.8211 11.9629 64.0973 14.8894 65.3605 16.1313C66.5386 17.3019 70.0444 17.5731 71.6057 18.2012L71.6198 18.2155Z" fill="black"/>
<path d="M47.946 46.6799C49.9189 47.9932 52.0196 49.1923 54.1202 48.6784C56.2209 48.1645 58.2647 45.338 58.2789 41.7549C58.2789 39.6565 57.626 37.7436 56.9731 35.9449C56.8312 35.5309 56.6609 35.1027 56.4196 34.8743C56.0931 34.5888 55.7099 34.703 55.3409 34.7601C53.0557 35.1741 50.8273 33.4468 48.5422 33.047C47.1796 32.8044 45.817 33.047 44.4544 33.3611C43.7447 33.5324 43.0067 33.7323 42.4531 34.4746C41.1473 36.1876 40.4234 41.0983 41.6867 43.1967C42.8647 45.1667 46.3705 45.6235 47.9318 46.6656L47.946 46.6799Z" fill="black"/>
<path d="M71.7346 58.4286C70.7979 58.4286 69.8043 58.3287 68.8533 58.0004C67.6185 57.5578 66.554 56.7584 65.6172 56.0447L60.5359 52.1618C60.2237 51.9191 60.1669 51.4766 60.394 51.1625C60.6353 50.8485 61.0753 50.7914 61.3875 51.0198L66.4688 54.9026C67.363 55.5879 68.2856 56.2873 69.3075 56.6442C70.5708 57.0868 71.9192 57.0297 73.5656 56.9012C75.6946 56.7441 77.6108 56.5586 79.4275 55.9733C80.8469 55.5165 82.7772 54.6029 83.9979 52.8185C84.225 52.4901 84.665 52.4045 84.9914 52.6329C85.3179 52.8613 85.403 53.3038 85.1759 53.6321C83.7424 55.7449 81.4998 56.8155 79.8675 57.3437C77.9088 57.9718 75.9075 58.1717 73.6792 58.343C73.083 58.3858 72.4159 58.4429 71.7346 58.4429V58.4286Z" fill="black"/>
<path d="M110.1 133.288C110.1 133.288 110.043 133.288 110 133.288C109.617 133.231 109.333 132.874 109.39 132.489C110.298 125.522 114.67 119.141 120.816 115.801C121.157 115.615 121.597 115.744 121.781 116.086C121.966 116.429 121.838 116.871 121.497 117.057C115.749 120.183 111.661 126.165 110.809 132.674C110.767 133.031 110.455 133.302 110.1 133.302V133.288Z" fill="black"/>
<path d="M45.8166 129.448C45.5611 129.448 45.3198 129.305 45.1921 129.077L44.7095 128.192C44.525 127.849 44.6385 127.406 44.9934 127.221C45.0643 127.178 45.1353 127.164 45.2063 127.149C45.4192 123.281 45.5185 119.327 44.6385 115.544C44.2411 113.873 43.645 112.203 43.0631 110.604C42.5663 109.205 42.0411 107.778 41.6437 106.308C40.3805 101.654 40.3521 96.8003 40.3379 92.1181C40.3379 91.7184 40.6501 91.4043 41.0476 91.4043C41.4308 91.4043 41.7572 91.7184 41.7572 92.1181C41.7856 96.7147 41.7998 101.468 43.0205 105.936C43.4037 107.35 43.9147 108.763 44.3972 110.119C44.9934 111.761 45.6037 113.474 46.0153 115.215C47.0798 119.698 46.796 124.309 46.5405 128.777C46.5263 129.091 46.2992 129.362 45.9869 129.433C45.9302 129.433 45.8876 129.448 45.8308 129.448H45.8166Z" fill="black"/>
<path d="M104.976 101.74C104.592 101.74 104.266 101.426 104.266 101.04C104.195 96.4864 104.11 91.3331 105.856 86.6223C106.494 84.895 107.36 83.2819 108.197 81.7116L111.661 75.2592C111.845 74.9166 112.271 74.7881 112.626 74.9737C112.967 75.1593 113.094 75.5875 112.91 75.9444L109.447 82.3968C108.623 83.9243 107.786 85.4945 107.176 87.1219C105.529 91.5758 105.6 96.5864 105.671 101.012C105.671 101.411 105.359 101.725 104.976 101.74Z" fill="black"/>
<path d="M82.0674 124.737C81.0881 124.737 80.1229 124.651 79.1577 124.494C78.7745 124.423 78.5048 124.066 78.5758 123.666C78.6468 123.281 79.0016 123.024 79.399 123.081C84.5939 123.966 90.1436 122.196 93.8623 118.442C94.1319 118.156 94.5861 118.156 94.87 118.442C95.1539 118.713 95.1539 119.17 94.87 119.455C91.5203 122.838 86.8081 124.751 82.0674 124.751V124.737Z" fill="black"/>
<path d="M131.701 122.696C132.326 118.256 132.936 113.817 133.561 109.391C135.576 107.436 138.018 105.922 140.658 105.009C141.055 104.88 141.467 104.738 141.75 104.438C142.389 103.738 142.006 102.625 142.034 101.683C142.063 100.341 142.999 99.1273 142.943 97.7712C142.9 96.9004 142.446 96.0296 142.659 95.1731C142.758 94.7591 143.014 94.3737 143.014 93.9454C143.014 93.56 142.801 93.2174 142.588 92.8891C141.765 91.6186 140.941 90.3481 140.118 89.0919C140.7 88.2353 141.168 87.2646 141.254 86.2368C141.339 85.209 140.97 84.0955 140.147 83.4674C138.968 82.5824 137.322 82.8821 135.903 83.239C135.874 82.4967 135.633 81.526 134.895 81.5117C134.597 81.5117 134.341 81.6687 134.114 81.8543C132.752 82.9963 132.425 84.9378 131.446 86.4081C130.651 87.6072 129.445 88.4638 128.451 89.5058C127.33 90.6764 126.507 92.0897 125.698 93.5029C124.747 95.2017 123.81 96.9861 123.725 98.9275C123.682 99.9981 123.909 101.069 123.98 102.139C124.051 103.139 124.094 104.152 123.867 105.123C123.086 108.349 121.581 112.289 120.389 115.001C117.565 121.482 113.761 126.25 112.725 132.774C113.505 132.817 119.963 134.273 120.758 134.344C121.07 134.373 121.383 134.259 121.681 134.187C123.086 133.802 124.576 133.916 126.01 133.645C127.273 133.402 128.508 132.831 129.359 131.875C130.282 130.818 130.665 129.419 131.034 128.063C131.503 126.322 131.474 124.494 131.73 122.71L131.701 122.696Z" fill="#986A55"/>
<path d="M129.276 95.2441C129.205 95.2441 129.12 95.2441 129.049 95.2013C128.68 95.0728 128.481 94.6731 128.594 94.3019L129.375 91.918C129.474 91.6039 129.602 91.247 129.829 90.9187C130.056 90.5904 130.354 90.3477 130.638 90.1336C131.518 89.4626 132.455 88.8202 133.42 88.2492C133.505 87.978 133.704 87.7782 134.002 87.7639C136.046 87.6782 138.104 87.8353 140.105 88.235C140.489 88.3063 140.744 88.6918 140.673 89.0772C140.602 89.4626 140.219 89.7196 139.836 89.6482C138.132 89.3199 136.401 89.1629 134.655 89.1914C134.655 89.1914 134.641 89.1914 134.627 89.1914C133.534 89.8052 132.483 90.5047 131.49 91.2613C131.277 91.4183 131.092 91.5754 130.979 91.7324C130.865 91.8894 130.794 92.1321 130.709 92.3748L129.929 94.7587C129.829 95.0585 129.56 95.2441 129.261 95.2441H129.276Z" fill="black"/>
<path d="M129.815 99.2979C129.701 99.2979 129.587 99.2694 129.474 99.2123C129.133 99.0267 129.005 98.5842 129.19 98.2416C129.531 97.6277 129.701 96.9282 129.701 96.2288C129.701 95.9575 129.701 95.6149 129.914 95.2866C130.056 95.0725 130.226 94.944 130.354 94.8583L133.732 92.4458C134.03 92.2317 134.413 91.9605 134.882 91.832C135.236 91.7463 135.591 91.7463 135.918 91.7749C137.493 91.8891 139.069 92.3316 140.474 93.0597C140.829 93.2452 140.956 93.6735 140.786 94.0161C140.602 94.373 140.176 94.5015 139.835 94.3302C138.6 93.6878 137.209 93.3023 135.818 93.2024C135.577 93.1881 135.393 93.1739 135.236 93.2167C135.024 93.2738 134.782 93.4451 134.555 93.6021L131.177 96.0146C131.177 96.0146 131.12 96.1288 131.12 96.1859C131.12 97.1709 130.879 98.0988 130.425 98.9268C130.297 99.1695 130.056 99.2979 129.8 99.2979H129.815Z" fill="black"/>
<path d="M132.071 101.097C131.702 101.097 131.404 100.825 131.361 100.454C131.276 99.5549 131.39 98.6128 131.688 97.7562C131.759 97.5421 131.929 97.3708 132.156 97.2994L134.47 96.5999C135.038 96.4286 135.691 96.2288 136.372 96.2288C137.479 96.2145 138.543 96.7427 139.381 97.1567L141.127 98.0275C141.481 98.1988 141.623 98.627 141.439 98.9839C141.269 99.3408 140.843 99.4835 140.488 99.298L138.742 98.4272C138.018 98.056 137.181 97.642 136.386 97.642C135.903 97.642 135.378 97.7991 134.881 97.9561L132.923 98.5557C132.767 99.1267 132.724 99.7262 132.781 100.326C132.823 100.711 132.525 101.068 132.142 101.097C132.114 101.097 132.1 101.097 132.071 101.097Z" fill="black"/>
<path d="M138.486 104.709C138.387 104.709 138.273 104.68 138.174 104.638L137.166 104.138C136.826 103.967 136.428 103.767 136.087 103.439C135.747 103.096 135.506 102.653 135.335 102.068C135.222 101.697 135.435 101.297 135.818 101.183C136.201 101.069 136.584 101.283 136.698 101.668C136.797 102.025 136.925 102.268 137.095 102.439C137.266 102.611 137.535 102.739 137.805 102.882L138.813 103.381C139.167 103.553 139.309 103.981 139.139 104.338C139.011 104.595 138.77 104.738 138.5 104.738L138.486 104.709Z" fill="black"/>
<path d="M132.681 88.7485C132.681 88.7485 132.582 88.7485 132.525 88.7342C132.312 88.6914 131.631 88.4487 131.631 87.3495C131.631 86.7214 131.688 86.0647 132.057 85.4795C132.426 84.9084 132.993 84.5801 133.504 84.3089C134.242 83.9235 135.108 83.5237 136.088 83.4666C136.471 83.4381 136.812 83.7521 136.84 84.1376C136.868 84.5373 136.556 84.8656 136.173 84.8942C135.477 84.937 134.768 85.2653 134.157 85.5794C133.788 85.7792 133.433 85.9648 133.263 86.236C133.093 86.5073 133.064 86.9213 133.064 87.3352C133.064 87.3638 133.064 87.3923 133.064 87.4209C133.306 87.5779 133.448 87.8777 133.377 88.1775C133.306 88.5058 133.008 88.7342 132.681 88.7342V88.7485Z" fill="black"/>
<path d="M13.3135 106.236C13.0155 105.194 12.9587 104.095 12.9445 103.01C12.9303 100.812 13.2142 98.3562 14.8606 96.9287C16.1239 95.8295 15.84 95.6582 16.72 94.2449C17.3729 93.1886 17.2594 91.8324 17.1174 90.5905C17.7419 90.3621 18.2387 89.8339 18.4232 89.2058C18.6645 89.2343 18.849 89.4913 18.8065 89.734C19.8852 89.32 20.4813 88.078 20.5239 86.9217C20.5665 85.7654 20.1406 84.6234 19.729 83.5385C19.4594 82.8247 19.1755 82.0967 18.6787 81.5114C17.5432 80.1696 15.5845 79.9697 13.8387 79.8555C12.6465 79.7841 11.4684 79.6985 10.2761 79.6271C9.59484 79.5843 8.89936 79.5415 8.26065 79.7984C7.66452 80.0411 7.18194 80.5122 6.75613 81.0118C5.64903 82.2966 4.75484 83.7526 4.04516 85.2944C3.20774 87.1216 2.64 89.0487 2.05806 90.9759C1.84516 91.7039 1.63226 92.432 1.41935 93.1457C0.738065 95.5725 0 98.0564 0 100.597C0 101.425 0.0709677 102.239 0.127742 103.067C0.19871 103.952 0.24129 104.851 0.369032 105.736C0.567742 107.235 0.993548 108.691 1.39097 110.133C2.35613 113.545 3.32129 116.943 4.30065 120.34C4.54194 121.197 4.79742 122.039 4.92516 122.924C5.0529 123.723 5.09548 124.523 5.20903 125.322C5.52129 127.52 6.3729 129.59 7.21032 131.646C7.65032 132.702 8.1329 133.83 9.08387 134.458C10.0348 135.086 11.2413 135.101 12.3768 135.086C12.9019 135.086 13.4413 135.072 13.9097 134.829C15.1161 134.187 22.9368 136.228 23.1639 134.886C23.391 133.559 24.0297 133.944 24.4555 132.674C25.591 129.205 25.4348 124.466 24.129 121.025C22.8232 117.585 14.2787 109.648 13.2994 106.265L13.3135 106.236Z" fill="#986A55"/>
<path d="M12.7323 96.4431C12.1504 96.4431 11.6394 96.1862 11.2136 95.9578C10.433 95.5581 9.7091 95.3011 8.95684 95.1441C8.57362 95.0584 8.33233 94.673 8.41749 94.3018C8.50265 93.9164 8.87168 93.6737 9.25491 93.7594C10.1207 93.945 10.9581 94.2447 11.7388 94.6444C12.2072 94.8871 12.5762 95.0584 12.8175 95.0156C13.0162 94.9728 13.2433 94.7444 13.4562 94.516C13.7259 94.2162 14.1659 94.2019 14.4639 94.4589C14.7478 94.7301 14.7762 95.1726 14.5207 95.4724C14.1517 95.8864 13.7259 96.2861 13.1297 96.4146C12.9878 96.4431 12.8601 96.4574 12.7323 96.4574V96.4431Z" fill="black"/>
<path d="M16.4366 93.0747C16.1811 93.0747 15.954 92.9462 15.8121 92.7035C15.6418 92.3895 15.2585 92.1468 14.9605 91.9755C13.5695 91.1904 11.9089 90.8335 10.3192 90.9762C9.92177 91.0333 9.58112 90.7193 9.55274 90.3338C9.52435 89.9484 9.80822 89.5915 10.1914 89.563C12.0792 89.3774 14.0237 89.8057 15.6702 90.7336C16.1385 91.0048 16.7205 91.3759 17.0611 92.004C17.2598 92.3467 17.1321 92.7892 16.7914 92.9748C16.6779 93.0319 16.5644 93.0604 16.4508 93.0604L16.4366 93.0747Z" fill="black"/>
<path d="M17.5157 90.7899C17.2744 90.7899 17.0473 90.6757 16.9196 90.4616C16.366 89.5765 15.3583 88.9056 14.0951 88.563C12.917 88.2489 11.6254 88.2204 10.3054 88.2346C9.92215 88.2346 9.5957 87.9206 9.5957 87.5209C9.5957 87.1212 9.90796 86.8071 10.3054 86.8071C11.7247 86.7929 13.1157 86.8071 14.4783 87.1783C16.0963 87.6208 17.388 88.5059 18.1402 89.6907C18.3531 90.0191 18.2538 90.4616 17.9131 90.6757C17.7996 90.7471 17.6576 90.7899 17.5299 90.7899H17.5157Z" fill="black"/>
<path d="M17.9558 89.0341C17.9558 89.0341 17.9274 89.0341 17.9132 89.0341C17.5158 89.0055 17.2177 88.6772 17.2461 88.2775C17.2887 87.4067 16.8913 86.5074 16.4513 85.6794C16.2809 85.3511 16.0964 85.0085 15.8551 84.7229C14.8758 83.5952 13.0874 83.638 12.3493 83.7094C11.9519 83.738 11.6113 83.4667 11.5687 83.067C11.5261 82.6673 11.81 82.3247 12.2074 82.2819C14.2087 82.082 15.9261 82.6245 16.9196 83.7808C17.2603 84.1662 17.5016 84.623 17.7003 85.0085C18.2396 86.022 18.7222 87.1355 18.6513 88.3489C18.6371 88.7343 18.3248 89.0198 17.9416 89.0198L17.9558 89.0341Z" fill="black"/>
<path d="M20.5802 85.3803C20.4809 85.3803 20.3815 85.366 20.2822 85.3232C20.0551 85.2233 19.899 85.0091 19.8706 84.7522C19.8422 84.5238 19.5299 84.2526 19.2461 83.9956L19.0331 83.81C18.5364 83.3675 18.1106 82.8393 17.7983 82.2398L17.5286 81.6973C17.4861 81.6259 17.4151 81.526 17.3299 81.4118C16.9041 80.8122 16.2654 79.9272 16.8615 79.1991C17.6564 78.2284 19.8138 79.2277 20.0693 79.3847C20.8215 79.8701 21.2331 80.6267 21.6022 81.2976C21.7299 81.526 21.8577 81.7544 21.9996 81.9828C22.1415 82.1969 22.2693 82.3825 22.3402 82.6252C22.5248 83.1676 22.397 83.8243 21.9996 84.3525C21.7015 84.7522 21.3041 85.0377 20.9777 85.2518C20.8499 85.3375 20.708 85.3803 20.5661 85.3803H20.5802ZM18.2525 80.2412C18.3377 80.3697 18.4228 80.4982 18.4938 80.5838C18.6215 80.7694 18.7351 80.9407 18.7919 81.0549L19.0473 81.5688C19.2886 82.0114 19.6009 82.4111 19.9841 82.7537L20.1686 82.925C20.3815 83.1105 20.6228 83.3104 20.8215 83.5674C20.8357 83.5531 20.8499 83.5388 20.8641 83.5103C20.9777 83.3675 21.0202 83.1962 20.9919 83.0963C20.9777 83.0392 20.9067 82.9392 20.8499 82.8536C20.6512 82.5395 20.5093 82.2826 20.3673 82.0256C20.0551 81.4546 19.757 80.9122 19.3028 80.6267C19.1325 80.5125 18.6357 80.3412 18.2525 80.2698V80.2412Z" fill="black"/>
<path d="M128.551 53.7031C130.098 56.6724 131.66 59.6416 133.207 62.6109C133.576 63.3103 133.945 64.0241 134.243 64.7664C134.569 65.5658 134.811 66.3938 135.052 67.236C135.321 68.1639 135.591 69.0918 135.861 70.0054C136.485 72.1324 137.096 74.2737 137.436 76.4721C137.72 78.3279 137.777 80.3121 136.954 82.0109C136.712 82.4962 136.386 82.9816 135.903 83.2243C135.492 83.4384 134.995 83.4812 134.555 83.6668C134.896 81.8253 135.932 80.1694 136.201 78.3279C136.471 76.4578 135.932 74.5735 135.194 72.8462C134.512 71.2188 133.647 69.6628 132.809 68.1068C132.341 67.2503 131.887 66.3795 131.432 65.5087C130.226 63.239 129.02 60.9549 127.827 58.6852C127.458 58 126.025 56.1299 126.124 55.3876C126.238 54.5454 127.856 53.8744 128.551 53.7317V53.7031Z" fill="black"/>
<path d="M24.0729 52.0328C22.9232 53.8743 21.9013 55.8157 21.2342 57.8856C20.4819 60.1982 20.1981 62.625 20.0419 65.0518C19.9426 66.5507 19.9 68.0638 19.5594 69.5342C19.0768 71.6184 18.0265 73.5312 17.7 75.644C17.2458 78.5561 18.2677 81.6538 20.3826 83.7095C20.8084 84.1234 21.2768 84.4946 21.8161 84.723C22.2561 84.9086 22.7387 84.98 23.2071 85.0228C24.5839 85.137 26.0742 84.9229 27.1387 84.0378C27.8626 83.4382 28.331 82.5817 28.6432 81.6967C29.9206 78.0708 28.6006 73.674 25.5348 71.3757C24.8677 70.876 24.1013 70.4478 23.6045 69.7769C23.1077 69.1059 22.9374 68.0638 23.5194 67.45C24.0445 66.9075 24.8961 66.9218 25.6484 66.8362C27.5787 66.5935 29.2819 65.323 30.4174 63.7384C31.5529 62.1539 32.2058 60.2696 32.7452 58.3852C32.9723 57.5715 33.1994 56.715 33.0858 55.8728C32.8587 54.0884 31.3258 52.8179 29.949 51.6759C29.4665 51.2619 28.9271 50.7194 29.0548 50.0913C28.2174 49.8629 26.6277 49.3062 25.7903 49.7202C25.0665 50.0771 24.5129 51.4189 24.1013 52.0756L24.0729 52.0328Z" fill="black"/>
<path d="M25.9029 51.9477C24.7816 52.5758 23.9441 53.6179 23.3622 54.7456C22.7803 55.8733 22.3971 57.1153 22.028 58.343C21.9003 58.7855 21.7725 59.2137 21.6306 59.6563C21.5029 60.0845 21.3751 60.5128 21.3041 60.9553C21.2332 61.355 21.2048 61.769 21.1906 62.1687C21.1338 63.0966 21.0771 64.0102 21.0203 64.9381C21.0061 65.2379 20.9919 65.5519 21.1338 65.8089C21.3893 66.2657 21.9996 66.3514 22.5248 66.3656C23.9583 66.4227 25.4203 66.4798 26.7829 66.023C27.4358 65.7946 28.0603 65.452 28.5996 65.0095C29.4938 64.2672 30.1467 63.2822 30.7571 62.2829C31.1971 61.5692 31.6087 60.8268 31.8074 60.0132C31.9067 59.6277 31.9493 59.2137 31.9919 58.814C32.1338 57.358 32.2616 55.8876 32.3467 54.4173C30.8564 53.3752 29.2525 52.5044 27.5777 51.8049C27.0951 51.9334 26.5558 51.7335 26.059 51.7478C26.0164 51.7478 25.9738 51.7478 25.9454 51.7906C25.9171 51.8335 25.9454 51.8906 25.9454 51.9334C25.9454 51.9762 25.9454 51.9334 25.9029 51.9334V51.9477Z" fill="white"/>
<path d="M19.1761 74.2594C19.1193 76.2437 18.1258 78.2565 18.7503 80.1265C18.8639 80.4549 19.02 80.7689 19.2045 81.0687C19.9 82.225 20.9361 83.1814 22.1851 83.6668C23.4342 84.1521 24.8961 84.1379 26.0742 83.5097C26.4716 83.2956 26.8548 82.9958 27.0393 82.5819C27.1671 82.2821 27.1813 81.9395 27.2806 81.6254C27.3942 81.2543 27.6355 80.9117 27.6497 80.512C27.6497 80.2693 27.5787 80.0409 27.5503 79.7982C27.4793 78.9988 28.0045 78.1851 27.7206 77.4428C27.6639 77.3143 27.5929 77.1858 27.5645 77.0573C27.5219 76.886 27.5645 76.7005 27.5645 76.5292C27.6213 75.4157 26.9258 74.4307 26.2587 73.5456C25.8897 73.0603 25.5348 72.5749 25.0664 72.1895C24.4561 71.6613 23.7181 71.333 22.98 71.0332C22.4122 70.8048 21.5606 70.3623 20.9645 70.7192C20.5245 70.9761 20.3542 71.647 20.0845 72.0467C19.5451 72.8319 19.2045 73.2601 19.1903 74.2451L19.1761 74.2594Z" fill="white"/>
<path d="M69.4767 47.8644C69.3063 47.8644 69.1218 47.7931 68.9799 47.6646C68.696 47.3934 68.6818 46.9366 68.9515 46.6511C71.918 43.5391 74.047 44.4527 76.2896 45.4234C77.0702 45.766 77.8792 46.1086 78.7876 46.337C79.1709 46.4369 79.398 46.8224 79.2986 47.2078C79.1992 47.5932 78.816 47.8216 78.4328 47.7217C77.3967 47.4647 76.5025 47.0793 75.7076 46.7367C73.536 45.8088 72.2302 45.2378 69.9451 47.636C69.8031 47.7788 69.6186 47.8502 69.4341 47.8502L69.4767 47.8644Z" fill="black"/>
<path d="M71.3081 40.5135C71.3081 40.5135 71.1945 40.5135 71.1378 40.5135C70.3855 40.4849 69.7184 40.0567 69.3352 39.3857C68.9378 38.672 68.9378 37.7869 69.3352 37.0589C70.6552 34.6321 71.2797 31.8056 71.081 29.0647C71.0526 28.665 71.3507 28.3224 71.7339 28.2939C72.1171 28.2653 72.472 28.5651 72.5003 28.9505C72.7274 31.9483 72.0461 35.0746 70.5842 37.7298C70.4281 38.0153 70.4281 38.3722 70.5842 38.672C70.6694 38.8147 70.8539 39.0574 71.2087 39.0717C71.6061 39.0859 71.9894 38.986 72.2874 38.7862C72.6139 38.572 73.0539 38.6577 73.2668 38.986C73.4797 39.3143 73.3945 39.7569 73.0681 39.971C72.5571 40.3136 71.9468 40.4849 71.3081 40.4849V40.5135Z" fill="black"/>
<path d="M81.9393 27.2654C81.7406 27.2654 81.5419 27.1797 81.4141 27.0227C80.818 26.3517 79.9948 26.3089 78.689 26.3089C77.9509 26.3089 77.1986 26.3089 76.418 26.1233C76.0348 26.0377 75.8077 25.6523 75.8928 25.2668C75.978 24.8814 76.3612 24.653 76.7444 24.7386C77.369 24.8814 78.0361 24.8957 78.7032 24.8957C79.9806 24.8957 81.4283 24.8957 82.4786 26.0948C82.7341 26.3946 82.7057 26.8371 82.4219 27.1083C82.2799 27.2225 82.1238 27.2939 81.9535 27.2939L81.9393 27.2654Z" fill="black"/>
<path d="M79.0157 33.5324C79.7212 33.5324 80.2931 32.7399 80.2931 31.7623C80.2931 30.7847 79.7212 29.9922 79.0157 29.9922C78.3102 29.9922 77.7383 30.7847 77.7383 31.7623C77.7383 32.7399 78.3102 33.5324 79.0157 33.5324Z" fill="black"/>
<path d="M61.1468 28.693C60.8061 28.693 60.508 28.4503 60.4513 28.1077C60.3803 27.7223 60.6358 27.3511 61.0332 27.2798C61.6009 27.1798 62.1687 26.9372 62.7222 26.7088C63.8151 26.2377 65.05 25.7238 66.3842 26.3519C66.739 26.5232 66.8951 26.9514 66.7248 27.3083C66.5545 27.6652 66.1287 27.8222 65.7739 27.6509C65.0642 27.3083 64.3545 27.5795 63.2758 28.0363C62.6513 28.3076 62.0126 28.5788 61.2745 28.7073C61.2319 28.7073 61.1893 28.7073 61.1468 28.7073V28.693Z" fill="black"/>
<path d="M64.8927 34.4172C65.5982 34.4172 66.1701 33.6247 66.1701 32.6471C66.1701 31.6695 65.5982 30.877 64.8927 30.877C64.1872 30.877 63.6152 31.6695 63.6152 32.6471C63.6152 33.6247 64.1872 34.4172 64.8927 34.4172Z" fill="black"/>
<path d="M6.60034 102.282C5.90486 102.282 5.23776 102.153 4.61325 101.91C4.24421 101.768 4.07389 101.339 4.21583 100.983C4.35776 100.611 4.78357 100.44 5.13841 100.583C6.33066 101.068 7.87776 100.883 9.29712 100.097C10.6455 99.3409 11.781 98.1275 12.8171 96.9569C13.0726 96.6572 13.5268 96.6429 13.8249 96.8998C14.1229 97.1568 14.1371 97.6136 13.8816 97.9134C12.7603 99.1696 11.5397 100.469 9.9926 101.339C8.8855 101.968 7.70744 102.282 6.60034 102.282Z" fill="black"/>
<path d="M74.1609 69.3487C73.1532 69.3487 72.1738 69.0632 71.308 68.8205C70.9248 68.7063 70.7119 68.3209 70.8254 67.9354C70.939 67.55 71.3222 67.3359 71.7054 67.4501C72.6138 67.707 73.5506 67.9783 74.459 67.9069C75.3674 67.8355 76.2332 67.4358 77.1557 67.0218C77.6099 66.8077 78.0783 66.6078 78.5467 66.4223C80.3067 65.7656 82.2938 65.6229 84.1248 65.994C84.508 66.0797 84.7493 66.4508 84.6783 66.8362C84.5932 67.2217 84.2241 67.4644 83.8409 67.393C82.2654 67.0647 80.548 67.1931 79.0435 67.7499C78.6035 67.9069 78.1777 68.1067 77.7519 68.3066C76.7583 68.7634 75.7364 69.2345 74.5725 69.3201C74.4448 69.3201 74.317 69.3201 74.1893 69.3201L74.1609 69.3487Z" fill="black"/>
</g>
<defs>
<clipPath id="clip0_11603_4710">
<rect width="143" height="136" fill="white"/>
</clipPath>
</defs>
</svg>
