<svg width="147" height="133" viewBox="0 0 147 133" fill="none" xmlns="http://www.w3.org/2000/svg">
<g clip-path="url(#clip0_11603_4601)">
<path d="M0 133.001C1.90703 126.816 3.81405 120.631 5.73553 114.447C6.90575 110.646 8.16265 106.716 10.8787 103.811C15.1695 99.2306 22.003 98.3058 27.5508 95.358C30.917 93.5662 33.8931 90.9796 37.5193 89.7946C39.6575 89.101 41.9835 88.9132 44.0061 87.9161C49.077 85.4018 51.0419 78.4223 56.4307 76.6883C59.3923 75.7346 62.5852 76.6594 65.6046 77.3963C70.5744 78.6102 75.6599 79.3182 80.7597 79.5061C84.3426 79.6361 87.9399 79.5061 91.4651 80.1708C99.151 81.6303 105.768 86.7312 113.425 88.2918C118.062 89.2311 123.148 88.9132 127.178 91.3986C132.206 94.5054 133.896 100.878 136.873 105.993C139.545 110.603 143.576 114.635 144.587 119.866C145.425 124.244 144.154 129.374 147.029 132.784C146.668 132.741 146.307 132.697 145.96 132.654L0.0288943 132.986L0 133.001Z" fill="#59C27A"/>
<path d="M50.3049 20.0284C50.2615 15.5055 50.5649 10.2312 54.2779 7.63014C55.5203 6.76313 57.0806 6.25737 57.9474 5.0002C58.9732 3.52627 61.5014 3.06387 62.845 1.8645C63.6396 1.15643 64.7954 0.997482 65.8645 0.89633C67.9015 0.679577 67.8004 0.390572 69.8519 0.202719C75.0384 -0.259689 79.7049 0.029316 84.8336 0.939681C89.9624 1.85005 95.0044 1.90785 98.2695 5.96836C102.17 10.8381 103.008 17.543 102.344 23.7566C101.679 29.9702 99.6998 35.9526 98.5729 42.0795C95.1345 41.2414 91.3782 40.4177 88.1854 41.935C87.2896 42.3541 86.4662 42.961 85.5271 43.2789C84.4147 43.669 83.2155 43.6546 82.0453 43.6546C73.8971 43.5679 62.1949 44.7962 54.6101 41.2992C48.8168 38.6259 50.3771 25.2594 50.3338 20.014L50.3049 20.0284Z" fill="black"/>
<path d="M53.3242 32.0079C52.963 29.7392 52.1106 27.4272 52.7463 25.2163C53.1364 23.858 54.0466 22.7164 54.6389 21.4159C55.6791 19.1183 55.6791 14.8844 57.0227 12.7602C58.5107 10.4048 61.299 9.30657 63.914 8.3673C67.2368 7.18238 70.9064 6.06972 74.1859 7.32689C75.5006 7.83265 76.6853 8.69966 78.0722 8.88751C79.5025 9.08982 80.9328 8.52626 82.3486 8.2517C87.0006 7.37024 91.6237 9.55222 95.8567 11.6764C95.2788 14.3353 97.5615 18.2079 98.3849 20.809C98.775 22.0228 98.8473 23.3089 98.8762 24.5949C98.9773 28.5832 98.775 32.5859 98.2549 36.5453C98.0671 37.9614 97.8648 39.4931 98.6017 40.7214C99.6707 40.0278 100.725 39.3342 101.794 38.6406C103.976 40.2301 104.279 43.438 103.6 46.0535C102.907 48.669 101.477 51.0389 100.841 53.6688C100.711 54.189 100.595 54.7815 100.162 55.0994C99.7285 55.4317 99.1217 55.3739 98.5872 55.5329C97.4892 55.8508 96.8824 56.9779 96.3912 58.0183C94.4842 62.0066 92.5483 66.1538 92.5194 70.5611C92.4905 74.9974 94.3975 79.2457 94.5998 83.6819C94.7154 86.3119 94.2386 88.9129 93.7618 91.4995C93.4729 93.0168 93.7185 94.9387 92.5627 95.9791C88.4164 99.6639 79.4302 94.4329 75.4284 100.343C73.0013 95.9647 71.282 101.542 67.7858 97.9588C67.2368 97.3952 66.6445 96.8172 65.8788 96.6149C65.272 96.456 64.6074 96.5427 64.0151 96.3259C63.365 96.0803 62.9171 95.5167 62.5126 94.9531C58.7274 89.7799 56.1125 83.7398 54.9423 77.425C55.7802 77.0637 56.6037 76.7025 57.4416 76.3412C58.7419 71.7027 57.4416 66.7752 56.127 62.1511C55.8236 61.0962 55.5346 60.0414 55.2312 58.9865C54.8267 57.527 54.3644 55.9953 53.2231 54.9838C52.7319 54.5358 52.1251 54.2324 51.5761 53.8567C47.6031 51.1545 46.6785 45.7934 46.1873 41.0248C46.1295 40.4613 46.0717 39.8833 46.274 39.3486C47.1553 36.9065 50.0014 38.5683 51.5905 37.788C53.4976 36.8487 53.6131 33.7853 53.3386 32.0079H53.3242Z" fill="#886261"/>
<path d="M50.0884 47.6143C49.8861 47.6143 49.6839 47.5276 49.5394 47.3687C49.0626 46.8196 48.817 46.1549 48.6148 45.5191C48.138 44.0451 47.7624 42.3256 48.6292 40.895C48.7448 40.7071 48.9326 40.447 49.2649 40.3025C49.5827 40.1725 49.9006 40.2158 50.1028 40.2592C51.0997 40.4904 51.9954 41.1551 52.4866 42.0655C52.6744 42.4123 52.5444 42.8602 52.1977 43.0481C51.8509 43.2359 51.4031 43.1059 51.2153 42.7591C50.9263 42.2389 50.4207 41.8342 49.8428 41.6897C49.3227 42.6868 49.6261 43.9584 49.9873 45.0856C50.1462 45.5913 50.3195 46.0826 50.6229 46.4294C50.883 46.7329 50.8541 47.1808 50.5507 47.4554C50.4207 47.571 50.2473 47.6288 50.0739 47.6288L50.0884 47.6143Z" fill="black"/>
<path d="M101 49.045C101 49.045 100.913 49.045 100.87 49.045C100.48 48.9727 100.22 48.597 100.278 48.2068L100.595 46.415C100.682 45.9093 100.783 45.3746 100.957 44.8544L101.072 44.5365C101.173 44.2764 101.26 44.0307 101.274 43.814C101.289 43.4383 101.072 43.0337 100.783 42.6146C100.494 43.1926 100.48 43.9585 100.494 44.7388C100.494 45.1434 100.191 45.4613 99.7864 45.4757C99.3819 45.4468 99.064 45.1723 99.0496 44.7677C99.0351 43.8573 99.0062 42.4701 99.8008 41.4441C100.148 41.0106 100.624 40.8083 101.072 40.9384C101.433 41.0395 101.65 41.3141 101.737 41.4586C102.141 42.0221 102.762 42.8603 102.719 43.8862C102.705 44.3197 102.56 44.7099 102.43 45.0422L102.329 45.3168C102.185 45.7359 102.112 46.1838 102.026 46.6607L101.708 48.4525C101.65 48.7993 101.347 49.045 101 49.045Z" fill="black"/>
<path d="M75.0674 57.556C73.4926 57.556 71.8168 57.1948 69.5486 56.2555C69.1874 56.0965 68.9996 55.6775 69.1585 55.3162C69.3174 54.955 69.7364 54.7671 70.0975 54.9261C74.3017 56.6745 76.0787 56.2266 79.9505 55.244L80.8318 55.0272C81.2219 54.9261 81.6119 55.1717 81.7131 55.5474C81.8142 55.9376 81.5686 56.3277 81.193 56.4289L80.3261 56.6457C78.3035 57.1659 76.7432 57.556 75.0818 57.556H75.0674Z" fill="black"/>
<path d="M91.3928 30.0856C91.2339 30.0856 91.0894 30.0423 90.9594 29.9411C87.7232 27.4557 83.6058 28.8285 81.4387 29.8689C81.0775 30.0423 80.6441 29.8833 80.4707 29.5221C80.2974 29.1608 80.4563 28.7273 80.8175 28.5539C85.0649 26.5164 88.9801 26.6031 91.8407 28.7851C92.1585 29.0308 92.2163 29.4787 91.9707 29.7966C91.8262 29.9845 91.6095 30.0856 91.3928 30.0856Z" fill="black"/>
<path d="M69.4762 30.0862C69.3173 30.0862 69.1728 30.0428 69.0428 29.9416C66.1678 27.7308 62.9894 27.7019 59.6088 29.826C59.2765 30.0428 58.8286 29.9416 58.6119 29.5948C58.3952 29.2625 58.4963 28.8145 58.8431 28.5978C62.7438 26.1412 66.5723 26.2135 69.9385 28.7856C70.2563 29.0313 70.3141 29.4792 70.0685 29.7971C69.924 29.985 69.7073 30.0862 69.4906 30.0862H69.4762Z" fill="black"/>
<path d="M87.5356 38.8858C88.4452 38.8858 89.1826 37.883 89.1826 36.646C89.1826 35.409 88.4452 34.4062 87.5356 34.4062C86.626 34.4062 85.8887 35.409 85.8887 36.646C85.8887 37.883 86.626 38.8858 87.5356 38.8858Z" fill="black"/>
<path d="M65.981 38.8858C66.8906 38.8858 67.6279 37.883 67.6279 36.646C67.6279 35.409 66.8906 34.4062 65.981 34.4062C65.0714 34.4062 64.334 35.409 64.334 36.646C64.334 37.883 65.0714 38.8858 65.981 38.8858Z" fill="black"/>
<path d="M75.9631 48.9863C75.8909 48.9863 75.8186 48.9863 75.732 48.9863C74.7495 48.943 73.8827 48.3939 73.3915 47.5124C72.8714 46.5731 72.857 45.4027 73.3771 44.4634C75.313 40.9375 76.2232 36.7903 75.9342 32.8165C75.9053 32.4119 76.2087 32.0651 76.5988 32.0362C76.9889 31.9928 77.35 32.3107 77.3789 32.7009C77.6968 36.9637 76.7288 41.3855 74.6484 45.157C74.3739 45.6628 74.3739 46.2841 74.6484 46.8043C74.894 47.2523 75.313 47.5124 75.8042 47.5413C76.4543 47.5702 77.0611 47.4112 77.5523 47.0933C77.8846 46.8766 78.3324 46.9633 78.5492 47.2956C78.7659 47.628 78.6792 48.076 78.3469 48.2927C77.6534 48.7407 76.8299 48.9863 75.9631 48.9863Z" fill="black"/>
<path d="M58.5108 64.9538C62.8305 71.6009 70.3285 76.4706 78.3756 75.9071C85.0936 75.4302 90.7135 70.7483 93.1117 64.4625C94.0797 61.9337 95.0477 60.7488 96.3913 58.0321C96.8391 57.1218 97.5326 55.171 97.1136 53.6682C96.4924 51.4573 97.417 49.1308 96.9258 46.891C96.5068 46.8187 95.64 45.9662 95.221 45.8939C93.4007 52.6855 91.3058 59.8962 86.885 65.1705C85.3392 67.0202 82.6809 67.2947 80.6727 65.9942C79.0691 64.9538 79.2713 63.9134 77.3499 63.8267C77.2776 65.6474 73.4925 67.497 71.701 67.8872C69.9096 68.2773 68.0603 67.8583 66.2833 67.4537C63.9284 65.0549 62.6426 64.5636 60.9379 62.9308C59.392 61.4424 55.159 44.5501 53.8588 44.998C52.4574 45.4749 52.5441 50.7637 53.2953 53.9283C54.5956 59.4049 57.8462 63.9423 58.5108 64.9682V64.9538Z" fill="black"/>
</g>
<defs>
<clipPath id="clip0_11603_4601">
<rect width="147" height="133" fill="white"/>
</clipPath>
</defs>
</svg>
