<svg width="153" height="141" viewBox="0 0 153 141" fill="none" xmlns="http://www.w3.org/2000/svg">
<g clip-path="url(#clip0_11603_5127)">
<path d="M0 141C1.99297 134.533 3.97012 128.065 5.96309 121.597C7.18102 117.625 8.47803 113.509 11.3093 110.49C15.7698 105.691 22.8875 104.737 28.6608 101.654C32.1722 99.7792 35.2566 97.0778 39.0369 95.8383C41.2671 95.1073 43.6872 94.9166 45.7909 93.8678C51.058 91.2458 53.1142 83.9519 58.7135 82.1403C61.7979 81.1392 65.1195 82.1085 68.2513 82.8872C73.4236 84.1585 78.7065 84.9053 84.0369 85.096C87.754 85.2232 91.5184 85.096 95.1722 85.7952C103.176 87.3208 110.056 92.6442 118.028 94.281C122.852 95.2662 128.151 94.9325 132.343 97.5386C137.578 100.796 139.334 107.455 142.434 112.794C145.218 117.609 149.425 121.82 150.469 127.286C151.339 131.863 150.026 137.218 153 140.794C152.62 140.746 152.257 140.698 151.877 140.667L0 141.016L0 141Z" fill="#A184F6"/>
<path d="M52.3544 22.915C52.3069 18.1795 52.6391 12.6653 56.4827 9.94798C57.7797 9.04219 59.393 8.5019 60.2946 7.19885C61.3544 5.65743 61.1488 3.35325 62.5407 2.11376C63.379 1.36689 64.5653 1.20798 65.6725 1.09674C67.792 0.874268 69.9115 0.667686 72.031 0.492886C77.4247 0.0161591 82.9133 -0.365223 88.2437 0.588232C93.5741 1.54169 98.8412 3.97299 102.226 8.23176C106.291 13.3327 107.145 20.3406 106.465 26.8241C105.785 33.3076 103.713 39.5686 102.542 45.9885C98.9677 45.1145 95.0609 44.2564 91.7235 45.8296C90.7902 46.2746 89.9361 46.8943 88.9554 47.2439C87.8008 47.6571 86.5512 47.6412 85.3333 47.6253C76.8553 47.53 64.676 48.8171 56.7832 45.1622C50.741 42.3654 52.386 28.3814 52.3227 22.915H52.3544Z" fill="black"/>
<path d="M55.5033 35.437C55.1237 33.0692 54.2379 30.6538 54.9023 28.3496C55.3135 26.9195 56.2625 25.7276 56.8636 24.3769C57.955 21.9774 57.9392 19.1329 59.3469 16.9082C60.897 14.461 63.8074 13.2851 66.5279 12.3157C69.9761 11.0762 73.8038 9.91618 77.2204 11.2192C78.5806 11.7436 79.8144 12.6494 81.2696 12.8401C82.7722 13.0467 84.2432 12.4587 85.73 12.1727C90.5701 11.251 95.3785 13.5393 99.7915 15.764C99.1905 18.5449 101.563 21.008 102.417 23.7254C102.828 24.9967 102.892 26.3474 102.923 27.6822C103.034 31.8615 102.813 36.0408 102.275 40.1725C102.085 41.6503 101.879 43.2553 102.623 44.5425C103.73 43.8115 104.837 43.0964 105.944 42.3654C108.222 44.0181 108.538 47.371 107.827 50.1043C107.115 52.8375 105.612 55.3165 104.964 58.0656C104.837 58.6218 104.711 59.2257 104.252 59.5594C103.793 59.909 103.161 59.8454 102.623 60.0043C101.484 60.338 100.851 61.514 100.345 62.5945C98.368 66.7579 96.3434 71.0962 96.3117 75.7204C96.2801 80.3606 98.2731 84.81 98.4787 89.4343C98.6052 92.1834 98.0991 94.9166 97.6088 97.6181C97.3082 99.2072 97.0077 100.812 96.3592 102.29C93.3223 109.091 84.0376 110.744 79.8618 116.926C77.3311 112.349 74.1993 108.106 70.5771 104.356C70.0077 103.768 69.3908 103.164 68.6 102.957C67.9673 102.783 67.2713 102.878 66.6545 102.655C65.9743 102.401 65.5156 101.797 65.0886 101.225C61.1342 95.8065 58.4295 89.4978 57.2116 82.9031C58.0815 82.5217 58.9515 82.1403 59.8056 81.759C61.1501 76.9122 59.8056 71.7636 58.4295 66.9169C58.1132 65.8204 57.8126 64.708 57.4963 63.6115C57.0692 62.086 56.5947 60.481 55.4084 59.4322C54.8864 58.9714 54.2696 58.6377 53.7002 58.2563C49.5719 55.4436 48.5912 49.8341 48.085 44.8444C48.0218 44.2564 47.9743 43.6526 48.1641 43.0964C49.0815 40.5538 52.0393 42.286 53.7002 41.4755C55.6773 40.4903 55.8038 37.2803 55.5191 35.437H55.5033Z" fill="#986A55"/>
<path d="M52.1342 51.7883C51.9128 51.7883 51.6914 51.693 51.5332 51.5182C51.027 50.9461 50.774 50.2469 50.5683 49.5636C50.078 48.0063 49.6826 46.2106 50.5842 44.6851C50.7107 44.4785 50.9005 44.1925 51.2643 44.0494C51.5965 43.9064 51.9286 43.9541 52.1501 44.0018C53.2098 44.2401 54.143 44.9552 54.665 45.9087C54.8706 46.2901 54.7283 46.7827 54.3487 46.9893C53.969 47.1958 53.4787 47.0528 53.2731 46.6714C52.9884 46.147 52.4822 45.7339 51.897 45.575C51.375 46.592 51.6914 47.895 52.071 49.071C52.245 49.5954 52.419 50.1039 52.7195 50.4535C53.0042 50.7872 52.9726 51.2798 52.6404 51.5817C52.498 51.7089 52.3082 51.7724 52.1184 51.7724L52.1342 51.7883Z" fill="black"/>
<path d="M105.12 53.2986C105.12 53.2986 105.026 53.2986 104.978 53.2986C104.551 53.2192 104.266 52.806 104.33 52.377L104.662 50.5018C104.757 49.9774 104.852 49.4213 105.041 48.8651L105.152 48.5314C105.247 48.2612 105.342 48.007 105.358 47.7845C105.373 47.419 105.168 47.0217 104.883 46.6086C104.614 47.1965 104.598 47.9593 104.614 48.7538C104.614 49.1988 104.282 49.5484 103.839 49.5643C103.412 49.5643 103.048 49.2306 103.033 48.7856C103.017 47.8163 102.985 46.3702 103.823 45.2896C104.187 44.8129 104.709 44.6222 105.184 44.7493C105.579 44.8606 105.801 45.1625 105.895 45.3055C106.323 45.8935 106.971 46.7834 106.924 47.864C106.908 48.3248 106.75 48.7221 106.623 49.0876L106.528 49.3736C106.386 49.8026 106.307 50.2794 106.212 50.772L105.88 52.6471C105.816 53.0285 105.484 53.2986 105.105 53.2986H105.12Z" fill="black"/>
<path d="M78.1375 66.8853C76.4925 66.8853 74.7368 66.5198 72.38 65.5187C71.9846 65.3439 71.779 64.8831 71.9529 64.4858C72.1269 64.0885 72.5856 63.8819 72.9811 64.0567C77.3466 65.8842 79.1972 65.4234 83.2148 64.3905L84.1164 64.168C84.5434 64.0567 84.9705 64.3269 85.0812 64.7401C85.192 65.1532 84.9231 65.5982 84.5118 65.7094L83.6102 65.9319C81.4907 66.4722 79.8774 66.8853 78.1375 66.8853Z" fill="black"/>
<path d="M95.1243 33.4662C94.9503 33.4662 94.7921 33.4185 94.6498 33.3073C92.989 32.0201 90.996 32.4015 88.7025 32.8464C87.3264 33.1166 85.9028 33.3708 84.416 33.3232C83.9731 33.3073 83.641 32.9418 83.6568 32.4968C83.6726 32.0519 84.0364 31.7182 84.4793 31.7341C85.7921 31.7817 87.1208 31.5275 88.4178 31.2891C90.8694 30.8283 93.4002 30.3516 95.6146 32.0519C95.9626 32.322 96.0259 32.8147 95.757 33.1643C95.5988 33.3708 95.3615 33.4821 95.1243 33.4821V33.4662Z" fill="black"/>
<path d="M72.3001 33.4662C72.1261 33.4662 71.9679 33.4185 71.8255 33.3073C70.1647 32.0201 68.1718 32.4015 65.8783 32.8464C64.5022 33.1166 63.0786 33.3867 61.5918 33.3232C61.1489 33.3073 60.8168 32.9418 60.8326 32.4968C60.8484 32.0519 61.2122 31.7182 61.6551 31.7341C62.9679 31.7976 64.2965 31.5275 65.5936 31.2891C68.0452 30.8283 70.576 30.3516 72.7904 32.0519C73.1384 32.322 73.2016 32.8147 72.9328 33.1643C72.7746 33.3708 72.5373 33.4821 72.3001 33.4821V33.4662Z" fill="black"/>
<path d="M91.1067 42.6353C92.0501 42.6353 92.815 41.5824 92.815 40.2835C92.815 38.9846 92.0501 37.9316 91.1067 37.9316C90.1632 37.9316 89.3984 38.9846 89.3984 40.2835C89.3984 41.5824 90.1632 42.6353 91.1067 42.6353Z" fill="black"/>
<path d="M68.6633 42.6353C69.6068 42.6353 70.3716 41.5824 70.3716 40.2835C70.3716 38.9846 69.6068 37.9316 68.6633 37.9316C67.7199 37.9316 66.9551 38.9846 66.9551 40.2835C66.9551 41.5824 67.7199 42.6353 68.6633 42.6353Z" fill="black"/>
<path d="M73.677 60.7984C73.5505 60.7984 73.4081 60.7825 73.2816 60.7348C72.8545 60.5759 72.5066 60.1945 72.2693 59.6384C72.032 59.0663 71.953 58.3989 71.8897 57.8268C71.8422 57.3977 72.1428 57.0005 72.5856 56.9369C73.0127 56.8892 73.4081 57.1912 73.4714 57.6361C73.5189 58.0493 73.5663 58.4942 73.677 58.8597C74.4837 57.3501 75.5118 56.6032 76.5874 56.6985C77.3466 56.7621 78.0426 57.2865 78.5171 58.081C79.0391 57.4295 79.561 57.0481 80.0988 56.9051C80.5733 56.778 81.0479 56.8574 81.4749 57.1117C81.8387 57.3342 82.1234 57.6679 82.3765 57.9698C82.4714 58.0969 82.5821 58.2241 82.677 58.3194C82.9934 58.6531 83.3414 58.7802 83.7051 58.7167C84.2587 58.6213 84.7965 58.081 85.1445 57.2547C85.3185 56.8574 85.793 56.6668 86.1885 56.8416C86.5839 57.0164 86.7737 57.4931 86.5997 57.8904C86.0303 59.2093 85.0654 60.0674 83.9899 60.274C83.1041 60.4329 82.2341 60.131 81.5382 59.4159C81.4117 59.2729 81.2693 59.1298 81.1428 58.9709C80.9688 58.7644 80.779 58.5419 80.6366 58.4465C80.3519 58.4465 79.8299 58.6849 78.9758 60.2104C78.8176 60.5124 78.4855 60.6713 78.1533 60.6077C77.8211 60.5441 77.5681 60.2899 77.5048 59.9562C77.3308 58.9074 76.7772 58.3035 76.4292 58.2717C76.0338 58.2241 75.496 58.7326 75.1006 59.5112C74.8475 60.0038 74.6261 60.4329 74.2148 60.6554C74.0408 60.7507 73.851 60.7984 73.6612 60.7984H73.677Z" fill="black"/>
<path d="M48.3379 114.986C48.3379 114.986 48.2588 114.986 48.2272 114.986C47.8476 114.939 47.5628 114.621 47.547 114.224C47.294 107.502 47.2307 100.7 47.3414 93.9945C47.3414 93.5654 47.7052 93.2158 48.1323 93.2158C48.5752 93.2158 48.9231 93.5813 48.9073 94.0263C48.8124 99.5881 48.844 105.213 49.0022 110.807C50.3783 108.519 52.3397 106.596 54.6648 105.309C56.1358 104.482 57.7175 103.926 59.2518 103.386L64.3607 101.59C64.772 101.447 65.2307 101.67 65.373 102.083C65.5154 102.496 65.294 102.957 64.8827 103.1L59.7737 104.896C58.3027 105.42 56.7843 105.944 55.424 106.707C52.4346 108.36 50.1252 111.188 49.0813 114.446C48.9706 114.78 48.6701 115.002 48.3221 115.002L48.3379 114.986Z" fill="black"/>
<path d="M114.074 112.285C113.994 112.285 113.9 112.285 113.82 112.238L103.508 108.678C100.613 107.677 97.6078 106.644 94.9505 104.912C94.5867 104.674 94.476 104.181 94.7133 103.816C94.9505 103.45 95.4409 103.339 95.8047 103.577C98.3038 105.198 101.214 106.199 104.014 107.169L113.362 110.394C113.425 108.313 112.887 106.215 111.827 104.419L111.59 104.022C111.211 103.402 110.784 102.719 110.625 101.893C110.562 101.527 110.546 101.146 110.53 100.764C110.499 100.081 110.467 99.6362 110.23 99.3979C109.914 99.0959 109.914 98.5874 110.23 98.2696C110.53 97.9518 111.037 97.9518 111.353 98.2696C112.065 98.9688 112.112 99.9382 112.128 100.717C112.128 101.019 112.144 101.321 112.207 101.591C112.302 102.131 112.618 102.64 112.966 103.18L113.219 103.609C114.627 105.993 115.212 108.821 114.88 111.57C114.849 111.809 114.722 112.015 114.516 112.142C114.39 112.222 114.248 112.27 114.089 112.27L114.074 112.285Z" fill="black"/>
<path d="M78.3114 81.2823C77.742 81.2823 77.1568 81.2505 76.5874 81.1869C74.8949 80.9962 73.2658 80.5195 71.684 80.0587C69.1375 79.3118 66.2587 78.4537 64.0759 76.4832C63.1585 75.641 62.4151 74.6557 61.7034 73.7182L58.9986 70.0951C58.7297 69.7455 58.8088 69.2528 59.1568 68.9827C59.5048 68.7125 59.9951 68.792 60.264 69.1416L62.9687 72.7647C63.6331 73.6546 64.329 74.5763 65.1357 75.3073C67.0496 77.0394 69.7543 77.8339 72.1269 78.549C73.6295 78.994 75.1955 79.4548 76.7455 79.6296C79.7508 79.9633 82.8035 79.2482 85.7455 78.5649C86.6629 78.3583 87.6911 78.1041 88.4028 77.5161C88.909 77.0871 89.2886 76.4673 89.684 75.8158L89.8106 75.6092C91.8984 72.1768 94.5557 69.1734 97.7192 66.7103C98.0672 66.4401 98.5575 66.5037 98.8264 66.8533C99.0953 67.2029 99.032 67.6955 98.684 67.9657C95.6629 70.3175 93.1322 73.162 91.155 76.4355L91.0285 76.6421C90.5856 77.3731 90.1269 78.1517 89.3993 78.7397C88.4028 79.566 87.1216 79.868 86.0935 80.1063C83.6735 80.6784 80.9846 81.2981 78.2798 81.2981L78.3114 81.2823Z" fill="black"/>
<path d="M66.6228 25.124C68.2519 24.0593 69.976 23.1853 71.7792 22.5337C72.6966 22.2 73.6931 21.914 74.6263 22.2318C75.8758 22.6609 76.6825 24.1069 76.7458 25.5689C76.8091 27.0309 76.2238 28.4293 75.4171 29.5734C76.4136 30.1932 76.8091 31.5757 76.904 32.8628C76.9989 34.15 76.8565 35.453 77.1729 36.6766C77.3468 37.3441 77.6474 37.9797 77.6632 38.663C77.7106 40.1409 76.4927 41.2691 76.1289 42.6834C75.2431 46.0364 79.2449 48.9444 78.9127 52.4245C77.7265 52.5676 76.73 53.4098 75.6386 53.9501C74.5472 54.4904 73.092 54.6334 72.3328 53.6005C71.1149 51.9637 72.8864 49.5642 72.6966 47.4507C73.6298 48.0386 74.3732 48.9762 74.7844 50.0727C75.1166 50.0727 75.4488 50.0568 75.7809 50.0409C76.5402 48.3724 73.8671 46.8786 74.1201 45.0512C74.2625 44.0659 75.259 43.1601 74.8477 42.2544C72.8547 43.3349 70.6403 44.7016 70.1026 47.117C69.5806 49.3894 70.7827 51.7889 70.4189 54.109C70.3873 54.3314 70.324 54.5698 70.1816 54.7128C70.0235 54.8876 69.7704 54.9194 69.549 54.9035C67.9514 54.8241 66.9075 53.0761 66.1166 51.5188C65.4839 50.2634 64.8512 48.9921 64.2185 47.7367C63.7915 46.8786 63.3328 45.8934 63.6017 44.9399C63.8864 43.907 64.8987 43.3667 65.8477 43.2078C66.7968 43.0489 67.7774 43.1601 68.6948 42.8423C70.3714 42.2861 71.7475 40.411 73.4874 40.6653C73.9461 40.7288 74.4365 40.9354 74.8319 40.6812C75.1324 40.4905 75.259 40.0932 75.3539 39.7277C76.0973 36.8673 75.6069 33.6415 74.0569 31.1943C73.8354 30.8447 73.5982 30.511 73.2502 30.3044C72.7757 30.0184 72.1904 30.066 71.6368 30.066C69.802 30.066 62.6843 27.6665 66.6069 25.0922L66.6228 25.124Z" fill="#D43148"/>
<path d="M91.5655 25.124C89.9363 24.0593 88.2122 23.1853 86.4091 22.5337C85.4917 22.2 84.4952 21.914 83.562 22.2318C82.3124 22.6609 81.5057 24.1069 81.4425 25.5689C81.3792 27.0309 81.9644 28.4293 82.7711 29.5734C81.7746 30.1932 81.3792 31.5757 81.2843 32.8628C81.1894 34.15 81.3317 35.453 81.0154 36.6766C80.8414 37.3441 80.5409 37.9797 80.5251 38.663C80.4776 40.1409 81.6955 41.2691 82.0593 42.6834C82.9451 46.0364 78.9433 48.9444 79.2755 52.4245C80.4618 52.5676 81.4583 53.4098 82.5497 53.9501C83.6411 54.4904 85.0962 54.6334 85.8555 53.6005C87.0734 51.9637 85.3019 49.5642 85.4917 47.4507C84.5585 48.0386 83.8151 48.9762 83.4038 50.0727C83.0716 50.0727 82.7395 50.0568 82.4073 50.0409C81.6481 48.3724 84.3212 46.8786 84.0681 45.0512C83.9258 44.0659 82.9293 43.1601 83.3405 42.2544C85.3335 43.3349 87.5479 44.7016 88.0857 47.117C88.6077 49.3894 87.4056 51.7889 87.7694 54.109C87.801 54.3314 87.8643 54.5698 88.0066 54.7128C88.1648 54.8876 88.4179 54.9194 88.6393 54.9035C90.2368 54.8241 91.2808 53.0761 92.0716 51.5188C92.7043 50.2634 93.337 48.9921 93.9697 47.7367C94.3968 46.8786 94.8555 45.8934 94.5866 44.9399C94.3019 43.907 93.2896 43.3667 92.3405 43.2078C91.3915 43.0489 90.4108 43.1601 89.4934 42.8423C87.8168 42.2861 86.4407 40.411 84.7008 40.6653C84.2421 40.7288 83.7518 40.9354 83.3564 40.6812C83.0558 40.4905 82.9293 40.0932 82.8344 39.7277C82.091 36.8673 82.5813 33.6415 84.1314 31.1943C84.3528 30.8447 84.5901 30.511 84.9381 30.3044C85.4126 30.0184 85.9978 30.066 86.5514 30.066C88.3862 30.066 95.504 27.6665 91.5813 25.0922L91.5655 25.124Z" fill="#D43148"/>
<path d="M79.0712 53.2189C79.0712 53.2189 78.913 53.2189 78.8339 53.2189C77.8058 53.1712 76.8726 52.5832 76.3664 51.6615C75.8128 50.6763 75.8128 49.4368 76.3506 48.4357C78.3752 44.749 79.3084 40.4267 79.0079 36.2791C78.9763 35.8342 79.3084 35.4528 79.7355 35.421C80.1626 35.3893 80.558 35.723 80.5896 36.152C80.9218 40.6015 79.9095 45.2416 77.7425 49.1985C77.4578 49.707 77.4578 50.3585 77.7425 50.8829C77.9956 51.3278 78.4227 51.6139 78.913 51.6298C79.5773 51.6615 80.21 51.5026 80.7003 51.1689C81.0641 50.9306 81.5545 51.0259 81.7917 51.3914C82.029 51.7569 81.9341 52.2495 81.5703 52.4879C80.8427 52.9646 79.9886 53.2189 79.0712 53.2189Z" fill="black"/>
</g>
<defs>
<clipPath id="clip0_11603_5127">
<rect width="153" height="141" fill="white"/>
</clipPath>
</defs>
</svg>
