<svg width="98" height="140" viewBox="0 0 98 140" fill="none" xmlns="http://www.w3.org/2000/svg">
<g clip-path="url(#clip0_11603_4750)">
<path d="M11.6641 68.5048C9.8453 69.5738 8.11308 70.9896 7.30472 72.9399C6.84279 74.0378 6.71288 75.2368 6.56853 76.4214C5.97669 81.7088 5.37041 86.9817 4.77857 92.2691C4.64866 93.3959 4.51874 94.5372 4.08569 95.5774C3.6815 96.5742 3.03192 97.4409 2.48339 98.3655C0.17377 102.367 0.058289 107.221 0.000548525 111.844C-0.0138866 113.476 -0.0283217 115.152 0.563518 116.669C1.06875 117.94 1.94929 119.009 2.82983 120.064C4.14343 121.624 5.44259 123.184 6.75618 124.745C8.40179 126.709 10.4371 128.847 12.9922 128.688C15.9658 128.501 18.5352 125.192 21.3212 126.204C20.3108 129.801 19.9787 133.6 20.3685 137.327C23.3566 136.157 26.7055 136.851 29.8668 137.385C38.2969 138.801 46.8858 139.003 55.4458 139.191C67.7301 139.465 80.0144 139.74 92.2987 140.014C94.6516 140.072 97.784 139.465 97.9861 137.111C98.0872 135.926 97.2932 134.872 96.9324 133.73C96.5282 132.445 96.7014 131.072 96.7591 129.729C97.0911 122.477 94.2186 115.441 94.002 108.189C93.7999 100.995 96.2395 93.9305 96.2395 86.7362C96.2395 81.8822 95.0269 76.8693 91.8945 73.171C88.3002 68.9238 82.6993 66.959 77.2429 65.9189C73.533 65.211 69.7222 64.8499 65.9979 65.4277C63.3418 65.8322 60.7868 66.7135 58.1741 67.3347C49.8739 69.3138 41.1695 68.7071 32.9126 66.7857C25.6373 65.0955 18.4486 64.5176 11.6641 68.5193V68.5048Z" fill="#986A55"/>
<path d="M11.6641 68.5048C9.8453 69.5738 8.11308 70.9896 7.30472 72.9399C6.84279 74.0378 6.71288 75.2368 6.56853 76.4214C5.97669 81.7088 5.37041 86.9817 4.77857 92.2691C4.64866 93.3959 4.51874 94.5372 4.08569 95.5774C3.6815 96.5742 3.03192 97.4409 2.48339 98.3655C0.17377 102.367 0.058289 107.221 0.000548525 111.844C-0.0138866 113.476 -0.0283217 115.152 0.563518 116.669C1.06875 117.94 1.94929 119.009 2.82983 120.064C4.14343 121.624 5.44259 123.184 6.75618 124.745C8.40179 126.709 10.4371 128.847 12.9922 128.688C15.9658 128.501 18.5352 125.192 21.3212 126.204C20.3108 129.801 19.9787 133.6 20.3685 137.327C23.3566 136.157 26.7055 136.851 29.8668 137.385C38.2969 138.801 46.8858 139.003 55.4458 139.191C67.7301 139.465 80.0144 139.74 92.2987 140.014C94.6516 140.072 97.784 139.465 97.9861 137.111C98.0872 135.926 97.2932 134.872 96.9324 133.73C96.5282 132.445 96.7014 131.072 96.7591 129.729C97.0911 122.477 94.2186 115.441 94.002 108.189C93.7999 100.995 96.2395 93.9305 96.2395 86.7362C96.2395 81.8822 95.0269 76.8693 91.8945 73.171C88.3002 68.9238 82.6993 66.959 77.2429 65.9189C73.533 65.211 69.7222 64.8499 65.9979 65.4277C63.3418 65.8322 60.7868 66.7135 58.1741 67.3347C49.8739 69.3138 41.1695 68.7071 32.9126 66.7857C25.6373 65.0955 18.4486 64.5176 11.6641 68.5193V68.5048Z" fill="#59C27A"/>
<path d="M29.6065 54.3905C28.7548 54.7517 27.9032 53.9282 27.3546 53.177C24.6264 49.4354 22.4467 45.3037 20.9166 40.9409C20.5845 39.973 21.4073 38.9762 22.4178 39.1207C23.2406 39.2363 24.0345 39.5541 24.6986 40.0452C19.7184 32.8221 20.1226 22.9841 23.2983 14.793C23.8613 13.3483 24.4965 11.9181 25.4636 10.7191C26.373 9.56336 27.5423 8.63879 28.6971 7.72867C33.273 4.11707 38.282 0.332115 44.0993 0.216544C47.0297 0.158758 49.9456 1.05443 52.7749 1.18445C53.973 1.24224 55.1422 1.5745 56.2537 1.99345C58.419 2.81689 61.1905 2.9758 63.2547 4.42044C64.0198 4.95496 64.6405 5.63394 65.2612 6.32737C69.2598 10.9213 72.4355 16.3965 73.5325 22.3918C73.8646 24.212 74.0089 26.0756 73.8934 27.9247C73.8501 27.7947 73.8357 27.6647 73.8213 27.5347C73.6625 26.0322 76.001 25.8011 76.2897 27.2746C76.9392 30.6984 77.0114 34.2234 76.5062 37.6616C76.3763 38.5428 75.5823 39.6985 74.8895 39.1496C75.6256 44.4081 76.2752 49.9844 74.1533 54.8528C72.1323 59.4757 67.9173 62.7116 63.861 65.7309C61.1184 67.7679 58.2746 69.8626 54.9401 70.5994C52.9048 71.0472 50.8117 70.9605 48.733 70.8594C45.4418 70.7149 41.9918 70.5271 39.1625 68.8369C37.1128 67.609 35.5826 65.6876 34.0814 63.8096C33.5906 63.1884 28.9713 54.6506 29.6209 54.3905H29.6065Z" fill="#986A55"/>
<path d="M80.9679 138.787C80.4338 138.787 79.8853 138.714 79.3512 138.541C78.9759 138.425 78.7594 138.021 78.8749 137.631C78.9903 137.255 79.3945 137.039 79.7843 137.154C81.5887 137.718 83.5951 136.807 85.515 135.811C87.7958 134.641 90.0621 133.456 92.3428 132.271C92.7037 132.083 93.1368 132.228 93.31 132.575C93.4976 132.921 93.3533 133.369 93.0068 133.543C90.7405 134.727 88.4598 135.912 86.179 137.096C84.5046 137.963 82.7579 138.772 80.9824 138.772L80.9679 138.787Z" fill="black"/>
<path d="M20.1516 83.1828C19.8773 83.1828 19.6175 83.0239 19.502 82.7639C19.3432 82.4027 19.502 81.9693 19.8629 81.8104C20.498 81.5215 20.5558 80.3513 20.5414 79.8601C20.5125 77.9243 20.0939 75.9596 19.3288 74.1827C19.17 73.8215 19.3288 73.3882 19.7041 73.2292C20.0794 73.0703 20.498 73.2292 20.6568 73.6049C21.4941 75.5551 21.956 77.7076 21.9849 79.8312C22.0137 81.9549 21.1765 82.7928 20.4547 83.1106C20.3537 83.1539 20.2527 83.1828 20.1516 83.1828Z" fill="black"/>
<path d="M53.555 117.203C53.3962 117.203 53.2518 117.16 53.1075 117.059L46.0632 111.598C45.7456 111.352 45.6878 110.905 45.9332 110.587C46.1786 110.269 46.6261 110.211 46.9437 110.457L53.988 115.918C54.3056 116.163 54.3634 116.611 54.118 116.929C53.9736 117.117 53.7571 117.203 53.5406 117.203H53.555Z" fill="black"/>
<path d="M26.3735 119.356C26.1425 119.356 25.9116 119.241 25.7672 119.038C25.5507 118.706 25.6373 118.258 25.9693 118.042L32.927 113.39C33.923 112.725 34.8469 111.974 34.8758 111.078C34.8758 110.674 35.1933 110.356 35.612 110.371C36.0161 110.371 36.3193 110.717 36.3193 111.107C36.276 112.884 34.5582 114.026 33.7354 114.589L26.7777 119.241C26.6477 119.327 26.5178 119.356 26.3735 119.356Z" fill="black"/>
<path d="M57.8429 124.383C57.6553 124.383 57.4676 124.311 57.3233 124.152C56.1107 122.866 54.2053 122.028 51.9534 121.812C50.0336 121.624 48.0415 121.841 46.1072 122.057L45.6164 122.115C39.4237 122.794 33.1445 123.126 26.9229 123.097C26.5187 123.097 26.2012 122.765 26.2012 122.375C26.2012 121.971 26.5187 121.653 26.9229 121.653C27.1395 121.653 27.4426 121.653 27.688 121.653C33.6064 121.653 39.5825 121.321 45.4576 120.685L45.9484 120.627C47.9549 120.41 50.0336 120.179 52.0978 120.382C53.931 120.569 56.5149 121.205 58.377 123.17C58.6513 123.459 58.6369 123.921 58.3482 124.195C58.2038 124.325 58.0306 124.398 57.8574 124.398L57.8429 124.383Z" fill="black"/>
<path d="M33.8214 31.9991C33.6337 31.9991 33.4605 31.9269 33.3161 31.7969C33.0274 31.5224 33.0274 31.0601 33.3161 30.7712C35.8423 28.2142 39.9852 27.5785 43.1609 29.2688C43.5073 29.4566 43.6517 29.89 43.464 30.2511C43.2764 30.5978 42.8433 30.7423 42.4824 30.5545C39.8985 29.1821 36.4053 29.7166 34.341 31.7969C34.1967 31.9413 34.009 32.0136 33.8214 32.0136V31.9991Z" fill="black"/>
<path d="M57.0771 27.2314C56.8605 27.2314 56.644 27.1303 56.4997 26.9425C56.2543 26.6247 56.312 26.1768 56.6296 25.9312C59.4733 23.7498 63.6595 23.6776 66.5754 25.7868C66.8929 26.0179 66.9651 26.4658 66.7341 26.798C66.5032 27.1159 66.0557 27.1881 65.7237 26.9569C63.3563 25.2523 59.8197 25.2956 57.4957 27.0725C57.3658 27.1736 57.207 27.217 57.0626 27.217L57.0771 27.2314Z" fill="black"/>
<path d="M51.5919 47.0948C50.8846 47.0948 50.1917 46.8059 49.6721 46.2714C48.9214 45.4913 48.676 44.4078 49.0369 43.411C50.134 40.3772 50.3505 36.9968 49.6576 33.8764C49.571 33.4863 49.8164 33.0963 50.2062 33.0096C50.5959 32.9229 50.9857 33.1685 51.0723 33.5585C51.8229 36.939 51.5919 40.6084 50.4083 43.8877C50.2062 44.4511 50.4371 44.9568 50.7258 45.2457C51.0723 45.5924 51.5342 45.7224 51.9672 45.5779C52.256 45.4768 52.5158 45.3324 52.7323 45.1446C53.0354 44.8845 53.4829 44.899 53.7572 45.2023C54.017 45.5057 54.0026 45.9536 53.6995 46.228C53.3386 46.5459 52.9055 46.7914 52.4292 46.9504C52.1693 47.037 51.8951 47.0804 51.6208 47.0804L51.5919 47.0948Z" fill="black"/>
<path d="M65.4502 64.6619C60.9897 66.5255 56.4427 68.158 51.809 69.5304C50.3944 69.9493 48.9509 70.3538 47.4785 70.3827C46.8145 70.3971 46.136 70.3394 45.472 70.3827C44.4182 70.4549 43.3933 70.8161 42.3396 70.9172C41.2858 71.0183 40.1021 70.7728 39.4526 69.9349C39.0339 69.3715 38.904 68.6491 38.8896 67.9413C38.8174 65.7454 39.568 63.6073 40.3042 61.5415C40.5352 60.877 40.795 60.1835 41.2569 59.6635C41.69 59.1723 42.2818 58.8545 42.8592 58.5511C44.5193 57.6699 46.1793 56.7886 47.8249 55.9074C49.7304 54.8962 51.6358 53.8849 53.7 53.2493C55.3889 52.7292 57.15 52.4836 58.8678 52.0647C62.9096 51.1112 68.5104 48.5542 72.61 50.6923C74.1113 51.4724 75.2949 53.2204 76.0456 54.6795C77.518 57.5399 75.396 59.0423 73.1441 60.6314C70.7768 62.3216 68.1063 63.5351 65.4502 64.6475V64.6619Z" fill="#F3FFF8"/>
<path d="M20.7011 125.178C27.0381 121.769 29.9973 114.372 31.845 107.409C33.4473 101.356 34.5876 95.1584 35.2372 88.932C38.5429 88.7298 41.4876 85.9416 41.8918 82.6623C42.1516 80.452 41.7042 77.5772 43.6962 76.6093C44.4324 76.2481 45.3707 76.2915 46.0058 75.7569C46.7564 75.1502 46.7853 73.9511 46.309 73.1132C45.8326 72.2754 44.9665 71.7408 44.0859 71.3219C41.4876 70.0939 38.514 69.7183 35.6847 70.2529C38.1242 69.285 39.8276 67.1324 41.6608 65.2544C43.4941 63.3764 45.8615 61.6284 48.4742 61.9173C49.5424 62.0329 50.5817 62.4951 51.6499 62.3796C52.7181 62.264 53.8008 61.195 53.3533 60.2271C53.2089 59.9237 52.9491 59.6925 52.6893 59.4758C51.5778 58.5368 50.4663 57.5834 49.3548 56.6444C49.86 56.6588 50.1631 55.8931 49.7734 55.5609C44.0859 54.2896 37.8933 55.5609 33.1441 58.9413C28.395 62.3218 25.2048 67.7825 24.5408 73.5755C24.4253 74.6301 24.382 75.7136 24.05 76.7393C23.7902 77.5338 23.3571 78.2706 22.9096 78.9785C18.1316 86.7217 12.8772 94.1039 6.09272 99.9835C3.76867 102.006 2.20967 104.823 1.96428 107.9C1.93541 108.305 1.93541 108.695 1.99315 109.07C2.39733 111.497 3.69649 112.147 5.68854 113.592C10.3222 116.958 13.267 122.765 18.6946 124.6C19.3875 124.831 19.9793 124.99 20.6866 125.192L20.7011 125.178Z" fill="#986A55"/>
<path d="M32.9125 65.2689C32.6527 65.2689 32.4073 65.1389 32.2774 64.8933C32.0897 64.5466 32.2196 64.0988 32.5661 63.911C33.2301 63.5498 33.923 63.1742 34.4715 62.683C34.7025 62.4663 34.9046 62.2352 35.1211 62.004C35.4098 61.6862 35.6985 61.3684 36.0305 61.0939C37.0843 60.1982 38.4412 59.8082 39.5382 59.5048C42.5407 58.638 45.601 57.8146 48.6179 57.0345C49.0077 56.9334 49.3974 57.1645 49.4985 57.5545C49.5995 57.9446 49.3686 58.3347 48.9788 58.4358C45.9763 59.2159 42.9305 60.0393 39.9424 60.9061C38.932 61.195 37.7916 61.5273 36.9688 62.2207C36.6945 62.4519 36.4491 62.7264 36.2037 63.0008C35.9583 63.2609 35.7274 63.5354 35.4531 63.7809C34.7747 64.3877 33.9807 64.8355 33.2734 65.2111C33.1579 65.2689 33.0424 65.2978 32.927 65.2978L32.9125 65.2689Z" fill="black"/>
<path d="M36.5211 74.8183C36.1458 74.8183 35.8138 74.5149 35.7993 74.1249C35.7849 73.7204 36.088 73.3881 36.4778 73.3736C37.4594 73.3303 38.4121 72.9258 39.4081 72.4924C39.7257 72.348 40.0577 72.2179 40.3753 72.0879C42.3384 71.3223 43.9552 71.2934 45.211 72.0157C45.5575 72.2179 45.6729 72.6513 45.4709 72.998C45.2688 73.3448 44.8357 73.4603 44.4893 73.2581C43.6376 72.7669 42.425 72.8247 40.8949 73.4314C40.5918 73.547 40.2742 73.677 39.9711 73.8215C38.8884 74.2838 37.7769 74.7605 36.5355 74.8183C36.5355 74.8183 36.5066 74.8183 36.4922 74.8183H36.5211Z" fill="black"/>
<path d="M87.5631 114.184C83.4202 116.452 79.8547 119.602 75.9717 122.289C72.0886 124.976 67.6859 127.244 62.9656 127.359C60.9736 127.403 58.9094 127.027 57.3215 125.828C55.3728 124.354 54.4633 121.884 53.9004 119.515C51.2588 108.434 53.9437 96.8196 57.1338 85.8837C57.7979 83.6012 58.4907 81.3042 59.429 79.1228C60.1363 77.4759 60.988 75.8868 61.6376 74.211C63.6585 69.0103 63.7307 63.1884 65.8238 58.0021C66.1847 57.092 66.6177 56.1963 66.7476 55.2284C67.0796 52.8592 65.665 50.7356 65.4196 48.4242C65.1742 46.1272 68.0757 45.1304 69.9089 45.5638C71.4246 45.925 72.5361 47.7596 71.8288 49.1609C73.5033 48.2797 75.6685 48.4386 77.1987 49.551C78.339 48.0052 80.3888 47.1673 82.2798 47.4852C83.2181 47.6441 84.2719 48.2942 84.2286 49.2476C85.4844 49.3199 86.7114 49.6088 87.8662 50.1C88.4725 50.36 89.0932 50.6923 89.4108 51.2701C89.7283 51.848 89.584 52.7148 88.9777 52.9604C90.3057 54.0583 84.6905 67.0311 80.5187 71.6829C80.0857 72.1741 79.6238 72.7086 79.566 73.3731C79.4938 74.341 78.8443 78.4582 79.1474 79.7006C79.2484 80.134 81.1106 88.7296 81.3704 91.1566C81.4137 91.5322 81.457 91.9223 81.7024 92.2256C81.9334 92.5001 82.2943 92.6446 82.6263 92.7602C84.8637 93.5403 87.0867 94.3204 89.3242 95.1005" fill="#986A55"/>
<path d="M24.9876 46.5893C24.7999 46.5893 24.6267 46.5171 24.4824 46.3871C23.2554 45.1736 22.3893 43.6423 21.9707 41.9665C21.9274 41.7787 21.9562 41.5764 22.0573 41.4175C22.1583 41.2586 22.3171 41.143 22.5192 41.0997C23.5152 40.883 24.3091 41.4608 24.9443 41.9231C25.3629 42.2265 25.7527 42.5154 26.128 42.5588C26.5177 42.6021 26.8064 42.9633 26.7631 43.3533C26.7198 43.7434 26.3589 44.0323 25.9692 43.989C25.2186 43.9023 24.6123 43.4689 24.0926 43.0788C23.9916 43.0066 23.8905 42.9344 23.8039 42.8766C24.2081 43.8012 24.7855 44.6535 25.4928 45.3614C25.7815 45.6359 25.7815 46.0981 25.4928 46.3871C25.3485 46.5315 25.1608 46.6038 24.9732 46.6038L24.9876 46.5893Z" fill="#211C2E"/>
<path d="M40.0431 42.732C41.207 42.732 42.1506 41.7877 42.1506 40.6228C42.1506 39.458 41.207 38.5137 40.0431 38.5137C38.8791 38.5137 37.9355 39.458 37.9355 40.6228C37.9355 41.7877 38.8791 42.732 40.0431 42.732Z" fill="#1F1C2C"/>
<path d="M62.7208 38.0084C63.8848 38.0084 64.8283 37.0641 64.8283 35.8992C64.8283 34.7343 63.8848 33.79 62.7208 33.79C61.5569 33.79 60.6133 34.7343 60.6133 35.8992C60.6133 37.0641 61.5569 38.0084 62.7208 38.0084Z" fill="#1F1C2C"/>
<path d="M24.7142 40.0454C25.1039 38.7308 24.8441 36.3327 24.8441 34.9458C24.8441 32.5044 24.2234 30.0774 24.2378 27.636C24.2522 25.0501 24.9884 22.4642 26.4175 20.2972C28.6838 16.8734 32.4081 14.7642 36.0024 12.7851C39.5968 10.8059 44.2016 11.8605 48.2578 11.3549C50.0622 11.1237 51.8089 10.5892 53.5844 10.1992C56.5147 9.53463 59.7049 9.26015 62.4042 10.5603C65.4212 12.005 67.2545 15.0965 68.9145 18.0002C69.694 19.3871 70.4879 20.7739 71.1519 22.2186C72.5666 25.2523 73.4471 28.5316 73.7647 31.8688C74.2988 26.5525 73.6492 21.2651 71.9892 16.1944C71.8737 15.8333 71.7438 15.4721 71.4839 15.1832C71.2674 14.9376 71.1086 14.8076 70.9498 14.5331C70.7333 14.1719 70.5312 13.7096 70.3147 13.2474C68.3948 9.10124 65.6955 5.08515 61.4227 3.49604C60.8597 3.29379 60.1235 2.81706 59.5605 2.65815C58.2036 2.28254 56.4859 1.95028 55.1145 1.60356C51.9099 0.809013 48.561 0.462299 45.2698 0.115586C44.2593 0.014461 43.2488 -0.0577709 42.2384 0.0289074C40.3185 0.216711 38.5141 1.01126 36.753 1.79137C35.2951 2.44146 33.8516 3.09154 32.4803 3.90054C31.3543 4.55063 30.3006 5.30184 29.2612 6.09639C26.7062 8.04666 24.2811 10.3003 22.8953 13.1896C22.1591 14.7209 21.7405 16.3822 21.423 18.0436C20.0949 25.0356 20.4269 34.3824 24.6997 40.031L24.7142 40.0454Z" fill="black"/>
<path d="M35.2365 89.6543C34.8612 89.6543 34.5436 89.3654 34.5148 88.9753C34.4859 88.5708 34.789 88.2386 35.1932 88.2097C38.138 88.0363 40.8229 85.4938 41.1694 82.5756C41.2271 82.0989 41.256 81.5788 41.2704 81.0587C41.357 79.1084 41.4581 76.9126 43.3779 75.9591C43.7532 75.7713 44.1574 75.6702 44.5183 75.5835C44.9369 75.4824 45.3122 75.3957 45.5576 75.1935C46.0196 74.8179 45.9907 73.9944 45.6876 73.4744C45.37 72.9109 44.7637 72.4342 43.7821 71.9864C41.3281 70.8307 38.4989 70.4695 35.8284 70.9751C35.4675 71.0474 35.1066 70.8307 35.0056 70.4695C34.9045 70.1083 35.0922 69.7327 35.4386 69.6027C37.2863 68.866 38.701 67.378 40.1878 65.8033C40.5198 65.4566 40.8374 65.1099 41.1694 64.7776C43.7677 62.1339 46.1928 60.9782 48.5746 61.2238C49.0076 61.2672 49.4263 61.3683 49.8593 61.4694C50.4656 61.6139 51.0574 61.7439 51.5915 61.6861C52.0101 61.6428 52.4576 61.3538 52.6597 61.0071C52.8041 60.7615 52.7319 60.6026 52.703 60.5593C52.6308 60.4004 52.4288 60.227 52.2267 60.0537L48.8921 57.2222C48.6612 57.0199 48.5746 56.7021 48.6901 56.4132C48.7334 56.312 48.7911 56.2109 48.8777 56.1387C43.6089 55.1852 37.9503 56.4421 33.5765 59.548C32.4506 60.357 31.3968 61.296 30.4441 62.3506C30.1698 62.654 29.7223 62.6685 29.4192 62.394C29.1305 62.1195 29.1016 61.6717 29.3759 61.3683C30.4008 60.2415 31.5267 59.2302 32.7393 58.3634C37.6328 54.8674 44.0708 53.5528 49.9315 54.8674C50.047 54.8963 50.148 54.9396 50.2346 55.0263C50.6532 55.373 50.7831 55.9653 50.5666 56.5143C50.5378 56.5721 50.5233 56.6299 50.4944 56.6876L53.1649 58.9557C53.4537 59.2013 53.8001 59.4903 54.0166 59.9381C54.2764 60.5015 54.2476 61.1371 53.9156 61.715C53.4825 62.4662 52.6164 63.0296 51.7359 63.1163C50.9564 63.1885 50.2346 63.0296 49.5273 62.8707C49.152 62.784 48.7911 62.6973 48.4158 62.654C46.4959 62.4518 44.4606 63.463 42.1943 65.7744C41.8767 66.1067 41.5591 66.439 41.2415 66.7857C40.4187 67.6669 39.5815 68.5481 38.6432 69.3282C40.6353 69.386 42.6129 69.8483 44.4173 70.7006C45.2112 71.0763 46.3227 71.6975 46.9578 72.7809C47.5641 73.85 47.5641 75.468 46.4959 76.3492C45.9907 76.7681 45.3989 76.8982 44.8792 77.0282C44.5761 77.1004 44.2729 77.1726 44.042 77.2882C42.9738 77.8227 42.8294 79.1662 42.7428 81.1454C42.7139 81.7088 42.6995 82.2578 42.6273 82.7778C42.1798 86.4328 38.9752 89.4665 35.3087 89.6832C35.2943 89.6832 35.2798 89.6832 35.2654 89.6832L35.2365 89.6543Z" fill="black"/>
<path d="M83.4492 94.6966C82.7563 103.538 80.3168 109.807 81.3417 118.62C82.6697 118.215 86.6827 120.613 88.0829 120.613C91.6917 111.035 92.4567 100.851 93.1929 90.7816C90.2048 90.666 85.167 89.2647 83.3337 90.1026C80.7354 91.3017 81.2695 91.2005 81.7026 92.2262C82.3666 93.8153 83.608 92.8185 83.4636 94.6821L83.4492 94.6966Z" fill="#59C27A"/>
<path d="M61.6248 74.9477C61.5382 74.9477 61.4516 74.9332 61.365 74.9044C60.9897 74.7599 60.8165 74.341 60.9608 73.9653C61.928 71.4661 62.4621 68.7502 62.9673 66.121C63.5014 63.3328 64.0644 60.458 65.147 57.7565L65.3491 57.2798C65.6522 56.5574 65.9409 55.864 66.042 55.1561C66.2152 53.9137 65.8255 52.6569 65.4068 51.3278C64.9882 50.0132 64.5696 48.6408 64.6706 47.1962C64.6706 47.0517 64.7284 46.9217 64.815 46.8206C65.9265 45.3326 68.2939 44.4658 70.0838 44.8848C71.0943 45.1303 72.0037 45.896 72.4656 46.8928C72.6388 47.2829 72.7399 47.6729 72.7687 48.063C74.1978 47.7162 75.7712 47.9185 77.056 48.6264C78.3984 47.1962 80.4771 46.4739 82.4114 46.7917C83.4796 46.965 84.5334 47.6296 84.8654 48.5975C86.0057 48.7275 87.1028 49.0164 88.1566 49.4498C88.8062 49.7243 89.6145 50.1432 90.0476 50.9378C90.3218 51.4434 90.3796 52.0791 90.1775 52.6425C90.1053 52.8592 89.9898 53.047 89.8599 53.2059C89.8744 53.2781 89.8888 53.3648 89.8888 53.4515C90.1053 56.3552 84.952 67.8545 81.0545 72.2029C80.6503 72.6507 80.3183 73.0552 80.2894 73.4597C80.2606 73.8642 79.9141 74.1676 79.5244 74.1243C79.1202 74.0954 78.8315 73.7486 78.8604 73.3586C78.9325 72.434 79.5677 71.7117 79.9863 71.2494C84.158 66.5977 88.9505 54.8383 88.4308 53.4515C88.2287 53.2926 88.1854 53.0903 88.2143 52.8447C88.2576 52.5991 88.4597 52.4402 88.6907 52.3391C88.7484 52.3102 88.7917 52.238 88.8062 52.1802C88.8639 52.0213 88.8495 51.8046 88.7628 51.6601C88.5463 51.2556 88.0122 50.9956 87.5792 50.8078C86.4965 50.3599 85.3417 50.0855 84.1725 50.0132C83.7827 49.9843 83.4796 49.6521 83.494 49.262C83.5085 48.7708 82.8156 48.3519 82.1516 48.2508C80.506 47.9763 78.7449 48.6842 77.7633 50.0277C77.5323 50.3455 77.0848 50.4177 76.7528 50.1866C75.4392 49.2331 73.5771 49.0887 72.1336 49.8399C71.8593 49.9843 71.5129 49.9265 71.2964 49.7098C71.0798 49.4932 71.0221 49.1464 71.1664 48.872C71.4407 48.3374 71.2675 47.7885 71.1376 47.514C70.8633 46.9217 70.3148 46.445 69.7229 46.3149C68.5537 46.0405 66.9081 46.6039 66.0708 47.5429C66.042 48.6408 66.3884 49.7387 66.7493 50.9089C67.1968 52.3391 67.6587 53.8126 67.4422 55.3728C67.3123 56.2685 66.9803 57.0631 66.6627 57.8432L66.475 58.3055C65.4357 60.8769 64.9016 63.6795 64.3819 66.3954C63.8623 69.0825 63.3282 71.8706 62.3033 74.4999C62.1878 74.7888 61.9135 74.9621 61.6248 74.9621V74.9477Z" fill="black"/>
<path d="M86.827 94.8263C84.6473 94.8263 82.4676 94.075 80.7787 92.6593C80.4756 92.3993 80.4323 91.9514 80.6921 91.648C80.9519 91.3447 81.3994 91.3013 81.7026 91.5614C83.8245 93.3383 86.9858 93.8872 89.5697 92.9049C89.945 92.7604 90.3636 92.9482 90.4935 93.3238C90.6379 93.6994 90.4502 94.1184 90.0749 94.2628C89.0356 94.6673 87.9241 94.8552 86.8126 94.8552L86.827 94.8263Z" fill="black"/>
<path d="M69.7945 53.5814C69.7945 53.5814 69.7512 53.5814 69.7368 53.5814C69.3471 53.5525 69.0583 53.2058 69.0728 52.8158L69.1017 52.3824C69.1017 52.2957 69.1305 52.2234 69.1594 52.1512C69.2749 51.3567 69.5058 50.4321 70.1843 49.7531C70.3286 49.6087 70.4874 49.4786 70.6462 49.3486C70.8772 49.1608 71.137 48.9586 71.137 48.8285C71.1659 48.4385 71.5123 48.1351 71.9021 48.164C72.3063 48.1929 72.595 48.5396 72.5661 48.9297C72.5083 49.6953 71.9454 50.1432 71.5412 50.4754C71.4257 50.5766 71.2958 50.6632 71.1947 50.7644C70.7184 51.2411 70.6029 52.0212 70.5019 52.9169C70.4586 53.2925 70.1554 53.567 69.7801 53.567L69.7945 53.5814Z" fill="black"/>
<path d="M74.558 54.1019C74.4281 54.1019 74.2982 54.073 74.1827 54.0008C73.8362 53.7985 73.7352 53.3507 73.9373 53.004C74.6735 51.7616 75.5684 50.6203 76.5645 49.5946C76.8387 49.3057 77.3007 49.3057 77.5894 49.5946C77.8781 49.8691 77.8781 50.3314 77.5894 50.6203C76.6655 51.5593 75.8427 52.6284 75.1643 53.7552C75.0343 53.9863 74.7889 54.1019 74.5436 54.1019H74.558Z" fill="black"/>
<path d="M79.7406 55.0838C79.7406 55.0838 79.7262 55.0838 79.7118 55.0838C79.3509 55.0838 79.0622 54.7949 79.0189 54.4482L78.9756 54.0581C78.9467 53.7981 79.0478 53.5525 79.2354 53.4081C79.9427 51.1689 81.7038 49.233 83.8835 48.3663C84.2588 48.2218 84.6774 48.4096 84.8218 48.7708C84.9661 49.1464 84.7929 49.5653 84.4176 49.7098C82.4111 50.5043 80.8521 52.3824 80.448 54.4915C80.3758 54.8383 80.0871 55.0694 79.7406 55.0694V55.0838Z" fill="black"/>
<path d="M88.2289 57.9011C87.9691 57.9011 87.7092 57.7567 87.5793 57.5111L86.2657 54.9107C86.1791 54.7518 86.0203 54.4196 86.0925 54.0295C86.1791 53.5817 86.5256 53.3361 86.6988 53.2205L88.2867 52.1081C88.6187 51.877 89.0662 51.9637 89.2971 52.2815C89.5281 52.6138 89.4415 53.0616 89.1239 53.2927L87.6226 54.3473L88.8929 56.8465C89.0662 57.2077 88.9362 57.6411 88.5754 57.8145C88.4743 57.8722 88.3588 57.8867 88.2434 57.8867L88.2289 57.9011Z" fill="black"/>
</g>
<defs>
<clipPath id="clip0_11603_4750">
<rect width="98" height="140" fill="white"/>
</clipPath>
</defs>
</svg>
