<svg width="102" height="151" viewBox="0 0 102 151" fill="none" xmlns="http://www.w3.org/2000/svg">
<g clip-path="url(#clip0_11603_4530)">
<path d="M15.7011 49.1332C14.6163 47.7851 15.1301 45.8203 15.6583 44.1711C16.5861 41.3315 17.4139 38.4345 17.6709 35.4515C18.2275 28.7541 15.7867 22.071 16.3291 15.3736C16.5004 13.2798 16.9572 11.1859 17.9563 9.35023C18.927 7.55756 20.3686 6.05172 21.9673 4.78968C28.3476 -0.215457 37.4971 -1.43447 44.9337 1.79233C49.7867 3.90051 53.8405 7.78702 56.1814 12.5627C59.8069 19.9772 59.136 28.7111 58.194 36.9287C57.9799 38.793 57.8657 40.9729 59.2502 42.235C60.3065 43.1958 61.9765 43.3106 62.9614 44.3575C65.1738 46.7238 61.8909 50.7107 63.0756 53.7224C56.4668 55.6298 49.487 55.5151 42.6213 55.386C35.6986 55.2569 28.7758 55.1279 21.8673 55.0131C20.9824 54.9988 20.0403 54.9558 19.3409 54.4395C18.2275 53.622 19.0126 52.2739 18.3703 51.227C17.7993 50.3092 16.4148 49.9936 15.7296 49.1475L15.7011 49.1332Z" fill="black"/>
<path d="M69.4851 53.0337C67.0585 52.331 64.6177 51.6426 62.1056 51.3127C61.1635 51.198 60.1501 50.9542 59.2936 50.5526C58.1946 50.6243 57.0955 50.567 55.9964 50.4522C52.8705 50.653 49.873 49.2619 46.7899 48.6883C44.292 48.2293 41.7227 48.2437 39.2391 48.7313C38.7395 48.8317 38.2399 48.9464 37.7546 49.1185C36.8553 49.434 36.0132 49.9073 35.114 50.2084C33.03 50.9255 30.7605 50.7104 28.548 50.6243C23.1383 50.4379 17.2575 51.3701 13.4322 55.2279C9.87802 58.8133 8.82176 64.1482 8.365 69.1821C7.85115 74.8756 7.89397 80.5978 7.93679 86.3056C7.96534 90.9953 9.79237 95.814 9.63536 100.504C9.54972 103.028 9.2357 105.552 9.43553 108.061C9.63536 110.657 10.3919 113.267 9.90656 115.82C9.53545 117.799 8.45064 119.563 7.62277 121.399C6.90908 122.991 6.39523 124.654 5.90992 126.318C2.64124 137.547 0.642919 149.149 -0.0136719 160.823C3.84023 157.281 8.17944 154.284 12.8469 151.946C15.0737 146.625 18.171 141.706 21.7395 137.189C22.2533 136.543 22.7815 135.884 23.1383 135.152C23.4809 134.464 23.6664 133.704 23.852 132.958C25.3079 127.336 27.3776 121.901 29.4616 116.48C30.5606 113.626 31.7311 110.672 33.9863 108.621C35.6706 107.086 37.9116 106.154 40.1811 106.068C42.7789 105.953 45.5338 106.857 47.8889 105.767C50.2441 104.677 52.2424 103.429 53.7554 101.307C54.4834 100.274 54.9401 99.0981 55.5254 97.9795C56.2676 96.531 57.2097 95.1973 58.1375 93.8635C59.0938 92.5011 60.0359 91.1387 60.9922 89.7906C62.3768 87.8115 63.59 85.8324 65.7025 84.6564" fill="#986A55"/>
<path d="M26.3071 11.3581C23.8092 11.3581 21.5683 13.2082 20.4977 15.4741C19.4272 17.7401 19.3558 20.3645 19.6128 22.8599C19.8697 25.3553 20.4406 27.822 20.6119 30.3174C20.7547 32.4686 20.6119 34.6485 20.9402 36.771C21.1686 38.2339 21.6396 39.668 22.2534 41.0161C23.0813 42.8231 24.1804 44.4867 25.4507 46.0212C25.7647 46.3941 26.093 46.767 26.5212 46.9964C28.1913 47.8856 30.2467 46.1933 32.0737 46.6809C32.0737 52.5752 27.2349 51.012 26.9209 51.1698C26.25 55.9885 26.4213 61.0796 26.4213 65.9414C26.4213 67.3468 26.4499 68.7523 26.6925 70.129C27.0779 72.3233 28.0057 74.3741 28.9192 76.3962C29.2618 77.142 29.6044 77.9021 30.1896 78.4757C30.6892 78.949 31.3172 79.2645 31.931 79.5657C35.0141 81.0285 38.5397 82.3479 41.7513 81.1862C44.4205 80.2254 46.219 77.7586 47.8605 75.4353C48.774 74.1446 49.6732 72.8539 50.5867 71.5632C51.2719 70.588 51.9713 69.5984 52.3852 68.4654C52.7849 67.3898 52.8848 66.2282 53.1417 65.0952C54.0981 60.8645 57.0813 57.0784 56.8957 52.733C58.0947 53.0915 59.2937 51.4566 58.6086 50.4097C55.9822 50.1802 53.3844 49.7213 50.8294 49.0329C49.9159 48.7891 48.9738 48.4879 48.2744 47.8426C46.7757 46.4515 46.9469 44.0564 46.3332 42.106C46.1191 41.432 45.7908 40.7723 45.7194 40.0696C45.6338 39.3381 45.8193 38.6211 45.905 37.8897C46.1048 36.1687 45.7051 34.3904 44.7916 32.9132C45.6623 33.4295 46.7756 32.7555 47.4751 32.0097C48.1745 31.264 48.4885 30.2601 48.7882 29.2848C49.1308 28.1949 49.4591 27.0906 49.5162 25.9577C49.5733 24.796 49.3164 23.6057 48.6598 22.6591C48.3886 22.2719 48.0603 21.9134 47.6321 21.7126C46.2475 21.0672 44.7488 22.2432 43.6783 23.3188C42.2509 20.7087 41.8655 17.3959 39.596 15.4741C38.3113 14.3698 36.627 13.9109 34.9856 13.4807C32.0166 12.6919 29.3903 11.3008 26.3071 11.3008V11.3581Z" fill="#986A55"/>
<path d="M47.5468 27.3056C47.1614 27.3056 46.8474 26.9901 46.8331 26.6028L46.7903 24.8102C46.5905 24.8819 46.3764 25.054 46.2194 25.2691C45.9625 25.6276 45.7912 26.1152 45.6342 26.5742C45.5057 26.947 45.106 27.1478 44.7349 27.0331C44.3638 26.904 44.164 26.5024 44.2782 26.1296C44.4637 25.5846 44.6635 24.9679 45.0632 24.4373C45.5628 23.7632 46.2765 23.3473 47.0044 23.333C47.4469 23.333 47.7181 23.5051 47.8751 23.6485C48.2034 23.964 48.2177 24.3943 48.2177 24.5807L48.2605 26.5885C48.2605 26.9901 47.9608 27.3056 47.5611 27.3199H47.5468V27.3056Z" fill="black"/>
<path d="M32.4437 47.5703C32.1011 47.5703 31.8014 47.3265 31.7443 46.968C31.6872 46.5808 31.9441 46.2079 32.3295 46.1505C34.1993 45.835 35.955 44.9172 37.2682 43.5404C37.3967 43.397 38.2816 42.1636 39.138 40.9733C41.4218 37.8182 43.0633 35.5379 43.4915 35.1364C43.777 34.8639 44.2338 34.8926 44.4907 35.1794C44.7619 35.4662 44.7476 35.9251 44.4621 36.1976C44.091 36.5418 41.7073 39.8403 40.2942 41.8194C38.8383 43.8272 38.4244 44.4009 38.2959 44.5443C36.7686 46.1362 34.7275 47.2261 32.5579 47.5847C32.515 47.5847 32.4865 47.5847 32.4437 47.5847V47.5703Z" fill="black"/>
<path d="M27.4207 50.6392C26.3216 50.5675 24.4803 50.4671 24.0949 50.926C24.8657 54.4827 22.6818 57.9103 21.5114 61.3522C19.3275 67.7484 19.1277 74.7757 16.3157 80.9138C15.6021 82.4627 14.7314 83.9542 14.1747 85.5604C12.4761 90.4652 13.9035 95.8432 15.2738 100.848C16.644 105.853 17.943 111.303 16.016 116.122C12.8472 124.081 12.1621 132.887 8.76495 140.746C7.93707 142.653 7.0521 144.532 6.42406 146.511C5.7532 148.605 5.38208 150.799 4.63984 152.879C3.64068 155.675 1.99921 158.199 0.257812 160.609C4.85395 160.523 9.17889 160.451 13.7608 160.365C16.6869 160.308 19.6415 160.25 22.482 160.924C23.8951 161.268 25.2796 161.785 26.7213 161.957C28.0059 162.115 29.3048 161.986 30.5895 161.871C47.5181 160.322 64.5609 159.877 81.5181 161.025C77.5643 150.183 78.4635 137.792 73.2108 127.523C71.7549 124.669 69.8565 122.059 68.5147 119.162C66.0026 113.756 65.5173 107.66 65.0605 101.723C64.8607 99.113 64.6608 96.4742 65.189 93.9214C65.5315 92.2291 66.1881 90.5942 66.288 88.8733C66.545 84.9151 63.99 81.4158 62.4484 77.7587C60.2503 72.5528 60.0933 66.5007 62.0345 61.1944C63.2335 57.9246 62.6625 54.9416 63.1193 51.4853C60.6499 51.0551 60.3074 50.7396 58.7372 50.4814C54.2838 59.9898 49.388 69.2973 44.0781 78.3467C43.7641 78.8917 43.4215 79.451 42.8934 79.7522C42.3653 80.0677 41.7372 80.082 41.1235 80.1107C39.796 80.1537 38.4828 80.1967 37.1554 80.2398C36.7557 80.2398 36.299 80.2398 35.9992 79.9816C35.7566 79.7665 35.6566 79.4367 35.5567 79.1355C34.6004 76.2529 32.3451 74.03 30.4325 71.678C28.5055 69.326 26.7927 66.4434 27.2351 63.4317C27.435 62.0836 28.063 60.8502 28.4341 59.5452C29.2477 56.7343 28.8481 53.192 27.435 50.6392H27.4207Z" fill="#59C27A"/>
<g opacity="0.19">
<path d="M24.6367 124.024C25.2505 124.311 25.7929 123.364 25.5931 122.719C25.3647 122.002 24.4369 121.27 25.0221 120.653C25.536 120.123 27.3202 120.51 27.8911 120.711C28.3336 120.869 28.8332 121.098 29.2614 120.883C29.5041 120.754 29.6611 120.51 29.7895 120.266C30.4033 119.148 30.8743 117.943 31.1741 116.695C31.4025 115.763 31.6451 114.659 32.5158 114.257C33.3294 113.884 34.2572 114.329 35.0851 114.659C35.913 114.989 37.0406 115.146 37.5544 114.415C38.0968 113.669 37.5544 112.637 37.0406 111.877C39.7811 111.561 42.6787 111.26 45.1909 112.407C49.787 114.501 51.5141 120.682 56.1674 122.647C56.41 122.747 56.6527 122.848 56.824 123.034C57.0238 123.264 57.0809 123.593 57.1094 123.895C57.4235 127.351 54.8114 130.85 51.4142 131.496C50.9432 131.582 50.4436 131.625 50.0297 131.868C49.5872 132.112 49.2732 132.542 48.9734 132.944C47.9029 134.392 46.8038 135.827 45.4193 136.974C42.0507 139.727 37.4973 140.387 33.1867 140.918C32.8441 138.179 31.8164 135.525 30.2035 133.288C29.1329 131.797 27.8198 130.506 26.7064 129.043C25.5931 127.58 24.6938 125.874 24.6367 124.038V124.024Z" fill="#163B24"/>
</g>
<path d="M24.1514 121.055C23.8516 121.055 23.5519 120.94 23.3235 120.711C23.038 120.438 23.038 119.979 23.3235 119.693C23.5519 119.449 23.9087 119.42 24.1799 119.578C24.237 119.506 24.2941 119.406 24.2798 119.334C24.237 119.09 24.08 118.832 23.8944 118.545C23.7374 118.287 23.5519 118 23.4234 117.67C23.352 117.484 23.2664 117.211 23.3663 116.896C23.4519 116.595 23.6946 116.208 24.4083 116.079C25.5359 115.863 26.7206 115.978 27.8054 116.365C27.991 116.437 28.1765 116.494 28.2336 116.494C28.2336 116.494 28.3621 116.466 28.5762 115.978C29.3898 114.214 30.0179 112.35 30.4461 110.457C30.5174 110.156 30.7601 109.94 31.0456 109.897C32.2017 109.754 33.6291 109.568 34.9137 110.141C35.0279 110.199 35.1421 110.256 35.2563 110.313C35.5132 110.442 35.7702 110.586 35.9272 110.557C36.1556 110.528 36.3554 110.17 36.3411 109.826C36.3126 109.324 35.97 108.807 35.6702 108.334C35.5275 108.119 35.5132 107.832 35.6417 107.603C35.7702 107.373 35.9985 107.23 36.2555 107.23L41.5082 107.158C41.9079 107.173 42.2219 107.474 42.2362 107.861C42.2504 108.248 41.9221 108.578 41.5367 108.592L37.483 108.65C37.6257 108.98 37.7399 109.338 37.7542 109.74C37.8113 110.729 37.1833 111.877 36.0699 111.991C35.4847 112.049 34.9994 111.805 34.5997 111.604C34.4998 111.561 34.4142 111.504 34.3142 111.461C33.5292 111.102 32.5871 111.159 31.7022 111.26C31.2597 113.081 30.6459 114.874 29.8466 116.58C29.7038 116.91 29.3042 117.771 28.4335 117.9C28.0053 117.972 27.6199 117.828 27.3487 117.728C26.5208 117.427 25.6929 117.326 24.8793 117.441C24.9364 117.556 25.0078 117.656 25.0791 117.756C25.3218 118.129 25.5787 118.545 25.6786 119.076C25.7928 119.764 25.4074 120.553 24.7651 120.883C24.5653 120.983 24.3512 121.041 24.1514 121.041V121.055Z" fill="black"/>
<path d="M33.9015 145.435C33.7159 145.435 33.5304 145.406 33.3305 145.335C32.8452 145.148 32.5598 144.732 32.3742 144.474C31.5321 143.269 30.6328 142.093 29.6907 140.975C29.3054 140.516 28.7915 139.985 28.3205 140.028C28.0921 140.057 27.8352 140.215 27.5354 140.401C27.3784 140.502 27.2214 140.602 27.0644 140.674C26.2508 141.104 25.1517 141.133 24.595 140.329C24.3667 140 24.4523 139.555 24.7806 139.326C25.1089 139.096 25.5514 139.182 25.7797 139.512C25.8226 139.555 26.108 139.569 26.3935 139.412C26.522 139.34 26.6504 139.268 26.7646 139.182C27.15 138.938 27.6068 138.652 28.1777 138.594C29.4481 138.465 30.3759 139.569 30.7613 140.028C31.7319 141.176 32.6597 142.395 33.5304 143.628C33.6017 143.743 33.7445 143.943 33.8301 143.972C33.8444 143.972 33.93 143.987 34.1584 143.944C35.3289 143.671 36.4422 142.897 37.527 142.151C39.1685 141.018 40.8528 139.842 42.9368 140.186C43.6933 140.315 44.3784 140.631 45.035 140.932C45.9057 141.333 46.6479 141.678 47.4044 141.548C48.1752 141.405 48.8175 140.717 49.4028 140.028C50.3163 138.953 51.2012 137.834 52.0291 136.687C52.2575 136.371 52.7143 136.3 53.0283 136.529C53.3423 136.758 53.4137 137.217 53.1853 137.533C52.3289 138.709 51.4296 139.856 50.4876 140.96C49.7739 141.807 48.9032 142.724 47.6756 142.968C46.4766 143.198 45.3918 142.696 44.4355 142.251C43.836 141.979 43.2651 141.706 42.7084 141.62C41.1954 141.376 39.8108 142.337 38.3406 143.355C37.1559 144.187 35.9141 145.033 34.4724 145.363C34.3012 145.406 34.1013 145.435 33.9015 145.435Z" fill="black"/>
<path d="M26.0507 40.1845C25.7653 40.1845 25.5083 40.0124 25.3941 39.7399C25.2371 39.3814 25.4084 38.9511 25.7795 38.8077C28.8056 37.5457 30.2187 37.9042 32.7594 38.5496L33.3018 38.693C33.6872 38.7934 33.9156 39.1806 33.8156 39.5678C33.7157 39.955 33.3303 40.1845 32.9449 40.0841L32.3883 39.9407C29.9189 39.3097 28.8912 39.0515 26.3077 40.1271C26.222 40.1702 26.1221 40.1845 26.0365 40.1845H26.0507Z" fill="black"/>
<path d="M28.192 34.3612C28.192 34.3612 28.1063 34.3612 28.0635 34.3612C27.4212 34.3325 26.8502 33.974 26.5362 33.4004C26.1937 32.798 26.1937 32.0523 26.5362 31.4499C27.5497 29.5999 28.0207 27.4487 27.8637 25.3692C27.8351 24.9676 28.1349 24.6234 28.5203 24.5948C28.9057 24.5517 29.2625 24.8672 29.2911 25.2545C29.4623 27.6064 28.9342 30.0445 27.7923 32.124C27.6781 32.3247 27.7209 32.5542 27.7923 32.6833C27.8494 32.7837 27.9493 32.8984 28.1349 32.9127C28.4061 32.9271 28.6773 32.8554 28.8771 32.7263C29.2054 32.5112 29.6479 32.5972 29.862 32.9271C30.0761 33.2569 29.9905 33.7015 29.6622 33.9166C29.234 34.2035 28.7344 34.3469 28.2062 34.3469L28.192 34.3612Z" fill="black"/>
<path d="M35.8418 23.8781C35.6419 23.8781 35.4421 23.792 35.3137 23.6343C34.8997 23.161 34.2859 23.1467 33.3296 23.1323C32.7729 23.1323 32.1592 23.1323 31.5311 22.9746C31.1457 22.8885 30.9031 22.5013 31.003 22.1141C31.0886 21.7269 31.474 21.4974 31.8594 21.5835C32.3162 21.6982 32.8158 21.6982 33.3296 21.6982C34.3573 21.6982 35.5135 21.6982 36.3699 22.6734C36.6268 22.9746 36.5983 23.4191 36.3128 23.6916C36.1701 23.8064 36.0131 23.8781 35.8418 23.8781Z" fill="black"/>
<path d="M33.5871 28.553C34.1389 28.553 34.5862 27.943 34.5862 27.1906C34.5862 26.4381 34.1389 25.8281 33.5871 25.8281C33.0352 25.8281 32.5879 26.4381 32.5879 27.1906C32.5879 27.943 33.0352 28.553 33.5871 28.553Z" fill="black"/>
<path d="M21.8671 24.2939C21.5245 24.2939 21.2248 24.0501 21.1677 23.7059C21.0963 23.3187 21.3675 22.9458 21.7529 22.8741C22.1668 22.8024 22.5808 22.6303 23.0233 22.4439C23.894 22.071 24.8931 21.6551 25.9779 22.1714C26.3348 22.3435 26.4918 22.7737 26.3205 23.1322C26.1492 23.4908 25.721 23.6485 25.3641 23.4764C24.8646 23.247 24.3793 23.4334 23.5657 23.7776C23.0946 23.9784 22.5665 24.2079 21.9813 24.3082C21.9385 24.3082 21.8956 24.3082 21.8528 24.3082L21.8671 24.2939Z" fill="black"/>
<path d="M24.7648 28.553C25.3166 28.553 25.7639 27.943 25.7639 27.1906C25.7639 26.4381 25.3166 25.8281 24.7648 25.8281C24.213 25.8281 23.7656 26.4381 23.7656 27.1906C23.7656 27.943 24.213 28.553 24.7648 28.553Z" fill="black"/>
<path d="M52.0564 54.067C51.9708 54.067 51.8851 54.067 51.8138 54.024C50.2294 53.436 48.4309 52.7763 46.6895 52.8623C45.9615 52.9054 45.2336 53.0775 44.4485 53.2496C43.1211 53.5507 41.7365 53.8806 40.3234 53.522C39.938 53.4216 39.7096 53.0344 39.7953 52.6616C39.8952 52.2743 40.2806 52.0449 40.6517 52.1309C41.7365 52.4034 42.8927 52.1309 44.1202 51.8441C44.9195 51.6577 45.7474 51.4712 46.6038 51.4282C48.645 51.3135 50.5862 52.0305 52.2991 52.6759C52.6702 52.8193 52.8557 53.2209 52.7273 53.5937C52.6274 53.8806 52.3419 54.067 52.0564 54.067Z" fill="black"/>
<path d="M9.86444 116.781C9.75025 116.781 9.62179 116.752 9.5076 116.681C9.16503 116.48 9.05084 116.05 9.25067 115.705C10.3783 113.741 12.2339 112.206 14.3749 111.475C14.7461 111.346 15.16 111.546 15.2742 111.919C15.4026 112.292 15.2028 112.708 14.8317 112.823C13.0189 113.439 11.4346 114.745 10.4925 116.408C10.364 116.638 10.1214 116.767 9.87872 116.767L9.86444 116.781Z" fill="black"/>
<path d="M65.773 84.5568L66.2726 77.4578C72.5102 84.7145 77.8057 92.7744 81.9737 101.408C72.4531 107.173 64.0887 115.276 53.4405 118.503C48.0879 120.123 42.3784 120.439 37.1114 122.26C36.4262 122.49 36.2835 123.436 36.8687 123.866C37.8821 124.627 39.2239 124.956 40.4514 124.698C37.3683 126.548 34.5706 128.886 32.2012 131.611C31.616 132.27 31.045 133.231 31.5303 133.963C32.5438 134.723 37.1399 131.381 39.2239 129.115C37.197 131.439 35.1701 133.762 33.1433 136.1C32.3011 137.075 30.7025 137.304 31.9871 139.542C35.8696 137.046 39.6093 134.336 43.2062 131.439C39.7663 133.891 36.6118 136.759 33.8427 139.972C35.0988 140.574 35.8981 140.804 37.7251 139.097C40.3515 136.659 43.8343 135.34 46.8746 133.475C46.3322 135.21 44.4909 136.1 43.035 137.175C41.579 138.251 40.2944 140.273 41.3221 141.779C47.26 137.663 52.684 132.815 57.4514 127.38C57.8225 126.95 58.1936 126.52 58.6647 126.218C59.2927 125.817 60.0492 125.659 60.7772 125.53C67.0576 124.354 73.4094 123.379 79.5186 121.529C85.642 119.664 91.5942 116.854 96.2331 112.451C99.8301 109.037 102.671 104.204 101.828 99.2997C101.472 97.2489 100.501 95.3702 99.5446 93.5201C95.4338 85.575 91.3087 77.6299 87.1978 69.6991C85.2423 65.9274 83.2583 62.1126 80.4036 58.9861C78.2054 56.5768 75.4078 54.569 72.2247 53.6942C71.668 53.5364 70.4833 53.0918 69.9124 53.2783C69.1701 53.5221 69.0417 54.4543 68.7562 55.1713C68.0568 56.9497 67.4145 58.7567 66.8578 60.578C64.6311 67.72 63.4607 75.45 65.2591 82.8215C65.4019 83.4095 65.5589 83.9831 65.7444 84.5568H65.773Z" fill="#986A55"/>
<path d="M66.5437 78.4044C66.5437 78.4044 66.5151 78.4044 66.5009 78.4044C66.1012 78.3757 65.8015 78.0458 65.83 77.6443C65.9299 75.9377 66.558 74.2597 67.6285 72.926C67.8712 72.6248 68.3279 72.5674 68.6277 72.8112C68.9417 73.055 68.9845 73.514 68.7418 73.8151C67.8569 74.9194 67.3287 76.2962 67.2574 77.716C67.2431 78.1032 66.9148 78.39 66.5437 78.39V78.4044Z" fill="black"/>
<path d="M37.9539 130.993C37.7684 130.993 37.5971 130.922 37.4543 130.778C37.1689 130.506 37.1689 130.047 37.4543 129.76L39.3527 127.838C39.6239 127.551 40.0807 127.551 40.3662 127.838C40.6517 128.111 40.6517 128.57 40.3662 128.856L38.4678 130.778C38.325 130.922 38.1395 130.993 37.9682 130.993H37.9539Z" fill="black"/>
<path d="M39.1527 135.081C38.8815 135.081 38.6103 134.923 38.4961 134.65C38.3391 134.292 38.4961 133.862 38.8672 133.704C39.8235 133.288 40.6942 132.657 41.3937 131.868C41.6506 131.567 42.1073 131.538 42.4071 131.811C42.7068 132.069 42.7354 132.528 42.4642 132.829C41.6363 133.775 40.5943 134.536 39.4382 135.038C39.3525 135.081 39.2526 135.095 39.1527 135.095V135.081Z" fill="black"/>
<path d="M46.6467 134.364C46.5325 134.364 46.4183 134.335 46.3041 134.278C45.9615 134.091 45.8331 133.647 46.0186 133.303C46.5039 132.399 47.3603 131.696 48.3309 131.395C48.7021 131.28 49.1017 131.496 49.2302 131.868C49.3444 132.241 49.1303 132.643 48.7592 132.772C48.1311 132.973 47.5887 133.417 47.2747 133.991C47.1462 134.235 46.9036 134.364 46.6467 134.364Z" fill="black"/>
<path d="M58.8228 126.49L58.5374 126.175C58.5374 126.175 58.2519 126.16 58.1091 126.16C57.7238 126.16 57.1814 126.175 56.7389 125.831C56.6247 125.745 56.539 125.644 56.4391 125.544C56.2821 125.386 56.1679 125.357 56.0823 125.357C55.6826 125.415 55.34 125.114 55.2972 124.726C55.2544 124.339 55.5399 123.981 55.9253 123.938C56.4391 123.88 56.9815 124.052 57.3526 124.425C57.4097 124.483 57.4668 124.54 57.5096 124.597C57.6524 124.741 57.9236 124.726 58.0806 124.726C58.4089 124.726 58.8228 124.712 59.2082 124.898L59.4509 124.841C59.8363 124.741 60.2217 124.97 60.3216 125.357C60.4215 125.745 60.1931 126.132 59.8077 126.232L58.8371 126.49H58.8228Z" fill="black"/>
</g>
<defs>
<clipPath id="clip0_11603_4530">
<rect width="102" height="162" fill="white"/>
</clipPath>
</defs>
</svg>
