<svg width="99" height="136" viewBox="0 0 99 136" fill="none" xmlns="http://www.w3.org/2000/svg">
<g clip-path="url(#clip0_11603_4685)">
<path d="M82.045 113.91C81.9792 115.817 81.5444 117.697 81.1624 119.564C80.3193 123.798 79.7923 128.085 79.5947 132.397C79.5684 132.871 79.5552 133.344 79.7001 133.791C80.0558 134.922 81.2941 135.514 82.4403 135.764C84.087 136.105 85.7995 135.987 87.4726 135.856C90.2654 135.645 93.0582 135.435 95.8642 135.238C96.0355 135.238 96.2067 135.211 96.3648 135.119C96.7995 134.869 96.7337 134.251 96.6546 133.752C96.2067 131.004 97.0235 128.229 97.2343 125.455C97.7612 118.578 96.5624 110.675 97.287 103.812C95.1265 104.022 90.9636 105.192 88.79 105.113C86.7876 105.034 83.9552 104.075 82.045 104.403C79.7923 104.785 80.675 105.534 81.2414 107.822C81.7289 109.821 82.1109 111.846 82.0319 113.91H82.045Z" fill="#C69784"/>
<path d="M4.50386 74.6333C5.71584 70.1363 6.94099 65.6394 8.15296 61.1424C8.77212 58.8545 9.40446 56.5403 10.6296 54.5022C14.3314 48.3353 22.2356 46.4287 29.3098 45.0612C32.6296 44.4301 35.9889 43.7858 39.3613 44.0356C42.3254 44.2591 45.2104 45.1664 48.1745 45.2979C50.5194 45.4031 52.8643 45.0349 55.1961 45.2716C57.9362 45.5477 60.5051 46.626 63.0476 47.691C68.6859 50.071 74.3374 52.451 79.7913 55.2517C85.7326 58.3154 91.6607 62.1155 94.9015 67.9536C97.9577 73.4367 98.2476 79.9849 98.4715 86.257C98.656 91.5823 98.8404 96.9208 99.038 102.246C96.2583 105.402 91.8057 106.783 87.6033 106.441C83.4009 106.099 79.4619 104.219 76.0368 101.76C78.3817 110.872 79.5015 120.313 79.3302 129.728C70.1877 134.79 58.529 130.135 48.438 132.883C45.5661 133.672 42.0356 134.895 39.9673 132.752C40.4943 133.278 39.5063 133.975 38.7685 134.054C30.0081 135.013 21.0895 134.461 12.5134 132.436C14.5422 121.983 17.2691 111.674 20.6679 101.576C21.4715 99.2088 22.2619 96.4475 20.9182 94.3436C17.5985 93.5941 13.9494 94.4488 11.3015 96.579C11.3015 96.2108 5.0835 94.3831 4.43799 94.1595C1.61883 93.1734 0.327813 93.4364 0.301466 90.583C0.248771 85.7048 3.25236 79.3669 4.53021 74.6465L4.50386 74.6333Z" fill="#F3FFF8"/>
<g opacity="0.19">
<path d="M52.8125 87.2038C53.379 87.4668 53.8796 86.5989 53.6951 86.0072C53.4844 85.3498 52.6281 84.6792 53.1682 84.1138C53.6424 83.6273 55.2891 83.9823 55.8161 84.1664C56.2245 84.311 56.6856 84.5214 57.0808 84.3241C57.3047 84.2058 57.4496 83.9823 57.5682 83.7587C58.1347 82.7331 58.5694 81.6286 58.846 80.4846C59.0568 79.63 59.2808 78.6175 60.0844 78.2493C60.8353 77.9074 61.6915 78.3151 62.4556 78.6175C63.2197 78.9199 64.2604 79.0646 64.7347 78.394C65.2353 77.7102 64.7347 76.7635 64.2604 76.0666C66.7897 75.7773 69.464 75.5012 71.7826 76.5531C76.0245 78.4728 77.6185 84.1401 81.9131 85.9415C82.1371 86.0335 82.361 86.1256 82.5191 86.2965C82.7035 86.5069 82.7562 86.8093 82.7826 87.0854C83.0724 90.2543 80.6616 93.4627 77.5263 94.0544C77.0915 94.1333 76.6305 94.1727 76.2484 94.3963C75.84 94.6198 75.5502 95.0143 75.2736 95.3825C74.2856 96.7105 73.2712 98.0254 71.9933 99.0773C68.8844 101.602 64.682 102.207 60.7035 102.693C60.3874 100.182 59.4388 97.7493 57.9502 95.698C56.9622 94.3305 55.7502 93.1471 54.7227 91.8059C53.6951 90.4647 52.8652 88.9 52.8125 87.2169V87.2038Z" fill="#163B24"/>
</g>
<path d="M56.1846 76.8691C55.7367 76.8691 55.3678 76.6455 55.1702 76.2379C55.0121 75.9092 55.1438 75.5147 55.4732 75.3569C55.7498 75.2255 56.066 75.3043 56.2636 75.5147C56.3426 75.4753 56.4217 75.3964 56.4349 75.3438C56.4744 75.1203 56.4085 74.8441 56.3426 74.5417C56.2768 74.2787 56.2109 73.9631 56.1977 73.6476C56.1977 73.4635 56.1977 73.2005 56.3822 72.9638C56.5534 72.7271 56.8828 72.4773 57.5414 72.5825C58.5953 72.7534 59.5834 73.2005 60.4001 73.8843C60.545 74.0026 60.6768 74.1209 60.7295 74.1341C60.7295 74.1341 60.8349 74.1472 61.1905 73.7922C62.442 72.5168 63.5618 71.1098 64.5103 69.5977C64.6552 69.361 64.9319 69.2558 65.2085 69.3084C66.2492 69.5319 67.5534 69.8212 68.4888 70.7153C68.5678 70.7942 68.6468 70.8863 68.7391 70.9652C68.9235 71.1624 69.0947 71.3465 69.2528 71.3859C69.4504 71.4385 69.7402 71.1756 69.8325 70.8863C69.9642 70.4392 69.8325 69.887 69.7139 69.4004C69.6612 69.1638 69.7402 68.9271 69.9115 68.7693C70.0959 68.6115 70.3462 68.5589 70.5702 68.6378L75.1546 70.2025C75.4971 70.3209 75.6816 70.689 75.563 71.0441C75.4444 71.3859 75.0756 71.57 74.7199 71.4517L71.1894 70.242C71.2157 70.5707 71.1894 70.9126 71.0971 71.2676C70.8468 72.1486 69.9379 72.9375 68.9367 72.6877C68.4097 72.5562 68.054 72.188 67.7774 71.8988C67.7115 71.833 67.6456 71.7541 67.5798 71.6884C67.0396 71.1756 66.2887 70.9257 65.3666 70.7153C64.4181 72.1617 63.3247 73.5029 62.1127 74.7389C61.8888 74.9756 61.2696 75.5936 60.4792 75.449C60.084 75.3832 59.7941 75.1334 59.5834 74.9625C58.951 74.4365 58.266 74.1078 57.5283 73.95C57.5546 74.0683 57.581 74.1735 57.5941 74.2787C57.6864 74.6732 57.7917 75.1203 57.6995 75.6068C57.5941 76.2379 57.0013 76.7902 56.3426 76.8822C56.2768 76.8822 56.2241 76.8822 56.1582 76.8822L56.1846 76.8691Z" fill="black"/>
<path d="M46.4491 29.6638C46.3042 27.9018 45.988 26.0084 44.7365 24.7592C43.485 23.51 41.0084 23.3786 40.1521 24.9301C40.7449 26.6264 40.4682 28.4935 40.2443 30.2818C40.0203 32.07 39.8886 33.9766 40.7317 35.5677C41.5748 37.1587 43.7617 38.158 45.2635 37.1455C45.1449 39.4335 45.0263 41.7345 44.9209 44.0225L41.8778 44.1145C42.9976 46.3893 43.485 48.9402 44.4467 51.2939C45.5269 53.9237 47.2527 56.3299 49.5976 57.921C51.9425 59.512 54.9724 60.2089 57.7257 59.4857C60.1892 58.8414 62.218 57.1715 64.1808 55.541C65.2479 54.66 66.315 53.7659 67.3688 52.8849C68.3042 52.096 69.3185 50.7416 68.515 49.808C72.6647 45.745 76.8539 40.6169 76.9461 34.8182C76.9724 33.3192 76.6958 31.7939 76.9066 30.3081C77.0647 29.2167 77.4994 28.1779 77.7892 27.1129C78.8431 23.3128 78.2239 19.2761 77.6048 15.384C77.4994 14.7528 77.394 14.1085 77.0778 13.5563C76.0503 11.8206 74.0874 8.63854 72.085 8.91467C69.6215 7.54717 67.3425 8.24407 64.9844 6.69249C60.9533 4.03639 55.1042 4.61495 51.6659 8.00739C50.0455 9.61156 48.9784 11.6891 48.0299 13.7666C47.0551 15.9099 46.1461 18.1847 46.1856 20.5384C46.2251 22.3398 46.8179 24.0755 46.976 25.8637C47.1341 27.652 47.9114 28.6119 46.4491 29.6769V29.6638Z" fill="#C69784"/>
<path d="M78.2244 24.8121C78.5933 21.5906 79.0544 18.3297 78.725 15.1082C78.3957 11.8867 77.3023 8.63889 75.1023 6.25892C73.8639 4.93087 72.3358 3.90525 70.7945 2.94537C69.3849 2.06439 67.949 1.20971 66.3813 0.670598C64.6819 0.0920426 62.864 -0.118341 61.0723 0.0657447C60.3083 0.144639 59.5178 0.302426 58.7801 0.105192C58.3322 -0.0131493 51.943 0.0525958 49.8484 1.9329C43.8412 7.28454 40.8508 15.8182 42.1945 23.7339C44.5526 23.8654 46.2651 27.3104 46.4496 29.651C47.4639 30.1769 48.1358 26.1928 48.5442 25.0488C48.8735 24.1021 48.7286 23.0239 49.1633 22.1166C49.6639 21.091 50.7837 20.5387 51.5083 19.6577C52.8915 18.0141 52.6807 15.5947 53.5107 13.6224C54.4987 11.2555 56.9753 9.7171 59.531 9.42782C62.0735 9.13855 66.4208 8.52055 68.6208 9.84859C70.3598 10.9005 71.8747 11.6632 73.9035 11.65C75.0759 11.65 74.3777 14.7137 75.0496 15.6736C75.4184 16.1996 75.7873 16.7255 76.0903 17.2909C77.4077 19.7629 77.2891 22.1692 78.2376 24.8121H78.2244Z" fill="black"/>
<path d="M52.377 85.6922C52.074 85.6922 51.7974 85.4687 51.7315 85.1531L50.9674 81.2084C50.6513 79.5779 50.3219 77.8817 50.5063 76.146C50.6644 74.647 51.2046 73.2401 51.7315 71.8857C51.9159 71.4255 52.0872 70.9522 52.2584 70.4788C53.365 67.2967 53.7471 63.8517 53.3782 60.5119C53.3387 60.1568 53.6022 59.8281 53.9578 59.7887C54.3267 59.7361 54.6429 60.0122 54.6824 60.3672C55.0776 63.9043 54.6824 67.5466 53.5099 70.9127C53.3387 71.3992 53.1542 71.8726 52.9698 72.3591C52.456 73.7003 51.9686 74.9626 51.8237 76.2907C51.6525 77.8291 51.9686 79.4333 52.2584 80.9717L53.0225 84.9164C53.0884 85.2714 52.8644 85.6133 52.4956 85.6922C52.456 85.6922 52.4165 85.6922 52.3638 85.6922H52.377Z" fill="#1F1C2C"/>
<path d="M0.618496 90.5965C-0.237792 99.4458 -0.935995 109.005 3.68796 116.592C9.57658 116.868 15.149 113.975 21.0113 113.384C22.4868 113.239 23.9754 113.226 25.4245 112.937C27.0712 112.608 28.6125 111.911 30.1538 111.254C39.7442 107.112 49.6772 103.798 59.8209 101.326C61.6784 100.879 63.4305 102.102 65.3406 102.076C66.1706 102.062 66.9874 101.944 67.8041 101.839C70.2017 101.51 72.6125 101.181 75.0101 100.853C75.5898 100.774 76.3802 100.379 76.143 99.8403C76.0377 99.6036 76.2748 98.4859 76.0245 98.407C74.2987 97.789 72.0724 98.1572 70.3466 97.5392C70.1886 97.4866 70.0173 97.4208 69.9251 97.2762C69.7143 96.9606 70.0436 96.553 70.3862 96.3558C71.4532 95.7509 72.7574 95.8035 73.9826 95.8693C75.4975 95.9482 77.0125 96.0271 78.5275 96.0928C78.8305 96.1059 79.1598 96.1191 79.3838 95.9219C79.5023 95.8298 79.5682 95.6983 79.6209 95.5537C80.1083 94.2914 80.2664 93.2395 78.9095 93.0817C78.2508 93.0028 76.1035 92.8055 75.4448 92.8844C74.8915 92.9502 71.6508 92.6609 71.4005 92.1744C71.1766 91.7405 74.0353 91.4512 74.4568 91.2145C74.8784 90.9778 75.379 90.9778 75.8664 90.9778C76.9862 90.9778 78.0928 90.9778 79.2125 90.9778C79.4365 90.9778 79.6736 90.9778 79.8712 90.8595C80.464 90.5308 80.2796 89.5314 80.8197 89.1238C80.1742 88.782 80.2269 87.6906 79.555 87.4276C79.2125 87.2961 78.8305 87.4539 78.4616 87.5328C76.9071 87.8484 76.0113 87.3619 74.5359 87.9273C74.2724 88.0325 73.2712 87.3882 72.9814 87.4145C72.6916 87.4408 72.349 87.2304 72.3886 86.9411C72.4149 86.6781 72.7969 86.6781 72.955 86.4677C74.9442 83.5092 75.3263 82.1943 77.1574 80.4586C78.0269 79.6303 78.488 78.3811 77.4472 77.7763C76.446 77.1845 75.2209 77.9998 74.3514 78.7756C73.4293 79.5908 72.5203 80.3929 71.5981 81.2081C70.8736 81.8524 70.1359 82.4967 69.2532 82.9307C68.3969 83.3514 67.4484 83.5355 66.4868 83.575C65.2221 83.6407 63.6808 83.2594 63.3119 82.0365C63.1407 81.4711 63.2856 80.8663 63.4305 80.3009C64.0233 77.9209 65.9598 77.579 65.2089 73.161C65.143 72.7665 65.3802 72.2931 65.0903 72.017C64.9586 71.8855 64.761 71.8329 64.5766 71.8198C63.8784 71.7672 63.2065 72.2011 62.7586 72.7402C62.3107 73.2793 62.0341 73.9367 61.6652 74.5547C60.6772 76.2378 60.1502 77.5659 59.0173 79.6566C57.0544 81.6947 54.9598 84.1009 54.143 86.7965C53.9586 87.4145 53.84 88.0588 53.5766 88.6505C52.6017 90.9384 50.0065 91.9772 47.6616 92.8055C46.5418 93.2 45.4089 93.5945 44.2365 93.7391C43.2484 93.8575 42.2604 93.8049 41.2592 93.7523C38.5981 93.6076 35.9239 93.463 33.2628 93.3315C27.5323 93.6208 21.8281 92.7398 16.0975 92.8187C11.8029 92.8713 7.42927 93.4104 3.2664 92.3716C2.13347 92.0823 1.44844 91.4249 0.592148 90.6228L0.618496 90.5965Z" fill="#C69784"/>
<path d="M61.4155 54.1342C59.7688 54.1342 58.043 53.6871 56.4227 52.793C53.8933 51.4124 51.9831 49.2165 50.758 47.678L50.3496 47.1652L51.3508 46.3105L52.2861 47.3099L52.2071 47.3756C53.3532 48.7694 54.9999 50.5051 57.0418 51.6227C59.255 52.8324 61.679 53.1349 63.6682 52.4248C65.6179 51.7411 67.1855 50.1238 68.5688 48.6905C68.8191 48.4275 69.2406 48.4275 69.5041 48.6774C69.7676 48.9272 69.7676 49.348 69.5173 49.6109C68.0287 51.1494 66.3424 52.885 64.1029 53.674C63.2466 53.9764 62.3376 54.121 61.4023 54.121L61.4155 54.1342Z" fill="#1F1C2C"/>
<path d="M42.826 33.8584C42.6152 33.8584 42.4044 33.7532 42.2727 33.5559C41.7326 32.7275 41.6272 31.7414 41.5482 30.9393C41.4296 29.8479 41.311 28.7303 41.4823 27.5863C41.5086 27.4154 41.5745 26.9683 41.9565 26.6922C42.1805 26.5344 42.444 26.4818 42.7206 26.5344C43.2344 26.6264 43.5769 27.0735 43.7086 27.2707C44.3146 28.178 44.7889 29.1773 45.105 30.2292C45.2104 30.5711 45.0128 30.9393 44.6703 31.0445C44.3278 31.1497 43.9589 30.9524 43.8535 30.6106C43.6032 29.7559 43.2212 28.9538 42.747 28.2043C42.6811 29.0984 42.7733 29.9794 42.8655 30.8209C42.9446 31.5178 43.0236 32.2936 43.3925 32.859C43.5901 33.1615 43.4979 33.5691 43.1949 33.7663C43.0895 33.8321 42.9577 33.8715 42.8392 33.8715L42.826 33.8584Z" fill="#1F1C2C"/>
<path d="M21.6314 92.7135C21.526 92.7135 21.4338 92.6872 21.3416 92.6477C21.0122 92.4899 20.8805 92.0955 21.0517 91.7667C24.8326 84.2324 25.8338 75.2122 23.805 67.0335C23.7128 66.6785 23.9368 66.3234 24.2793 66.2314C24.635 66.1525 24.9907 66.3629 25.0829 66.7048C27.1907 75.1859 26.1499 84.5348 22.2242 92.3453C22.1056 92.5688 21.8817 92.7135 21.6314 92.7135Z" fill="#1F1C2C"/>
<path d="M80.7412 89.2949C80.5831 89.2949 80.425 89.2423 80.2933 89.124C80.0298 88.8741 80.0035 88.4665 80.2538 88.1904C82.6119 85.6263 84.746 82.8256 86.6035 79.8802C86.8011 79.5778 87.2095 79.4857 87.5125 79.6698C87.8155 79.8671 87.9077 80.2747 87.7232 80.5771C85.8262 83.5882 83.6394 86.4547 81.2286 89.0714C81.0969 89.216 80.9256 89.2817 80.7412 89.2817V89.2949Z" fill="#1F1C2C"/>
<path d="M89.3167 117.684C89.3167 117.684 89.185 117.684 89.1191 117.657C86.5503 116.882 84.179 115.659 82.0581 114.015C81.7682 113.792 81.7155 113.384 81.9395 113.095C82.1634 112.805 82.5718 112.753 82.8617 112.976C84.864 114.515 87.0904 115.659 89.5012 116.395C89.8437 116.5 90.0413 116.868 89.9359 117.21C89.8437 117.5 89.5934 117.671 89.3036 117.671L89.3167 117.684Z" fill="#1F1C2C"/>
<path d="M73.4549 28.3884C72.5459 28.3884 71.6896 27.9676 70.886 27.4548C70.583 27.2576 70.4908 26.85 70.6884 26.5476C70.886 26.2451 71.2944 26.1531 71.5974 26.3503C73.007 27.2445 73.7447 27.297 74.6668 26.6001C74.9567 26.3766 75.3651 26.4424 75.589 26.7316C75.813 27.0209 75.7471 27.4285 75.4573 27.6521C74.7591 28.178 74.0872 28.3884 73.4417 28.3884H73.4549Z" fill="black"/>
<path d="M74.8119 31.3079C74.6538 31.3079 74.4957 31.2553 74.364 31.1369C73.6658 30.5058 73.0203 30.44 71.7161 30.8608C71.3736 30.966 71.0047 30.7819 70.8861 30.44C70.7676 30.0982 70.9652 29.73 71.3077 29.6116C72.7831 29.1383 74.0215 29.0462 75.2598 30.1639C75.5233 30.4137 75.5496 30.8213 75.2993 31.0975C75.1676 31.2421 74.9963 31.3079 74.8119 31.3079Z" fill="black"/>
<path d="M58.7534 26.7712C57.8444 26.7712 56.9881 26.3505 56.1845 25.8376C55.8815 25.6404 55.7893 25.2328 55.9737 24.9304C56.1713 24.6279 56.5797 24.5359 56.8827 24.7331C58.2923 25.6273 59.03 25.6799 59.9522 24.983C60.242 24.7594 60.6504 24.8252 60.8743 25.1145C61.0983 25.4037 61.0324 25.8113 60.7426 26.0349C60.0444 26.5608 59.3725 26.7712 58.727 26.7712H58.7534Z" fill="black"/>
<path d="M60.1107 29.704C59.9526 29.704 59.7945 29.6514 59.6628 29.5331C58.9646 28.9019 58.3191 28.8362 57.0149 29.257C56.6724 29.3753 56.3035 29.1781 56.185 28.8362C56.0664 28.4943 56.264 28.1262 56.6065 28.0078C58.082 27.5213 59.3203 27.4424 60.5586 28.5601C60.8221 28.8099 60.8484 29.2175 60.5981 29.4937C60.4664 29.6383 60.2951 29.704 60.1107 29.704Z" fill="black"/>
<path d="M66.4992 38.0005C65.9459 38.0005 65.419 37.8427 64.9842 37.5535C64.6812 37.3562 64.6022 36.9486 64.7998 36.6462C64.9974 36.3438 65.4058 36.2649 65.7088 36.4621C65.9459 36.6199 66.2621 36.6988 66.5914 36.6856C66.8681 36.6856 67.013 36.4884 67.0657 36.3832C67.1579 36.2123 67.2238 35.923 67.0657 35.66C65.8273 33.4247 65.2609 30.7949 65.4453 28.2834C65.4717 27.9153 65.7747 27.6523 66.1567 27.6786C66.5255 27.7049 66.789 28.0204 66.7627 28.3886C66.5914 30.6634 67.1184 33.0171 68.2249 35.042C68.5675 35.66 68.5543 36.4226 68.2249 37.0406C67.8956 37.6192 67.316 37.9874 66.6573 38.0137C66.6046 38.0137 66.5651 38.0137 66.5124 38.0137L66.4992 38.0005Z" fill="black"/>
<path d="M68.6204 44.0496C68.5414 44.0496 68.4491 44.0364 68.3701 43.997C65.9857 43.0108 65.0372 43.2475 62.7581 43.8261L62.2443 43.9576C61.8887 44.0496 61.533 43.8392 61.4408 43.4842C61.3485 43.1292 61.5725 42.7741 61.915 42.6821L62.4156 42.5506C64.7737 41.9589 66.0647 41.6302 68.8575 42.7873C69.2 42.9319 69.3581 43.3133 69.2132 43.642C69.1078 43.8918 68.8575 44.0496 68.6072 44.0496H68.6204Z" fill="black"/>
<path d="M52.6139 93.1475C52.3109 93.1475 52.0343 92.9371 51.9684 92.6215C51.8235 91.9509 51.9157 91.2014 52.2582 90.3467C52.3636 90.0969 52.469 89.8339 52.5875 89.5841C52.7325 89.2554 52.8905 88.9267 52.9959 88.5716C53.1013 88.2298 53.4834 88.0325 53.8259 88.1377C54.1684 88.2429 54.366 88.6111 54.2606 88.9661C54.142 89.3606 53.9708 89.7287 53.7995 90.1101C53.6941 90.3336 53.5887 90.5703 53.4965 90.807C53.2594 91.425 53.1804 91.9246 53.2726 92.3322C53.3516 92.6873 53.1277 93.0423 52.772 93.108C52.7193 93.108 52.6798 93.1212 52.6271 93.1212L52.6139 93.1475Z" fill="#1F1C2C"/>
<path d="M67.5273 108.756C67.3824 108.756 67.2507 108.716 67.1321 108.624C65.7094 107.546 64.1681 106.626 62.5477 105.863C62.0998 105.653 61.9944 105.705 61.9944 105.705C61.9549 105.731 61.8627 105.889 61.81 105.981C61.2435 106.967 60.4794 107.743 59.5573 108.269C58.9908 108.598 58.5824 108.48 58.3453 108.322C58.095 108.151 57.9896 107.914 57.9369 107.743C57.8315 107.441 57.792 107.125 57.7525 106.849C57.713 106.534 57.6734 106.257 57.5549 106.06C57.5285 106.008 57.4231 105.968 57.3441 105.955C57.2387 106.231 56.9621 106.402 56.6591 106.389C56.3034 106.349 56.0267 106.034 56.0663 105.679C56.119 105.179 56.4615 104.798 56.9752 104.68C57.6339 104.535 58.3717 104.85 58.701 105.403C58.9513 105.823 59.0172 106.284 59.0699 106.678C59.083 106.783 59.0962 106.902 59.1226 107.007C59.7812 106.586 60.295 106.034 60.6507 105.403C60.822 105.1 61.0064 104.785 61.3489 104.574C62.0471 104.167 62.8375 104.522 63.1273 104.666C64.695 105.39 66.1968 106.271 67.58 107.296C68.3573 106.77 68.9764 106.284 69.3058 105.613C69.3453 105.534 69.3848 105.442 69.4243 105.35C69.5824 104.969 69.78 104.509 70.2279 104.206C71.0842 103.614 72.204 104.048 72.7441 104.772C72.9549 105.061 73.0998 105.376 73.192 105.692L76.077 103.325C76.3537 103.089 76.7752 103.128 76.9992 103.417C77.2363 103.693 77.1968 104.114 76.907 104.338L73.1657 107.415C72.9812 107.572 72.7309 107.612 72.507 107.52C72.283 107.428 72.1249 107.23 72.0986 106.994C72.0327 106.494 71.9537 105.929 71.6902 105.561C71.5058 105.311 71.1369 105.179 70.9657 105.284C70.8339 105.376 70.7417 105.613 70.6363 105.863C70.5968 105.968 70.5441 106.086 70.4914 106.179C69.9249 107.349 68.8052 108.072 67.9094 108.651C67.804 108.716 67.6722 108.756 67.5537 108.756H67.5273Z" fill="black"/>
</g>
<defs>
<clipPath id="clip0_11603_4685">
<rect width="99" height="136" fill="white"/>
</clipPath>
</defs>
</svg>
