<svg width="52" height="67" viewBox="0 0 52 67" fill="none" xmlns="http://www.w3.org/2000/svg">
<g clip-path="url(#clip0_19926_149945)">
<path d="M29.0579 16.434C25.5945 10.8568 21.9837 5.35405 18.2255 0C11.1514 1.93341 4.8878 6.76693 1.17878 13.1373C1.64548 15.963 1.44897 18.8879 0.589267 21.5897C0.294511 22.5316 -0.0984983 23.5231 0.024317 24.5146C0.147132 25.3326 0.589267 26.0762 1.05597 26.7703C3.19295 30.0918 5.32994 33.3885 7.46692 36.71C10.611 41.593 13.7796 46.4761 16.9237 51.3592C18.7414 54.185 20.5836 57.0107 22.4013 59.8365C24.1207 62.4887 26.012 65.3145 28.9596 66.4547C32.3002 67.7436 36.0092 66.529 39.3743 65.3145C43.5009 63.8272 47.603 62.34 51.7296 60.828C52.3928 60.357 51.6559 59.3407 51.0172 58.8202C46.0555 54.6807 46.4976 46.0548 41.2166 42.3119C37.6058 44.9145 34.0687 47.6411 30.6545 50.4917C26.7244 40.9982 19.4291 33.3885 14.1481 24.589L28.0508 16.9545C28.1982 16.8801 28.321 16.8058 28.3947 16.657C28.542 16.4092 28.3947 16.1117 28.2473 15.8639C26.0366 11.8979 23.8259 7.93193 21.6152 3.99075C20.5345 2.03256 18.6922 -0.247873 16.5798 0.470958" fill="#353180"/>
<path d="M21.7385 21.8127C21.3455 21.8127 20.977 21.6392 20.7314 21.317L12.0115 9.76608C10.8571 8.22927 9.65346 6.64289 8.81832 4.75905C8.52356 4.11458 8.81832 3.34618 9.45696 3.07352C10.0956 2.77607 10.8325 3.07352 11.1272 3.71799C11.8396 5.32916 12.9449 6.79161 14.0257 8.20448L22.721 19.7554C23.1386 20.3255 23.0403 21.1187 22.4754 21.54C22.2543 21.7135 21.9841 21.8127 21.7139 21.8127H21.7385Z" fill="white"/>
<path d="M46.719 64.4221C46.3014 64.4221 45.8838 64.199 45.6382 63.8024L38.1956 51.384C37.2131 49.7232 36.1814 48.0129 35.5428 46.0547C35.3217 45.3854 35.6902 44.6666 36.3534 44.4435C37.0166 44.2204 37.7289 44.5922 37.95 45.2615C38.4904 46.9222 39.4237 48.5086 40.3571 50.0454L47.7997 62.4639C48.1682 63.0588 47.9717 63.8519 47.3822 64.2238C47.1857 64.3477 46.94 64.3973 46.719 64.3973V64.4221Z" fill="white"/>
</g>
<defs>
<clipPath id="clip0_19926_149945">
<rect width="52" height="67" fill="white"/>
</clipPath>
</defs>
</svg>
