<svg width="52" height="67" viewBox="0 0 52 67" fill="none" xmlns="http://www.w3.org/2000/svg">
<path d="M25.9185 49.593C21.9044 46.9656 17.8291 44.1256 15.4655 40.1458C14.1614 37.924 13.4483 35.4511 12.7351 32.9976C12.3276 31.5872 11.9201 30.1383 12.0219 28.6507C12.1034 27.4142 12.5313 26.1971 12.9592 25.0186C14.0799 21.8889 15.221 18.7591 16.3824 15.6294C16.8715 14.3156 17.3605 12.9826 18.1552 11.7848C19.2147 10.2006 20.7429 8.94481 22.3119 7.78564C23.4326 6.97422 24.594 6.18212 25.9389 5.73777C27.2837 5.31274 28.8323 5.29342 30.0141 5.95028C31.9295 7.05149 32.2759 9.48575 33.7429 11.0699C34.4357 11.8041 35.3323 12.3257 36.1066 12.9633C38.4295 14.9338 39.3464 17.9477 39.7335 20.8649C39.8965 22.0048 39.978 23.1833 39.7335 24.3231C39.5094 25.3857 39 26.371 38.6943 27.4336C38.2868 28.8439 38.2664 30.2928 38.1849 31.7418C37.8589 37.0547 36.4733 42.5414 32.8871 46.811C31.7257 48.202 30.1771 49.5157 28.3025 49.7862C26.0407 50.0953 23.9624 48.8202 22.1489 47.6224" fill="#906A55"/>
<path d="M27.2634 35.8955C29.0565 35.7024 30.7274 35.0069 31.9092 33.8863C35.9233 29.8099 36.8606 23.6663 37.2274 18.7592C37.2477 18.4114 36.9625 18.1216 36.5957 18.1023C36.2086 18.1023 35.9029 18.3534 35.8622 18.7012C35.5158 23.3958 34.6396 29.269 30.9311 33.0363C29.2807 34.5818 26.4484 35.1034 23.9217 34.3307C21.5785 33.6158 20.0299 31.2782 18.6851 29.211C17.2995 27.0859 16.4844 24.7482 15.7101 22.3139C15.6082 21.9855 15.2211 21.8116 14.8747 21.9082C14.5079 22.0048 14.3042 22.3719 14.4061 22.7003C15.2007 25.2119 16.0361 27.6461 17.4829 29.8292C18.9907 32.1282 20.6615 34.6591 23.4735 35.5092C24.7164 35.8955 26.0205 35.9921 27.2634 35.8569V35.8955Z" fill="#2D2D2D"/>
<path d="M12.3683 39.8174C10.8401 37.4218 9.67868 34.833 8.88401 32.1283C7.09091 25.9847 7.37617 19.2035 10.2492 13.2918C13.1426 7.41864 18.6849 2.47285 25.4091 0.502257C26.7132 0.115867 28.0987 -0.154605 29.4436 0.0772285C31.1755 0.38634 34.9451 1.42959 36.2492 2.49216C40.3244 5.83444 42.1583 9.3699 44.3997 13.9679C46.152 17.5614 46.6003 21.6378 46.2947 25.6176C46.0094 29.5974 45.011 33.5193 44.0329 37.4218C43.8088 38.3105 43.5439 39.2765 42.7696 39.8754C41.4655 40.88 39.5094 40.339 37.9812 39.7208C36.2696 39.0446 34.4357 38.2525 33.7022 36.707C33.0909 35.4126 33.4169 33.9057 33.7633 32.4953C34.7821 28.245 35.4545 24.0527 36.4733 19.8024C35.6583 19.532 35.0674 18.8944 34.6802 18.1796C34.3135 17.4648 34.1301 16.692 33.9263 15.9192C33.1928 13.1758 32.4185 10.3745 31.0329 7.84366C30.5439 8.771 29.953 9.62106 29.2398 10.4132C27.6708 12.1712 25.6536 13.5043 23.6364 14.818C22.2508 15.726 20.8448 16.6534 19.4592 17.5614C18.3386 18.2955 16.9326 19.0683 15.71 18.5467C15.9545 20.2468 15.6897 21.9276 15.0376 23.5504C16.6473 26.429 18.094 29.5008 19.7038 32.3794C20.5596 33.9057 20.6207 36.6683 19.7649 38.2332C17.3197 39.6242 15.0987 38.9867 12.3683 39.8174Z" fill="#2D2D2D"/>
<path d="M26.4483 30.293C27.5282 30.1771 28.5674 29.8293 29.4436 29.2304C29.7492 29.0179 29.8307 28.6315 29.6066 28.3611C29.3824 28.0906 28.9545 28.0326 28.6489 28.2258C26.8965 29.4043 24.3495 29.3657 22.699 28.1679C22.4138 27.9553 21.9859 27.994 21.7414 28.2645C21.4968 28.5349 21.5376 28.9213 21.8229 29.1338C23.0862 30.0612 24.7978 30.4476 26.4279 30.2737L26.4483 30.293Z" fill="#2D2D2D"/>
<path d="M25.8777 25.5016C26.326 25.463 26.7539 25.3278 27.141 25.0959C27.467 24.9027 27.5689 24.5357 27.3651 24.2265C27.1614 23.9174 26.7539 23.8595 26.4278 24.0333C25.8573 24.3618 25.083 24.3425 24.5532 23.9947C24.3698 23.8788 24.2476 23.7242 24.268 23.6276C24.3902 23.2992 25.9592 21.1547 26.489 20.4592L26.8761 19.9376C27.0799 19.6478 26.9984 19.2614 26.6927 19.0876C26.3871 18.9137 25.9592 18.991 25.7554 19.2808L25.3683 19.8024C23.2899 22.6423 22.9435 23.2606 22.9231 23.6276C22.9028 24.1493 23.188 24.6516 23.7586 25.038C24.3698 25.4437 25.1441 25.6175 25.8981 25.5209L25.8777 25.5016Z" fill="#2D2D2D"/>
<path d="M32.826 17.7159C33.0298 17.6965 33.2335 17.5806 33.3354 17.4068C33.5392 17.117 33.4373 16.7306 33.1113 16.5567C31.6442 15.7646 29.8511 15.4941 28.1599 15.8032C27.7931 15.8805 27.5486 16.2089 27.6097 16.5374C27.6708 16.8658 28.0376 17.0783 28.4044 17.0204C29.7696 16.7692 31.2367 16.9817 32.3981 17.6193C32.5204 17.6965 32.6834 17.7159 32.826 17.6965V17.7159Z" fill="#2D2D2D"/>
<path d="M49.9624 66.9998C41.4655 65.4543 32.6426 66.0725 23.9216 66.4396C15.221 66.8067 7.33542 66.826 0 65.9952C0.163009 59.2914 -0.570533 50.5203 1.89498 44.1256C2.60815 43.5073 3.19906 42.9857 3.91223 42.3675C6.86677 41.4788 9.76019 40.3583 12.7759 39.6241C15.0784 39.0639 17.5235 39.0639 19.7445 38.2524C19.1129 39.3923 19.3574 40.7833 20.0094 41.8652C20.6614 42.9471 21.6803 43.8165 22.6787 44.6472C23.7382 45.5359 24.9608 46.4825 26.4075 46.3859C27.8542 46.2894 28.9749 45.2075 29.9326 44.2222C31.6849 42.4061 33.4373 40.5708 35.1897 38.7547C40.1614 40.3776 44.9702 42.4255 49.5345 44.8404C51.0219 45.6325 51.9389 47.0621 51.9796 48.6463C52.1223 55.0024 51.4498 60.8756 49.9624 67.0385V66.9998Z" fill="#00C872"/>
<path d="M14.1206 66.9805C14.4874 66.9419 14.7726 66.6328 14.7319 66.3044C14.5485 64.1792 14.4059 60.3926 14.2632 56.7412C14.1206 53.0705 13.978 49.2839 13.7946 47.1201C13.5908 44.7631 13.3667 42.097 12.0626 39.798C11.8996 39.4889 11.4717 39.3923 11.1457 39.5469C10.8197 39.7207 10.677 40.0878 10.8604 40.3969C12.0422 42.4641 12.2664 45.0143 12.4498 47.236C12.6331 49.3612 12.7758 53.1478 12.9184 56.7992C13.061 60.4699 13.2037 64.2565 13.3871 66.4203C13.4074 66.768 13.7538 67.0192 14.1206 66.9805Z" fill="#2D2D2D"/>
<path d="M11.3496 66.7296C11.7164 66.6909 12.0017 66.3818 11.9609 66.0534C11.7775 63.9282 11.6553 60.3348 11.5126 56.8573C11.3904 53.3605 11.2477 49.767 11.0644 47.6033C10.8606 45.2463 10.6365 42.5802 9.33238 40.2812C9.16938 39.9721 8.74148 39.8755 8.41546 40.03C8.08944 40.2039 7.9468 40.571 8.13019 40.8801C9.31201 42.9473 9.53615 45.4974 9.71953 47.7192C9.90292 49.8443 10.0252 53.4377 10.1678 56.9153C10.2901 60.4121 10.4327 64.0055 10.6161 66.1693C10.6365 66.517 10.9829 66.7682 11.3496 66.7296Z" fill="#2D2D2D"/>
<path d="M37.0031 54.4617C37.2883 54.423 37.5328 54.2298 37.6144 53.9594C37.8996 52.8195 38.0015 50.9841 38.1034 49.0522C38.2053 47.2555 38.2868 45.4008 38.5517 44.3576L39.5908 40.2232C39.6723 39.8948 39.4482 39.5663 39.0814 39.4891C38.7147 39.4118 38.3479 39.6436 38.2664 39.972L37.2272 44.1064C36.9419 45.2463 36.8401 47.0816 36.7382 49.0136C36.6363 50.8103 36.5548 52.6649 36.2899 53.7082C36.2084 54.0366 36.4325 54.3651 36.7993 54.4423C36.8808 54.4423 36.9419 54.4423 37.0234 54.4423L37.0031 54.4617Z" fill="#2D2D2D"/>
<path d="M39.6725 55.4663C39.9578 55.4277 40.2023 55.2345 40.2838 54.964C40.5691 53.8242 40.7321 52.0275 40.9154 50.2887C41.0785 48.5886 41.2415 46.8305 41.5064 45.7873L42.5455 41.6529C42.627 41.3245 42.4029 40.996 42.0361 40.9187C41.6694 40.8415 41.3026 41.0733 41.2211 41.4017L40.1819 45.5361C39.8966 46.6759 39.7336 48.4727 39.5502 50.2114C39.3872 51.9115 39.2242 53.6696 38.9593 54.7129C38.8778 55.0413 39.102 55.3697 39.4687 55.447C39.5502 55.447 39.6114 55.447 39.6929 55.447L39.6725 55.4663Z" fill="#2D2D2D"/>
<path d="M32.0314 58.5767C31.6035 56.1811 33.3763 53.8435 36.0252 53.3798C38.6333 52.9548 41.16 54.5003 41.6083 56.896C42.0361 59.2916 40.2634 61.6292 37.6145 62.0929C37.4923 62.1122 37.37 62.1315 37.2478 62.1508C34.7415 62.4213 32.4593 60.8758 32.0314 58.5961V58.5767ZM36.2493 54.5969C35.3324 54.7515 34.5173 55.2345 33.9876 55.9493C33.4374 56.6641 33.2336 57.4949 33.3763 58.3449C33.5189 59.1756 34.0283 59.9098 34.7822 60.3735C35.5362 60.8564 36.4735 61.011 37.3904 60.8564C39.2854 60.528 40.5691 58.8472 40.2634 57.1278C39.9578 55.4856 38.3073 54.3651 36.5142 54.5583C36.4327 54.5583 36.3512 54.5776 36.2493 54.5969Z" fill="#2D2D2D"/>
<path d="M30.2549 21.5097C30.8463 21.4365 31.2549 20.8625 31.1674 20.2277C31.08 19.5929 30.5297 19.1377 29.9383 19.2109C29.3469 19.2841 28.9383 19.8581 29.0257 20.4929C29.1132 21.1277 29.6635 21.583 30.2549 21.5097Z" fill="#2D2D2D"/>
<path d="M21.8931 20.6494C22.4845 20.5762 22.893 20.0022 22.8056 19.3674C22.7182 18.7326 22.1679 18.2773 21.5765 18.3506C20.985 18.4238 20.5765 18.9978 20.6639 19.6326C20.7514 20.2674 21.3017 20.7226 21.8931 20.6494Z" fill="#2D2D2D"/>
<path d="M25.0627 16.7885C25.3276 16.7692 25.5721 16.5953 25.6536 16.3442C25.7555 16.0158 25.5721 15.668 25.2053 15.5714C24.0439 15.2623 23.4937 15.2237 22.2915 15.2043C21.9248 15.2043 21.5987 15.4748 21.5784 15.8226C21.5784 16.1703 21.8433 16.4601 22.2304 16.4601C23.4122 16.4794 23.8197 16.5181 24.7978 16.7692C24.8793 16.7885 24.9812 16.7885 25.0627 16.7885Z" fill="#2D2D2D"/>
</svg>
