<svg width="20" height="20" viewBox="0 0 20 20" fill="none" xmlns="http://www.w3.org/2000/svg">
<circle cx="10" cy="10" r="10" fill="#00C872"/>
<path d="M14.2417 10.6872L12.2023 9.6676C12.1421 9.63764 12.075 9.62411 12.0078 9.62836C11.9407 9.63261 11.8759 9.6545 11.8199 9.69181L10.8206 10.3577C10.3147 10.0988 9.9031 9.68723 9.64412 9.18137L10.3107 8.18279C10.3481 8.12682 10.37 8.062 10.3742 7.99487C10.3785 7.92774 10.3649 7.86067 10.335 7.80044L9.31527 5.76123C9.28356 5.69743 9.23466 5.64375 9.17408 5.60626C9.11349 5.56876 9.04364 5.54894 8.97239 5.54902C8.3301 5.54902 7.71411 5.80415 7.25993 6.25828C6.80576 6.71241 6.55061 7.32835 6.55061 7.97059C6.5523 9.42356 7.13029 10.8165 8.15778 11.8439C9.18528 12.8714 10.5784 13.4493 12.0315 13.451C12.6738 13.451 13.2898 13.1959 13.7439 12.7417C14.1981 12.2876 14.4533 11.6717 14.4533 11.0294C14.4533 10.9583 14.4335 10.8887 14.3961 10.8282C14.3588 10.7678 14.3053 10.7189 14.2417 10.6872ZM12.0315 12.6863C10.7812 12.6848 9.58249 12.1874 8.69837 11.3034C7.81426 10.4194 7.3169 9.2208 7.31538 7.97059C7.31542 7.57071 7.46009 7.18433 7.72269 6.88275C7.9853 6.58116 8.34813 6.38472 8.74424 6.32966L9.55107 7.94319L8.88891 8.93603C8.85411 8.98839 8.83277 9.04853 8.82677 9.11111C8.82077 9.17369 8.83029 9.23678 8.85449 9.2948C9.20611 10.1307 9.87116 10.7957 10.7072 11.1473C10.7652 11.1715 10.8283 11.181 10.8909 11.175C10.9535 11.169 11.0136 11.1477 11.066 11.1129L12.0589 10.4508L13.6726 11.2575C13.6175 11.6536 13.421 12.0164 13.1194 12.279C12.8178 12.5416 12.4314 12.6862 12.0315 12.6863ZM10.5019 3C9.37504 2.99976 8.26743 3.29245 7.28778 3.84936C6.30813 4.40626 5.49009 5.20824 4.91392 6.17663C4.33775 7.14501 4.02324 8.24653 4.00124 9.37312C3.97924 10.4997 4.25051 11.6127 4.78844 12.6028L4.04789 14.8249C3.99546 14.9821 3.98785 15.1508 4.02592 15.3121C4.06398 15.4733 4.14621 15.6208 4.26339 15.738C4.38057 15.8552 4.52808 15.9374 4.68937 15.9755C4.85066 16.0135 5.01936 16.0059 5.17657 15.9535L7.39887 15.213C8.26879 15.685 9.23502 15.9522 10.2239 15.9942C11.2128 16.0361 12.1981 15.8517 13.1049 15.455C14.0117 15.0584 14.8159 14.4599 15.4563 13.7053C16.0966 12.9506 16.5561 12.0597 16.7998 11.1005C17.0436 10.1413 17.065 9.13915 16.8625 8.1704C16.6601 7.20166 16.2391 6.29193 15.6316 5.51059C15.0241 4.72925 14.2463 4.09693 13.3573 3.66184C12.4683 3.22675 11.4917 3.00038 10.5019 3ZM10.5019 15.2353C9.49367 15.2355 8.50315 14.97 7.63022 14.4655C7.57202 14.432 7.50614 14.4143 7.43902 14.4139C7.39788 14.4141 7.35702 14.4208 7.31793 14.4336L4.93503 15.2276C4.91257 15.2351 4.88847 15.2362 4.86543 15.2308C4.84238 15.2253 4.82131 15.2136 4.80457 15.1969C4.78783 15.1801 4.77608 15.1591 4.77065 15.136C4.76521 15.113 4.7663 15.0889 4.77379 15.0664L5.56788 12.6863C5.58506 12.6348 5.5911 12.5803 5.58561 12.5264C5.58011 12.4725 5.56321 12.4203 5.53601 12.3734C4.90332 11.2806 4.64901 10.0095 4.81253 8.75738C4.97605 7.50527 5.54825 6.34212 6.44037 5.44839C7.33249 4.55465 8.49466 3.98029 9.74656 3.81441C10.9985 3.64853 12.2701 3.90041 13.3643 4.53096C14.4584 5.16152 15.3138 6.1355 15.7978 7.30181C16.2818 8.46812 16.3674 9.76155 16.0412 10.9814C15.715 12.2013 14.9953 13.2795 13.9938 14.0486C12.9922 14.8177 11.7648 15.2349 10.5019 15.2353Z" fill="white"/>
</svg>
