<svg width="64" height="64" viewBox="0 0 64 64" fill="none" xmlns="http://www.w3.org/2000/svg">
<g clip-path="url(#clip0_11912_35202)">
<rect width="64" height="64" rx="32" fill="#00A05B"/>
<path d="M27.8476 25.5614C28.0916 25.568 28.3623 25.5814 28.6196 26.152C28.7903 26.532 29.077 27.232 29.3116 27.8027C29.4943 28.2467 29.6436 28.612 29.681 28.6867C29.7663 28.8574 29.8196 29.0534 29.7076 29.284L29.6703 29.3614C29.5939 29.5405 29.4905 29.7069 29.3636 29.8547C29.2992 29.9295 29.2356 30.005 29.173 30.0814C29.0596 30.22 28.9463 30.356 28.8503 30.452C28.6783 30.6227 28.501 30.8067 28.6983 31.148C28.897 31.4894 29.589 32.612 30.6116 33.5174C31.3602 34.1913 32.2183 34.7324 33.149 35.1174C33.2423 35.1574 33.3183 35.1907 33.3756 35.2187C33.7183 35.3894 33.9223 35.3627 34.1196 35.1334C34.3183 34.9027 34.977 34.1347 35.209 33.7934C35.433 33.452 35.6623 33.5054 35.9796 33.6227C36.297 33.7414 37.985 34.5694 38.3276 34.7387L38.5183 34.832C38.757 34.9454 38.9183 35.024 38.9876 35.1387C39.073 35.284 39.073 35.9654 38.7903 36.768C38.4996 37.568 37.101 38.336 36.4676 38.3947L36.2876 38.416C35.7063 38.4854 34.9703 38.576 32.3463 37.5427C29.1116 36.2707 26.977 33.116 26.5463 32.4774C26.5233 32.4432 26.4998 32.4094 26.4756 32.376L26.4676 32.3654C26.2716 32.1027 25.0703 30.496 25.0703 28.8374C25.0703 27.2507 25.853 26.424 26.209 26.048L26.2716 25.9814C26.3869 25.8512 26.5277 25.7461 26.6853 25.6727C26.8428 25.5993 27.0139 25.5591 27.1876 25.5547C27.4183 25.5547 27.6503 25.5547 27.8476 25.5614Z" fill="white"/>
<path fill-rule="evenodd" clip-rule="evenodd" d="M18.9107 44.4427C18.8856 44.5331 18.8847 44.6285 18.9083 44.7193C18.9318 44.8101 18.9789 44.8931 19.0447 44.96C19.1106 45.0268 19.1929 45.075 19.2834 45.0998C19.3739 45.1247 19.4693 45.1252 19.56 45.1014L25.7027 43.496C27.6516 44.5517 29.8329 45.1048 32.0493 45.1054H32.0547C39.3693 45.1054 45.332 39.1774 45.332 31.8894C45.3367 30.1514 44.9955 28.4299 44.3285 26.825C43.6615 25.2202 42.6818 23.764 41.4467 22.5414C40.2139 21.3084 38.7494 20.3314 37.1375 19.6667C35.5257 19.0019 33.7982 18.6625 32.0547 18.668C24.74 18.668 18.7773 24.596 18.7773 31.8827C18.7773 34.2014 19.388 36.4787 20.5507 38.488L18.9107 44.4427ZM22.48 39.0187C22.5505 38.7628 22.5694 38.4954 22.5355 38.2322C22.5016 37.9689 22.4157 37.7151 22.2827 37.4854C21.2962 35.783 20.7769 33.8502 20.7773 31.8827C20.7773 25.7094 25.8347 20.668 32.0547 20.668C35.0813 20.668 37.9053 21.8374 40.036 23.9587C41.0845 24.9956 41.9159 26.2308 42.4818 27.5925C43.0477 28.9541 43.3367 30.4148 43.332 31.8894C43.332 38.0627 38.2747 43.1054 32.0547 43.1054H32.048C30.1649 43.1044 28.3118 42.6342 26.656 41.7374C26.2097 41.4958 25.6883 41.4328 25.1973 41.5614L21.5147 42.5227L22.48 39.0187Z" fill="white"/>
</g>
<defs>
<clipPath id="clip0_11912_35202">
<rect width="64" height="64" rx="32" fill="white"/>
</clipPath>
</defs>
</svg>
